M48
;Layer_Color=9474304
;FILE_FORMAT=2:5
INCH,LZ
;TYPE=PLATED
T1F00S00C0.01181
T2F00S00C0.03150
T4F00S00C0.04016
T5F00S00C0.04331
T6F00S00C0.10630
;TYPE=NON_PLATED
T7F00S00C0.03937
T8F00S00C0.10630
%
T01
X0214Y01245
X0207Y01415
X01995Y01565
X0184Y01525
X0165401Y0154547
X0155255Y0146547
Y0141547
X0147401Y0132692
X0141401Y0126692
X01315Y0126146
X012Y0129
X0117Y0125
X0114
X0111
Y0122
X0114
X0117
X0113401Y0132692
X0107261Y0128406
X0104401Y0129547
X0095401Y0149547
X0106547Y0160547
X01105Y0171547
X0113987Y0172559
X0115Y0183
X01195Y018475
X0123605Y0186895
X012552Y019002
X0122961Y0192539
X0126Y01805
X01295
X0133
X0127401Y0173401
X0129401Y0159678
Y0155635
Y0150547
X0124233
X0120437
Y0155635
X0124233
Y0159678
X0134745
Y0155635
X0138507
Y0150547
X0134745
Y0145193
X0138507
X0134745Y0141396
X0129401
Y0145193
X0124233
Y0141396
X0120437Y0145193
X0147968Y0155468
X0147Y018
X015
X0153
Y0183
X015
X0147
X0152Y0191
X0155
X0158
X0161
X0164
X0167
X017366Y01885
X01765Y0194
X01795Y02035
X0186Y0203
X0191
X0195Y02075
X0203Y0198
X0206
X02095Y0196
X02115Y0189
X01995
X0178687Y0179664
X0167813
X016Y018
X01465Y0197701
X0128Y0212
X0128417Y0114811
X0145Y0114
Y011
X0149
Y0114
Y0118
X0145
X0157126Y0110226
X0163031
X0166969
X0165Y0104837
X0170905Y0104774
X0168937Y0096874
X0165
X0161063
X0157126
X0159095Y0094595
X0166969
X0159095Y0104774
X0163063Y0126126
X0167
X0170937
X0168968Y0128405
X0165032
X0161094
X01768Y00696
Y00671
X01798
Y00696
Y00721
X01828
Y00696
Y00671
X01858
Y00696
Y00721
X0189Y0076
X0192
Y0079
X0189
X0192Y0062
X0085Y0085
X00443Y00953
X0044Y01124
Y0116
Y01196
Y01232
X00404
Y01196
Y0116
Y01124
X00368
Y0116
Y01196
Y01232
X00332Y01196
Y0116
Y01124
X0036Y0150154
X00425Y0237458
X00512Y0296
Y02996
X00476
Y03032
X00512
Y03068
X00548
Y03032
Y02996
X00476Y03068
X0044
Y03104
Y0314
Y03176
X00404
Y03212
X0044
Y03248
Y03284
X00476
X00512
Y0332
X00548
Y03356
Y03392
Y03428
X00512
Y03392
Y03356
X00476Y0332
X0044
X00404
Y03284
Y03248
X00476
X00548Y03284
Y03464
X00512
X00476
Y03104
X00404
Y03068
Y0314
X0044Y03032
X00584
Y02996
X0062
X00656
X00692
Y03032
X00656
Y03068
Y03104
Y0314
Y03176
Y03212
Y03248
Y03284
X0062
Y0332
X00656
Y03356
X0062
Y03392
X00584
Y03428
Y03464
X0062
Y03428
X00656
Y03464
Y03392
X00584Y03356
Y0332
Y03284
X0062Y03248
Y03068
X00584
X0062Y03032
X00728
Y02996
X00764
X008
Y03032
X00836
X00872
X00908
Y02996
X00944
X0098
Y03032
X01016
Y02996
X01052
Y03032
Y03068
X01088
X01124
Y03104
Y0314
X0116
X01196
Y03176
X01232
Y0314
X01268
Y03104
X01304
X0134
X01376
Y0314
X01412
Y03176
X01376
X0134
X01304
X01268
X01304Y0314
X0134
Y03068
Y03032
X01376
Y02996
X01412
Y03032
Y03068
Y03104
X01448Y0314
Y03176
X01376Y03068
X01304
Y03032
X01268
Y03068
X01232
Y03104
X01196
X0116
Y03068
Y03032
X01196
X01232
X01196Y03068
X01124Y03032
X01088
Y02996
X01124
Y0296
Y02924
Y02888
X01088
Y02852
X01124
Y02816
X0116
X01196
X01232
X01268
X01304
X0134
Y02852
Y02888
Y02924
Y0296
X01304
Y02924
Y02888
Y02852
X01376
X01412
Y02816
X01448
Y02852
X01412Y02888
X01376
Y02924
Y0296
X01412
X01448
X01412Y02924
X0134Y02996
X01304
X01088Y0296
Y02924
X01052
Y0296
X01088Y03104
X0116Y03176
X00944Y03032
X00872Y02996
X00836
X00764Y03032
X01376Y02816
X01592Y0278
Y02744
X01628
X01664
Y02718
Y02682
X017
Y02718
Y02744
Y0278
X01664
Y02816
X017
X01628Y0278
X01605Y0255
X01486
Y02524
Y02498
X0145
Y02524
Y0255
X0149Y02435
X0153Y02255
X01375Y02265
X0138Y0213
X0127Y02145
X012552Y023198
X0174Y0235
X01903Y02388
Y02462
X02Y023
X0203
Y0227
X0206
X0209
Y023
X0212
Y0227
X0210232Y02335
X0206Y023
X01975Y02225
X0198Y03015
Y0304
Y03065
Y0309
Y03115
X0195
Y0309
Y03065
Y0304
Y03015
X0192
Y0304
Y03065
Y0309
Y03115
X0189
Y0309
Y03065
Y0304
Y03015
X0186
Y0304
Y03065
Y0309
Y03115
X0183
Y0309
Y03065
Y0304
Y03015
X018
Y0304
Y03065
Y0309
Y03115
X0177
Y0309
Y03065
Y0304
Y03015
X0174
Y0304
Y03065
Y0309
Y03115
X0171
Y0309
Y03065
Y0304
Y03015
X0168
Y0304
Y03065
Y0309
Y03115
X01665Y0322
X0168Y03325
X0171
X0174
Y0335
Y03375
Y034
Y03425
Y0345
Y03475
Y035
X0171
Y03475
X0168
Y035
X0165
Y03475
X0162
Y035
X0159
Y03475
Y034
X0162
X0165
X0168
X0171
X0177
Y03375
Y0335
Y03325
Y03425
Y0345
Y03475
Y035
X0165Y03325
X0162
X0159
X0206Y03445
X0209Y03205
Y0318
Y03155
X0212
Y0318
Y03205
X0207Y03115
Y0309
Y03065
Y0304
Y03015
X021
Y0304
X0204
Y03065
Y0309
Y03115
X0201
Y0309
Y03065
Y0304
Y03015
X0204
X0213
Y0304
X0216
Y03015
X0219
Y0304
X0222
Y03015
X0225
Y0304
X0224Y03155
Y0318
Y03205
Y0323
Y03255
Y0328
X0227
Y03255
Y0323
Y03205
Y0318
Y03155
X0221
Y0318
Y03205
Y0323
Y03255
Y0328
X0218
Y03255
Y0323
Y03205
Y0318
Y03155
X0215
Y0318
Y03205
Y0323
X0244Y031
X02175Y0235
T02
X0025Y0052974
X0231
Y0060848
Y0068722
Y0076596
Y008447
Y0108932
Y0116806
Y012468
Y0132554
Y0140428
Y016489
Y0172764
Y0180638
Y0188512
Y0196386
X0135Y0105
X01265Y011
X01135Y01145
X010575Y011925
X0025Y0116806
Y0108932
Y012468
Y0132554
Y0140428
Y016489
Y0172764
Y0180638
Y0188513
Y0196387
Y008447
Y0076596
Y0068722
Y0060848
Y0220848
Y0228722
Y0236596
Y024447
Y0252344
Y0273126
Y0281
Y0302563
Y0310437
X0231Y0285
Y0277126
Y0252344
Y024447
Y0236596
Y0228722
Y0220848
T04
X0032953Y00215
X0042953
X0052953
Y00315
X0042953
X0032953
X0046Y0052974
X0056
X0066
X0076
X0086
X0096
X0106
X0116
X0112953Y00315
X0122953
X0132953
X0142953
X0152953
X0162953
X0172953
X0182953
X0192953
X0202953
Y00215
X0192953
X0182953
X0172953
X0162953
X0152953
X0142953
X0132953
X0122953
X0112953
X0102953
Y00315
X0092953
Y00215
X0082953
Y00315
X0072953
Y00215
X0062953
Y00315
X0212953
X0222953
Y00215
X0212953
X0116Y0102974
X0106
X0096
X0086
X0076
X0066
X0056
X0046
T05
X00615Y01245
X00715
X00815
X00915
T06
X0055827Y0317
X0084173
T07
X0200614Y03465
X0227386
T08
X001378Y0338
X0242126
M30
