G04*
G04 #@! TF.GenerationSoftware,Altium Limited,Altium Designer,21.0.9 (235)*
G04*
G04 Layer_Color=32896*
%FSLAX44Y44*%
%MOMM*%
G71*
G04*
G04 #@! TF.SameCoordinates,58F94E15-CAE4-4791-8A53-09B8A48F05B3*
G04*
G04*
G04 #@! TF.FilePolarity,Positive*
G04*
G01*
G75*
%ADD10C,0.2000*%
%ADD11C,0.1524*%
%ADD13C,0.1270*%
%ADD14C,0.2032*%
D10*
X404820Y806310D02*
G03*
X404820Y806310I-1000J0D01*
G01*
X62950Y54610D02*
G03*
X62950Y54610I-1000J0D01*
G01*
X68450Y42560D02*
X581550D01*
X68450Y92060D02*
X581550D01*
X68450Y42560D02*
Y92060D01*
X581550Y42560D02*
Y92060D01*
D11*
X120904Y235712D02*
X122936D01*
X120904Y221488D02*
X122936D01*
X163322Y216343D02*
X165354D01*
X163322Y230567D02*
X165354D01*
D13*
X443230Y795020D02*
X502920D01*
X443230D02*
Y863600D01*
X502920D01*
D14*
X179324Y239776D02*
Y247393D01*
X175515D01*
X174246Y246124D01*
Y243585D01*
X175515Y242315D01*
X179324D01*
X176785D02*
X174246Y239776D01*
X166628D02*
X171707D01*
X166628Y244854D01*
Y246124D01*
X167898Y247393D01*
X170437D01*
X171707Y246124D01*
X159011Y239776D02*
X164089D01*
X159011Y244854D01*
Y246124D01*
X160280Y247393D01*
X162819D01*
X164089Y246124D01*
X136906Y245110D02*
Y252728D01*
X133097D01*
X131828Y251458D01*
Y248919D01*
X133097Y247649D01*
X136906D01*
X134367D02*
X131828Y245110D01*
X124210D02*
X129289D01*
X124210Y250188D01*
Y251458D01*
X125480Y252728D01*
X128019D01*
X129289Y251458D01*
X121671Y245110D02*
X119132D01*
X120401D01*
Y252728D01*
X121671Y251458D01*
X537210Y863601D02*
Y868679D01*
X538479Y869949D01*
X541018D01*
X542288Y868679D01*
Y863601D01*
X541018Y862331D01*
X538479D01*
X539749Y864870D02*
X537210Y862331D01*
X538479D02*
X537210Y863601D01*
X529592Y862331D02*
X534670D01*
X529592Y867410D01*
Y868679D01*
X530862Y869949D01*
X533401D01*
X534670Y868679D01*
X577090Y109472D02*
X579629D01*
X578359D01*
Y103124D01*
X579629Y101854D01*
X580898D01*
X582168Y103124D01*
X574551Y108202D02*
X573281Y109472D01*
X570742D01*
X569472Y108202D01*
Y106932D01*
X570742Y105663D01*
X572011D01*
X570742D01*
X569472Y104393D01*
Y103124D01*
X570742Y101854D01*
X573281D01*
X574551Y103124D01*
M02*
