G04*
G04 #@! TF.GenerationSoftware,Altium Limited,Altium Designer,21.0.9 (235)*
G04*
G04 Layer_Physical_Order=1*
G04 Layer_Color=255*
%FSLAX44Y44*%
%MOMM*%
G71*
G04*
G04 #@! TF.SameCoordinates,58F94E15-CAE4-4791-8A53-09B8A48F05B3*
G04*
G04*
G04 #@! TF.FilePolarity,Positive*
G04*
G01*
G75*
%ADD12C,0.2540*%
%ADD13C,0.1270*%
%ADD16R,0.8000X0.6000*%
%ADD17R,1.3970X1.0160*%
%ADD18R,0.6000X0.8000*%
G04:AMPARAMS|DCode=19|XSize=1.97mm|YSize=0.6mm|CornerRadius=0.075mm|HoleSize=0mm|Usage=FLASHONLY|Rotation=0.000|XOffset=0mm|YOffset=0mm|HoleType=Round|Shape=RoundedRectangle|*
%AMROUNDEDRECTD19*
21,1,1.9700,0.4500,0,0,0.0*
21,1,1.8200,0.6000,0,0,0.0*
1,1,0.1500,0.9100,-0.2250*
1,1,0.1500,-0.9100,-0.2250*
1,1,0.1500,-0.9100,0.2250*
1,1,0.1500,0.9100,0.2250*
%
%ADD19ROUNDEDRECTD19*%
%ADD20R,1.4500X1.1000*%
%ADD21R,1.4224X0.5588*%
%ADD22R,0.2540X0.7112*%
G04:AMPARAMS|DCode=23|XSize=1mm|YSize=0.35mm|CornerRadius=0.0438mm|HoleSize=0mm|Usage=FLASHONLY|Rotation=270.000|XOffset=0mm|YOffset=0mm|HoleType=Round|Shape=RoundedRectangle|*
%AMROUNDEDRECTD23*
21,1,1.0000,0.2625,0,0,270.0*
21,1,0.9125,0.3500,0,0,270.0*
1,1,0.0875,-0.1313,-0.4563*
1,1,0.0875,-0.1313,0.4563*
1,1,0.0875,0.1313,0.4563*
1,1,0.0875,0.1313,-0.4563*
%
%ADD23ROUNDEDRECTD23*%
G04:AMPARAMS|DCode=24|XSize=1mm|YSize=0.35mm|CornerRadius=0.0438mm|HoleSize=0mm|Usage=FLASHONLY|Rotation=180.000|XOffset=0mm|YOffset=0mm|HoleType=Round|Shape=RoundedRectangle|*
%AMROUNDEDRECTD24*
21,1,1.0000,0.2625,0,0,180.0*
21,1,0.9125,0.3500,0,0,180.0*
1,1,0.0875,-0.4563,0.1313*
1,1,0.0875,0.4563,0.1313*
1,1,0.0875,0.4563,-0.1313*
1,1,0.0875,-0.4563,-0.1313*
%
%ADD24ROUNDEDRECTD24*%
%ADD25R,1.2192X0.7620*%
%ADD26R,1.0160X1.3970*%
G04:AMPARAMS|DCode=27|XSize=1.57mm|YSize=0.41mm|CornerRadius=0.0513mm|HoleSize=0mm|Usage=FLASHONLY|Rotation=270.000|XOffset=0mm|YOffset=0mm|HoleType=Round|Shape=RoundedRectangle|*
%AMROUNDEDRECTD27*
21,1,1.5700,0.3075,0,0,270.0*
21,1,1.4675,0.4100,0,0,270.0*
1,1,0.1025,-0.1538,-0.7338*
1,1,0.1025,-0.1538,0.7338*
1,1,0.1025,0.1538,0.7338*
1,1,0.1025,0.1538,-0.7338*
%
%ADD27ROUNDEDRECTD27*%
%ADD28R,3.8000X2.0300*%
%ADD29R,2.0300X3.8000*%
%ADD30R,0.2286X0.7112*%
%ADD31R,1.2000X2.5000*%
%ADD32R,1.5792X1.7994*%
%ADD33R,2.7400X0.9800*%
%ADD34R,1.0500X1.7200*%
%ADD35R,4.1000X3.5000*%
%ADD36R,1.7000X1.1500*%
%ADD37R,1.1000X1.4500*%
%ADD71R,5.4000X5.4000*%
%ADD72R,6.4000X6.1383*%
%ADD73C,0.1778*%
%ADD74C,0.7620*%
%ADD75C,0.6350*%
G04:AMPARAMS|DCode=76|XSize=3mm|YSize=1.6mm|CornerRadius=0.8mm|HoleSize=0mm|Usage=FLASHONLY|Rotation=90.000|XOffset=0mm|YOffset=0mm|HoleType=Round|Shape=RoundedRectangle|*
%AMROUNDEDRECTD76*
21,1,3.0000,0.0000,0,0,90.0*
21,1,1.4000,1.6000,0,0,90.0*
1,1,1.6000,0.0000,0.7000*
1,1,1.6000,0.0000,-0.7000*
1,1,1.6000,0.0000,-0.7000*
1,1,1.6000,0.0000,0.7000*
%
%ADD76ROUNDEDRECTD76*%
%ADD77C,4.0000*%
%ADD78C,1.5300*%
%ADD79R,1.5300X1.5300*%
%ADD80C,1.1810*%
%ADD81R,1.4500X1.4500*%
%ADD82C,1.4500*%
%ADD83R,1.3080X1.3080*%
%ADD84C,1.3080*%
%ADD85C,1.0000*%
%ADD86C,1.5240*%
%ADD87C,1.3700*%
%ADD88R,1.3700X1.3700*%
%ADD89C,0.4572*%
%ADD90C,0.5000*%
G36*
X454660Y836930D02*
X398780D01*
X398780Y892008D01*
X454660D01*
X454660Y836930D01*
D02*
G37*
G36*
X396240Y812800D02*
X289560D01*
X289560Y892008D01*
X396240D01*
X396240Y812800D01*
D02*
G37*
G36*
X641578Y873579D02*
X639776Y876521D01*
X636655Y880175D01*
X633001Y883296D01*
X628903Y885807D01*
X624463Y887645D01*
X619791Y888767D01*
X615000Y889144D01*
X610209Y888767D01*
X605536Y887645D01*
X601097Y885807D01*
X596999Y883296D01*
X593345Y880175D01*
X590224Y876521D01*
X587714Y872423D01*
X585874Y867983D01*
X584753Y863311D01*
X584376Y858520D01*
X584753Y853729D01*
X585874Y849056D01*
X587714Y844617D01*
X590224Y840519D01*
X593345Y836865D01*
X596999Y833744D01*
X601097Y831234D01*
X605536Y829395D01*
X610209Y828273D01*
X615000Y827896D01*
X619791Y828273D01*
X624463Y829395D01*
X628903Y831234D01*
X633001Y833744D01*
X636655Y836865D01*
X639776Y840519D01*
X641578Y843460D01*
Y8422D01*
X8422D01*
Y843460D01*
X10224Y840519D01*
X13345Y836865D01*
X16999Y833744D01*
X21097Y831234D01*
X25537Y829395D01*
X30209Y828273D01*
X35000Y827896D01*
X39791Y828273D01*
X44464Y829395D01*
X48903Y831234D01*
X53001Y833744D01*
X56655Y836865D01*
X59776Y840519D01*
X62287Y844617D01*
X64126Y849056D01*
X65247Y853729D01*
X65624Y858520D01*
X65247Y863311D01*
X64126Y867983D01*
X62287Y872423D01*
X59776Y876521D01*
X56655Y880175D01*
X53001Y883296D01*
X48903Y885807D01*
X44464Y887645D01*
X39791Y888767D01*
X35000Y889144D01*
X30209Y888767D01*
X25537Y887645D01*
X21097Y885807D01*
X16999Y883296D01*
X13345Y880175D01*
X10224Y876521D01*
X8422Y873579D01*
Y892008D01*
X92034D01*
X91941Y891540D01*
Y775970D01*
X92096Y775190D01*
X92538Y774528D01*
X130312Y736754D01*
X130553Y736593D01*
X130775Y736407D01*
X130881Y736374D01*
X130973Y736312D01*
X131258Y736256D01*
X131534Y736169D01*
X132581Y736056D01*
X132581Y656089D01*
D01*
X107950D01*
X107170Y655934D01*
X106508Y655492D01*
X106066Y654830D01*
X105911Y654050D01*
Y607429D01*
X106001Y606975D01*
X105522Y606776D01*
X104317Y605571D01*
X103664Y603995D01*
Y602290D01*
X104317Y600715D01*
X105522Y599509D01*
X106001Y599311D01*
X105911Y598857D01*
Y377045D01*
X99482Y383473D01*
X98527Y384112D01*
X97399Y384336D01*
X94556D01*
X93868Y385024D01*
X92293Y385676D01*
X90587D01*
X89012Y385024D01*
X87807Y383818D01*
X87154Y382243D01*
Y380538D01*
X87807Y378963D01*
X89012Y377757D01*
X90587Y377105D01*
X92293D01*
X93868Y377757D01*
X94556Y378445D01*
X96179D01*
X102464Y372160D01*
Y342850D01*
X101081Y341467D01*
X100425D01*
Y345601D01*
X82455D01*
Y331441D01*
X88494D01*
Y328533D01*
X79596Y319634D01*
X71552D01*
X71458Y319984D01*
X70334Y321932D01*
X68744Y323522D01*
X66796Y324646D01*
X64624Y325228D01*
X62376D01*
X60204Y324646D01*
X58256Y323522D01*
X56666Y321932D01*
X55542Y319984D01*
X54960Y317812D01*
Y315564D01*
X55542Y313392D01*
X56666Y311444D01*
X58256Y309855D01*
X60204Y308730D01*
X62376Y308148D01*
X64624D01*
X66796Y308730D01*
X68744Y309855D01*
X70334Y311444D01*
X71458Y313392D01*
X71552Y313743D01*
X71621D01*
X71621Y299634D01*
X71552D01*
X71458Y299984D01*
X70334Y301932D01*
X68744Y303522D01*
X66796Y304646D01*
X64624Y305228D01*
X62376D01*
X60204Y304646D01*
X58256Y303522D01*
X56666Y301932D01*
X55542Y299984D01*
X54960Y297812D01*
Y295564D01*
X55542Y293392D01*
X56666Y291444D01*
X58256Y289855D01*
X60204Y288730D01*
X62376Y288148D01*
X64624D01*
X66796Y288730D01*
X68744Y289855D01*
X70334Y291444D01*
X71458Y293392D01*
X71552Y293743D01*
X71662D01*
X71984Y293420D01*
Y278020D01*
X71458Y279984D01*
X70334Y281932D01*
X68744Y283522D01*
X66796Y284646D01*
X64624Y285228D01*
X62376D01*
X60204Y284646D01*
X58256Y283522D01*
X56666Y281932D01*
X55542Y279984D01*
X54960Y277812D01*
Y275564D01*
X55542Y273392D01*
X56666Y271444D01*
X58256Y269855D01*
X60204Y268730D01*
X62376Y268148D01*
X64624D01*
X66796Y268730D01*
X68744Y269855D01*
X70334Y271444D01*
X71458Y273392D01*
X71984Y275357D01*
Y267970D01*
X72209Y266843D01*
X72847Y265887D01*
X78689Y260045D01*
X79645Y259407D01*
X80772Y259182D01*
X82455D01*
Y255048D01*
X100425D01*
Y269208D01*
X94386D01*
Y269290D01*
X99010Y273914D01*
X302310D01*
X324307Y251917D01*
X325263Y251279D01*
X326390Y251054D01*
X379730D01*
X380857Y251279D01*
X381813Y251917D01*
X387300Y257404D01*
X395830D01*
Y248851D01*
X395466Y248488D01*
X394814Y246912D01*
Y245207D01*
X395466Y243632D01*
X396672Y242426D01*
X398247Y241774D01*
X399953D01*
X400111Y241840D01*
X399814Y241123D01*
Y239417D01*
X400466Y237842D01*
X401672Y236637D01*
X403247Y235984D01*
X404953D01*
X406528Y236637D01*
X407733Y237842D01*
X408386Y239417D01*
Y241123D01*
X408089Y241840D01*
X408247Y241774D01*
X409953D01*
X411528Y242426D01*
X412733Y243632D01*
X413386Y245207D01*
Y246912D01*
X413172Y247428D01*
X415028D01*
X414814Y246912D01*
Y245207D01*
X415466Y243632D01*
X416672Y242426D01*
X418247Y241774D01*
X419953D01*
X420111Y241840D01*
X419814Y241123D01*
Y239417D01*
X420466Y237842D01*
X421672Y236637D01*
X423247Y235984D01*
X424953D01*
X426528Y236637D01*
X427733Y237842D01*
X428386Y239417D01*
Y241123D01*
X428089Y241840D01*
X428247Y241774D01*
X429953D01*
X431528Y242426D01*
X432733Y243632D01*
X433386Y245207D01*
Y246912D01*
X433172Y247428D01*
X437370D01*
Y258540D01*
X415521D01*
X418980Y261999D01*
X419953D01*
X421528Y262652D01*
X422733Y263857D01*
X423386Y265432D01*
Y267138D01*
X423238Y267494D01*
X430028D01*
X429814Y266978D01*
Y265273D01*
X430466Y263698D01*
X431672Y262493D01*
X433247Y261840D01*
X434953D01*
X436528Y262493D01*
X437733Y263698D01*
X438386Y265273D01*
Y266978D01*
X437733Y268554D01*
X437370Y268917D01*
Y278606D01*
X432086D01*
Y287814D01*
X437450D01*
Y298926D01*
X395910D01*
Y287814D01*
X406194D01*
Y278606D01*
X403172D01*
X403386Y279121D01*
Y280827D01*
X402733Y282402D01*
X401528Y283608D01*
X399953Y284260D01*
X398247D01*
X396672Y283608D01*
X395466Y282402D01*
X394814Y280827D01*
Y279121D01*
X395466Y277546D01*
X395830Y277183D01*
Y267494D01*
X400028D01*
X399814Y266978D01*
Y265273D01*
X400466Y263698D01*
X400869Y263296D01*
X386080D01*
X384953Y263071D01*
X383997Y262433D01*
X383997Y262433D01*
X378510Y256946D01*
X327610D01*
X305613Y278943D01*
X304657Y279581D01*
X303530Y279806D01*
X141927D01*
Y603438D01*
Y620261D01*
D01*
X264573Y620261D01*
X268427Y616407D01*
X269383Y615769D01*
X270510Y615544D01*
X270510Y615544D01*
X375344D01*
X376032Y614856D01*
X377607Y614204D01*
X379313D01*
X380888Y614856D01*
X382094Y616062D01*
X382746Y617637D01*
Y619343D01*
X382094Y620918D01*
X380888Y622123D01*
X379313Y622776D01*
X377607D01*
X376032Y622123D01*
X375344Y621436D01*
X345998D01*
X346054Y621520D01*
X346209Y622300D01*
Y624745D01*
X359378D01*
Y642715D01*
X356006D01*
Y650272D01*
X361181D01*
Y627380D01*
X361336Y626600D01*
X361778Y625938D01*
X362440Y625496D01*
X363220Y625341D01*
X383540Y625341D01*
X438150Y625341D01*
X438930Y625496D01*
X439592Y625938D01*
X440034Y626600D01*
X440189Y627380D01*
Y670560D01*
Y736600D01*
X440034Y737380D01*
X439592Y738042D01*
X438930Y738484D01*
X438150Y738639D01*
X417830D01*
X417050Y738484D01*
X416388Y738042D01*
X415946Y737380D01*
X415791Y736600D01*
Y720935D01*
X415512Y720656D01*
Y735425D01*
X402089D01*
Y737025D01*
X423755Y758691D01*
X546100Y758691D01*
X546880Y758846D01*
X547542Y759288D01*
X547984Y759950D01*
X548139Y760730D01*
Y761524D01*
X549493D01*
X551068Y762177D01*
X552273Y763382D01*
X552450Y763808D01*
X552626Y763382D01*
X553832Y762177D01*
X555407Y761524D01*
X557113D01*
X558688Y762177D01*
X559893Y763382D01*
X560070Y763808D01*
X560247Y763382D01*
X561452Y762177D01*
X563027Y761524D01*
X564733D01*
X566308Y762177D01*
X567514Y763382D01*
X567690Y763808D01*
X567867Y763382D01*
X569072Y762177D01*
X570647Y761524D01*
X572353D01*
X573928Y762177D01*
X575134Y763382D01*
X575786Y764957D01*
Y766663D01*
X575134Y768238D01*
X574386Y768985D01*
X575134Y769732D01*
X575786Y771307D01*
Y773013D01*
X575134Y774588D01*
X573928Y775794D01*
X572353Y776446D01*
X570647D01*
X569072Y775794D01*
X567867Y774588D01*
X567690Y774162D01*
X567514Y774588D01*
X566308Y775794D01*
X564733Y776446D01*
X563027D01*
X561452Y775794D01*
X560247Y774588D01*
X560070Y774162D01*
X559893Y774588D01*
X558688Y775794D01*
X557113Y776446D01*
X555407D01*
X553832Y775794D01*
X552626Y774588D01*
X552450Y774162D01*
X552273Y774588D01*
X551068Y775794D01*
X549493Y776446D01*
X548139D01*
X548139Y796290D01*
X547984Y797070D01*
X547753Y797416D01*
X548528Y797737D01*
X549734Y798942D01*
X549910Y799368D01*
X550087Y798942D01*
X551292Y797737D01*
X552867Y797084D01*
X554573D01*
X556148Y797737D01*
X557354Y798942D01*
X557530Y799368D01*
X557706Y798942D01*
X558912Y797737D01*
X560487Y797084D01*
X562193D01*
X563768Y797737D01*
X564973Y798942D01*
X565150Y799368D01*
X565326Y798942D01*
X566532Y797737D01*
X568107Y797084D01*
X569813D01*
X571388Y797737D01*
X572593Y798942D01*
X572770Y799368D01*
X572947Y798942D01*
X574152Y797737D01*
X575727Y797084D01*
X577433D01*
X579008Y797737D01*
X580214Y798942D01*
X580866Y800517D01*
Y802223D01*
X580214Y803798D01*
X579466Y804545D01*
X580214Y805292D01*
X580866Y806867D01*
Y808573D01*
X580214Y810148D01*
X579466Y810895D01*
X580214Y811642D01*
X580866Y813217D01*
Y814923D01*
X580214Y816498D01*
X579466Y817245D01*
X580214Y817992D01*
X580866Y819567D01*
Y821273D01*
X580214Y822848D01*
X579466Y823595D01*
X580214Y824342D01*
X580866Y825917D01*
Y827623D01*
X580214Y829198D01*
X579466Y829945D01*
X580214Y830692D01*
X580866Y832267D01*
Y833973D01*
X580214Y835548D01*
X579008Y836753D01*
X577433Y837406D01*
X575727D01*
X574152Y836753D01*
X572947Y835548D01*
X572770Y835122D01*
X572593Y835548D01*
X571388Y836753D01*
X569813Y837406D01*
X568107D01*
X566532Y836753D01*
X565326Y835548D01*
X565150Y835122D01*
X564973Y835548D01*
X563768Y836753D01*
X562193Y837406D01*
X560487D01*
X558912Y836753D01*
X557706Y835548D01*
X557530Y835122D01*
X557354Y835548D01*
X556148Y836753D01*
X554573Y837406D01*
X552867D01*
X551292Y836753D01*
X550087Y835548D01*
X549434Y833973D01*
Y832267D01*
X550087Y830692D01*
X550834Y829945D01*
X550087Y829198D01*
X549434Y827623D01*
Y825917D01*
X550087Y824342D01*
X550834Y823595D01*
X550087Y822848D01*
X549910Y822422D01*
X549734Y822848D01*
X548528Y824053D01*
X546953Y824706D01*
X545247D01*
X543672Y824053D01*
X542467Y822848D01*
X541814Y821273D01*
Y819567D01*
X542467Y817992D01*
X543214Y817245D01*
X542467Y816498D01*
X542290Y816072D01*
X542113Y816498D01*
X540908Y817703D01*
X539333Y818356D01*
X537627D01*
X536052Y817703D01*
X534846Y816498D01*
X534670Y816072D01*
X534493Y816498D01*
X533288Y817703D01*
X531713Y818356D01*
X530007D01*
X528432Y817703D01*
X527226Y816498D01*
X526574Y814923D01*
Y813217D01*
X527226Y811642D01*
X527974Y810895D01*
X527226Y810148D01*
X526574Y808573D01*
Y806867D01*
X527226Y805292D01*
X527974Y804545D01*
X527226Y803798D01*
X526574Y802223D01*
Y800517D01*
X527226Y798942D01*
X527840Y798329D01*
X379229Y798329D01*
D01*
Y810761D01*
X396240D01*
X397020Y810916D01*
X397682Y811358D01*
X398124Y812020D01*
X398279Y812800D01*
Y834990D01*
X398780Y834891D01*
X407210D01*
Y822410D01*
X419576D01*
Y820607D01*
X419277Y820308D01*
X418624Y818733D01*
Y817027D01*
X419277Y815452D01*
X419576Y815153D01*
Y812165D01*
X419830Y810889D01*
X420552Y809808D01*
X424997Y805362D01*
X426079Y804640D01*
X427355Y804386D01*
X491522D01*
Y798735D01*
X505682D01*
Y804430D01*
X506736Y804640D01*
X507817Y805362D01*
X510318Y807863D01*
Y798735D01*
X524478D01*
Y816515D01*
Y822554D01*
X538480D01*
X539607Y822779D01*
X540563Y823417D01*
X545643Y828497D01*
X546281Y829453D01*
X546506Y830580D01*
X546506Y830580D01*
Y838110D01*
X551560D01*
Y867110D01*
X535560D01*
Y838110D01*
X540614D01*
Y831800D01*
X537260Y828446D01*
X524478D01*
Y834485D01*
X511334D01*
Y835660D01*
X511080Y836936D01*
X510358Y838018D01*
X483130Y865246D01*
X482048Y865968D01*
X480772Y866222D01*
X479796D01*
Y881612D01*
X460004D01*
Y859618D01*
X476204D01*
X476526Y859554D01*
X479391D01*
X504460Y834485D01*
X491522D01*
Y828446D01*
X491440D01*
X487223Y832663D01*
X486267Y833301D01*
X485140Y833526D01*
X479796D01*
Y842182D01*
X472846D01*
Y843280D01*
X472846Y843280D01*
X472621Y844407D01*
X471983Y845363D01*
X466903Y850443D01*
X465947Y851081D01*
X464820Y851306D01*
X456699D01*
X456699Y892008D01*
X641578D01*
Y873579D01*
D02*
G37*
G36*
X285750Y812800D02*
X251416Y778466D01*
X174713Y778466D01*
Y891496D01*
X285750D01*
X285750Y812800D01*
D02*
G37*
G36*
X529082Y796290D02*
Y788670D01*
X536702D01*
X544322D01*
Y796290D01*
X546100D01*
X546100Y760730D01*
X422910Y760730D01*
X400050Y737870D01*
X400050Y729636D01*
X397677D01*
X395658Y729235D01*
X393946Y728091D01*
X389342Y723487D01*
X384722D01*
Y724027D01*
X382309D01*
Y717931D01*
X379769D01*
Y724027D01*
X378460D01*
X377190Y725228D01*
X377190Y796290D01*
X529082Y796290D01*
D02*
G37*
G36*
X172674Y891496D02*
Y778466D01*
X172830Y777685D01*
X173272Y777024D01*
X173933Y776582D01*
X174713Y776426D01*
X251416Y776426D01*
X252196Y776582D01*
X252858Y777024D01*
X252858Y777024D01*
X286831Y810998D01*
X288118Y811358D01*
X288780Y810916D01*
X289560Y810761D01*
X377190D01*
Y798329D01*
X376410Y798174D01*
X375748Y797732D01*
X375306Y797070D01*
X375151Y796290D01*
X375151Y725228D01*
X375156Y725200D01*
X375151Y725171D01*
X375234Y724810D01*
X375306Y724448D01*
X375322Y724424D01*
X375328Y724396D01*
X375542Y724094D01*
X375748Y723786D01*
X375772Y723770D01*
X375789Y723746D01*
X377059Y722545D01*
X377190Y722463D01*
Y713740D01*
X377896D01*
Y712375D01*
X394185D01*
Y713740D01*
X411480D01*
X415195Y717455D01*
X415512D01*
Y717772D01*
X417830Y720090D01*
Y736600D01*
X438150D01*
Y670560D01*
Y627380D01*
X383540Y627380D01*
X363220Y627380D01*
Y665480D01*
X382302D01*
Y650145D01*
X396462D01*
Y650159D01*
X401080Y650163D01*
X401098Y650145D01*
Y650145D01*
X402669D01*
X403518Y648875D01*
X403384Y648553D01*
Y646847D01*
X404036Y645272D01*
X405242Y644066D01*
X406817Y643414D01*
X408523D01*
X410098Y644066D01*
X411303Y645272D01*
X411956Y646847D01*
Y648553D01*
X411822Y648875D01*
X412671Y650145D01*
X415258D01*
Y650177D01*
X415290Y650177D01*
Y670560D01*
X402590D01*
X396462Y676688D01*
Y690975D01*
X396462Y690975D01*
X396462D01*
X396883Y692098D01*
X397187Y692553D01*
X397588Y694572D01*
Y701929D01*
X397187Y703948D01*
X396240Y705365D01*
Y707390D01*
X394185D01*
Y707485D01*
X379390D01*
X379338Y707562D01*
X378677Y708004D01*
X377896Y708159D01*
X288290D01*
X287510Y708004D01*
X286848Y707562D01*
X268739Y725671D01*
Y736600D01*
X268584Y737380D01*
X268142Y738042D01*
X267480Y738484D01*
X266700Y738639D01*
X134620Y738639D01*
X133840Y738484D01*
X133178Y738042D01*
X131754Y738196D01*
X93980Y775970D01*
Y891540D01*
X172638D01*
X172674Y891496D01*
D02*
G37*
G36*
X377896Y698292D02*
X372160Y692556D01*
X356870D01*
X355743Y692331D01*
X354787Y691693D01*
X350977Y687883D01*
X350339Y686927D01*
X350114Y685800D01*
Y683228D01*
X344075D01*
Y669068D01*
X348131D01*
X348617Y667895D01*
X345154Y664432D01*
X344075D01*
Y650272D01*
X344170D01*
X344170Y622300D01*
X288290D01*
Y706120D01*
X377896D01*
Y698292D01*
D02*
G37*
G36*
X266700Y736600D02*
X266700Y622300D01*
X134620Y622300D01*
X134620Y736600D01*
X266700Y736600D01*
D02*
G37*
G36*
X132581Y622300D02*
X132736Y621520D01*
X133178Y620858D01*
X133840Y620416D01*
X134620Y620261D01*
X139888D01*
Y603438D01*
Y279806D01*
X97790D01*
X96663Y279581D01*
X96391Y279400D01*
X77876D01*
Y294640D01*
X77651Y295767D01*
X77013Y296723D01*
X74965Y298771D01*
X74009Y299410D01*
X73660Y299479D01*
X73660Y313743D01*
X80816D01*
X81943Y313967D01*
X82899Y314605D01*
X90873Y322580D01*
X107950D01*
Y340231D01*
X108131Y340503D01*
X108356Y341630D01*
Y373380D01*
X108131Y374507D01*
X107950Y374779D01*
Y598857D01*
X108803D01*
X110378Y599509D01*
X111583Y600715D01*
X112236Y602290D01*
Y603995D01*
X111583Y605571D01*
X110378Y606776D01*
X108803Y607429D01*
X107950D01*
Y654050D01*
X132581D01*
Y622300D01*
D02*
G37*
%LPC*%
G36*
X578482Y887110D02*
X576638D01*
X574858Y886633D01*
X573262Y885711D01*
X571959Y884408D01*
X571037Y882812D01*
X570560Y881032D01*
Y879188D01*
X571037Y877408D01*
X571959Y875812D01*
X573262Y874509D01*
X574858Y873587D01*
X576638Y873110D01*
X578482D01*
X580262Y873587D01*
X581858Y874509D01*
X583161Y875812D01*
X584083Y877408D01*
X584560Y879188D01*
Y881032D01*
X584083Y882812D01*
X583161Y884408D01*
X581858Y885711D01*
X580262Y886633D01*
X578482Y887110D01*
D02*
G37*
G36*
X510482D02*
X508638D01*
X506858Y886633D01*
X505262Y885711D01*
X503959Y884408D01*
X503037Y882812D01*
X502560Y881032D01*
Y879188D01*
X503037Y877408D01*
X503959Y875812D01*
X505262Y874509D01*
X506858Y873587D01*
X508638Y873110D01*
X510482D01*
X512262Y873587D01*
X513858Y874509D01*
X515161Y875812D01*
X516083Y877408D01*
X516560Y879188D01*
Y881032D01*
X516083Y882812D01*
X515161Y884408D01*
X513858Y885711D01*
X512262Y886633D01*
X510482Y887110D01*
D02*
G37*
G36*
X576560Y867110D02*
X560560D01*
Y838110D01*
X576560D01*
Y867110D01*
D02*
G37*
G36*
X523240Y880306D02*
X521221Y879905D01*
X519509Y878761D01*
X517654Y876906D01*
X516510Y875194D01*
X516109Y873175D01*
Y867110D01*
X510560D01*
Y838110D01*
X526560D01*
Y854925D01*
X526661Y855435D01*
Y870990D01*
X526971Y871299D01*
X528115Y873011D01*
X528516Y875030D01*
X528115Y877049D01*
X526971Y878761D01*
X525259Y879905D01*
X523240Y880306D01*
D02*
G37*
G36*
X590320Y796650D02*
X575320D01*
Y790346D01*
X562578D01*
Y796385D01*
X548418D01*
Y778415D01*
X562578D01*
Y784454D01*
X575320D01*
Y778150D01*
X590320D01*
Y796650D01*
D02*
G37*
G36*
X608320D02*
X593320D01*
Y778150D01*
X608320D01*
Y784454D01*
X616644D01*
X617332Y783766D01*
X618907Y783114D01*
X620613D01*
X622188Y783766D01*
X623394Y784972D01*
X624046Y786547D01*
Y788253D01*
X623394Y789828D01*
X622188Y791033D01*
X620613Y791686D01*
X618907D01*
X617332Y791033D01*
X616644Y790346D01*
X608320D01*
Y796650D01*
D02*
G37*
G36*
X72040Y797050D02*
X54960D01*
Y792636D01*
X51294D01*
X49027Y792185D01*
X47105Y790901D01*
X42641Y786437D01*
X41357Y784515D01*
X40906Y782248D01*
Y720002D01*
X41357Y717735D01*
X42641Y715813D01*
X47105Y711349D01*
X49027Y710065D01*
X51294Y709614D01*
X54960D01*
Y705200D01*
X72040D01*
Y722280D01*
X54960D01*
Y721462D01*
X53747D01*
X52754Y722456D01*
Y779794D01*
X53747Y780788D01*
X54960D01*
Y779970D01*
X72040D01*
Y797050D01*
D02*
G37*
G36*
X64624Y777050D02*
X62376D01*
X60204Y776468D01*
X58256Y775344D01*
X56666Y773754D01*
X55542Y771806D01*
X54960Y769634D01*
Y767386D01*
X55542Y765214D01*
X56666Y763266D01*
X58256Y761676D01*
X60204Y760552D01*
X62376Y759970D01*
X64624D01*
X66796Y760552D01*
X67111Y760733D01*
X73769Y754075D01*
X74725Y753437D01*
X74912Y753399D01*
X75852Y753212D01*
X75852Y753212D01*
X82455D01*
Y749078D01*
X100425D01*
Y763238D01*
X82455D01*
Y759104D01*
X77072D01*
X71276Y764899D01*
X71458Y765214D01*
X72040Y767386D01*
Y769634D01*
X71458Y771806D01*
X70334Y773754D01*
X68744Y775344D01*
X66796Y776468D01*
X64624Y777050D01*
D02*
G37*
G36*
X100965Y744982D02*
X92710D01*
Y738632D01*
X100965D01*
Y744982D01*
D02*
G37*
G36*
X90170D02*
X81915D01*
Y738632D01*
X90170D01*
Y744982D01*
D02*
G37*
G36*
X100965Y736092D02*
X92710D01*
Y729742D01*
X100965D01*
Y736092D01*
D02*
G37*
G36*
X90170D02*
X81915D01*
Y729742D01*
X90170D01*
Y736092D01*
D02*
G37*
G36*
X587864Y732440D02*
X585616D01*
X583444Y731858D01*
X581496Y730734D01*
X579906Y729144D01*
X578782Y727196D01*
X578200Y725024D01*
Y722776D01*
X578782Y720604D01*
X579906Y718656D01*
X581496Y717066D01*
X583444Y715942D01*
X585616Y715360D01*
X587864D01*
X590036Y715942D01*
X591984Y717066D01*
X593574Y718656D01*
X594698Y720604D01*
X595280Y722776D01*
Y725024D01*
X594698Y727196D01*
X593574Y729144D01*
X591984Y730734D01*
X590036Y731858D01*
X587864Y732440D01*
D02*
G37*
G36*
X595280Y712440D02*
X578200D01*
Y695360D01*
X595280D01*
Y712440D01*
D02*
G37*
G36*
X64624Y702280D02*
X62376D01*
X60204Y701698D01*
X58256Y700574D01*
X56666Y698984D01*
X55542Y697036D01*
X54960Y694864D01*
Y692616D01*
X55542Y690444D01*
X56666Y688496D01*
X58256Y686906D01*
X60204Y685782D01*
X62376Y685200D01*
X64624D01*
X66796Y685782D01*
X68744Y686906D01*
X70334Y688496D01*
X71458Y690444D01*
X71552Y690794D01*
X82455D01*
Y685578D01*
X100425D01*
Y699738D01*
X82455D01*
Y696686D01*
X71552D01*
X71458Y697036D01*
X70334Y698984D01*
X68744Y700574D01*
X66796Y701698D01*
X64624Y702280D01*
D02*
G37*
G36*
X561975Y690118D02*
X553720D01*
Y683768D01*
X561975D01*
Y690118D01*
D02*
G37*
G36*
X551180D02*
X542925D01*
Y683768D01*
X551180D01*
Y690118D01*
D02*
G37*
G36*
X100965Y681482D02*
X92710D01*
Y675132D01*
X100965D01*
Y681482D01*
D02*
G37*
G36*
X90170D02*
X81915D01*
Y675132D01*
X90170D01*
Y681482D01*
D02*
G37*
G36*
X561975Y681228D02*
X553720D01*
Y674878D01*
X561975D01*
Y681228D01*
D02*
G37*
G36*
X551180D02*
X542925D01*
Y674878D01*
X551180D01*
Y681228D01*
D02*
G37*
G36*
X100965Y672592D02*
X92710D01*
Y666242D01*
X100965D01*
Y672592D01*
D02*
G37*
G36*
X90170D02*
X81915D01*
Y666242D01*
X90170D01*
Y672592D01*
D02*
G37*
G36*
X561975Y648843D02*
X553720D01*
Y642493D01*
X561975D01*
Y648843D01*
D02*
G37*
G36*
X551180D02*
X542925D01*
Y642493D01*
X551180D01*
Y648843D01*
D02*
G37*
G36*
X561975Y639953D02*
X553720D01*
Y633603D01*
X561975D01*
Y639953D01*
D02*
G37*
G36*
X551180D02*
X542925D01*
Y633603D01*
X551180D01*
Y639953D01*
D02*
G37*
G36*
X587864Y649495D02*
X585616D01*
X583444Y648913D01*
X581496Y647788D01*
X579906Y646199D01*
X578782Y644251D01*
X578200Y642079D01*
Y639831D01*
X578782Y637659D01*
X579906Y635711D01*
X581496Y634121D01*
X583444Y632997D01*
X585616Y632415D01*
X587864D01*
X590036Y632997D01*
X591984Y634121D01*
X593574Y635711D01*
X594698Y637659D01*
X595280Y639831D01*
Y642079D01*
X594698Y644251D01*
X593574Y646199D01*
X591984Y647788D01*
X590036Y648913D01*
X587864Y649495D01*
D02*
G37*
G36*
X72040D02*
X54960D01*
Y632415D01*
X72040D01*
Y649495D01*
D02*
G37*
G36*
X100965Y636778D02*
X92710D01*
Y630428D01*
X100965D01*
Y636778D01*
D02*
G37*
G36*
X90170D02*
X81915D01*
Y630428D01*
X90170D01*
Y636778D01*
D02*
G37*
G36*
X100965Y627888D02*
X92710D01*
Y621538D01*
X100965D01*
Y627888D01*
D02*
G37*
G36*
X90170D02*
X81915D01*
Y621538D01*
X90170D01*
Y627888D01*
D02*
G37*
G36*
X480155Y632428D02*
X462185D01*
Y618268D01*
X480155D01*
Y620072D01*
X483362D01*
X485381Y620473D01*
X487093Y621617D01*
X488237Y623329D01*
X488638Y625348D01*
X488237Y627367D01*
X487093Y629079D01*
X485381Y630223D01*
X483362Y630624D01*
X480155D01*
Y632428D01*
D02*
G37*
G36*
X561435Y670782D02*
X543465D01*
Y656622D01*
X561435D01*
Y659994D01*
X563930D01*
X568554Y655370D01*
Y628650D01*
X568779Y627523D01*
X569417Y626567D01*
X575450Y620534D01*
X575450Y620534D01*
X576406Y619896D01*
X576593Y619859D01*
X577533Y619671D01*
X577533Y619671D01*
X578243D01*
X578782Y617659D01*
X578964Y617344D01*
X568835Y607216D01*
X568197Y606260D01*
X567973Y605133D01*
Y518107D01*
X559965Y510100D01*
X541444D01*
X540317Y509875D01*
X539361Y509237D01*
X532250Y502126D01*
X531277D01*
X529702Y501474D01*
X528497Y500268D01*
X527844Y498693D01*
Y496987D01*
X528497Y495412D01*
X529702Y494207D01*
X531277Y493554D01*
X532983D01*
X534558Y494207D01*
X535764Y495412D01*
X536416Y496987D01*
Y497960D01*
X542664Y504208D01*
X561185D01*
X562313Y504433D01*
X563268Y505071D01*
X573001Y514804D01*
X573001Y514804D01*
X573640Y515760D01*
X573677Y515947D01*
X573864Y516887D01*
X573864Y516887D01*
Y603913D01*
X583129Y613178D01*
X583444Y612997D01*
X585616Y612415D01*
X587864D01*
X590036Y612997D01*
X591984Y614121D01*
X593574Y615711D01*
X594698Y617659D01*
X595280Y619831D01*
Y622079D01*
X594698Y624251D01*
X593574Y626199D01*
X591984Y627789D01*
X590036Y628913D01*
X587864Y629495D01*
X585616D01*
X583444Y628913D01*
X581496Y627789D01*
X579906Y626199D01*
X579539Y625563D01*
X578753D01*
X574446Y629870D01*
Y656590D01*
X574221Y657717D01*
X573583Y658673D01*
X573583Y658673D01*
X567233Y665023D01*
X566277Y665661D01*
X565150Y665886D01*
X561435D01*
Y670782D01*
D02*
G37*
G36*
X64624Y629495D02*
X62376D01*
X60204Y628913D01*
X58256Y627789D01*
X56666Y626199D01*
X55542Y624251D01*
X54960Y622079D01*
Y619831D01*
X55542Y617659D01*
X55724Y617344D01*
X46177Y607798D01*
X45539Y606842D01*
X45314Y605715D01*
Y494062D01*
X45539Y492934D01*
X46177Y491979D01*
X55724Y482432D01*
X55542Y482118D01*
X54960Y479946D01*
Y477697D01*
X55542Y475525D01*
X55724Y475211D01*
X46177Y465664D01*
X45539Y464709D01*
X45314Y463582D01*
Y351928D01*
X45539Y350801D01*
X46177Y349846D01*
X55724Y340299D01*
X55542Y339985D01*
X54960Y337812D01*
Y335564D01*
X55542Y333392D01*
X56666Y331445D01*
X58256Y329855D01*
X60204Y328730D01*
X62376Y328148D01*
X64624D01*
X66796Y328730D01*
X68744Y329855D01*
X70334Y331445D01*
X71458Y333392D01*
X72040Y335564D01*
Y337812D01*
X71458Y339985D01*
X70334Y341932D01*
X68744Y343522D01*
X66796Y344646D01*
X64624Y345228D01*
X62376D01*
X60204Y344646D01*
X59889Y344465D01*
X56206Y348148D01*
X72040D01*
Y365228D01*
X54960D01*
Y349394D01*
X51206Y353148D01*
Y462362D01*
X59889Y471045D01*
X60204Y470864D01*
X62376Y470282D01*
X64624D01*
X66796Y470864D01*
X68744Y471988D01*
X70334Y473578D01*
X71458Y475525D01*
X72040Y477697D01*
Y479946D01*
X71458Y482118D01*
X70334Y484065D01*
X68744Y485655D01*
X66796Y486780D01*
X64624Y487362D01*
X62376D01*
X60204Y486780D01*
X59889Y486598D01*
X56206Y490282D01*
X72040D01*
Y507362D01*
X54960D01*
Y491527D01*
X51206Y495282D01*
Y604495D01*
X59889Y613178D01*
X60204Y612997D01*
X62376Y612415D01*
X64624D01*
X66796Y612997D01*
X68744Y614121D01*
X70334Y615711D01*
X71458Y617659D01*
X72040Y619831D01*
Y622079D01*
X71458Y624251D01*
X70334Y626199D01*
X68744Y627789D01*
X66796Y628913D01*
X64624Y629495D01*
D02*
G37*
G36*
X100425Y617442D02*
X82455D01*
Y603282D01*
X88576D01*
X87680Y602386D01*
X71958D01*
X71458Y604251D01*
X70334Y606199D01*
X68744Y607789D01*
X66796Y608913D01*
X64624Y609495D01*
X62376D01*
X60204Y608913D01*
X58256Y607789D01*
X56666Y606199D01*
X55542Y604251D01*
X54960Y602079D01*
Y599831D01*
X55542Y597659D01*
X56666Y595711D01*
X58256Y594121D01*
X60204Y592997D01*
X62376Y592415D01*
X64624D01*
X66796Y592997D01*
X68744Y594121D01*
X70334Y595711D01*
X70786Y596494D01*
X88900D01*
X90027Y596719D01*
X90983Y597357D01*
X93751Y600126D01*
X94390Y601081D01*
X94614Y602208D01*
Y603282D01*
X100425D01*
Y617442D01*
D02*
G37*
G36*
X480695Y614172D02*
X461645D01*
Y598932D01*
X480695D01*
Y614172D01*
D02*
G37*
G36*
X561435Y629507D02*
X543465D01*
Y615347D01*
X549504D01*
Y612771D01*
X534109Y597376D01*
X533136D01*
X531561Y596724D01*
X530873Y596036D01*
X463500D01*
X452933Y606603D01*
X451977Y607241D01*
X450850Y607466D01*
X350520D01*
X349393Y607241D01*
X348437Y606603D01*
X336238Y594403D01*
X335599Y593448D01*
X335375Y592320D01*
Y568978D01*
X335070Y568775D01*
X334338Y569264D01*
X333358Y569459D01*
X330283D01*
X329303Y569264D01*
X328570Y568775D01*
X327838Y569264D01*
X326858Y569459D01*
X323783D01*
X322803Y569264D01*
X322070Y568775D01*
X321766Y568978D01*
Y586114D01*
X322454Y586802D01*
X323106Y588377D01*
Y590082D01*
X322454Y591657D01*
X321248Y592863D01*
X319673Y593516D01*
X317968D01*
X316393Y592863D01*
X315187Y591657D01*
X314534Y590082D01*
Y588377D01*
X315187Y586802D01*
X315875Y586114D01*
Y569221D01*
X315049Y569773D01*
X313858Y570010D01*
X313591D01*
Y559560D01*
Y549110D01*
X313858D01*
X315049Y549347D01*
X316056Y550020D01*
X316303Y549856D01*
X317283Y549661D01*
X320358D01*
X321338Y549856D01*
X322070Y550345D01*
X322174Y550275D01*
Y549116D01*
X321727D01*
X320152Y548464D01*
X318946Y547258D01*
X318294Y545683D01*
Y543977D01*
X318946Y542402D01*
X320152Y541197D01*
X321393Y540682D01*
X320834Y539333D01*
Y537627D01*
X321487Y536052D01*
X322692Y534846D01*
X324267Y534194D01*
X325973D01*
X327548Y534846D01*
X328754Y536052D01*
X329406Y537627D01*
Y538600D01*
X333553Y542747D01*
X333553Y542747D01*
X334191Y543703D01*
X334416Y544830D01*
Y549907D01*
X335070Y550345D01*
X335803Y549856D01*
X336783Y549661D01*
X339858D01*
X340838Y549856D01*
X341570Y550345D01*
X342303Y549856D01*
X343283Y549661D01*
X346358D01*
X347338Y549856D01*
X348070Y550345D01*
X348375Y550142D01*
Y544771D01*
X348092Y544654D01*
X346886Y543448D01*
X346234Y541873D01*
Y540167D01*
X346886Y538592D01*
X348092Y537387D01*
X349667Y536734D01*
X351373D01*
X352948Y537387D01*
X354154Y538592D01*
X354806Y540167D01*
Y541873D01*
X354266Y543176D01*
Y549899D01*
X355092Y549347D01*
X356283Y549110D01*
X356550D01*
Y559560D01*
Y570010D01*
X356283D01*
X355092Y569773D01*
X354084Y569100D01*
X353838Y569264D01*
X352858Y569459D01*
X349783D01*
X348803Y569264D01*
X348070Y568775D01*
X347766Y568978D01*
Y569660D01*
X349130Y571024D01*
X350103D01*
X351678Y571676D01*
X352883Y572882D01*
X353536Y574457D01*
Y576163D01*
X352883Y577738D01*
X351678Y578943D01*
X350103Y579596D01*
X348397D01*
X346822Y578943D01*
X345616Y577738D01*
X344964Y576163D01*
Y575190D01*
X342738Y572963D01*
X342099Y572008D01*
X341875Y570880D01*
Y568978D01*
X341570Y568775D01*
X341266Y568978D01*
Y591100D01*
X351740Y601574D01*
X449630D01*
X460197Y591007D01*
X461153Y590369D01*
X462280Y590144D01*
X530873D01*
X531561Y589456D01*
X533136Y588804D01*
X534841D01*
X536417Y589456D01*
X537622Y590662D01*
X538275Y592237D01*
Y593210D01*
X554533Y609468D01*
X555171Y610424D01*
X555396Y611551D01*
X555396Y611551D01*
Y615347D01*
X561435D01*
Y629507D01*
D02*
G37*
G36*
X587864Y609495D02*
X585616D01*
X583444Y608913D01*
X581496Y607789D01*
X579906Y606199D01*
X578782Y604251D01*
X578200Y602079D01*
Y599831D01*
X578782Y597659D01*
X579906Y595711D01*
X581496Y594121D01*
X583444Y592997D01*
X585616Y592415D01*
X587864D01*
X590036Y592997D01*
X591984Y594121D01*
X593574Y595711D01*
X594698Y597659D01*
X595280Y599831D01*
Y602079D01*
X594698Y604251D01*
X593574Y606199D01*
X591984Y607789D01*
X590036Y608913D01*
X587864Y609495D01*
D02*
G37*
G36*
X377444Y600075D02*
X371094D01*
Y591820D01*
X377444D01*
Y600075D01*
D02*
G37*
G36*
X368554D02*
X362204D01*
Y591820D01*
X368554D01*
Y600075D01*
D02*
G37*
G36*
X377444Y589280D02*
X371094D01*
Y581025D01*
X377444D01*
Y589280D01*
D02*
G37*
G36*
X368554D02*
X362204D01*
Y581025D01*
X368554D01*
Y589280D01*
D02*
G37*
G36*
X553303Y601186D02*
X551597D01*
X550022Y600533D01*
X548816Y599328D01*
X548164Y597753D01*
Y596047D01*
X548816Y594472D01*
X549504Y593784D01*
Y586708D01*
X543465D01*
Y572548D01*
X561435D01*
Y586708D01*
X555396D01*
Y593784D01*
X556083Y594472D01*
X556736Y596047D01*
Y597753D01*
X556083Y599328D01*
X554878Y600533D01*
X553303Y601186D01*
D02*
G37*
G36*
X64624Y589495D02*
X62376D01*
X60204Y588913D01*
X58256Y587789D01*
X56666Y586199D01*
X55542Y584251D01*
X54960Y582079D01*
Y579831D01*
X55542Y577659D01*
X56666Y575711D01*
X58256Y574121D01*
X60204Y572997D01*
X62376Y572415D01*
X64624D01*
X66796Y572997D01*
X68744Y574121D01*
X70334Y575711D01*
X71458Y577659D01*
X71552Y578009D01*
X82455D01*
Y572548D01*
X100425D01*
Y586708D01*
X82455D01*
Y583900D01*
X71552D01*
X71458Y584251D01*
X70334Y586199D01*
X68744Y587789D01*
X66796Y588913D01*
X64624Y589495D01*
D02*
G37*
G36*
X298050Y570010D02*
X297783D01*
X296592Y569773D01*
X296070Y569424D01*
X295549Y569773D01*
X294358Y570010D01*
X294090D01*
Y559560D01*
Y549110D01*
X294358D01*
X295549Y549347D01*
X296070Y549696D01*
X296592Y549347D01*
X297783Y549110D01*
X298050D01*
Y559560D01*
Y570010D01*
D02*
G37*
G36*
X311050D02*
X310783D01*
X309592Y569773D01*
X309070Y569424D01*
X308549Y569773D01*
X307358Y570010D01*
X307090D01*
Y559560D01*
Y549110D01*
X307358D01*
X308549Y549347D01*
X309070Y549696D01*
X309592Y549347D01*
X310783Y549110D01*
X311050D01*
Y559560D01*
Y570010D01*
D02*
G37*
G36*
X304550D02*
X304283D01*
X303092Y569773D01*
X302570Y569424D01*
X302049Y569773D01*
X300858Y570010D01*
X300590D01*
Y559560D01*
Y549110D01*
X300858D01*
X302049Y549347D01*
X302570Y549696D01*
X303092Y549347D01*
X304283Y549110D01*
X304550D01*
Y559560D01*
Y570010D01*
D02*
G37*
G36*
X483510Y570755D02*
X475680D01*
Y566420D01*
X486865D01*
Y567400D01*
X486609Y568684D01*
X485882Y569772D01*
X484794Y570499D01*
X483510Y570755D01*
D02*
G37*
G36*
X473140D02*
X465310D01*
X464026Y570499D01*
X462938Y569772D01*
X462211Y568684D01*
X461955Y567400D01*
Y566420D01*
X473140D01*
Y570755D01*
D02*
G37*
G36*
X395700Y599535D02*
X381540D01*
Y581565D01*
X382696D01*
Y572770D01*
Y566388D01*
X379635D01*
Y565994D01*
X368420D01*
Y566898D01*
X368225Y567878D01*
X367669Y568709D01*
X366838Y569264D01*
X365858Y569459D01*
X362783D01*
X361803Y569264D01*
X361556Y569100D01*
X360549Y569773D01*
X359358Y570010D01*
X359090D01*
Y559560D01*
Y549110D01*
X359358D01*
X360549Y549347D01*
X361556Y550020D01*
X361803Y549856D01*
X362783Y549661D01*
X365858D01*
X366838Y549856D01*
X367669Y550411D01*
X368225Y551242D01*
X368420Y552223D01*
Y554146D01*
X379635D01*
Y552228D01*
X397605D01*
Y566388D01*
X394544D01*
Y572770D01*
Y581565D01*
X395700D01*
Y599535D01*
D02*
G37*
G36*
X442813Y601186D02*
X441107D01*
X439532Y600533D01*
X438326Y599328D01*
X437674Y597753D01*
Y596047D01*
X438326Y594472D01*
X439014Y593784D01*
Y579088D01*
X432975D01*
Y574954D01*
X428498D01*
X427371Y574729D01*
X426415Y574091D01*
X420294Y567969D01*
X419655Y567014D01*
X419431Y565886D01*
Y552704D01*
X419456Y552576D01*
Y542385D01*
X415322D01*
Y524415D01*
X429482D01*
Y542385D01*
X425348D01*
Y552678D01*
X425348Y552678D01*
X425322Y552807D01*
Y564666D01*
X429718Y569062D01*
X432975D01*
Y564928D01*
X450945D01*
Y579088D01*
X444906D01*
Y593784D01*
X445593Y594472D01*
X446246Y596047D01*
Y597753D01*
X445593Y599328D01*
X444388Y600533D01*
X442813Y601186D01*
D02*
G37*
G36*
X100965Y568452D02*
X92710D01*
Y562102D01*
X100965D01*
Y568452D01*
D02*
G37*
G36*
X90170D02*
X81915D01*
Y562102D01*
X90170D01*
Y568452D01*
D02*
G37*
G36*
X291551Y570010D02*
X291283D01*
X290092Y569773D01*
X289082Y569098D01*
X288408Y568088D01*
X288171Y566898D01*
Y560830D01*
X291551D01*
Y570010D01*
D02*
G37*
G36*
X486865Y563880D02*
X475680D01*
Y559546D01*
X483510D01*
X484794Y559801D01*
X485882Y560528D01*
X486609Y561616D01*
X486865Y562900D01*
Y563880D01*
D02*
G37*
G36*
X473140D02*
X461955D01*
Y562900D01*
X462211Y561616D01*
X462938Y560528D01*
X464026Y559801D01*
X465310Y559546D01*
X473140D01*
Y563880D01*
D02*
G37*
G36*
X523810Y571074D02*
X501650D01*
X499383Y570623D01*
X497461Y569339D01*
X496177Y567417D01*
X495726Y565150D01*
X496177Y562883D01*
X497461Y560961D01*
X499383Y559677D01*
X501650Y559226D01*
X523810D01*
X526077Y559677D01*
X526704Y560096D01*
X532910D01*
X533983Y560310D01*
X534893Y560917D01*
X535500Y561827D01*
X535714Y562900D01*
Y567400D01*
X535500Y568473D01*
X534893Y569383D01*
X533983Y569990D01*
X532910Y570204D01*
X526704D01*
X526077Y570623D01*
X523810Y571074D01*
D02*
G37*
G36*
X100965Y559562D02*
X92710D01*
Y553212D01*
X100965D01*
Y559562D01*
D02*
G37*
G36*
X90170D02*
X81915D01*
Y553212D01*
X90170D01*
Y559562D01*
D02*
G37*
G36*
X64624Y569495D02*
X62376D01*
X60204Y568913D01*
X58256Y567789D01*
X56666Y566199D01*
X55542Y564251D01*
X54960Y562079D01*
Y559831D01*
X55542Y557659D01*
X56666Y555711D01*
X58256Y554121D01*
X60204Y552997D01*
X62376Y552415D01*
X64624D01*
X66796Y552997D01*
X68744Y554121D01*
X70334Y555711D01*
X71458Y557659D01*
X72040Y559831D01*
Y562079D01*
X71458Y564251D01*
X70334Y566199D01*
X68744Y567789D01*
X66796Y568913D01*
X64624Y569495D01*
D02*
G37*
G36*
X291551Y558290D02*
X288171D01*
Y552223D01*
X288408Y551031D01*
X289082Y550022D01*
X290092Y549347D01*
X291283Y549110D01*
X291551D01*
Y558290D01*
D02*
G37*
G36*
X532910Y557504D02*
X514710D01*
X513637Y557290D01*
X512727Y556683D01*
X512120Y555773D01*
X511906Y554700D01*
Y550200D01*
X512120Y549127D01*
X512727Y548217D01*
X513637Y547610D01*
X514710Y547396D01*
X532910D01*
X533983Y547610D01*
X534893Y548217D01*
X535500Y549127D01*
X535714Y550200D01*
Y554700D01*
X535500Y555773D01*
X534893Y556683D01*
X533983Y557290D01*
X532910Y557504D01*
D02*
G37*
G36*
X561435Y567912D02*
X543465D01*
Y553752D01*
X549504D01*
Y546830D01*
X543465D01*
Y542696D01*
X535575D01*
X535500Y543073D01*
X534893Y543983D01*
X533983Y544590D01*
X532910Y544804D01*
X514710D01*
X513637Y544590D01*
X512727Y543983D01*
X512120Y543073D01*
X512044Y542696D01*
X505410D01*
X493573Y554533D01*
X492617Y555171D01*
X491490Y555396D01*
X486175D01*
X486100Y555773D01*
X485493Y556683D01*
X484583Y557290D01*
X483510Y557504D01*
X465310D01*
X464237Y557290D01*
X463327Y556683D01*
X462720Y555773D01*
X462645Y555396D01*
X450945D01*
Y560292D01*
X432975D01*
Y546132D01*
X450945D01*
Y549504D01*
X462645D01*
X462720Y549127D01*
X463327Y548217D01*
X464237Y547610D01*
X465310Y547396D01*
X483510D01*
X484583Y547610D01*
X485493Y548217D01*
X486100Y549127D01*
X486175Y549504D01*
X490270D01*
X502107Y537667D01*
X503063Y537029D01*
X504190Y536804D01*
X512044D01*
X512120Y536427D01*
X512727Y535517D01*
X513637Y534910D01*
X514710Y534696D01*
X532910D01*
X533983Y534910D01*
X534893Y535517D01*
X535500Y536427D01*
X535575Y536804D01*
X543465D01*
Y532670D01*
X561435D01*
Y546830D01*
X555396D01*
Y553752D01*
X561435D01*
Y567912D01*
D02*
G37*
G36*
X398145Y548132D02*
X389890D01*
Y541782D01*
X398145D01*
Y548132D01*
D02*
G37*
G36*
X387350D02*
X379095D01*
Y541782D01*
X387350D01*
Y548132D01*
D02*
G37*
G36*
X483510Y544804D02*
X465310D01*
X464237Y544590D01*
X463327Y543983D01*
X462720Y543073D01*
X462645Y542696D01*
X458470D01*
X457343Y542471D01*
X456387Y541833D01*
X456387Y541833D01*
X450900Y536346D01*
X448278D01*
Y542385D01*
X434118D01*
Y529934D01*
X433299Y529387D01*
X432257Y528345D01*
X431619Y527390D01*
X431394Y526262D01*
Y398730D01*
X424404Y391740D01*
Y393401D01*
X423751Y394976D01*
X422546Y396182D01*
X420970Y396834D01*
X419265D01*
X418498Y396516D01*
Y405168D01*
X407718D01*
Y412948D01*
X418498D01*
Y422948D01*
X406498D01*
Y420894D01*
X389638D01*
X388511Y420670D01*
X387555Y420031D01*
X387555Y420031D01*
X380358Y412834D01*
X370481D01*
X370398Y412958D01*
X369591Y413497D01*
X368640Y413686D01*
X359976D01*
Y415003D01*
X379478D01*
X380605Y415227D01*
X381561Y415866D01*
X390858Y425163D01*
X395718D01*
Y423108D01*
X407718D01*
Y433108D01*
X395718D01*
Y431054D01*
X389638D01*
X389003Y430928D01*
X393398Y435323D01*
X406498D01*
Y433268D01*
X418498D01*
Y443268D01*
X406498D01*
Y441214D01*
X392178D01*
X391051Y440990D01*
X390095Y440351D01*
X378258Y428514D01*
X352220D01*
X351092Y428290D01*
X350227Y427711D01*
X355298Y432783D01*
X362068D01*
X363195Y433007D01*
X364151Y433646D01*
X368376Y437871D01*
X368376Y437871D01*
X369015Y438826D01*
X369052Y439013D01*
X369239Y439954D01*
X369239Y439954D01*
Y455396D01*
X369015Y456524D01*
X368376Y457479D01*
X347766Y478090D01*
Y492499D01*
X348592Y491947D01*
X349783Y491710D01*
X350050D01*
Y502160D01*
Y512610D01*
X349783D01*
X348592Y512373D01*
X347584Y511700D01*
X347338Y511864D01*
X346358Y512059D01*
X343283D01*
X342303Y511864D01*
X341570Y511375D01*
X340838Y511864D01*
X339858Y512059D01*
X336783D01*
X335803Y511864D01*
X335070Y511375D01*
X334338Y511864D01*
X333358Y512059D01*
X330283D01*
X329303Y511864D01*
X328570Y511375D01*
X327838Y511864D01*
X326858Y512059D01*
X323783D01*
X322803Y511864D01*
X322070Y511375D01*
X321338Y511864D01*
X320358Y512059D01*
X317283D01*
X316303Y511864D01*
X315570Y511375D01*
X314838Y511864D01*
X313858Y512059D01*
X310783D01*
X309803Y511864D01*
X309070Y511375D01*
X308338Y511864D01*
X307358Y512059D01*
X304283D01*
X303303Y511864D01*
X302570Y511375D01*
X301838Y511864D01*
X300858Y512059D01*
X297783D01*
X296803Y511864D01*
X296556Y511700D01*
X295549Y512373D01*
X294358Y512610D01*
X294090D01*
Y502160D01*
Y491710D01*
X294358D01*
X295549Y491947D01*
X296556Y492620D01*
X296803Y492456D01*
X297783Y492261D01*
X300858D01*
X301838Y492456D01*
X302570Y492945D01*
X303303Y492456D01*
X304283Y492261D01*
X307358D01*
X308338Y492456D01*
X309070Y492945D01*
X309375Y492742D01*
Y492165D01*
X308687Y491477D01*
X308034Y489902D01*
Y488197D01*
X308687Y486622D01*
X309893Y485416D01*
X311468Y484764D01*
X313173D01*
X314748Y485416D01*
X315875Y486543D01*
Y485766D01*
X315187Y485078D01*
X314534Y483503D01*
Y481798D01*
X315187Y480223D01*
X316393Y479017D01*
X317968Y478364D01*
X319673D01*
X321248Y479017D01*
X322375Y480144D01*
Y479086D01*
X320948Y477658D01*
X317073D01*
X316385Y478346D01*
X314810Y478999D01*
X313105D01*
X311530Y478346D01*
X310324Y477141D01*
X309671Y475565D01*
Y473860D01*
X310324Y472285D01*
X310398Y472211D01*
X306646D01*
X305958Y472898D01*
X304383Y473551D01*
X302677D01*
X301102Y472898D01*
X299897Y471693D01*
X299244Y470118D01*
Y468412D01*
X299512Y467766D01*
X295216D01*
X294528Y468453D01*
X292953Y469106D01*
X291247D01*
X289672Y468453D01*
X288466Y467248D01*
X287814Y465673D01*
Y463967D01*
X288466Y462392D01*
X289672Y461186D01*
X291247Y460534D01*
X292953D01*
X294528Y461186D01*
X295216Y461874D01*
X296585D01*
Y452588D01*
X298639D01*
Y441993D01*
X294788Y445844D01*
Y446317D01*
X294731Y446602D01*
Y454428D01*
X284731D01*
Y442428D01*
X288294D01*
X287100Y441934D01*
X285895Y440728D01*
X285242Y439153D01*
Y438674D01*
X283786D01*
X283098Y439362D01*
X281523Y440014D01*
X279817D01*
X278242Y439362D01*
X277036Y438156D01*
X276384Y436581D01*
Y434876D01*
X277036Y433301D01*
X278242Y432095D01*
X279817Y431442D01*
X281523D01*
X283098Y432095D01*
X283786Y432783D01*
X284594D01*
X285604Y431772D01*
X286560Y431134D01*
X287687Y430910D01*
X287687Y430910D01*
X291231D01*
X298078Y424063D01*
X297569Y423302D01*
X297380Y422351D01*
Y413686D01*
X296063D01*
Y417948D01*
X295839Y419076D01*
X295201Y420031D01*
X292661Y422571D01*
X291705Y423210D01*
X290578Y423434D01*
X283878D01*
Y425488D01*
X271878D01*
Y415488D01*
X283878D01*
Y417543D01*
X289358D01*
X290172Y416728D01*
Y413686D01*
X288715D01*
X287764Y413497D01*
X286958Y412958D01*
X286419Y412152D01*
X286230Y411201D01*
Y409231D01*
X285315Y410146D01*
X284234Y410869D01*
X283258Y411063D01*
Y413788D01*
X273258D01*
Y411220D01*
X273056Y411422D01*
X271481Y412074D01*
X269776D01*
X268200Y411422D01*
X267798Y411019D01*
Y414328D01*
X263528D01*
Y407788D01*
Y401248D01*
X267172D01*
X266012Y400088D01*
X254098D01*
Y390414D01*
X253398D01*
Y392468D01*
X241398D01*
Y384106D01*
X239890Y383482D01*
X238684Y382276D01*
X238032Y380701D01*
Y378996D01*
X238684Y377421D01*
X239890Y376215D01*
X241465Y375562D01*
X243171D01*
X244746Y376215D01*
X245434Y376903D01*
X249938D01*
X251065Y377127D01*
X252021Y377766D01*
X252428Y378173D01*
X254098D01*
Y370403D01*
X264267D01*
X262688Y368824D01*
X253398D01*
Y370878D01*
X241398D01*
Y360878D01*
X253398D01*
Y362933D01*
X257897D01*
X257377Y362154D01*
X257217Y361353D01*
X254098D01*
Y351353D01*
X262997D01*
X261418Y349774D01*
X253398D01*
Y351828D01*
X241398D01*
Y341828D01*
X253398D01*
Y343883D01*
X262638D01*
X263765Y344107D01*
X264721Y344745D01*
X267439Y347464D01*
Y340555D01*
X267133Y340249D01*
X266098D01*
Y342303D01*
X254098D01*
Y332303D01*
X262372D01*
X261544Y331476D01*
X260892Y329901D01*
Y328196D01*
X261544Y326620D01*
X262750Y325415D01*
X264325Y324762D01*
X266031D01*
X267606Y325415D01*
X268156Y325965D01*
Y325300D01*
X268808Y323724D01*
X270014Y322519D01*
X271589Y321866D01*
X273294D01*
X274870Y322519D01*
X276075Y323724D01*
X276728Y325300D01*
Y326272D01*
X281498Y331043D01*
Y329938D01*
X288038D01*
X294578D01*
Y334208D01*
X291269D01*
X291671Y334611D01*
X292324Y336186D01*
Y337891D01*
X291671Y339467D01*
X291470Y339668D01*
X294038D01*
Y341334D01*
X297663D01*
X298108Y340668D01*
X298914Y340130D01*
X299865Y339941D01*
X302490D01*
X303442Y340130D01*
X303678Y340288D01*
X303914Y340130D01*
X304865Y339941D01*
X307490D01*
X308442Y340130D01*
X308491Y340163D01*
Y335151D01*
X305287Y331946D01*
X303947D01*
X302372Y331293D01*
X301166Y330088D01*
X300514Y328513D01*
Y326807D01*
X301166Y325232D01*
X302372Y324026D01*
X303947Y323374D01*
X305653D01*
X307228Y324026D01*
X308433Y325232D01*
X309086Y326807D01*
Y328147D01*
X313078Y332138D01*
X313232Y332370D01*
Y316128D01*
X303580Y306476D01*
X275666D01*
X274931Y307749D01*
X273459Y309221D01*
X271656Y310261D01*
X269646Y310800D01*
X267564D01*
X265554Y310261D01*
X263751Y309221D01*
X262279Y307749D01*
X261544Y306476D01*
X259030D01*
X254406Y311100D01*
Y318770D01*
X254406Y318770D01*
X254219Y319710D01*
X254181Y319897D01*
X253543Y320853D01*
X253543Y320853D01*
X231953Y342443D01*
X230997Y343081D01*
X229870Y343306D01*
X202610D01*
Y346360D01*
X192610D01*
Y334360D01*
X202610D01*
Y337414D01*
X228650D01*
X248514Y317550D01*
Y309880D01*
X248739Y308753D01*
X249377Y307797D01*
X255727Y301447D01*
X255727Y301447D01*
X256683Y300809D01*
X257810Y300584D01*
X261040D01*
X261239Y299844D01*
X262279Y298041D01*
X263751Y296569D01*
X265554Y295529D01*
X267564Y294990D01*
X269646D01*
X271656Y295529D01*
X273459Y296569D01*
X274931Y298041D01*
X275971Y299844D01*
X276170Y300584D01*
X304800D01*
X305927Y300809D01*
X306883Y301447D01*
X318232Y312797D01*
Y308428D01*
X303580Y293776D01*
X295685D01*
X295656Y293881D01*
X294616Y295684D01*
X293144Y297156D01*
X291341Y298196D01*
X289331Y298735D01*
X287249D01*
X285239Y298196D01*
X283436Y297156D01*
X281964Y295684D01*
X280924Y293881D01*
X280895Y293776D01*
X228010D01*
Y296830D01*
X218010D01*
Y284830D01*
X228010D01*
Y287884D01*
X280895D01*
X280924Y287779D01*
X281964Y285976D01*
X283436Y284504D01*
X285239Y283464D01*
X287249Y282925D01*
X289331D01*
X291341Y283464D01*
X293144Y284504D01*
X294616Y285976D01*
X295656Y287779D01*
X295685Y287884D01*
X304800D01*
X305927Y288109D01*
X306883Y288747D01*
X323261Y305125D01*
X323491Y305470D01*
Y294994D01*
X322544Y294047D01*
X321892Y292472D01*
Y290767D01*
X322544Y289191D01*
X323750Y287986D01*
X325325Y287333D01*
X327030D01*
X328606Y287986D01*
X329811Y289191D01*
X330464Y290767D01*
Y292472D01*
X329811Y294047D01*
X328865Y294994D01*
Y306500D01*
X332740D01*
Y312040D01*
X334010D01*
Y313310D01*
X340550D01*
Y317580D01*
X337241D01*
X337644Y317983D01*
X338296Y319558D01*
Y321263D01*
X337644Y322838D01*
X337442Y323040D01*
X340010D01*
Y328924D01*
X342494Y326440D01*
Y303530D01*
X342719Y302403D01*
X343357Y301447D01*
X343764Y301040D01*
Y294290D01*
X341710D01*
Y282290D01*
X351710D01*
Y294290D01*
X349656D01*
Y294990D01*
X359330D01*
Y306990D01*
X356944D01*
Y307108D01*
X356944Y307108D01*
X356788Y307888D01*
X357888D01*
Y313428D01*
X359158D01*
Y314698D01*
X365698D01*
Y318968D01*
X362389D01*
X362791Y319371D01*
X363444Y320946D01*
Y322651D01*
X362791Y324226D01*
X362590Y324428D01*
X365158D01*
Y334428D01*
X362432D01*
X362238Y335404D01*
X361516Y336486D01*
X358975Y339026D01*
X357894Y339749D01*
X356929Y339941D01*
X357490D01*
X358442Y340130D01*
X359248Y340668D01*
X359786Y341475D01*
X359976Y342426D01*
Y351091D01*
X368640D01*
X368759Y351114D01*
X370477D01*
X371064Y350527D01*
Y349668D01*
X368398D01*
Y339668D01*
X370966D01*
X370764Y339467D01*
X370112Y337891D01*
Y336186D01*
X370764Y334611D01*
X371167Y334208D01*
X367858D01*
Y329938D01*
X374398D01*
X380938D01*
Y334208D01*
X377629D01*
X378031Y334611D01*
X378684Y336186D01*
Y337891D01*
X378031Y339467D01*
X377830Y339668D01*
X380398D01*
Y346823D01*
X382475Y344745D01*
X382475Y344745D01*
X383431Y344107D01*
X384558Y343883D01*
X396718D01*
Y341828D01*
X408718D01*
Y351828D01*
X396718D01*
Y349774D01*
X385778D01*
X382024Y353528D01*
X391718D01*
Y356097D01*
X391920Y355895D01*
X393495Y355242D01*
X395200D01*
X396775Y355895D01*
X397178Y356297D01*
Y352988D01*
X401448D01*
Y359528D01*
X402718D01*
Y360798D01*
X408258D01*
Y365688D01*
Y370958D01*
X402718D01*
Y373498D01*
X408258D01*
Y375916D01*
X408345D01*
X409473Y376141D01*
X410428Y376779D01*
X411037Y377388D01*
X418498D01*
Y384523D01*
X424298D01*
X425425Y384747D01*
X426381Y385386D01*
X436423Y395427D01*
X437061Y396383D01*
X437286Y397510D01*
Y476788D01*
X437462Y476362D01*
X438150Y475674D01*
Y394056D01*
X419557Y375463D01*
X418919Y374507D01*
X418694Y373380D01*
Y340360D01*
X418919Y339233D01*
X419557Y338277D01*
X426234Y331600D01*
Y329266D01*
X425546Y328578D01*
X424894Y327002D01*
Y325297D01*
X425191Y324580D01*
X425033Y324646D01*
X423327D01*
X423169Y324580D01*
X423466Y325297D01*
Y327002D01*
X422813Y328578D01*
X421608Y329784D01*
X420033Y330436D01*
X418327D01*
X416752Y329784D01*
X415546Y328578D01*
X414894Y327002D01*
Y325297D01*
X415191Y324580D01*
X415033Y324646D01*
X413327D01*
X413169Y324580D01*
X413466Y325297D01*
Y327002D01*
X412813Y328578D01*
X411608Y329784D01*
X410033Y330436D01*
X408327D01*
X406752Y329784D01*
X405546Y328578D01*
X404894Y327002D01*
Y325297D01*
X405546Y323722D01*
X406234Y323034D01*
Y318992D01*
X395910D01*
Y307880D01*
X437450D01*
Y317569D01*
X437813Y317932D01*
X438466Y319508D01*
Y321213D01*
X437813Y322788D01*
X437126Y323476D01*
Y334170D01*
X436901Y335297D01*
X436263Y336253D01*
X430936Y341580D01*
Y369620D01*
X450393Y389077D01*
X451031Y390033D01*
X451256Y391160D01*
Y452896D01*
X451438Y452714D01*
X453013Y452062D01*
X454719D01*
X456294Y452714D01*
X456860Y453280D01*
Y449610D01*
X477860D01*
Y454414D01*
X500730D01*
Y452360D01*
X503784D01*
Y444800D01*
X500730D01*
Y434800D01*
X512730D01*
Y444800D01*
X509676D01*
Y452360D01*
X512730D01*
Y462360D01*
X500730D01*
Y460306D01*
X477860D01*
Y465110D01*
X456860D01*
Y459415D01*
X456294Y459981D01*
X454719Y460633D01*
X453013D01*
X451438Y459981D01*
X451256Y459798D01*
Y489644D01*
X451944Y490332D01*
X452596Y491907D01*
Y493613D01*
X451944Y495188D01*
X450738Y496394D01*
X449163Y497046D01*
X447457D01*
X445882Y496394D01*
X444677Y495188D01*
X444024Y493613D01*
Y491907D01*
X444677Y490332D01*
X445364Y489644D01*
Y479684D01*
X444729Y481218D01*
X443523Y482424D01*
X441948Y483076D01*
X440243D01*
X438668Y482424D01*
X437462Y481218D01*
X437286Y480792D01*
Y524414D01*
X437291Y524415D01*
X448278D01*
Y530454D01*
X452120D01*
X453247Y530679D01*
X454203Y531317D01*
X459690Y536804D01*
X462645D01*
X462720Y536427D01*
X463327Y535517D01*
X464237Y534910D01*
X465310Y534696D01*
X483510D01*
X484583Y534910D01*
X485493Y535517D01*
X486100Y536427D01*
X486314Y537500D01*
Y542000D01*
X486100Y543073D01*
X485493Y543983D01*
X484583Y544590D01*
X483510Y544804D01*
D02*
G37*
G36*
X398145Y539242D02*
X389890D01*
Y532892D01*
X398145D01*
Y539242D01*
D02*
G37*
G36*
X387350D02*
X379095D01*
Y532892D01*
X387350D01*
Y539242D01*
D02*
G37*
G36*
X398145Y528576D02*
X389890D01*
Y522226D01*
X398145D01*
Y528576D01*
D02*
G37*
G36*
X387350D02*
X379095D01*
Y522226D01*
X387350D01*
Y528576D01*
D02*
G37*
G36*
X561975Y528574D02*
X553720D01*
Y522224D01*
X561975D01*
Y528574D01*
D02*
G37*
G36*
X551180D02*
X542925D01*
Y522224D01*
X551180D01*
Y528574D01*
D02*
G37*
G36*
X532910Y532104D02*
X514710D01*
X513637Y531890D01*
X512727Y531283D01*
X512120Y530373D01*
X511906Y529300D01*
Y524800D01*
X512120Y523727D01*
X512727Y522817D01*
X513637Y522210D01*
X514710Y521996D01*
X532910D01*
X533983Y522210D01*
X534893Y522817D01*
X535500Y523727D01*
X535714Y524800D01*
Y529300D01*
X535500Y530373D01*
X534893Y531283D01*
X533983Y531890D01*
X532910Y532104D01*
D02*
G37*
G36*
X495300Y532974D02*
X474410D01*
X472143Y532523D01*
X471516Y532104D01*
X465310D01*
X464237Y531890D01*
X463327Y531283D01*
X462720Y530373D01*
X462506Y529300D01*
Y524800D01*
X462720Y523727D01*
X463327Y522817D01*
X464237Y522210D01*
X465310Y521996D01*
X471516D01*
X472143Y521577D01*
X474410Y521126D01*
X495300D01*
X497567Y521577D01*
X499489Y522861D01*
X500773Y524783D01*
X501224Y527050D01*
X500773Y529317D01*
X499489Y531239D01*
X497567Y532523D01*
X495300Y532974D01*
D02*
G37*
G36*
X398145Y519686D02*
X389890D01*
Y513336D01*
X398145D01*
Y519686D01*
D02*
G37*
G36*
X387350D02*
X379095D01*
Y513336D01*
X387350D01*
Y519686D01*
D02*
G37*
G36*
X561975Y519684D02*
X553720D01*
Y513334D01*
X561975D01*
Y519684D01*
D02*
G37*
G36*
X551180D02*
X542925D01*
Y513334D01*
X551180D01*
Y519684D01*
D02*
G37*
G36*
X291550Y512610D02*
X291283D01*
X290092Y512373D01*
X289082Y511698D01*
X288408Y510689D01*
X288171Y509497D01*
Y503430D01*
X291550D01*
Y512610D01*
D02*
G37*
G36*
X352858D02*
X352590D01*
Y502160D01*
Y491710D01*
X352858D01*
X354049Y491947D01*
X355056Y492620D01*
X355303Y492456D01*
X356283Y492261D01*
X359358D01*
X360338Y492456D01*
X361070Y492945D01*
X361803Y492456D01*
X362783Y492261D01*
X365858D01*
X366838Y492456D01*
X367669Y493011D01*
X368225Y493842D01*
X368420Y494823D01*
Y496236D01*
X379635D01*
Y495080D01*
X397605D01*
Y509240D01*
X379635D01*
Y508084D01*
X368420D01*
Y509497D01*
X368225Y510478D01*
X367669Y511309D01*
X366838Y511864D01*
X365858Y512059D01*
X362783D01*
X361803Y511864D01*
X361070Y511375D01*
X360338Y511864D01*
X359358Y512059D01*
X356283D01*
X355303Y511864D01*
X355056Y511700D01*
X354049Y512373D01*
X352858Y512610D01*
D02*
G37*
G36*
X100965Y500751D02*
X92710D01*
Y494401D01*
X100965D01*
Y500751D01*
D02*
G37*
G36*
X90170D02*
X81915D01*
Y494401D01*
X90170D01*
Y500751D01*
D02*
G37*
G36*
X561975Y499618D02*
X553720D01*
Y493268D01*
X561975D01*
Y499618D01*
D02*
G37*
G36*
X551180D02*
X542925D01*
Y493268D01*
X551180D01*
Y499618D01*
D02*
G37*
G36*
X291550Y500890D02*
X288171D01*
Y494823D01*
X288408Y493632D01*
X289082Y492622D01*
X290092Y491947D01*
X291283Y491710D01*
X291550D01*
Y500890D01*
D02*
G37*
G36*
X587864Y507361D02*
X585616D01*
X583444Y506780D01*
X581496Y505655D01*
X579906Y504065D01*
X578782Y502118D01*
X578200Y499946D01*
Y497697D01*
X578782Y495525D01*
X579906Y493578D01*
X581496Y491988D01*
X583444Y490863D01*
X585616Y490281D01*
X587864D01*
X590036Y490863D01*
X591984Y491988D01*
X593574Y493578D01*
X594698Y495525D01*
X595280Y497697D01*
Y499946D01*
X594698Y502118D01*
X593574Y504065D01*
X591984Y505655D01*
X590036Y506780D01*
X587864Y507361D01*
D02*
G37*
G36*
X100965Y491861D02*
X92710D01*
Y485511D01*
X100965D01*
Y491861D01*
D02*
G37*
G36*
X90170D02*
X81915D01*
Y485511D01*
X90170D01*
Y491861D01*
D02*
G37*
G36*
X561975Y490728D02*
X553720D01*
Y484378D01*
X561975D01*
Y490728D01*
D02*
G37*
G36*
X551180D02*
X542925D01*
Y484378D01*
X551180D01*
Y490728D01*
D02*
G37*
G36*
X456783Y521176D02*
X455077D01*
X453502Y520523D01*
X452296Y519318D01*
X451644Y517743D01*
Y516037D01*
X452296Y514462D01*
X453502Y513256D01*
X455077Y512604D01*
X456050D01*
X462737Y505917D01*
X463693Y505279D01*
X464820Y505054D01*
X464820Y505054D01*
X497323D01*
X549504Y452873D01*
Y448278D01*
X543465D01*
Y434118D01*
X561435D01*
Y448278D01*
X555396D01*
Y452873D01*
X558399Y455876D01*
X578688D01*
X578782Y455525D01*
X579906Y453578D01*
X581496Y451988D01*
X583444Y450863D01*
X585616Y450281D01*
X587864D01*
X590036Y450863D01*
X591984Y451988D01*
X593574Y453578D01*
X594698Y455525D01*
X595280Y457697D01*
Y459946D01*
X594698Y462118D01*
X593574Y464065D01*
X591984Y465655D01*
X590036Y466780D01*
X587864Y467361D01*
X585616D01*
X583444Y466780D01*
X581496Y465655D01*
X579906Y464065D01*
X578782Y462118D01*
X578688Y461767D01*
X557178D01*
X556051Y461543D01*
X555096Y460904D01*
X552450Y458259D01*
X544587Y466122D01*
X561435D01*
Y470256D01*
X579339D01*
X580466Y470481D01*
X581422Y471119D01*
X582000Y471697D01*
X583444Y470863D01*
X585616Y470282D01*
X587864D01*
X590036Y470863D01*
X591984Y471988D01*
X593574Y473578D01*
X594698Y475525D01*
X595280Y477697D01*
Y479946D01*
X594698Y482118D01*
X593574Y484065D01*
X591984Y485655D01*
X590036Y486780D01*
X587864Y487361D01*
X585616D01*
X583444Y486780D01*
X581496Y485655D01*
X579906Y484065D01*
X578782Y482118D01*
X578200Y479946D01*
Y477697D01*
X578510Y476539D01*
X578119Y476148D01*
X561435D01*
Y480282D01*
X548544D01*
X548259Y480339D01*
X541496D01*
Y480913D01*
X540844Y482488D01*
X539638Y483694D01*
X538063Y484346D01*
X536357D01*
X534782Y483694D01*
X533577Y482488D01*
X532924Y480913D01*
Y479207D01*
X533577Y477632D01*
X534782Y476427D01*
X536357Y475774D01*
X537330D01*
X537794Y475310D01*
X537794Y475310D01*
X538750Y474672D01*
X539877Y474447D01*
X543465D01*
Y467244D01*
X500626Y510083D01*
X499670Y510721D01*
X498543Y510946D01*
X466040D01*
X460216Y516770D01*
Y517743D01*
X459563Y519318D01*
X458358Y520523D01*
X456783Y521176D01*
D02*
G37*
G36*
X507583Y484346D02*
X505877D01*
X504302Y483694D01*
X503097Y482488D01*
X502444Y480913D01*
Y479207D01*
X502795Y478360D01*
X500730D01*
Y468360D01*
X512730D01*
Y478360D01*
X510665D01*
X511016Y479207D01*
Y480913D01*
X510364Y482488D01*
X509158Y483694D01*
X507583Y484346D01*
D02*
G37*
G36*
X100425Y481415D02*
X82455D01*
Y467255D01*
X88494D01*
Y462279D01*
X87983Y461767D01*
X71552D01*
X71458Y462118D01*
X70334Y464065D01*
X68744Y465655D01*
X66796Y466780D01*
X64624Y467362D01*
X62376D01*
X60204Y466780D01*
X58256Y465655D01*
X56666Y464065D01*
X55542Y462118D01*
X54960Y459946D01*
Y457697D01*
X55542Y455525D01*
X56666Y453578D01*
X58256Y451988D01*
X60204Y450864D01*
X62376Y450282D01*
X64624D01*
X66796Y450864D01*
X68744Y451988D01*
X70334Y453578D01*
X71458Y455525D01*
X71552Y455876D01*
X89203D01*
X90330Y456100D01*
X91285Y456739D01*
X93523Y458976D01*
X94161Y459932D01*
X94386Y461059D01*
Y467255D01*
X100425D01*
Y481415D01*
D02*
G37*
G36*
X407253Y461486D02*
X405547D01*
X403972Y460834D01*
X402766Y459628D01*
X402114Y458053D01*
Y456347D01*
X402766Y454772D01*
X403972Y453567D01*
X405547Y452914D01*
X407253D01*
X408828Y453567D01*
X409090Y453828D01*
X422702D01*
X423816Y452714D01*
X425392Y452062D01*
X427097D01*
X428672Y452714D01*
X429878Y453920D01*
X430530Y455495D01*
Y457200D01*
X429878Y458775D01*
X428672Y459981D01*
X427097Y460633D01*
X425392D01*
X423816Y459981D01*
X423554Y459719D01*
X409942D01*
X408828Y460834D01*
X407253Y461486D01*
D02*
G37*
G36*
X587864Y589495D02*
X585616D01*
X583444Y588913D01*
X581496Y587789D01*
X579906Y586199D01*
X578782Y584251D01*
X578200Y582079D01*
Y579831D01*
X578782Y577659D01*
X579906Y575711D01*
X581496Y574121D01*
X583444Y572997D01*
X585616Y572415D01*
X587864D01*
X590036Y572997D01*
X590351Y573178D01*
X594034Y569495D01*
X578200D01*
Y552415D01*
X595280D01*
Y568249D01*
X599034Y564495D01*
Y455282D01*
X590351Y446598D01*
X590036Y446780D01*
X587864Y447361D01*
X585616D01*
X583444Y446780D01*
X581496Y445655D01*
X579906Y444065D01*
X578782Y442118D01*
X578200Y439946D01*
Y437697D01*
X578782Y435525D01*
X579906Y433578D01*
X581496Y431988D01*
X583444Y430863D01*
X585616Y430281D01*
X587864D01*
X590036Y430863D01*
X590351Y431045D01*
X594034Y427361D01*
X578200D01*
Y410282D01*
X595280D01*
Y426116D01*
X602844Y418551D01*
Y316958D01*
X590351Y304465D01*
X590036Y304646D01*
X587864Y305228D01*
X585616D01*
X583444Y304646D01*
X581496Y303522D01*
X579906Y301932D01*
X578782Y299984D01*
X578200Y297812D01*
Y295564D01*
X578782Y293392D01*
X579906Y291444D01*
X581496Y289855D01*
X583444Y288730D01*
X585616Y288148D01*
X587864D01*
X590036Y288730D01*
X590351Y288912D01*
X594034Y285228D01*
X578200D01*
Y268148D01*
X595280D01*
Y283983D01*
X599034Y280228D01*
Y58370D01*
X580440Y39776D01*
X178900D01*
X167903Y50772D01*
X168147Y51194D01*
X168750Y53445D01*
Y55775D01*
X168147Y58026D01*
X166982Y60044D01*
X165334Y61692D01*
X163316Y62857D01*
X161065Y63460D01*
X158735D01*
X156484Y62857D01*
X154466Y61692D01*
X152818Y60044D01*
X151653Y58026D01*
X151050Y55775D01*
Y53445D01*
X151653Y51194D01*
X152818Y49176D01*
X154466Y47528D01*
X156484Y46363D01*
X158735Y45760D01*
X161065D01*
X163316Y46363D01*
X163738Y46607D01*
X175597Y34747D01*
X175597Y34747D01*
X176553Y34109D01*
X177680Y33884D01*
X581660D01*
X582787Y34109D01*
X583743Y34747D01*
X604063Y55067D01*
X604701Y56023D01*
X604926Y57150D01*
Y281448D01*
X604701Y282575D01*
X604063Y283531D01*
X594516Y293077D01*
X594698Y293392D01*
X595280Y295564D01*
Y297812D01*
X594698Y299984D01*
X594516Y300299D01*
X607873Y313655D01*
X608511Y314611D01*
X608736Y315738D01*
Y419771D01*
X608511Y420899D01*
X607873Y421854D01*
X594516Y435211D01*
X594698Y435525D01*
X595280Y437697D01*
Y439946D01*
X594698Y442118D01*
X594516Y442432D01*
X604063Y451979D01*
X604701Y452934D01*
X604926Y454062D01*
Y565715D01*
X604701Y566842D01*
X604063Y567798D01*
X594516Y577344D01*
X594698Y577659D01*
X595280Y579831D01*
Y582079D01*
X594698Y584251D01*
X593574Y586199D01*
X591984Y587789D01*
X590036Y588913D01*
X587864Y589495D01*
D02*
G37*
G36*
X64624Y447362D02*
X62376D01*
X60204Y446780D01*
X58256Y445655D01*
X56666Y444065D01*
X55542Y442118D01*
X54960Y439946D01*
Y437697D01*
X55542Y435525D01*
X56666Y433578D01*
X58256Y431988D01*
X60204Y430864D01*
X62376Y430282D01*
X64624D01*
X66796Y430864D01*
X68744Y431988D01*
X70334Y433578D01*
X71458Y435525D01*
X71552Y435876D01*
X82455D01*
Y431578D01*
X100425D01*
Y445738D01*
X82455D01*
Y441767D01*
X71552D01*
X71458Y442118D01*
X70334Y444065D01*
X68744Y445655D01*
X66796Y446780D01*
X64624Y447362D01*
D02*
G37*
G36*
X513270Y429340D02*
X508000D01*
Y425070D01*
X513270D01*
Y429340D01*
D02*
G37*
G36*
X505460D02*
X500190D01*
Y425070D01*
X505460D01*
Y429340D01*
D02*
G37*
G36*
X477360Y447149D02*
X457360D01*
X456580Y446994D01*
X455918Y446552D01*
X455476Y445890D01*
X455321Y445110D01*
Y426110D01*
X455476Y425330D01*
X455918Y424668D01*
X456580Y424226D01*
X457360Y424071D01*
X477360D01*
X478140Y424226D01*
X478802Y424668D01*
X479244Y425330D01*
X479399Y426110D01*
Y445110D01*
X479244Y445890D01*
X478802Y446552D01*
X478140Y446994D01*
X477360Y447149D01*
D02*
G37*
G36*
X561975Y430022D02*
X553720D01*
Y423672D01*
X561975D01*
Y430022D01*
D02*
G37*
G36*
X551180D02*
X542925D01*
Y423672D01*
X551180D01*
Y430022D01*
D02*
G37*
G36*
X100965Y427482D02*
X92710D01*
Y421132D01*
X100965D01*
Y427482D01*
D02*
G37*
G36*
X90170D02*
X81915D01*
Y421132D01*
X90170D01*
Y427482D01*
D02*
G37*
G36*
X513270Y422530D02*
X508000D01*
Y418260D01*
X513270D01*
Y422530D01*
D02*
G37*
G36*
X505460D02*
X500190D01*
Y418260D01*
X505460D01*
Y422530D01*
D02*
G37*
G36*
X478400Y422150D02*
X468630D01*
Y415130D01*
X478400D01*
Y422150D01*
D02*
G37*
G36*
X466090D02*
X456320D01*
Y415130D01*
X466090D01*
Y422150D01*
D02*
G37*
G36*
X561975Y421132D02*
X553720D01*
Y414782D01*
X561975D01*
Y421132D01*
D02*
G37*
G36*
X551180D02*
X542925D01*
Y414782D01*
X551180D01*
Y421132D01*
D02*
G37*
G36*
X100965Y418592D02*
X92710D01*
Y412242D01*
X100965D01*
Y418592D01*
D02*
G37*
G36*
X90170D02*
X81915D01*
Y412242D01*
X90170D01*
Y418592D01*
D02*
G37*
G36*
X64624Y427362D02*
X62376D01*
X60204Y426780D01*
X58256Y425655D01*
X56666Y424065D01*
X55542Y422118D01*
X54960Y419946D01*
Y417697D01*
X55542Y415525D01*
X56666Y413578D01*
X58256Y411988D01*
X60204Y410864D01*
X62376Y410282D01*
X64624D01*
X66796Y410864D01*
X68744Y411988D01*
X70334Y413578D01*
X71458Y415525D01*
X72040Y417697D01*
Y419946D01*
X71458Y422118D01*
X70334Y424065D01*
X68744Y425655D01*
X66796Y426780D01*
X64624Y427362D01*
D02*
G37*
G36*
X260988Y414328D02*
X256718D01*
Y409058D01*
X260988D01*
Y414328D01*
D02*
G37*
G36*
X478400Y412590D02*
X468630D01*
Y405570D01*
X478400D01*
Y412590D01*
D02*
G37*
G36*
X466090D02*
X456320D01*
Y405570D01*
X466090D01*
Y412590D01*
D02*
G37*
G36*
X260988Y406518D02*
X256718D01*
Y401248D01*
X260988D01*
Y406518D01*
D02*
G37*
G36*
X532320Y396350D02*
X527050D01*
Y392080D01*
X532320D01*
Y396350D01*
D02*
G37*
G36*
X524510D02*
X519240D01*
Y392080D01*
X524510D01*
Y396350D01*
D02*
G37*
G36*
X507583Y401796D02*
X505877D01*
X504302Y401143D01*
X503097Y399938D01*
X502444Y398363D01*
Y396657D01*
X502795Y395810D01*
X500730D01*
Y385810D01*
X512730D01*
Y395810D01*
X510665D01*
X511016Y396657D01*
Y398363D01*
X510364Y399938D01*
X509158Y401143D01*
X507583Y401796D01*
D02*
G37*
G36*
X532320Y389540D02*
X527050D01*
Y385270D01*
X532320D01*
Y389540D01*
D02*
G37*
G36*
X524510D02*
X519240D01*
Y385270D01*
X524510D01*
Y389540D01*
D02*
G37*
G36*
X468213Y391636D02*
X466507D01*
X464932Y390984D01*
X463727Y389778D01*
X463074Y388203D01*
Y386497D01*
X463727Y384922D01*
X464414Y384234D01*
Y382560D01*
X456860D01*
Y367060D01*
X477860D01*
Y371864D01*
X500730D01*
Y369810D01*
X503784D01*
Y366998D01*
X501555D01*
Y352838D01*
X519525D01*
Y366998D01*
X509676D01*
Y369810D01*
X512730D01*
Y371864D01*
X519780D01*
Y369810D01*
X531780D01*
Y379810D01*
X519780D01*
Y377756D01*
X512730D01*
Y379810D01*
X500730D01*
Y377756D01*
X477860D01*
Y382560D01*
X470306D01*
Y384234D01*
X470993Y384922D01*
X471646Y386497D01*
Y388203D01*
X470993Y389778D01*
X469788Y390984D01*
X468213Y391636D01*
D02*
G37*
G36*
X100965Y364937D02*
X92710D01*
Y358587D01*
X100965D01*
Y364937D01*
D02*
G37*
G36*
X90170D02*
X81915D01*
Y358587D01*
X90170D01*
Y364937D01*
D02*
G37*
G36*
X561975Y361188D02*
X553720D01*
Y354838D01*
X561975D01*
Y361188D01*
D02*
G37*
G36*
X551180D02*
X542925D01*
Y354838D01*
X551180D01*
Y361188D01*
D02*
G37*
G36*
X408258Y358258D02*
X403988D01*
Y352988D01*
X408258D01*
Y358258D01*
D02*
G37*
G36*
X100965Y356047D02*
X92710D01*
Y349697D01*
X100965D01*
Y356047D01*
D02*
G37*
G36*
X90170D02*
X81915D01*
Y349697D01*
X90170D01*
Y356047D01*
D02*
G37*
G36*
X587864Y365228D02*
X585616D01*
X583444Y364646D01*
X581496Y363522D01*
X579906Y361932D01*
X578782Y359985D01*
X578200Y357812D01*
Y355564D01*
X578782Y353392D01*
X579906Y351445D01*
X581496Y349855D01*
X583444Y348730D01*
X585616Y348148D01*
X587864D01*
X590036Y348730D01*
X591984Y349855D01*
X593574Y351445D01*
X594698Y353392D01*
X595280Y355564D01*
Y357812D01*
X594698Y359985D01*
X593574Y361932D01*
X591984Y363522D01*
X590036Y364646D01*
X587864Y365228D01*
D02*
G37*
G36*
X561975Y352298D02*
X553720D01*
Y345948D01*
X561975D01*
Y352298D01*
D02*
G37*
G36*
X551180D02*
X542925D01*
Y345948D01*
X551180D01*
Y352298D01*
D02*
G37*
G36*
X520065Y348742D02*
X511810D01*
Y342392D01*
X520065D01*
Y348742D01*
D02*
G37*
G36*
X509270D02*
X501015D01*
Y342392D01*
X509270D01*
Y348742D01*
D02*
G37*
G36*
X477360Y364599D02*
X457360D01*
X456580Y364444D01*
X455918Y364002D01*
X455476Y363340D01*
X455321Y362560D01*
Y343560D01*
X455476Y342780D01*
X455918Y342118D01*
X456580Y341676D01*
X457360Y341521D01*
X477360D01*
X478140Y341676D01*
X478802Y342118D01*
X479244Y342780D01*
X479399Y343560D01*
Y362560D01*
X479244Y363340D01*
X478802Y364002D01*
X478140Y364444D01*
X477360Y364599D01*
D02*
G37*
G36*
X587864Y345228D02*
X585616D01*
X583444Y344646D01*
X581496Y343522D01*
X579906Y341932D01*
X578782Y339985D01*
X578688Y339634D01*
X561435D01*
Y341852D01*
X543465D01*
Y327692D01*
X549504D01*
Y326340D01*
X543680Y320516D01*
X542707D01*
X541132Y319863D01*
X539926Y318658D01*
X539274Y317083D01*
Y315377D01*
X539926Y313802D01*
X541132Y312596D01*
X542707Y311944D01*
X544413D01*
X545988Y312596D01*
X547193Y313802D01*
X547846Y315377D01*
Y316350D01*
X554533Y323037D01*
X555171Y323993D01*
X555396Y325120D01*
X555396Y325120D01*
Y327692D01*
X561435D01*
Y333743D01*
X578688D01*
X578782Y333392D01*
X579906Y331445D01*
X581496Y329855D01*
X583444Y328730D01*
X585616Y328148D01*
X587864D01*
X590036Y328730D01*
X591984Y329855D01*
X593574Y331445D01*
X594698Y333392D01*
X595280Y335564D01*
Y337812D01*
X594698Y339985D01*
X593574Y341932D01*
X591984Y343522D01*
X590036Y344646D01*
X587864Y345228D01*
D02*
G37*
G36*
X520065Y339852D02*
X511810D01*
Y333502D01*
X520065D01*
Y339852D01*
D02*
G37*
G36*
X509270D02*
X501015D01*
Y333502D01*
X509270D01*
Y339852D01*
D02*
G37*
G36*
X478400Y339600D02*
X468630D01*
Y332580D01*
X478400D01*
Y339600D01*
D02*
G37*
G36*
X466090D02*
X456320D01*
Y332580D01*
X466090D01*
Y339600D01*
D02*
G37*
G36*
X380938Y327398D02*
X375668D01*
Y323128D01*
X380938D01*
Y327398D01*
D02*
G37*
G36*
X373128D02*
X367858D01*
Y323128D01*
X373128D01*
Y327398D01*
D02*
G37*
G36*
X294578D02*
X289308D01*
Y323128D01*
X294578D01*
Y327398D01*
D02*
G37*
G36*
X286768D02*
X281498D01*
Y323128D01*
X286768D01*
Y327398D01*
D02*
G37*
G36*
X478400Y330040D02*
X468630D01*
Y323020D01*
X478400D01*
Y330040D01*
D02*
G37*
G36*
X466090D02*
X456320D01*
Y323020D01*
X466090D01*
Y330040D01*
D02*
G37*
G36*
X233699Y326020D02*
X233680D01*
Y317500D01*
X242200D01*
Y317519D01*
X241533Y320009D01*
X240244Y322241D01*
X238421Y324064D01*
X236189Y325353D01*
X233699Y326020D01*
D02*
G37*
G36*
X231140D02*
X231121D01*
X228631Y325353D01*
X226399Y324064D01*
X224576Y322241D01*
X223287Y320009D01*
X222620Y317519D01*
Y317500D01*
X231140D01*
Y326020D01*
D02*
G37*
G36*
X526633Y363696D02*
X524927D01*
X523352Y363044D01*
X522146Y361838D01*
X521494Y360263D01*
Y358557D01*
X522146Y356982D01*
X522834Y356294D01*
Y313690D01*
X523059Y312563D01*
X523697Y311607D01*
X539699Y295605D01*
X539699Y295605D01*
X540655Y294967D01*
X540842Y294929D01*
X541782Y294742D01*
X541782Y294742D01*
X543465D01*
Y290608D01*
X561435D01*
Y304768D01*
X555396D01*
Y309576D01*
X559562Y313743D01*
X578688D01*
X578782Y313392D01*
X579906Y311444D01*
X581496Y309855D01*
X583444Y308730D01*
X585616Y308148D01*
X587864D01*
X590036Y308730D01*
X591984Y309855D01*
X593574Y311444D01*
X594698Y313392D01*
X595280Y315564D01*
Y317812D01*
X594698Y319984D01*
X593574Y321932D01*
X591984Y323522D01*
X590036Y324646D01*
X587864Y325228D01*
X585616D01*
X583444Y324646D01*
X581496Y323522D01*
X579906Y321932D01*
X578782Y319984D01*
X578688Y319634D01*
X558342D01*
X557215Y319410D01*
X556259Y318771D01*
X550367Y312879D01*
X549729Y311924D01*
X549504Y310796D01*
Y304768D01*
X543465D01*
Y300634D01*
X543002D01*
X528726Y314910D01*
Y356294D01*
X529413Y356982D01*
X530066Y358557D01*
Y360263D01*
X529413Y361838D01*
X528208Y363044D01*
X526633Y363696D01*
D02*
G37*
G36*
X365698Y312158D02*
X360428D01*
Y307888D01*
X365698D01*
Y312158D01*
D02*
G37*
G36*
X186610Y346360D02*
X176610D01*
Y334360D01*
X178664D01*
Y325017D01*
X178040Y324850D01*
X175930Y323632D01*
X174208Y321910D01*
X172990Y319800D01*
X172360Y317448D01*
Y315012D01*
X172990Y312660D01*
X174208Y310550D01*
X175930Y308828D01*
X178040Y307610D01*
X180392Y306980D01*
X182828D01*
X185180Y307610D01*
X187290Y308828D01*
X189012Y310550D01*
X190230Y312660D01*
X190860Y315012D01*
Y317448D01*
X190230Y319800D01*
X189012Y321910D01*
X187290Y323632D01*
X185180Y324850D01*
X184556Y325017D01*
Y334360D01*
X186610D01*
Y346360D01*
D02*
G37*
G36*
X340550Y310770D02*
X335280D01*
Y306500D01*
X340550D01*
Y310770D01*
D02*
G37*
G36*
X242200Y314960D02*
X233680D01*
Y306440D01*
X233699D01*
X236189Y307107D01*
X238421Y308396D01*
X240244Y310219D01*
X241533Y312451D01*
X242200Y314941D01*
Y314960D01*
D02*
G37*
G36*
X231140D02*
X222620D01*
Y314941D01*
X223287Y312451D01*
X224576Y310219D01*
X226399Y308396D01*
X228631Y307107D01*
X231121Y306440D01*
X231140D01*
Y314960D01*
D02*
G37*
G36*
X165460Y325480D02*
X146960D01*
Y306980D01*
X150540D01*
Y296640D01*
X148368D01*
Y285020D01*
X155892D01*
X156464Y284906D01*
X157036Y285020D01*
X164560D01*
Y296640D01*
X162388D01*
Y306980D01*
X165460D01*
Y325480D01*
D02*
G37*
G36*
X208228D02*
X205792D01*
X203440Y324850D01*
X201330Y323632D01*
X199608Y321910D01*
X198390Y319800D01*
X197760Y317448D01*
Y315012D01*
X198390Y312660D01*
X199608Y310550D01*
X201330Y308828D01*
X203440Y307610D01*
X204064Y307443D01*
Y296830D01*
X202010D01*
Y284830D01*
X212010D01*
Y296830D01*
X209956D01*
Y307443D01*
X210580Y307610D01*
X212690Y308828D01*
X214412Y310550D01*
X215630Y312660D01*
X216260Y315012D01*
Y317448D01*
X215630Y319800D01*
X214412Y321910D01*
X212690Y323632D01*
X210580Y324850D01*
X208228Y325480D01*
D02*
G37*
G36*
X561975Y286512D02*
X553720D01*
Y280162D01*
X561975D01*
Y286512D01*
D02*
G37*
G36*
X551180D02*
X542925D01*
Y280162D01*
X551180D01*
Y286512D01*
D02*
G37*
G36*
X322351Y287305D02*
X320269D01*
X318259Y286766D01*
X316456Y285726D01*
X314984Y284254D01*
X313944Y282451D01*
X313405Y280441D01*
Y278359D01*
X313944Y276349D01*
X314984Y274546D01*
X316456Y273074D01*
X318259Y272034D01*
X320269Y271495D01*
X322351D01*
X324361Y272034D01*
X326164Y273074D01*
X327636Y274546D01*
X328676Y276349D01*
X329215Y278359D01*
Y280441D01*
X328676Y282451D01*
X327636Y284254D01*
X326164Y285726D01*
X324361Y286766D01*
X322351Y287305D01*
D02*
G37*
G36*
X561975Y277622D02*
X553720D01*
Y271272D01*
X561975D01*
Y277622D01*
D02*
G37*
G36*
X551180D02*
X542925D01*
Y271272D01*
X551180D01*
Y277622D01*
D02*
G37*
G36*
X295982Y271745D02*
X295910D01*
Y262825D01*
X304830D01*
Y262897D01*
X304136Y265488D01*
X302794Y267812D01*
X300897Y269709D01*
X298573Y271051D01*
X295982Y271745D01*
D02*
G37*
G36*
X143582D02*
X143510D01*
Y262825D01*
X152430D01*
Y262897D01*
X151736Y265488D01*
X150394Y267812D01*
X148497Y269709D01*
X146173Y271051D01*
X143582Y271745D01*
D02*
G37*
G36*
X293370D02*
X293298D01*
X290707Y271051D01*
X288383Y269709D01*
X286486Y267812D01*
X285144Y265488D01*
X284450Y262897D01*
Y262825D01*
X293370D01*
Y271745D01*
D02*
G37*
G36*
X140970D02*
X140898D01*
X138307Y271051D01*
X135983Y269709D01*
X134086Y267812D01*
X132744Y265488D01*
X132050Y262897D01*
Y262825D01*
X140970D01*
Y271745D01*
D02*
G37*
G36*
X343941Y274605D02*
X341859D01*
X339849Y274066D01*
X338046Y273026D01*
X336574Y271554D01*
X335534Y269751D01*
X334995Y267741D01*
Y265659D01*
X335534Y263649D01*
X336574Y261846D01*
X338046Y260374D01*
X339849Y259334D01*
X341859Y258795D01*
X343941D01*
X345951Y259334D01*
X347754Y260374D01*
X349226Y261846D01*
X350266Y263649D01*
X350805Y265659D01*
Y267741D01*
X350266Y269751D01*
X349226Y271554D01*
X347754Y273026D01*
X345951Y274066D01*
X343941Y274605D01*
D02*
G37*
G36*
X270511Y271205D02*
X267969D01*
X265515Y270547D01*
X263315Y269277D01*
X261518Y267480D01*
X260248Y265280D01*
X259590Y262826D01*
Y260285D01*
X260248Y257830D01*
X261518Y255630D01*
X263315Y253833D01*
X265515Y252563D01*
X267969Y251905D01*
X270511D01*
X272965Y252563D01*
X275165Y253833D01*
X276962Y255630D01*
X278232Y257830D01*
X278890Y260285D01*
Y262826D01*
X278232Y265280D01*
X276962Y267480D01*
X275165Y269277D01*
X272965Y270547D01*
X270511Y271205D01*
D02*
G37*
G36*
X245110D02*
X242570D01*
X240115Y270547D01*
X237915Y269277D01*
X236118Y267480D01*
X234848Y265280D01*
X234190Y262826D01*
Y260285D01*
X234190Y260283D01*
X134386Y160479D01*
X69654D01*
X68744Y161389D01*
X66796Y162513D01*
X64624Y163095D01*
X62376D01*
X60204Y162513D01*
X58256Y161389D01*
X56666Y159799D01*
X55542Y157851D01*
X54960Y155679D01*
Y153431D01*
X55542Y151259D01*
X56666Y149311D01*
X58256Y147721D01*
X60204Y146597D01*
X62376Y146015D01*
X64624D01*
X66796Y146597D01*
X68744Y147721D01*
X69654Y148631D01*
X136840D01*
X139107Y149082D01*
X141029Y150366D01*
X242568Y251905D01*
X242570Y251905D01*
X245110D01*
X247565Y252563D01*
X249765Y253833D01*
X251562Y255630D01*
X252832Y257830D01*
X253490Y260285D01*
Y262826D01*
X252832Y265280D01*
X251562Y267480D01*
X249765Y269277D01*
X247565Y270547D01*
X245110Y271205D01*
D02*
G37*
G36*
X219711D02*
X217169D01*
X214715Y270547D01*
X212515Y269277D01*
X210718Y267480D01*
X209448Y265280D01*
X208790Y262826D01*
Y260285D01*
X208790Y260283D01*
X128986Y180479D01*
X69654D01*
X68744Y181389D01*
X66796Y182513D01*
X64624Y183095D01*
X62376D01*
X60204Y182513D01*
X58256Y181389D01*
X56666Y179799D01*
X55542Y177851D01*
X54960Y175679D01*
Y173431D01*
X55542Y171259D01*
X56666Y169311D01*
X58256Y167721D01*
X60204Y166597D01*
X62376Y166015D01*
X64624D01*
X66796Y166597D01*
X68744Y167721D01*
X69654Y168631D01*
X131440D01*
X133707Y169082D01*
X135629Y170366D01*
X217168Y251905D01*
X217169Y251905D01*
X219711D01*
X222165Y252563D01*
X224365Y253833D01*
X226162Y255630D01*
X227432Y257830D01*
X228090Y260285D01*
Y262826D01*
X227432Y265280D01*
X226162Y267480D01*
X224365Y269277D01*
X222165Y270547D01*
X219711Y271205D01*
D02*
G37*
G36*
X194310D02*
X191770D01*
X189315Y270547D01*
X187115Y269277D01*
X185318Y267480D01*
X184048Y265280D01*
X183390Y262826D01*
Y260285D01*
X183390Y260283D01*
X123586Y200479D01*
X69654D01*
X68744Y201389D01*
X66796Y202513D01*
X64624Y203095D01*
X62376D01*
X60204Y202513D01*
X58256Y201389D01*
X56666Y199799D01*
X55542Y197851D01*
X54960Y195679D01*
Y193431D01*
X55542Y191259D01*
X56666Y189311D01*
X58256Y187721D01*
X60204Y186597D01*
X62376Y186015D01*
X64624D01*
X66796Y186597D01*
X68744Y187721D01*
X69654Y188631D01*
X126040D01*
X128307Y189082D01*
X130229Y190366D01*
X191768Y251905D01*
X191770Y251905D01*
X194310D01*
X196765Y252563D01*
X198965Y253833D01*
X200762Y255630D01*
X202032Y257830D01*
X202690Y260285D01*
Y262826D01*
X202032Y265280D01*
X200762Y267480D01*
X198965Y269277D01*
X196765Y270547D01*
X194310Y271205D01*
D02*
G37*
G36*
X168911D02*
X166369D01*
X163915Y270547D01*
X161715Y269277D01*
X159918Y267480D01*
X158648Y265280D01*
X157990Y262826D01*
Y260285D01*
X157990Y260283D01*
X118186Y220479D01*
X72040D01*
Y223095D01*
X54960D01*
Y206015D01*
X72040D01*
Y208631D01*
X120640D01*
X122907Y209082D01*
X124829Y210366D01*
X166368Y251905D01*
X166369Y251905D01*
X168911D01*
X171365Y252563D01*
X173565Y253833D01*
X175362Y255630D01*
X176632Y257830D01*
X177290Y260285D01*
Y262826D01*
X176632Y265280D01*
X175362Y267480D01*
X173565Y269277D01*
X171365Y270547D01*
X168911Y271205D01*
D02*
G37*
G36*
X118111D02*
X115569D01*
X113115Y270547D01*
X110915Y269277D01*
X109118Y267480D01*
X107848Y265280D01*
X107190Y262826D01*
Y260285D01*
X107848Y257830D01*
X109118Y255630D01*
X110915Y253833D01*
X113115Y252563D01*
X115569Y251905D01*
X118111D01*
X120565Y252563D01*
X122765Y253833D01*
X124562Y255630D01*
X125832Y257830D01*
X126490Y260285D01*
Y262826D01*
X125832Y265280D01*
X124562Y267480D01*
X122765Y269277D01*
X120565Y270547D01*
X118111Y271205D01*
D02*
G37*
G36*
X304830Y260285D02*
X295910D01*
Y251365D01*
X295982D01*
X298573Y252059D01*
X300897Y253401D01*
X302794Y255298D01*
X304136Y257622D01*
X304830Y260214D01*
Y260285D01*
D02*
G37*
G36*
X293370D02*
X284450D01*
Y260214D01*
X285144Y257622D01*
X286486Y255298D01*
X288383Y253401D01*
X290707Y252059D01*
X293298Y251365D01*
X293370D01*
Y260285D01*
D02*
G37*
G36*
X152430D02*
X143510D01*
Y251365D01*
X143582D01*
X146173Y252059D01*
X148497Y253401D01*
X150394Y255298D01*
X151736Y257622D01*
X152430Y260214D01*
Y260285D01*
D02*
G37*
G36*
X140970D02*
X132050D01*
Y260214D01*
X132744Y257622D01*
X134086Y255298D01*
X135983Y253401D01*
X138307Y252059D01*
X140898Y251365D01*
X140970D01*
Y260285D01*
D02*
G37*
G36*
X100965Y250952D02*
X92710D01*
Y244602D01*
X100965D01*
Y250952D01*
D02*
G37*
G36*
X90170D02*
X81915D01*
Y244602D01*
X90170D01*
Y250952D01*
D02*
G37*
G36*
X113375Y246348D02*
X111669D01*
X110094Y245695D01*
X108889Y244490D01*
X108236Y242915D01*
Y241209D01*
X108889Y239634D01*
X110094Y238428D01*
X111669Y237776D01*
X113375D01*
X114950Y238428D01*
X116156Y239634D01*
X116808Y241209D01*
Y242915D01*
X116156Y244490D01*
X114950Y245695D01*
X113375Y246348D01*
D02*
G37*
G36*
X100965Y242062D02*
X92710D01*
Y235712D01*
X100965D01*
Y242062D01*
D02*
G37*
G36*
X90170D02*
X81915D01*
Y235712D01*
X90170D01*
Y242062D01*
D02*
G37*
G36*
X513080Y223114D02*
X504698D01*
Y219050D01*
X513080D01*
Y223114D01*
D02*
G37*
G36*
X401320D02*
X392938D01*
Y219050D01*
X401320D01*
Y223114D01*
D02*
G37*
G36*
X502158D02*
X493776D01*
Y219050D01*
X502158D01*
Y223114D01*
D02*
G37*
G36*
X390398D02*
X382016D01*
Y219050D01*
X390398D01*
Y223114D01*
D02*
G37*
G36*
X534035Y222736D02*
X525780D01*
Y216386D01*
X534035D01*
Y222736D01*
D02*
G37*
G36*
X523240D02*
X514985D01*
Y216386D01*
X523240D01*
Y222736D01*
D02*
G37*
G36*
X513080Y216510D02*
X504698D01*
Y212446D01*
X513080D01*
Y216510D01*
D02*
G37*
G36*
X502158D02*
X493776D01*
Y212446D01*
X502158D01*
Y216510D01*
D02*
G37*
G36*
X401320D02*
X392938D01*
Y212446D01*
X401320D01*
Y216510D01*
D02*
G37*
G36*
X390398D02*
X382016D01*
Y212446D01*
X390398D01*
Y216510D01*
D02*
G37*
G36*
X216753Y220186D02*
X215047D01*
X213472Y219534D01*
X212267Y218328D01*
X211614Y216753D01*
Y215047D01*
X212267Y213472D01*
X213472Y212267D01*
X215047Y211614D01*
X216753D01*
X218328Y212267D01*
X219534Y213472D01*
X220186Y215047D01*
Y216753D01*
X219534Y218328D01*
X218328Y219534D01*
X216753Y220186D01*
D02*
G37*
G36*
X534035Y213846D02*
X525780D01*
Y207496D01*
X534035D01*
Y213846D01*
D02*
G37*
G36*
X523240D02*
X514985D01*
Y207496D01*
X523240D01*
Y213846D01*
D02*
G37*
G36*
X587864Y223095D02*
X585616D01*
X583444Y222513D01*
X581496Y221389D01*
X579906Y219799D01*
X578782Y217851D01*
X578200Y215679D01*
Y213431D01*
X578782Y211259D01*
X579906Y209311D01*
X581496Y207721D01*
X583444Y206597D01*
X585616Y206015D01*
X587864D01*
X590036Y206597D01*
X591984Y207721D01*
X593574Y209311D01*
X594698Y211259D01*
X595280Y213431D01*
Y215679D01*
X594698Y217851D01*
X593574Y219799D01*
X591984Y221389D01*
X590036Y222513D01*
X587864Y223095D01*
D02*
G37*
G36*
X407670Y234086D02*
X327660D01*
X326533Y233861D01*
X325577Y233223D01*
X325577Y233223D01*
X311607Y219253D01*
X310969Y218297D01*
X310744Y217170D01*
Y109170D01*
X296367Y94793D01*
X295729Y93837D01*
X295504Y92710D01*
Y82092D01*
X295147Y83426D01*
X293982Y85444D01*
X292334Y87092D01*
X290316Y88257D01*
X288065Y88860D01*
X285735D01*
X283484Y88257D01*
X281466Y87092D01*
X279818Y85444D01*
X278653Y83426D01*
X278050Y81175D01*
Y78845D01*
X278653Y76594D01*
X279818Y74576D01*
X281466Y72928D01*
X283484Y71763D01*
X285735Y71160D01*
X288065D01*
X290316Y71763D01*
X292334Y72928D01*
X293982Y74576D01*
X295147Y76594D01*
X295504Y77928D01*
Y56692D01*
X295147Y58026D01*
X293982Y60044D01*
X292334Y61692D01*
X290316Y62857D01*
X288065Y63460D01*
X285735D01*
X283484Y62857D01*
X281466Y61692D01*
X279818Y60044D01*
X278653Y58026D01*
X278050Y55775D01*
Y53445D01*
X278653Y51194D01*
X279818Y49176D01*
X281466Y47528D01*
X283484Y46363D01*
X284370Y46126D01*
X264030D01*
X264916Y46363D01*
X266934Y47528D01*
X268582Y49176D01*
X269747Y51194D01*
X270350Y53445D01*
Y55775D01*
X269747Y58026D01*
X268582Y60044D01*
X266934Y61692D01*
X264916Y62857D01*
X262665Y63460D01*
X260335D01*
X258084Y62857D01*
X256066Y61692D01*
X254418Y60044D01*
X253253Y58026D01*
X252650Y55775D01*
Y53445D01*
X253253Y51194D01*
X254418Y49176D01*
X256066Y47528D01*
X258084Y46363D01*
X258971Y46126D01*
X238629D01*
X239516Y46363D01*
X241534Y47528D01*
X243182Y49176D01*
X244347Y51194D01*
X244950Y53445D01*
Y55775D01*
X244347Y58026D01*
X243182Y60044D01*
X241534Y61692D01*
X239516Y62857D01*
X237265Y63460D01*
X234935D01*
X232684Y62857D01*
X230666Y61692D01*
X229018Y60044D01*
X227853Y58026D01*
X227250Y55775D01*
Y53445D01*
X227853Y51194D01*
X229018Y49176D01*
X230666Y47528D01*
X232684Y46363D01*
X233570Y46126D01*
X213230D01*
X214116Y46363D01*
X216134Y47528D01*
X217782Y49176D01*
X218947Y51194D01*
X219550Y53445D01*
Y55775D01*
X218947Y58026D01*
X217782Y60044D01*
X216134Y61692D01*
X214116Y62857D01*
X211865Y63460D01*
X209535D01*
X207284Y62857D01*
X205266Y61692D01*
X203618Y60044D01*
X202453Y58026D01*
X201850Y55775D01*
Y53445D01*
X202453Y51194D01*
X203618Y49176D01*
X205266Y47528D01*
X207284Y46363D01*
X208171Y46126D01*
X205690D01*
X201066Y50750D01*
Y67190D01*
X201066Y67190D01*
X200879Y68130D01*
X200841Y68317D01*
X200203Y69273D01*
X200203Y69273D01*
X193303Y76172D01*
X193547Y76594D01*
X194150Y78845D01*
Y81175D01*
X193547Y83426D01*
X192382Y85444D01*
X190734Y87092D01*
X188716Y88257D01*
X186465Y88860D01*
X184135D01*
X181884Y88257D01*
X179866Y87092D01*
X178218Y85444D01*
X177053Y83426D01*
X176450Y81175D01*
Y78845D01*
X177053Y76594D01*
X178218Y74576D01*
X179866Y72928D01*
X181884Y71763D01*
X184135Y71160D01*
X186465D01*
X188716Y71763D01*
X189138Y72007D01*
X195174Y65970D01*
Y49530D01*
X195399Y48403D01*
X196037Y47447D01*
X202387Y41097D01*
X202387Y41097D01*
X203343Y40459D01*
X204470Y40234D01*
X293370D01*
X294497Y40459D01*
X295453Y41097D01*
X300533Y46177D01*
X301171Y47133D01*
X301396Y48260D01*
X301396Y48260D01*
Y91490D01*
X315773Y105867D01*
X316411Y106823D01*
X316636Y107950D01*
Y215950D01*
X328880Y228194D01*
X406450D01*
X409804Y224840D01*
Y222196D01*
X403765D01*
Y211210D01*
X403708Y210925D01*
Y210668D01*
X396614Y203574D01*
X384561D01*
X384440Y204180D01*
X383998Y204842D01*
X383336Y205284D01*
X382556Y205439D01*
X381984D01*
Y213074D01*
X370364D01*
Y213100D01*
X370110Y214376D01*
X369388Y215457D01*
X367747Y217097D01*
X366666Y217820D01*
X365390Y218074D01*
X363580D01*
Y222240D01*
X345080D01*
Y210666D01*
X342995Y212751D01*
Y222196D01*
X325025D01*
Y208036D01*
X338280D01*
X340877Y205439D01*
X325025D01*
X324245Y205284D01*
X323583Y204842D01*
X323141Y204180D01*
X322986Y203400D01*
Y145806D01*
X322986Y145806D01*
X323141Y145026D01*
X323583Y144364D01*
X323583Y144364D01*
X324379Y143568D01*
X325041Y143126D01*
X325821Y142971D01*
X345080D01*
X345860Y143126D01*
X346522Y143568D01*
X346964Y144230D01*
X347119Y145010D01*
X363580D01*
Y149176D01*
X363696D01*
Y146304D01*
X363760Y145982D01*
Y139986D01*
X381984D01*
Y149574D01*
X370364D01*
Y150622D01*
X370110Y151898D01*
X369388Y152979D01*
X367500Y154867D01*
X367275Y155018D01*
X367368Y155158D01*
X367558Y155390D01*
X367588Y155487D01*
X367644Y155571D01*
X367702Y155864D01*
X367789Y156151D01*
X367780Y156252D01*
X367799Y156351D01*
Y157981D01*
X382016D01*
Y155550D01*
X391668D01*
X401320D01*
Y157981D01*
X403225D01*
Y154156D01*
X412750D01*
X422275D01*
Y157981D01*
X427221D01*
Y145010D01*
X427376Y144230D01*
X427818Y143568D01*
X428480Y143126D01*
X429260Y142971D01*
X456840D01*
X457620Y143126D01*
X458282Y143568D01*
X458724Y144230D01*
X458879Y145010D01*
X475340D01*
Y149176D01*
X475456D01*
Y146304D01*
X475520Y145982D01*
Y139986D01*
X493744D01*
Y149574D01*
X482124D01*
Y150622D01*
X481870Y151898D01*
X481147Y152979D01*
X479259Y154867D01*
X478178Y155590D01*
X476902Y155844D01*
X475340D01*
Y158014D01*
X475400Y158014D01*
X475574Y158089D01*
X475760Y158126D01*
X475937Y158244D01*
X476132Y158327D01*
X477402Y159196D01*
X477534Y159332D01*
X477692Y159437D01*
X477810Y159614D01*
X477958Y159765D01*
X478029Y159941D01*
X478134Y160099D01*
X478175Y160307D01*
X478254Y160504D01*
X478252Y160693D01*
X478289Y160879D01*
X478289Y188371D01*
X478284Y188394D01*
X478289Y188418D01*
X478207Y188783D01*
X478134Y189151D01*
X478121Y189171D01*
X478116Y189194D01*
X477900Y189501D01*
X477692Y189813D01*
X477672Y189826D01*
X477658Y189846D01*
X476748Y190715D01*
X476432Y190916D01*
X476120Y191124D01*
X476097Y191129D01*
X476077Y191141D01*
X475707Y191206D01*
X475340Y191279D01*
Y204240D01*
X463001D01*
X462467Y205039D01*
X460266Y207240D01*
X475340D01*
Y211406D01*
X475456D01*
Y209804D01*
X475520Y209482D01*
Y203486D01*
X493744D01*
Y213074D01*
X482124D01*
Y213100D01*
X481870Y214376D01*
X481148Y215457D01*
X479507Y217097D01*
X478426Y217820D01*
X477150Y218074D01*
X475340D01*
Y222240D01*
X456840D01*
Y210666D01*
X454755Y212751D01*
Y222196D01*
X436785D01*
Y208036D01*
X450040D01*
X452637Y205439D01*
X434340D01*
X433560Y205284D01*
X432898Y204842D01*
X432456Y204180D01*
X432301Y203400D01*
Y191271D01*
X422275Y191279D01*
Y195050D01*
X412750D01*
Y196320D01*
X411480D01*
Y203940D01*
X405312D01*
X408737Y207365D01*
X409185Y208036D01*
X421735D01*
Y222196D01*
X415696D01*
Y226060D01*
X415696Y226060D01*
X415471Y227187D01*
X414833Y228143D01*
X409753Y233223D01*
X408797Y233861D01*
X407670Y234086D01*
D02*
G37*
G36*
X422275Y203940D02*
X414020D01*
Y197590D01*
X422275D01*
Y203940D01*
D02*
G37*
G36*
X587864Y203095D02*
X585616D01*
X583444Y202513D01*
X581496Y201389D01*
X579906Y199799D01*
X578782Y197851D01*
X578200Y195679D01*
Y193431D01*
X578782Y191259D01*
X579906Y189311D01*
X581496Y187721D01*
X583444Y186597D01*
X585616Y186015D01*
X587864D01*
X590036Y186597D01*
X591984Y187721D01*
X593574Y189311D01*
X594698Y191259D01*
X595280Y193431D01*
Y195679D01*
X594698Y197851D01*
X593574Y199799D01*
X591984Y201389D01*
X590036Y202513D01*
X587864Y203095D01*
D02*
G37*
G36*
X513080Y159614D02*
X504698D01*
Y155550D01*
X513080D01*
Y159614D01*
D02*
G37*
G36*
X502158D02*
X493776D01*
Y155550D01*
X502158D01*
Y159614D01*
D02*
G37*
G36*
X534035Y160506D02*
X525780D01*
Y154156D01*
X534035D01*
Y160506D01*
D02*
G37*
G36*
X523240D02*
X514985D01*
Y154156D01*
X523240D01*
Y160506D01*
D02*
G37*
G36*
X513080Y153010D02*
X504698D01*
Y148946D01*
X513080D01*
Y153010D01*
D02*
G37*
G36*
X502158D02*
X493776D01*
Y148946D01*
X502158D01*
Y153010D01*
D02*
G37*
G36*
X401320D02*
X392938D01*
Y148946D01*
X401320D01*
Y153010D01*
D02*
G37*
G36*
X390398D02*
X382016D01*
Y148946D01*
X390398D01*
Y153010D01*
D02*
G37*
G36*
X587864Y163095D02*
X585616D01*
X583444Y162513D01*
X581496Y161389D01*
X579906Y159799D01*
X578782Y157851D01*
X578200Y155679D01*
Y153431D01*
X578782Y151259D01*
X578964Y150944D01*
X552907Y124888D01*
X552269Y123932D01*
X552044Y122805D01*
Y73610D01*
X548690Y70256D01*
X502800D01*
X501673Y70031D01*
X500717Y69393D01*
X493938Y62613D01*
X493516Y62857D01*
X491265Y63460D01*
X488935D01*
X486684Y62857D01*
X484666Y61692D01*
X483018Y60044D01*
X481853Y58026D01*
X481250Y55775D01*
Y53445D01*
X481853Y51194D01*
X483018Y49176D01*
X484666Y47528D01*
X486684Y46363D01*
X488935Y45760D01*
X491265D01*
X493516Y46363D01*
X495534Y47528D01*
X497182Y49176D01*
X498347Y51194D01*
X498950Y53445D01*
Y55775D01*
X498347Y58026D01*
X498103Y58448D01*
X504020Y64364D01*
X549910D01*
X551037Y64589D01*
X551993Y65227D01*
X557073Y70307D01*
X557711Y71263D01*
X557936Y72390D01*
X557936Y72390D01*
Y77033D01*
X558053Y76594D01*
X559218Y74576D01*
X560866Y72928D01*
X562884Y71763D01*
X565135Y71160D01*
X567465D01*
X569716Y71763D01*
X571734Y72928D01*
X573382Y74576D01*
X574547Y76594D01*
X575150Y78845D01*
Y81175D01*
X574547Y83426D01*
X573382Y85444D01*
X571734Y87092D01*
X569716Y88257D01*
X567465Y88860D01*
X565135D01*
X562884Y88257D01*
X560866Y87092D01*
X559218Y85444D01*
X558053Y83426D01*
X557936Y82987D01*
Y121585D01*
X578200Y141849D01*
Y126015D01*
X595280D01*
Y143095D01*
X579446D01*
X583129Y146778D01*
X583444Y146597D01*
X585616Y146015D01*
X587864D01*
X590036Y146597D01*
X591984Y147721D01*
X593574Y149311D01*
X594698Y151259D01*
X595280Y153431D01*
Y155679D01*
X594698Y157851D01*
X593574Y159799D01*
X591984Y161389D01*
X590036Y162513D01*
X587864Y163095D01*
D02*
G37*
G36*
X534035Y151616D02*
X525780D01*
Y145266D01*
X534035D01*
Y151616D01*
D02*
G37*
G36*
X523240D02*
X514985D01*
Y145266D01*
X523240D01*
Y151616D01*
D02*
G37*
G36*
X422275D02*
X414020D01*
Y145266D01*
X422275D01*
Y151616D01*
D02*
G37*
G36*
X411480D02*
X403225D01*
Y145266D01*
X411480D01*
Y151616D01*
D02*
G37*
G36*
X533495Y141170D02*
X515525D01*
Y138614D01*
X512540D01*
Y140074D01*
X494316D01*
Y130486D01*
X500482D01*
Y119838D01*
X492810Y112166D01*
X392310D01*
X392310Y112166D01*
X391370Y111979D01*
X391183Y111941D01*
X390227Y111303D01*
X390227Y111303D01*
X366938Y88013D01*
X366516Y88257D01*
X364265Y88860D01*
X361935D01*
X359684Y88257D01*
X357666Y87092D01*
X356018Y85444D01*
X354853Y83426D01*
X354250Y81175D01*
Y78845D01*
X354853Y76594D01*
X356018Y74576D01*
X357666Y72928D01*
X359684Y71763D01*
X361935Y71160D01*
X364265D01*
X366516Y71763D01*
X368534Y72928D01*
X370182Y74576D01*
X371347Y76594D01*
X371950Y78845D01*
Y81175D01*
X371347Y83426D01*
X371103Y83848D01*
X393530Y106274D01*
X494030D01*
X495157Y106499D01*
X496113Y107137D01*
X505511Y116535D01*
X506149Y117491D01*
X506374Y118618D01*
Y130486D01*
X512540D01*
Y131946D01*
X515525D01*
Y127010D01*
X533495D01*
Y141170D01*
D02*
G37*
G36*
X421735D02*
X403765D01*
Y138614D01*
X400780D01*
Y140074D01*
X382556D01*
Y130486D01*
X388214D01*
Y123140D01*
X383590Y118516D01*
X342900D01*
X341773Y118291D01*
X340817Y117653D01*
X340817Y117653D01*
X323037Y99873D01*
X322399Y98917D01*
X322174Y97790D01*
Y68530D01*
X316214Y62569D01*
X315716Y62857D01*
X313465Y63460D01*
X311135D01*
X308884Y62857D01*
X306866Y61692D01*
X305218Y60044D01*
X304053Y58026D01*
X303450Y55775D01*
Y53445D01*
X304053Y51194D01*
X305218Y49176D01*
X306866Y47528D01*
X308884Y46363D01*
X311135Y45760D01*
X313465D01*
X315716Y46363D01*
X317734Y47528D01*
X319382Y49176D01*
X320547Y51194D01*
X321150Y53445D01*
Y55775D01*
X320547Y58026D01*
X320347Y58372D01*
X327203Y65227D01*
X327841Y66183D01*
X328066Y67310D01*
Y96570D01*
X344120Y112624D01*
X384810D01*
X385937Y112849D01*
X386893Y113487D01*
X393243Y119837D01*
X393243Y119837D01*
X393881Y120793D01*
X394106Y121920D01*
Y130486D01*
X400780D01*
Y131946D01*
X403765D01*
Y127010D01*
X421735D01*
Y141170D01*
D02*
G37*
G36*
X475340Y142010D02*
X456840D01*
Y137424D01*
X454755D01*
Y141170D01*
X436785D01*
Y127010D01*
X454755D01*
Y130756D01*
X456840D01*
Y127010D01*
X475340D01*
Y142010D01*
D02*
G37*
G36*
X363580D02*
X345080D01*
Y137424D01*
X342995D01*
Y141170D01*
X325025D01*
Y127010D01*
X342995D01*
Y130756D01*
X345080D01*
Y127010D01*
X363580D01*
Y142010D01*
D02*
G37*
G36*
X64624Y143095D02*
X62376D01*
X60204Y142513D01*
X58256Y141389D01*
X56666Y139799D01*
X55542Y137851D01*
X54960Y135679D01*
Y133431D01*
X55542Y131259D01*
X56666Y129311D01*
X58256Y127721D01*
X60204Y126597D01*
X62376Y126015D01*
X64624D01*
X66796Y126597D01*
X68744Y127721D01*
X70334Y129311D01*
X71458Y131259D01*
X72040Y133431D01*
Y135679D01*
X71458Y137851D01*
X70334Y139799D01*
X68744Y141389D01*
X66796Y142513D01*
X64624Y143095D01*
D02*
G37*
G36*
X295910Y144205D02*
X293370D01*
X290915Y143547D01*
X288715Y142277D01*
X286918Y140480D01*
X285648Y138280D01*
X284990Y135826D01*
Y133285D01*
X285648Y130830D01*
X286918Y128630D01*
X288715Y126833D01*
X290915Y125563D01*
X293370Y124905D01*
X295910D01*
X298365Y125563D01*
X300565Y126833D01*
X302362Y128630D01*
X303632Y130830D01*
X304290Y133285D01*
Y135826D01*
X303632Y138280D01*
X302362Y140480D01*
X300565Y142277D01*
X298365Y143547D01*
X295910Y144205D01*
D02*
G37*
G36*
X270511D02*
X267969D01*
X265515Y143547D01*
X263315Y142277D01*
X261518Y140480D01*
X260248Y138280D01*
X259590Y135826D01*
Y133285D01*
X260248Y130830D01*
X261518Y128630D01*
X263315Y126833D01*
X265515Y125563D01*
X267969Y124905D01*
X270511D01*
X272965Y125563D01*
X275165Y126833D01*
X276962Y128630D01*
X278232Y130830D01*
X278890Y133285D01*
Y135826D01*
X278232Y138280D01*
X276962Y140480D01*
X275165Y142277D01*
X272965Y143547D01*
X270511Y144205D01*
D02*
G37*
G36*
X245110D02*
X242570D01*
X240115Y143547D01*
X237915Y142277D01*
X236118Y140480D01*
X234848Y138280D01*
X234190Y135826D01*
Y133285D01*
X234848Y130830D01*
X236118Y128630D01*
X237915Y126833D01*
X240115Y125563D01*
X242570Y124905D01*
X245110D01*
X247565Y125563D01*
X249765Y126833D01*
X251562Y128630D01*
X252832Y130830D01*
X253490Y133285D01*
Y135826D01*
X252832Y138280D01*
X251562Y140480D01*
X249765Y142277D01*
X247565Y143547D01*
X245110Y144205D01*
D02*
G37*
G36*
X219711D02*
X217169D01*
X214715Y143547D01*
X212515Y142277D01*
X210718Y140480D01*
X209448Y138280D01*
X208790Y135826D01*
Y133285D01*
X209448Y130830D01*
X210718Y128630D01*
X212515Y126833D01*
X214715Y125563D01*
X217169Y124905D01*
X219711D01*
X222165Y125563D01*
X224365Y126833D01*
X226162Y128630D01*
X227432Y130830D01*
X228090Y133285D01*
Y135826D01*
X227432Y138280D01*
X226162Y140480D01*
X224365Y142277D01*
X222165Y143547D01*
X219711Y144205D01*
D02*
G37*
G36*
X194310D02*
X191770D01*
X189315Y143547D01*
X187115Y142277D01*
X185318Y140480D01*
X184048Y138280D01*
X183390Y135826D01*
Y133285D01*
X184048Y130830D01*
X185318Y128630D01*
X187115Y126833D01*
X189315Y125563D01*
X191770Y124905D01*
X194310D01*
X196765Y125563D01*
X198965Y126833D01*
X200762Y128630D01*
X202032Y130830D01*
X202690Y133285D01*
Y135826D01*
X202032Y138280D01*
X200762Y140480D01*
X198965Y142277D01*
X196765Y143547D01*
X194310Y144205D01*
D02*
G37*
G36*
X168911D02*
X166369D01*
X163915Y143547D01*
X161715Y142277D01*
X159918Y140480D01*
X158648Y138280D01*
X157990Y135826D01*
Y133285D01*
X158648Y130830D01*
X159918Y128630D01*
X161715Y126833D01*
X163915Y125563D01*
X166369Y124905D01*
X168911D01*
X171365Y125563D01*
X173565Y126833D01*
X175362Y128630D01*
X176632Y130830D01*
X177290Y133285D01*
Y135826D01*
X176632Y138280D01*
X175362Y140480D01*
X173565Y142277D01*
X171365Y143547D01*
X168911Y144205D01*
D02*
G37*
G36*
X143511D02*
X140969D01*
X138515Y143547D01*
X136315Y142277D01*
X134518Y140480D01*
X133248Y138280D01*
X132590Y135826D01*
Y133285D01*
X133248Y130830D01*
X134518Y128630D01*
X136315Y126833D01*
X138515Y125563D01*
X140969Y124905D01*
X143511D01*
X145965Y125563D01*
X148165Y126833D01*
X149962Y128630D01*
X151232Y130830D01*
X151890Y133285D01*
Y135826D01*
X151232Y138280D01*
X149962Y140480D01*
X148165Y142277D01*
X145965Y143547D01*
X143511Y144205D01*
D02*
G37*
G36*
X126490D02*
X107190D01*
Y124905D01*
X126490D01*
Y144205D01*
D02*
G37*
G36*
X313570Y89391D02*
Y81280D01*
X321681D01*
X321050Y83634D01*
X319814Y85776D01*
X318066Y87524D01*
X315924Y88760D01*
X313570Y89391D01*
D02*
G37*
G36*
X135770D02*
Y81280D01*
X143881D01*
X143250Y83634D01*
X142014Y85776D01*
X140266Y87524D01*
X138124Y88760D01*
X135770Y89391D01*
D02*
G37*
G36*
X491370D02*
Y81280D01*
X499481D01*
X498850Y83634D01*
X497614Y85776D01*
X495866Y87524D01*
X493724Y88760D01*
X491370Y89391D01*
D02*
G37*
G36*
X237370D02*
Y81280D01*
X245481D01*
X244850Y83634D01*
X243614Y85776D01*
X241866Y87524D01*
X239724Y88760D01*
X237370Y89391D01*
D02*
G37*
G36*
X311030D02*
X308676Y88760D01*
X306534Y87524D01*
X304786Y85776D01*
X303550Y83634D01*
X302919Y81280D01*
X311030D01*
Y89391D01*
D02*
G37*
G36*
X133230D02*
X130876Y88760D01*
X128734Y87524D01*
X126986Y85776D01*
X125750Y83634D01*
X125119Y81280D01*
X133230D01*
Y89391D01*
D02*
G37*
G36*
X488830D02*
X486476Y88760D01*
X484334Y87524D01*
X482586Y85776D01*
X481350Y83634D01*
X480719Y81280D01*
X488830D01*
Y89391D01*
D02*
G37*
G36*
X234830D02*
X232476Y88760D01*
X230334Y87524D01*
X228586Y85776D01*
X227350Y83634D01*
X226719Y81280D01*
X234830D01*
Y89391D01*
D02*
G37*
G36*
X512540Y203574D02*
X494316D01*
Y193986D01*
X512540D01*
Y195446D01*
X515525D01*
Y189240D01*
X521564D01*
Y179070D01*
X521789Y177943D01*
X522427Y176987D01*
X537954Y161460D01*
Y88383D01*
X537484Y88257D01*
X535466Y87092D01*
X533818Y85444D01*
X532653Y83426D01*
X532050Y81175D01*
Y78845D01*
X532653Y76594D01*
X533818Y74576D01*
X535466Y72928D01*
X537484Y71763D01*
X539735Y71160D01*
X542065D01*
X544316Y71763D01*
X546334Y72928D01*
X547982Y74576D01*
X549147Y76594D01*
X549750Y78845D01*
Y81175D01*
X549147Y83426D01*
X547982Y85444D01*
X546334Y87092D01*
X544316Y88257D01*
X543846Y88383D01*
Y162680D01*
X543621Y163807D01*
X542983Y164763D01*
X527456Y180290D01*
Y189240D01*
X533495D01*
Y203400D01*
X515525D01*
Y202114D01*
X512540D01*
Y203574D01*
D02*
G37*
G36*
X516665Y88860D02*
X514335D01*
X512084Y88257D01*
X510066Y87092D01*
X508418Y85444D01*
X507253Y83426D01*
X506650Y81175D01*
Y78845D01*
X507253Y76594D01*
X508418Y74576D01*
X510066Y72928D01*
X512084Y71763D01*
X514335Y71160D01*
X516665D01*
X518916Y71763D01*
X520934Y72928D01*
X522582Y74576D01*
X523747Y76594D01*
X524350Y78845D01*
Y81175D01*
X523747Y83426D01*
X522582Y85444D01*
X520934Y87092D01*
X518916Y88257D01*
X516665Y88860D01*
D02*
G37*
G36*
X465865D02*
X463535D01*
X461284Y88257D01*
X459266Y87092D01*
X457618Y85444D01*
X456453Y83426D01*
X455850Y81175D01*
Y78845D01*
X456453Y76594D01*
X457618Y74576D01*
X459266Y72928D01*
X461284Y71763D01*
X463535Y71160D01*
X465865D01*
X468116Y71763D01*
X470134Y72928D01*
X471782Y74576D01*
X472947Y76594D01*
X473550Y78845D01*
Y81175D01*
X472947Y83426D01*
X471782Y85444D01*
X470134Y87092D01*
X468116Y88257D01*
X465865Y88860D01*
D02*
G37*
G36*
X440465D02*
X438135D01*
X435884Y88257D01*
X433866Y87092D01*
X432218Y85444D01*
X431053Y83426D01*
X430450Y81175D01*
Y78845D01*
X431053Y76594D01*
X432218Y74576D01*
X433866Y72928D01*
X435884Y71763D01*
X438135Y71160D01*
X440465D01*
X442716Y71763D01*
X444734Y72928D01*
X446382Y74576D01*
X447547Y76594D01*
X448150Y78845D01*
Y81175D01*
X447547Y83426D01*
X446382Y85444D01*
X444734Y87092D01*
X442716Y88257D01*
X440465Y88860D01*
D02*
G37*
G36*
X415065D02*
X412735D01*
X410484Y88257D01*
X408466Y87092D01*
X406818Y85444D01*
X405653Y83426D01*
X405050Y81175D01*
Y78845D01*
X405653Y76594D01*
X406818Y74576D01*
X408466Y72928D01*
X410484Y71763D01*
X412735Y71160D01*
X415065D01*
X417316Y71763D01*
X419334Y72928D01*
X420982Y74576D01*
X422147Y76594D01*
X422750Y78845D01*
Y81175D01*
X422147Y83426D01*
X420982Y85444D01*
X419334Y87092D01*
X417316Y88257D01*
X415065Y88860D01*
D02*
G37*
G36*
X389665D02*
X387335D01*
X385084Y88257D01*
X383066Y87092D01*
X381418Y85444D01*
X380253Y83426D01*
X379650Y81175D01*
Y78845D01*
X380253Y76594D01*
X381418Y74576D01*
X383066Y72928D01*
X385084Y71763D01*
X387335Y71160D01*
X389665D01*
X391916Y71763D01*
X393934Y72928D01*
X395582Y74576D01*
X396747Y76594D01*
X397350Y78845D01*
Y81175D01*
X396747Y83426D01*
X395582Y85444D01*
X393934Y87092D01*
X391916Y88257D01*
X389665Y88860D01*
D02*
G37*
G36*
X338865D02*
X336535D01*
X334284Y88257D01*
X332266Y87092D01*
X330618Y85444D01*
X329453Y83426D01*
X328850Y81175D01*
Y78845D01*
X329453Y76594D01*
X330618Y74576D01*
X332266Y72928D01*
X334284Y71763D01*
X336535Y71160D01*
X338865D01*
X341116Y71763D01*
X343134Y72928D01*
X344782Y74576D01*
X345947Y76594D01*
X346550Y78845D01*
Y81175D01*
X345947Y83426D01*
X344782Y85444D01*
X343134Y87092D01*
X341116Y88257D01*
X338865Y88860D01*
D02*
G37*
G36*
X262665D02*
X260335D01*
X258084Y88257D01*
X256066Y87092D01*
X254418Y85444D01*
X253253Y83426D01*
X252650Y81175D01*
Y78845D01*
X253253Y76594D01*
X254418Y74576D01*
X256066Y72928D01*
X258084Y71763D01*
X260335Y71160D01*
X262665D01*
X264916Y71763D01*
X266934Y72928D01*
X268582Y74576D01*
X269747Y76594D01*
X270350Y78845D01*
Y81175D01*
X269747Y83426D01*
X268582Y85444D01*
X266934Y87092D01*
X264916Y88257D01*
X262665Y88860D01*
D02*
G37*
G36*
X211865D02*
X209535D01*
X207284Y88257D01*
X205266Y87092D01*
X203618Y85444D01*
X202453Y83426D01*
X201850Y81175D01*
Y78845D01*
X202453Y76594D01*
X203618Y74576D01*
X205266Y72928D01*
X207284Y71763D01*
X209535Y71160D01*
X211865D01*
X214116Y71763D01*
X216134Y72928D01*
X217782Y74576D01*
X218947Y76594D01*
X219550Y78845D01*
Y81175D01*
X218947Y83426D01*
X217782Y85444D01*
X216134Y87092D01*
X214116Y88257D01*
X211865Y88860D01*
D02*
G37*
G36*
X161065D02*
X158735D01*
X156484Y88257D01*
X154466Y87092D01*
X152818Y85444D01*
X151653Y83426D01*
X151050Y81175D01*
Y78845D01*
X151653Y76594D01*
X152818Y74576D01*
X154466Y72928D01*
X156484Y71763D01*
X158735Y71160D01*
X161065D01*
X163316Y71763D01*
X165334Y72928D01*
X166982Y74576D01*
X168147Y76594D01*
X168750Y78845D01*
Y81175D01*
X168147Y83426D01*
X166982Y85444D01*
X165334Y87092D01*
X163316Y88257D01*
X161065Y88860D01*
D02*
G37*
G36*
X110265D02*
X107935D01*
X105684Y88257D01*
X103666Y87092D01*
X102018Y85444D01*
X100853Y83426D01*
X100250Y81175D01*
Y78845D01*
X100853Y76594D01*
X102018Y74576D01*
X103666Y72928D01*
X105684Y71763D01*
X107935Y71160D01*
X110265D01*
X112516Y71763D01*
X114534Y72928D01*
X116182Y74576D01*
X117347Y76594D01*
X117950Y78845D01*
Y81175D01*
X117347Y83426D01*
X116182Y85444D01*
X114534Y87092D01*
X112516Y88257D01*
X110265Y88860D01*
D02*
G37*
G36*
X53700Y94908D02*
X35730D01*
Y80748D01*
X53700D01*
Y81904D01*
X57038D01*
X61958Y76985D01*
X63880Y75700D01*
X66147Y75250D01*
X76229D01*
X76618Y74576D01*
X78266Y72928D01*
X80284Y71763D01*
X82535Y71160D01*
X84865D01*
X87116Y71763D01*
X89134Y72928D01*
X90782Y74576D01*
X91947Y76594D01*
X92550Y78845D01*
Y81175D01*
X91947Y83426D01*
X90782Y85444D01*
X89134Y87092D01*
X87116Y88257D01*
X84865Y88860D01*
X82535D01*
X80284Y88257D01*
X78275Y87097D01*
X68600D01*
X63681Y92017D01*
X61759Y93301D01*
X59492Y93752D01*
X53700D01*
Y94908D01*
D02*
G37*
G36*
X499481Y78740D02*
X491370D01*
Y70629D01*
X493724Y71260D01*
X495866Y72496D01*
X497614Y74244D01*
X498850Y76386D01*
X499481Y78740D01*
D02*
G37*
G36*
X321681D02*
X313570D01*
Y70629D01*
X315924Y71260D01*
X318066Y72496D01*
X319814Y74244D01*
X321050Y76386D01*
X321681Y78740D01*
D02*
G37*
G36*
X245481D02*
X237370D01*
Y70629D01*
X239724Y71260D01*
X241866Y72496D01*
X243614Y74244D01*
X244850Y76386D01*
X245481Y78740D01*
D02*
G37*
G36*
X143881D02*
X135770D01*
Y70629D01*
X138124Y71260D01*
X140266Y72496D01*
X142014Y74244D01*
X143250Y76386D01*
X143881Y78740D01*
D02*
G37*
G36*
X488830D02*
X480719D01*
X481350Y76386D01*
X482586Y74244D01*
X484334Y72496D01*
X486476Y71260D01*
X488830Y70629D01*
Y78740D01*
D02*
G37*
G36*
X311030D02*
X302919D01*
X303550Y76386D01*
X304786Y74244D01*
X306534Y72496D01*
X308676Y71260D01*
X311030Y70629D01*
Y78740D01*
D02*
G37*
G36*
X234830D02*
X226719D01*
X227350Y76386D01*
X228586Y74244D01*
X230334Y72496D01*
X232476Y71260D01*
X234830Y70629D01*
Y78740D01*
D02*
G37*
G36*
X133230D02*
X125119D01*
X125750Y76386D01*
X126986Y74244D01*
X128734Y72496D01*
X130876Y71260D01*
X133230Y70629D01*
Y78740D01*
D02*
G37*
G36*
X186570Y63991D02*
Y55880D01*
X194681D01*
X194050Y58234D01*
X192814Y60376D01*
X191066Y62124D01*
X188924Y63360D01*
X186570Y63991D01*
D02*
G37*
G36*
X567570D02*
Y55880D01*
X575681D01*
X575050Y58234D01*
X573814Y60376D01*
X572066Y62124D01*
X569924Y63360D01*
X567570Y63991D01*
D02*
G37*
G36*
X389770D02*
Y55880D01*
X397881D01*
X397250Y58234D01*
X396014Y60376D01*
X394266Y62124D01*
X392124Y63360D01*
X389770Y63991D01*
D02*
G37*
G36*
X184030D02*
X181676Y63360D01*
X179534Y62124D01*
X177786Y60376D01*
X176550Y58234D01*
X175919Y55880D01*
X184030D01*
Y63991D01*
D02*
G37*
G36*
X565030D02*
X562676Y63360D01*
X560534Y62124D01*
X558786Y60376D01*
X557550Y58234D01*
X556919Y55880D01*
X565030D01*
Y63991D01*
D02*
G37*
G36*
X387230D02*
X384876Y63360D01*
X382734Y62124D01*
X380986Y60376D01*
X379750Y58234D01*
X379119Y55880D01*
X387230D01*
Y63991D01*
D02*
G37*
G36*
X542065Y63460D02*
X539735D01*
X537484Y62857D01*
X535466Y61692D01*
X533818Y60044D01*
X532653Y58026D01*
X532050Y55775D01*
Y53445D01*
X532653Y51194D01*
X533818Y49176D01*
X535466Y47528D01*
X537484Y46363D01*
X539735Y45760D01*
X542065D01*
X544316Y46363D01*
X546334Y47528D01*
X547982Y49176D01*
X549147Y51194D01*
X549750Y53445D01*
Y55775D01*
X549147Y58026D01*
X547982Y60044D01*
X546334Y61692D01*
X544316Y62857D01*
X542065Y63460D01*
D02*
G37*
G36*
X516665D02*
X514335D01*
X512084Y62857D01*
X510066Y61692D01*
X508418Y60044D01*
X507253Y58026D01*
X506650Y55775D01*
Y53445D01*
X507253Y51194D01*
X508418Y49176D01*
X510066Y47528D01*
X512084Y46363D01*
X514335Y45760D01*
X516665D01*
X518916Y46363D01*
X520934Y47528D01*
X522582Y49176D01*
X523747Y51194D01*
X524350Y53445D01*
Y55775D01*
X523747Y58026D01*
X522582Y60044D01*
X520934Y61692D01*
X518916Y62857D01*
X516665Y63460D01*
D02*
G37*
G36*
X465865D02*
X463535D01*
X461284Y62857D01*
X459266Y61692D01*
X457618Y60044D01*
X456453Y58026D01*
X455850Y55775D01*
Y53445D01*
X456453Y51194D01*
X457618Y49176D01*
X459266Y47528D01*
X461284Y46363D01*
X463535Y45760D01*
X465865D01*
X468116Y46363D01*
X470134Y47528D01*
X471782Y49176D01*
X472947Y51194D01*
X473550Y53445D01*
Y55775D01*
X472947Y58026D01*
X471782Y60044D01*
X470134Y61692D01*
X468116Y62857D01*
X465865Y63460D01*
D02*
G37*
G36*
X440465D02*
X438135D01*
X435884Y62857D01*
X433866Y61692D01*
X432218Y60044D01*
X431053Y58026D01*
X430450Y55775D01*
Y53445D01*
X431053Y51194D01*
X432218Y49176D01*
X433866Y47528D01*
X435884Y46363D01*
X438135Y45760D01*
X440465D01*
X442716Y46363D01*
X444734Y47528D01*
X446382Y49176D01*
X447547Y51194D01*
X448150Y53445D01*
Y55775D01*
X447547Y58026D01*
X446382Y60044D01*
X444734Y61692D01*
X442716Y62857D01*
X440465Y63460D01*
D02*
G37*
G36*
X415065D02*
X412735D01*
X410484Y62857D01*
X408466Y61692D01*
X406818Y60044D01*
X405653Y58026D01*
X405050Y55775D01*
Y53445D01*
X405653Y51194D01*
X406818Y49176D01*
X408466Y47528D01*
X410484Y46363D01*
X412735Y45760D01*
X415065D01*
X417316Y46363D01*
X419334Y47528D01*
X420982Y49176D01*
X422147Y51194D01*
X422750Y53445D01*
Y55775D01*
X422147Y58026D01*
X420982Y60044D01*
X419334Y61692D01*
X417316Y62857D01*
X415065Y63460D01*
D02*
G37*
G36*
X364265D02*
X361935D01*
X359684Y62857D01*
X357666Y61692D01*
X356018Y60044D01*
X354853Y58026D01*
X354250Y55775D01*
Y53445D01*
X354853Y51194D01*
X356018Y49176D01*
X357666Y47528D01*
X359684Y46363D01*
X361935Y45760D01*
X364265D01*
X366516Y46363D01*
X368534Y47528D01*
X370182Y49176D01*
X371347Y51194D01*
X371950Y53445D01*
Y55775D01*
X371347Y58026D01*
X370182Y60044D01*
X368534Y61692D01*
X366516Y62857D01*
X364265Y63460D01*
D02*
G37*
G36*
X338865D02*
X336535D01*
X334284Y62857D01*
X332266Y61692D01*
X330618Y60044D01*
X329453Y58026D01*
X328850Y55775D01*
Y53445D01*
X329453Y51194D01*
X330618Y49176D01*
X332266Y47528D01*
X334284Y46363D01*
X336535Y45760D01*
X338865D01*
X341116Y46363D01*
X343134Y47528D01*
X344782Y49176D01*
X345947Y51194D01*
X346550Y53445D01*
Y55775D01*
X345947Y58026D01*
X344782Y60044D01*
X343134Y61692D01*
X341116Y62857D01*
X338865Y63460D01*
D02*
G37*
G36*
X135665D02*
X133335D01*
X131084Y62857D01*
X129066Y61692D01*
X127418Y60044D01*
X126253Y58026D01*
X125650Y55775D01*
Y53445D01*
X126253Y51194D01*
X127418Y49176D01*
X129066Y47528D01*
X131084Y46363D01*
X133335Y45760D01*
X135665D01*
X137916Y46363D01*
X139934Y47528D01*
X141582Y49176D01*
X142747Y51194D01*
X143350Y53445D01*
Y55775D01*
X142747Y58026D01*
X141582Y60044D01*
X139934Y61692D01*
X137916Y62857D01*
X135665Y63460D01*
D02*
G37*
G36*
X110265D02*
X107935D01*
X105684Y62857D01*
X103666Y61692D01*
X102018Y60044D01*
X100853Y58026D01*
X100250Y55775D01*
Y53445D01*
X100853Y51194D01*
X102018Y49176D01*
X103666Y47528D01*
X105684Y46363D01*
X107935Y45760D01*
X110265D01*
X112516Y46363D01*
X114534Y47528D01*
X116182Y49176D01*
X117347Y51194D01*
X117950Y53445D01*
Y55775D01*
X117347Y58026D01*
X116182Y60044D01*
X114534Y61692D01*
X112516Y62857D01*
X110265Y63460D01*
D02*
G37*
G36*
X92550D02*
X74850D01*
Y45760D01*
X92550D01*
Y63460D01*
D02*
G37*
G36*
X575681Y53340D02*
X567570D01*
Y45229D01*
X569924Y45860D01*
X572066Y47096D01*
X573814Y48844D01*
X575050Y50986D01*
X575681Y53340D01*
D02*
G37*
G36*
X397881D02*
X389770D01*
Y45229D01*
X392124Y45860D01*
X394266Y47096D01*
X396014Y48844D01*
X397250Y50986D01*
X397881Y53340D01*
D02*
G37*
G36*
X194681D02*
X186570D01*
Y45229D01*
X188924Y45860D01*
X191066Y47096D01*
X192814Y48844D01*
X194050Y50986D01*
X194681Y53340D01*
D02*
G37*
G36*
X565030D02*
X556919D01*
X557550Y50986D01*
X558786Y48844D01*
X560534Y47096D01*
X562676Y45860D01*
X565030Y45229D01*
Y53340D01*
D02*
G37*
G36*
X387230D02*
X379119D01*
X379750Y50986D01*
X380986Y48844D01*
X382734Y47096D01*
X384876Y45860D01*
X387230Y45229D01*
Y53340D01*
D02*
G37*
G36*
X184030D02*
X175919D01*
X176550Y50986D01*
X177786Y48844D01*
X179534Y47096D01*
X181676Y45860D01*
X184030Y45229D01*
Y53340D01*
D02*
G37*
G36*
X53700Y76112D02*
X35730D01*
Y61952D01*
X38659D01*
Y55870D01*
X35200D01*
Y40870D01*
X53700D01*
Y55870D01*
X50506D01*
Y61952D01*
X53700D01*
Y76112D01*
D02*
G37*
G36*
X54240Y38410D02*
X45720D01*
Y31640D01*
X54240D01*
Y38410D01*
D02*
G37*
G36*
X43180D02*
X34660D01*
Y31640D01*
X43180D01*
Y38410D01*
D02*
G37*
G36*
X54240Y29100D02*
X45720D01*
Y22330D01*
X54240D01*
Y29100D01*
D02*
G37*
G36*
X43180D02*
X34660D01*
Y22330D01*
X43180D01*
Y29100D01*
D02*
G37*
%LPD*%
G36*
X341875Y492742D02*
Y476870D01*
X342099Y475742D01*
X342738Y474787D01*
X352936Y464588D01*
X343998D01*
Y452588D01*
X346052D01*
Y447108D01*
X343838Y444894D01*
Y454428D01*
X333838D01*
Y442514D01*
X329135Y437811D01*
X329133Y437808D01*
X327030D01*
X327231Y438010D01*
X327884Y439585D01*
Y441291D01*
X327231Y442866D01*
X326829Y443268D01*
X330138D01*
Y447538D01*
X323598D01*
Y448808D01*
X322328D01*
Y454348D01*
X318438D01*
Y454428D01*
X308438D01*
Y442428D01*
X310492D01*
Y435220D01*
X304530Y441182D01*
Y452588D01*
X306585D01*
Y461874D01*
X334010D01*
X335137Y462099D01*
X336093Y462737D01*
X340403Y467048D01*
X341042Y468003D01*
X341266Y469130D01*
Y492742D01*
X341570Y492945D01*
X341875Y492742D01*
D02*
G37*
%LPC*%
G36*
X330138Y454348D02*
X324868D01*
Y450078D01*
X330138D01*
Y454348D01*
D02*
G37*
%LPD*%
G36*
X454676Y203400D02*
X456776Y201300D01*
Y200970D01*
X456840Y200648D01*
Y189240D01*
X475340D01*
X476250Y188371D01*
X476250Y160879D01*
X474980Y160010D01*
X456840D01*
Y145010D01*
X429260D01*
Y160020D01*
X365760D01*
Y156351D01*
X365142Y155844D01*
X363580D01*
Y160010D01*
X345080D01*
Y145010D01*
X325821D01*
X325025Y145806D01*
Y203400D01*
X342916D01*
X345016Y201300D01*
Y200970D01*
X345080Y200648D01*
Y189240D01*
X363580D01*
Y203400D01*
X382556D01*
Y193986D01*
X400780D01*
Y199408D01*
X402592Y201220D01*
X403765Y200734D01*
Y189240D01*
X421735D01*
X434340Y189230D01*
Y203400D01*
X454676D01*
D02*
G37*
%LPC*%
G36*
X245300Y882266D02*
X242689Y881923D01*
X240257Y880915D01*
X238168Y879312D01*
X236565Y877223D01*
X235557Y874790D01*
X235214Y872180D01*
Y858180D01*
X235557Y855570D01*
X236565Y853137D01*
X238168Y851048D01*
X240257Y849445D01*
X242689Y848437D01*
X245300Y848094D01*
X247910Y848437D01*
X250343Y849445D01*
X252432Y851048D01*
X254035Y853137D01*
X255043Y855570D01*
X255386Y858180D01*
Y872180D01*
X255043Y874790D01*
X254035Y877223D01*
X252432Y879312D01*
X250343Y880915D01*
X247910Y881923D01*
X245300Y882266D01*
D02*
G37*
G36*
X544322Y786130D02*
X537972D01*
Y777875D01*
X544322D01*
Y786130D01*
D02*
G37*
G36*
X535432D02*
X529082D01*
Y777875D01*
X535432D01*
Y786130D01*
D02*
G37*
G36*
X110300Y882266D02*
X107690Y881923D01*
X105257Y880915D01*
X103168Y879312D01*
X101565Y877223D01*
X100557Y874790D01*
X100214Y872180D01*
Y858180D01*
X100557Y855570D01*
X101565Y853137D01*
X103168Y851048D01*
X105257Y849445D01*
X107690Y848437D01*
X110300Y848094D01*
X112910Y848437D01*
X115343Y849445D01*
X117432Y851048D01*
X119035Y853137D01*
X120043Y855570D01*
X120386Y858180D01*
Y872180D01*
X120043Y874790D01*
X119035Y877223D01*
X117432Y879312D01*
X115343Y880915D01*
X112910Y881923D01*
X110300Y882266D01*
D02*
G37*
G36*
X131572Y297180D02*
X124206D01*
Y292100D01*
X131572D01*
Y297180D01*
D02*
G37*
G36*
X121666D02*
X114300D01*
Y292100D01*
X121666D01*
Y297180D01*
D02*
G37*
G36*
X131572Y289560D02*
X124206D01*
Y284480D01*
X131572D01*
Y289560D01*
D02*
G37*
G36*
X121666D02*
X114300D01*
Y284480D01*
X121666D01*
Y289560D01*
D02*
G37*
%LPD*%
D12*
X334010Y328040D02*
Y332740D01*
Y320410D02*
Y328040D01*
X323598Y432808D02*
Y440438D01*
X386718Y372228D02*
X394347D01*
X386718Y359528D02*
X394347D01*
X374398Y337039D02*
Y344668D01*
X359158Y321799D02*
Y329428D01*
X288038Y337039D02*
Y344668D01*
X270628Y407788D02*
X278258D01*
X445770Y134090D02*
X465670D01*
X466090Y134510D01*
X353910Y134090D02*
X354330Y134510D01*
X334010Y134090D02*
X353910D01*
X523320Y135280D02*
X524510Y134090D01*
X503428Y135280D02*
X523320D01*
X476902Y152510D02*
X478790Y150622D01*
Y146304D02*
Y150622D01*
Y146304D02*
X480314Y144780D01*
X484632D01*
X466090Y152510D02*
X476902D01*
X522050Y198780D02*
X524510Y196320D01*
X503428Y198780D02*
X522050D01*
X478790Y209804D02*
Y213100D01*
Y209804D02*
X480314Y208280D01*
X466090Y214740D02*
X477150D01*
X478790Y213100D01*
X480314Y208280D02*
X484632D01*
X447675Y215116D02*
X460110Y202681D01*
X464340Y196740D02*
X466090D01*
X445770Y215116D02*
X447675D01*
X460110Y200970D02*
Y202681D01*
Y200970D02*
X464340Y196740D01*
X365390Y214740D02*
X367030Y213100D01*
X354330Y214740D02*
X365390D01*
X367030Y209804D02*
Y213100D01*
Y209804D02*
X368554Y208280D01*
X372872D01*
X335915Y215116D02*
X348350Y202681D01*
Y200970D02*
Y202681D01*
X334010Y215116D02*
X335915D01*
X348350Y200970D02*
X352580Y196740D01*
X354330D01*
X411560Y135280D02*
X412750Y134090D01*
X391668Y135280D02*
X411560D01*
X365142Y152510D02*
X367030Y150622D01*
Y146304D02*
Y150622D01*
X368554Y144780D02*
X372872D01*
X354330Y152510D02*
X365142D01*
X367030Y146304D02*
X368554Y144780D01*
X506730Y473360D02*
Y480060D01*
Y390810D02*
Y397510D01*
X300698Y344668D02*
X301178Y345148D01*
X288038Y344668D02*
X300698D01*
X301178Y345148D02*
Y349738D01*
X376658Y364888D02*
X381396Y360150D01*
X386096D01*
X376938Y369688D02*
X379478Y372228D01*
X386096Y360150D02*
X386718Y359528D01*
X379478Y372228D02*
X386718D01*
X346178Y339488D02*
Y349738D01*
X356618Y336668D02*
X359158Y334128D01*
X346178Y339488D02*
X348998Y336668D01*
X356618D01*
X331178Y335572D02*
X334010Y332740D01*
X331178Y335572D02*
Y349738D01*
X359158Y329428D02*
Y334128D01*
X361528Y369688D02*
X376938D01*
X371858Y354448D02*
X374398Y351908D01*
X361768Y354448D02*
X371858D01*
X361328Y354888D02*
X361768Y354448D01*
X361328Y369888D02*
X361528Y369688D01*
X361328Y364888D02*
X376658D01*
X374398Y344668D02*
Y351908D01*
X295668Y405248D02*
X296028Y404888D01*
X285498Y405248D02*
X295668D01*
X282958Y407788D02*
X285498Y405248D01*
X278258Y407788D02*
X282958D01*
X325698Y415518D02*
Y426008D01*
Y415518D02*
X326178Y415038D01*
X324220Y427486D02*
X325698Y426008D01*
X323598Y432808D02*
X324220Y432186D01*
Y427486D02*
Y432186D01*
X422910Y812165D02*
Y817880D01*
Y812165D02*
X427355Y807720D01*
X498602D01*
X476526Y862888D02*
X480772D01*
X508000Y835660D01*
Y810260D02*
Y835660D01*
X469900Y869514D02*
X476526Y862888D01*
X469900Y869514D02*
Y870615D01*
X498602Y807720D02*
X505460D01*
X508000Y810260D01*
X422910Y817880D02*
Y829310D01*
D13*
X311178Y334038D02*
Y349738D01*
X304800Y327660D02*
X311178Y334038D01*
X326178Y291619D02*
Y349738D01*
D16*
X506730Y374810D02*
D03*
Y390810D02*
D03*
X525780D02*
D03*
Y374810D02*
D03*
X506730Y457360D02*
D03*
Y473360D02*
D03*
X374398Y328668D02*
D03*
Y344668D02*
D03*
X359158Y313428D02*
D03*
Y329428D02*
D03*
X334010Y312040D02*
D03*
Y328040D02*
D03*
X288038Y328668D02*
D03*
Y344668D02*
D03*
X323598Y448808D02*
D03*
Y432808D02*
D03*
X506730Y423800D02*
D03*
Y439800D02*
D03*
X401718Y428108D02*
D03*
X412498Y417948D02*
D03*
Y438268D02*
D03*
X401718Y409058D02*
D03*
X412498Y382388D02*
D03*
X402718Y346828D02*
D03*
X412498Y400168D02*
D03*
X394718Y392548D02*
D03*
X277878Y420488D02*
D03*
X260098Y395088D02*
D03*
X247398Y387468D02*
D03*
X260098Y356353D02*
D03*
X247398Y346828D02*
D03*
X260098Y337303D02*
D03*
X247398Y365878D02*
D03*
X260098Y375403D02*
D03*
D17*
X552450Y353568D02*
D03*
Y334772D02*
D03*
X445770Y196320D02*
D03*
Y215116D02*
D03*
X524510D02*
D03*
Y196320D02*
D03*
X445770Y152886D02*
D03*
Y134090D02*
D03*
X412750Y152886D02*
D03*
Y134090D02*
D03*
X334010Y152886D02*
D03*
Y134090D02*
D03*
X412750Y196320D02*
D03*
Y215116D02*
D03*
X334010Y196320D02*
D03*
Y215116D02*
D03*
X91440Y243332D02*
D03*
Y262128D02*
D03*
X353060Y657352D02*
D03*
Y676148D02*
D03*
X373380D02*
D03*
Y657352D02*
D03*
X510540Y359918D02*
D03*
Y341122D02*
D03*
X552450Y422402D02*
D03*
Y441198D02*
D03*
Y491998D02*
D03*
Y473202D02*
D03*
Y520954D02*
D03*
Y539750D02*
D03*
Y560832D02*
D03*
Y579628D02*
D03*
Y641223D02*
D03*
Y622427D02*
D03*
Y682498D02*
D03*
Y663702D02*
D03*
X441960Y572008D02*
D03*
Y553212D02*
D03*
X388620Y502160D02*
D03*
Y520956D02*
D03*
Y559308D02*
D03*
Y540512D02*
D03*
X91440Y579628D02*
D03*
Y560832D02*
D03*
Y629158D02*
D03*
Y610362D02*
D03*
Y692658D02*
D03*
Y673862D02*
D03*
Y756158D02*
D03*
Y737362D02*
D03*
X146050Y727202D02*
D03*
Y745998D02*
D03*
X524510Y134090D02*
D03*
Y152886D02*
D03*
X44715Y87828D02*
D03*
Y69032D02*
D03*
X91440Y338521D02*
D03*
Y357317D02*
D03*
X552450Y297688D02*
D03*
Y278892D02*
D03*
X91440Y474335D02*
D03*
Y493131D02*
D03*
Y438658D02*
D03*
Y419862D02*
D03*
X471170Y625348D02*
D03*
Y606552D02*
D03*
X247650Y745998D02*
D03*
Y727202D02*
D03*
X227330Y745998D02*
D03*
Y727202D02*
D03*
X166370D02*
D03*
Y745998D02*
D03*
X186690Y727202D02*
D03*
Y745998D02*
D03*
X207010Y727202D02*
D03*
Y745998D02*
D03*
D18*
X181610Y340360D02*
D03*
X197610D02*
D03*
X402718Y372228D02*
D03*
X386718D02*
D03*
X402718Y359528D02*
D03*
X386718D02*
D03*
X262258Y407788D02*
D03*
X278258D02*
D03*
X348998Y458588D02*
D03*
X359158Y448428D02*
D03*
X313438D02*
D03*
X301585Y458588D02*
D03*
X207010Y290830D02*
D03*
X223010D02*
D03*
X354330Y300990D02*
D03*
X346710Y288290D02*
D03*
X289731Y448428D02*
D03*
X338838D02*
D03*
D19*
X474410Y565150D02*
D03*
Y552450D02*
D03*
Y539750D02*
D03*
Y527050D02*
D03*
X523810D02*
D03*
Y539750D02*
D03*
Y552450D02*
D03*
Y565150D02*
D03*
D20*
X466090Y196740D02*
D03*
Y214740D02*
D03*
Y134510D02*
D03*
Y152510D02*
D03*
X354330Y134510D02*
D03*
Y152510D02*
D03*
Y196740D02*
D03*
Y214740D02*
D03*
X44450Y48370D02*
D03*
Y30370D02*
D03*
D21*
X503428Y198780D02*
D03*
Y217780D02*
D03*
X484632Y208280D02*
D03*
X503428Y135280D02*
D03*
Y154280D02*
D03*
X484632Y144780D02*
D03*
X391668Y135280D02*
D03*
Y154280D02*
D03*
X372872Y144780D02*
D03*
X391668Y198780D02*
D03*
Y217780D02*
D03*
X372872Y208280D02*
D03*
D22*
X434100Y252984D02*
D03*
X429100D02*
D03*
X424100D02*
D03*
X419100D02*
D03*
X414100D02*
D03*
X409100D02*
D03*
X404100D02*
D03*
X399100D02*
D03*
Y273050D02*
D03*
X404100D02*
D03*
X409100D02*
D03*
X414100D02*
D03*
X419100D02*
D03*
X424100D02*
D03*
X429100D02*
D03*
X434100D02*
D03*
X434180Y313436D02*
D03*
X429180D02*
D03*
X424180D02*
D03*
X419180D02*
D03*
X414180D02*
D03*
X409180D02*
D03*
X404180D02*
D03*
X399180D02*
D03*
Y293370D02*
D03*
X404180D02*
D03*
X409180D02*
D03*
X414180D02*
D03*
X419180D02*
D03*
X424180D02*
D03*
X429180D02*
D03*
X434180D02*
D03*
D23*
X301178Y346988D02*
D03*
X306178D02*
D03*
X311178D02*
D03*
X301178Y417788D02*
D03*
X306178D02*
D03*
X311178D02*
D03*
X316178Y346988D02*
D03*
X356178D02*
D03*
X351178D02*
D03*
X341178D02*
D03*
X321178D02*
D03*
X326178D02*
D03*
X331178D02*
D03*
X336178D02*
D03*
X346178D02*
D03*
X316178Y417788D02*
D03*
X321178D02*
D03*
X326178D02*
D03*
X331178D02*
D03*
X336178D02*
D03*
X341178D02*
D03*
X346178D02*
D03*
X351178D02*
D03*
X356178D02*
D03*
D24*
X293278Y354888D02*
D03*
Y359888D02*
D03*
Y364888D02*
D03*
Y369888D02*
D03*
Y374888D02*
D03*
Y379888D02*
D03*
Y384888D02*
D03*
Y389888D02*
D03*
Y394888D02*
D03*
Y399888D02*
D03*
Y404888D02*
D03*
Y409888D02*
D03*
X364078Y354888D02*
D03*
Y359888D02*
D03*
Y364888D02*
D03*
Y369888D02*
D03*
Y374888D02*
D03*
Y379888D02*
D03*
Y384888D02*
D03*
Y389888D02*
D03*
Y394888D02*
D03*
Y399888D02*
D03*
Y404888D02*
D03*
Y409888D02*
D03*
D25*
X156464Y290830D02*
D03*
X122936D02*
D03*
X152654Y631190D02*
D03*
X119126D02*
D03*
D26*
X389382Y681990D02*
D03*
X408178D02*
D03*
X389382Y659130D02*
D03*
X408178D02*
D03*
X333502Y633730D02*
D03*
X352298D02*
D03*
X422402Y533400D02*
D03*
X441198D02*
D03*
X388620Y590550D02*
D03*
X369824D02*
D03*
X427228Y726440D02*
D03*
X408432D02*
D03*
X369062Y740410D02*
D03*
X387858D02*
D03*
X369062Y762635D02*
D03*
X387858D02*
D03*
Y784860D02*
D03*
X369062D02*
D03*
X536702Y787400D02*
D03*
X555498D02*
D03*
X498602Y825500D02*
D03*
X517398D02*
D03*
X498602Y807720D02*
D03*
X517398D02*
D03*
D27*
X364320Y559560D02*
D03*
X357820D02*
D03*
X351320D02*
D03*
X344820D02*
D03*
X338320D02*
D03*
X331820D02*
D03*
X325320D02*
D03*
X318820D02*
D03*
X312320D02*
D03*
X305820D02*
D03*
X299320D02*
D03*
X292820D02*
D03*
Y502160D02*
D03*
X299320D02*
D03*
X305820D02*
D03*
X312320D02*
D03*
X318820D02*
D03*
X325320D02*
D03*
X331820D02*
D03*
X338320D02*
D03*
X344820D02*
D03*
X351320D02*
D03*
X357820D02*
D03*
X364320D02*
D03*
D28*
X222250Y558800D02*
D03*
D29*
X308610Y740410D02*
D03*
D30*
X391042Y701929D02*
D03*
X386041D02*
D03*
X381039D02*
D03*
X376038D02*
D03*
Y717931D02*
D03*
X381039D02*
D03*
X386041D02*
D03*
X391042D02*
D03*
D31*
X518560Y852610D02*
D03*
X568560D02*
D03*
X543560D02*
D03*
D32*
X469900Y831185D02*
D03*
Y870615D02*
D03*
D33*
X422910Y875030D02*
D03*
Y829310D02*
D03*
D34*
X304160Y866140D02*
D03*
X274960D02*
D03*
D35*
X221740Y666750D02*
D03*
X316740D02*
D03*
D36*
X467360Y457360D02*
D03*
Y413860D02*
D03*
Y374810D02*
D03*
Y331310D02*
D03*
D37*
X582820Y787400D02*
D03*
X600820D02*
D03*
D71*
X328678Y382388D02*
D03*
D72*
X354838Y852170D02*
D03*
D73*
X537210Y480060D02*
X539877Y477393D01*
X506730Y363728D02*
X510540Y359918D01*
X506730Y363728D02*
Y374810D01*
X525780D01*
Y313690D02*
Y359410D01*
Y313690D02*
X541782Y297688D01*
X467360Y457360D02*
X506730D01*
X466854D02*
X467360D01*
Y374810D02*
X506730D01*
X466854D02*
X467360D01*
X424100Y240270D02*
Y252984D01*
X265178Y329048D02*
X267718D01*
X491490Y552450D02*
X504190Y539750D01*
X523810D01*
X474410Y552450D02*
X491490D01*
X407670Y647700D02*
Y658622D01*
X408178Y659130D01*
X352298Y633730D02*
X353060Y634492D01*
Y657352D01*
Y685800D02*
X356870Y689610D01*
X353060Y676148D02*
Y685800D01*
X373380Y689610D02*
X381000Y697230D01*
X356870Y689610D02*
X373380D01*
Y676148D02*
Y683915D01*
X386041Y696575D01*
X413165Y260350D02*
X419100Y266285D01*
X386080Y260350D02*
X413165D01*
X379730Y254000D02*
X386080Y260350D01*
X326390Y254000D02*
X379730D01*
X97790Y276860D02*
X303530D01*
X326390Y254000D01*
X91440Y262128D02*
Y270510D01*
X97790Y276860D01*
X80772Y262128D02*
X91440D01*
X74930Y267970D02*
Y294640D01*
Y267970D02*
X80772Y262128D01*
X63500Y296688D02*
X72882D01*
X74930Y294640D01*
X441096Y392836D02*
Y478790D01*
X421640Y373380D02*
X441096Y392836D01*
X441198Y531495D02*
Y533400D01*
X435382Y527304D02*
X437007D01*
X434340Y397510D02*
Y526262D01*
X424298Y387468D02*
X434340Y397510D01*
X437007Y527304D02*
X441198Y531495D01*
X434340Y526262D02*
X435382Y527304D01*
X421640Y340360D02*
Y373380D01*
X407418Y387468D02*
X424298D01*
X421640Y340360D02*
X429180Y332820D01*
X427990Y370840D02*
X448310Y391160D01*
X427990Y340360D02*
X434180Y334170D01*
X427990Y340360D02*
Y370840D01*
X429180Y326150D02*
Y332820D01*
X448310Y391160D02*
Y492760D01*
X406400Y457200D02*
X406826Y456774D01*
X425818D02*
X426244Y456347D01*
X406826Y456774D02*
X425818D01*
X466348Y456347D02*
X467360Y457360D01*
X453866Y456347D02*
X466348D01*
X434180Y320360D02*
Y334170D01*
X570918Y605133D02*
X586740Y620955D01*
X552450Y611551D02*
Y622427D01*
X533989Y593090D02*
X552450Y611551D01*
X570918Y516887D02*
Y605133D01*
X601980Y454062D02*
Y565715D01*
X561185Y507154D02*
X570918Y516887D01*
X541444Y507154D02*
X561185D01*
X586740Y580955D02*
X601980Y565715D01*
X532130Y497840D02*
X541444Y507154D01*
X434100Y266126D02*
Y273050D01*
X429100Y246060D02*
Y252984D01*
X409100Y246060D02*
Y252984D01*
X419100Y246060D02*
Y252984D01*
Y266285D02*
Y273050D01*
X450850Y604520D02*
X462280Y593090D01*
X533989D01*
X350520Y604520D02*
X450850D01*
X338320Y559560D02*
Y592320D01*
X350520Y604520D01*
X548259Y477393D02*
X552450Y473202D01*
X539877Y477393D02*
X548259D01*
X543560Y316230D02*
X552450Y325120D01*
Y334772D01*
X541782Y297688D02*
X552450D01*
Y310796D01*
X97399Y381391D02*
X105410Y373380D01*
X91440Y381391D02*
X97399D01*
X105410Y341630D02*
Y373380D01*
X91440Y338521D02*
X102301D01*
X105410Y341630D01*
X455930Y516890D02*
X464820Y508000D01*
X498543D02*
X552450Y454093D01*
X464820Y508000D02*
X498543D01*
X506730Y439800D02*
Y457360D01*
X554990Y72390D02*
Y122805D01*
X586740Y154555D01*
X502800Y67310D02*
X549910D01*
X554990Y72390D01*
X490100Y54610D02*
X502800Y67310D01*
X586740Y296688D02*
X605790Y315738D01*
X586740Y438821D02*
X605790Y419771D01*
Y315738D02*
Y419771D01*
X48260Y351928D02*
X63500Y336688D01*
X48260Y351928D02*
Y463582D01*
X63500Y478822D01*
X48260Y494062D02*
Y605715D01*
Y494062D02*
X63500Y478822D01*
X48260Y605715D02*
X63500Y620955D01*
X581660Y36830D02*
X601980Y57150D01*
X586740Y296688D02*
X601980Y281448D01*
Y57150D02*
Y281448D01*
X177680Y36830D02*
X581660D01*
X159900Y54610D02*
X177680Y36830D01*
X198120Y49530D02*
X204470Y43180D01*
X293370D02*
X298450Y48260D01*
X204470Y43180D02*
X293370D01*
X586740Y438821D02*
X601980Y454062D01*
X429180Y313436D02*
Y326150D01*
X424100Y273050D02*
Y279974D01*
X414100Y273050D02*
Y279974D01*
X404100Y266126D02*
Y273050D01*
X399100D02*
Y279974D01*
X434180Y313436D02*
Y320360D01*
X424180Y313436D02*
Y320360D01*
X419180Y313436D02*
Y326150D01*
X414180Y313436D02*
Y320360D01*
X409180Y313436D02*
Y326150D01*
X429180Y293370D02*
X434180D01*
X424180D02*
X429180D01*
X429140Y273090D02*
Y293330D01*
X429100Y273050D02*
X429140Y273090D01*
Y293330D02*
X429180Y293370D01*
X414180D02*
X419180D01*
X409180D02*
X414180D01*
X409140Y293330D02*
X409180Y293370D01*
X409100Y273050D02*
X409140Y273090D01*
Y293330D01*
X429100Y252984D02*
X434100D01*
X409100D02*
X414100D01*
X404100Y240270D02*
Y252984D01*
X399100Y246060D02*
Y252984D01*
X342900Y115570D02*
X384810D01*
X325120Y97790D02*
X342900Y115570D01*
X325120Y67310D02*
Y97790D01*
X312300Y54610D02*
X312420D01*
X325120Y67310D01*
X392310Y109220D02*
X494030D01*
X363100Y80010D02*
X392310Y109220D01*
X298450Y48260D02*
Y92710D01*
X313690Y107950D01*
X198120Y49530D02*
Y67190D01*
X185300Y80010D02*
X198120Y67190D01*
X412750Y215116D02*
Y226060D01*
X407670Y231140D02*
X412750Y226060D01*
X327660Y231140D02*
X407670D01*
X313690Y217170D02*
X327660Y231140D01*
X313690Y107950D02*
Y217170D01*
X391160Y134772D02*
X391668Y135280D01*
X391160Y121920D02*
Y134772D01*
X384810Y115570D02*
X391160Y121920D01*
X524510Y179070D02*
Y196320D01*
X540900Y80010D02*
Y162680D01*
X524510Y179070D02*
X540900Y162680D01*
X503428Y118618D02*
Y135280D01*
X494030Y109220D02*
X503428Y118618D01*
X406654Y210925D02*
X410845Y215116D01*
X391668Y198780D02*
X395986D01*
X406654Y209448D01*
Y210925D01*
X410845Y215116D02*
X412750D01*
X63500Y693740D02*
X90358D01*
X91440Y692658D01*
X63500Y768510D02*
X75852Y756158D01*
X91440D01*
X316740Y666750D02*
X316891D01*
X333502Y650139D01*
X571500Y628650D02*
X577533Y622617D01*
X571500Y628650D02*
Y656590D01*
X565150Y662940D02*
X571500Y656590D01*
X552450Y663702D02*
X553212Y662940D01*
X565150D01*
X585078Y622617D02*
X586740Y620955D01*
X577533Y622617D02*
X585078D01*
X554366Y336688D02*
X586740D01*
X552450Y334772D02*
X554366Y336688D01*
X552450Y310796D02*
X558342Y316688D01*
X552450Y473202D02*
X579339D01*
X584958Y478821D01*
X586740D01*
X552450Y454093D02*
X557178Y458821D01*
X552450Y441198D02*
Y454093D01*
X63500Y438822D02*
X91276D01*
X91440Y438658D01*
X90113Y580955D02*
X91440Y579628D01*
X63500Y580955D02*
X90113D01*
X91668Y602208D02*
Y610134D01*
X88900Y599440D02*
X91668Y602208D01*
X91440Y610362D02*
X91668Y610134D01*
X65015Y599440D02*
X88900D01*
X63500Y600955D02*
X65015Y599440D01*
X91440Y461059D02*
Y474335D01*
X63500Y458822D02*
X89203D01*
X91440Y461059D01*
Y327313D02*
Y338521D01*
X80816Y316688D02*
X91440Y327313D01*
X63500Y316688D02*
X80816D01*
X558342D02*
X586740D01*
X557178Y458821D02*
X586740D01*
X331470Y544830D02*
Y559210D01*
X325120Y538480D02*
X331470Y544830D01*
X325120Y547370D02*
Y559360D01*
X322580Y544830D02*
X325120Y547370D01*
X318820Y559560D02*
Y589230D01*
X458470Y539750D02*
X474410D01*
X452120Y533400D02*
X458470Y539750D01*
X441198Y533400D02*
X452120D01*
X422402D02*
Y552678D01*
X422376Y552704D02*
Y565886D01*
X428498Y572008D01*
X422376Y552704D02*
X422402Y552678D01*
X428498Y572008D02*
X441960D01*
X523810Y539750D02*
X552450D01*
Y579628D02*
Y596900D01*
X441960Y572008D02*
Y596900D01*
Y553212D02*
X442722Y552450D01*
X474410D01*
X552450Y539750D02*
Y560832D01*
X344820Y559560D02*
Y570880D01*
X349250Y575310D01*
X351320Y541820D02*
Y559560D01*
X350520Y541020D02*
X351320Y541820D01*
X336298Y336802D02*
X345440Y327660D01*
Y303530D02*
X346710Y302260D01*
X345440Y303530D02*
Y327660D01*
X349250Y311856D02*
X353998Y307108D01*
X341178Y338272D02*
X349250Y330200D01*
Y311856D02*
Y330200D01*
X346710Y288290D02*
Y302260D01*
X353998Y301322D02*
X354330Y300990D01*
X353998Y301322D02*
Y307108D01*
X341178Y338272D02*
Y349738D01*
X467200Y414020D02*
X467360Y413860D01*
X267718Y329048D02*
X275338Y336668D01*
X287687Y433855D02*
X292451D01*
X290063Y437766D02*
X293621D01*
X292451Y433855D02*
X301178Y425128D01*
X285814Y435728D02*
X287687Y433855D01*
X280670Y435728D02*
X285814D01*
X293621Y437766D02*
X306178Y425208D01*
X289528Y438300D02*
X290063Y437766D01*
X467360Y374810D02*
Y387350D01*
X361328Y394888D02*
X375838D01*
X288290Y290830D02*
X304800D01*
X223010D02*
X288290D01*
X267970Y303530D02*
X268605Y302895D01*
X269240Y303530D01*
X257810D02*
X267970D01*
X269240D02*
X304800D01*
X316178Y314908D02*
Y349738D01*
X304800Y303530D02*
X316178Y314908D01*
X251460Y309880D02*
X257810Y303530D01*
X251460Y309880D02*
Y318770D01*
X229870Y340360D02*
X251460Y318770D01*
X197610Y340360D02*
X229870D01*
X321178Y307208D02*
Y349738D01*
X304800Y290830D02*
X321178Y307208D01*
X207010Y290830D02*
Y316230D01*
X181610D02*
Y340360D01*
X312320Y489050D02*
Y502160D01*
X338320Y469130D02*
Y502160D01*
X325320Y477865D02*
Y502160D01*
X331820Y474060D02*
Y502160D01*
X313957Y474713D02*
X322168D01*
X334010Y464820D02*
X338320Y469130D01*
X318820Y482650D02*
Y502160D01*
X327025Y469265D02*
X331820Y474060D01*
X292100Y464820D02*
X334010D01*
X322168Y474713D02*
X325320Y477865D01*
X303530Y469265D02*
X327025D01*
X331470Y559210D02*
X331820Y559560D01*
X325120Y559360D02*
X325320Y559560D01*
X260098Y375403D02*
X268353D01*
X267718Y351908D02*
Y356988D01*
X247398Y365878D02*
X263908D01*
X260098Y361027D02*
X261140Y362068D01*
X265178D01*
X247398Y346828D02*
X262638D01*
X260098Y356353D02*
Y361027D01*
X280618Y369888D02*
X296028D01*
X283398Y354888D02*
X296028D01*
X280825Y364888D02*
X296028D01*
X281032Y359888D02*
X296028D01*
X277998Y374888D02*
X296028D01*
X361716Y375276D02*
X377446D01*
X371498Y359888D02*
X384558Y346828D01*
X361328Y374888D02*
X361716Y375276D01*
X377446D02*
X381032Y378862D01*
X336178Y349738D02*
X336298Y349618D01*
Y336802D02*
Y349618D01*
X361328Y359888D02*
X371498D01*
X272442Y326152D02*
X280418Y334128D01*
X275338Y354194D02*
X281032Y359888D01*
X280418Y351908D02*
X283398Y354888D01*
X270385Y354448D02*
X280825Y364888D01*
X270385Y339335D02*
Y354448D01*
X267718Y356988D02*
X280618Y369888D01*
X268353Y337303D02*
X270385Y339335D01*
X275338Y336668D02*
Y354194D01*
X280418Y334128D02*
Y351908D01*
X265178Y362068D02*
X277998Y374888D01*
X260098Y337303D02*
X268353D01*
X262638Y346828D02*
X267718Y351908D01*
X361328Y404888D02*
X384198D01*
X388791Y409482D02*
X401718D01*
X381578Y409888D02*
X389638Y417948D01*
X357039D02*
X379478D01*
X352220Y425568D02*
X379478D01*
Y417948D02*
X389638Y428108D01*
X401718D01*
X361328Y409888D02*
X381578D01*
X384198Y404888D02*
X388791Y409482D01*
X310898Y415318D02*
X311178Y415038D01*
X310898Y415318D02*
Y425568D01*
X356178Y417087D02*
X357039Y417948D01*
X356178Y415038D02*
Y417087D01*
X346178Y415038D02*
Y427828D01*
X351178Y424527D02*
X352220Y425568D01*
X341178Y415038D02*
X341378Y415238D01*
X336178Y415038D02*
X336298Y415158D01*
X351178Y415038D02*
Y424527D01*
X331178Y415038D02*
X331218Y415078D01*
X293979Y409888D02*
X296028D01*
X293118Y410749D02*
X293979Y409888D01*
X290578Y420488D02*
X293118Y417948D01*
X306178Y415038D02*
Y425208D01*
X277878Y420488D02*
X290578D01*
X301178Y415038D02*
Y425128D01*
X293118Y410749D02*
Y417948D01*
X316178Y415038D02*
Y425368D01*
X321178Y415038D02*
Y425448D01*
X242318Y379848D02*
X249938D01*
X344820Y476870D02*
X366294Y455396D01*
X344820Y476870D02*
Y502160D01*
X411498Y382388D02*
X412498D01*
X409387Y380277D02*
X411498Y382388D01*
X402171Y382221D02*
X407418Y387468D01*
X401068Y386198D02*
X407418Y392548D01*
X381032Y378862D02*
X408345D01*
X409387Y379903D02*
Y380277D01*
X408345Y378862D02*
X409387Y379903D01*
X260643Y395634D02*
X265723D01*
X249938Y379848D02*
X251208Y381118D01*
X260098Y395088D02*
X260643Y395634D01*
X247398Y387468D02*
X265178D01*
X251208Y381118D02*
X266448D01*
X263908Y365878D02*
X277918Y379888D01*
X265178Y387468D02*
X272598Y394888D01*
X266448Y381118D02*
X275218Y389888D01*
X268353Y375403D02*
X277838Y384888D01*
X265723Y395634D02*
X269978Y399888D01*
X407418Y392548D02*
X420118D01*
X392178Y438268D02*
X412498D01*
X389638Y417948D02*
X412498D01*
X387098Y400168D02*
X412498D01*
X386818Y399888D02*
X387098Y400168D01*
X379478Y425568D02*
X392178Y438268D01*
X362068Y435728D02*
X366294Y439954D01*
X313438Y433188D02*
Y448428D01*
X384558Y346828D02*
X402718D01*
X338838Y443348D02*
Y448428D01*
X353507Y445317D02*
X357047D01*
X346178Y427828D02*
X354078Y435728D01*
X341378Y433188D02*
X353507Y445317D01*
X336298Y433188D02*
X348998Y445888D01*
X357047Y445317D02*
X359158Y447428D01*
X348998Y445888D02*
Y458588D01*
X359158Y447428D02*
Y448428D01*
X366294Y439954D02*
Y455396D01*
X354078Y435728D02*
X362068D01*
X289731Y448428D02*
X291842Y446317D01*
Y444624D02*
Y446317D01*
X301585Y439962D02*
Y458588D01*
X361328Y384888D02*
X367328D01*
X379311Y382221D02*
X402171D01*
X361328Y399888D02*
X386818D01*
X361328Y379888D02*
X376978D01*
X367328Y384888D02*
X368638Y386198D01*
X361328Y389888D02*
X384438D01*
X387098Y392548D01*
X376978Y379888D02*
X379311Y382221D01*
X387098Y392548D02*
X394718D01*
X368638Y386198D02*
X401068D01*
X336298Y415158D02*
Y433188D01*
X301585Y439962D02*
X316178Y425368D01*
X313438Y433188D02*
X321178Y425448D01*
X341378Y415238D02*
Y433188D01*
X331218Y415078D02*
Y435728D01*
X291842Y444624D02*
X310898Y425568D01*
X331218Y435728D02*
X338838Y443348D01*
X277918Y379888D02*
X296028D01*
X272598Y394888D02*
X296028D01*
X277838Y384888D02*
X296028D01*
X269978Y399888D02*
X296028D01*
X275218Y389888D02*
X296028D01*
X270510Y618490D02*
X378460D01*
X261620Y627380D02*
X270510Y618490D01*
X555498Y787400D02*
X582820D01*
X600820D02*
X619760D01*
X543560Y830580D02*
Y852610D01*
X538480Y825500D02*
X543560Y830580D01*
X517398Y825500D02*
X538480D01*
X517398Y807720D02*
Y825500D01*
X469900Y831185D02*
X470505Y830580D01*
X485140D01*
X490220Y825500D01*
X498602D01*
X449580Y848360D02*
X464820D01*
X469900Y843280D01*
Y831185D02*
Y843280D01*
X381000Y697230D02*
Y701890D01*
X381039Y701929D01*
X386041Y696575D02*
Y701929D01*
D74*
X501650Y565150D02*
X523810D01*
X474410Y527050D02*
X495300D01*
X51294Y715538D02*
X61702D01*
X46830Y720002D02*
X51294Y715538D01*
X46830Y720002D02*
Y782248D01*
X61702Y715538D02*
X63500Y713740D01*
X46830Y782248D02*
X51294Y786712D01*
X61702D01*
X63500Y788510D01*
X372110Y502160D02*
X388620D01*
Y572770D02*
Y590550D01*
X63500Y174555D02*
X131440D01*
X218440Y261555D01*
X63500Y194555D02*
X126040D01*
X193040Y261555D01*
X120640Y214555D02*
X167640Y261555D01*
X63500Y214555D02*
X120640D01*
X136840Y154555D02*
X243840Y261555D01*
X63500Y154555D02*
X136840D01*
X156464Y290830D02*
Y315976D01*
X82537Y81173D02*
X83700Y80010D01*
X66147Y81173D02*
X82537D01*
X44715Y87828D02*
X59492D01*
X66147Y81173D01*
X44583Y48502D02*
Y68899D01*
X44450Y48370D02*
X44583Y48502D01*
Y68899D02*
X44715Y69032D01*
X388620Y559308D02*
Y572770D01*
X364320Y502160D02*
X372110D01*
X359410D02*
X361950D01*
X387858Y560070D02*
X388620Y559308D01*
X365760Y560070D02*
X387858D01*
D75*
X389890Y682498D02*
Y693420D01*
X389382Y681990D02*
X389890Y682498D01*
X389382Y659130D02*
Y681990D01*
X521385Y855435D02*
Y873175D01*
X518560Y852610D02*
X521385Y855435D01*
Y873175D02*
X523240Y875030D01*
X471170Y625348D02*
X483362D01*
X471170Y606552D02*
X483362D01*
X391629Y718312D02*
X397677Y724360D01*
X408432Y726265D02*
Y726440D01*
X397677Y724360D02*
X406527D01*
X408432Y726265D01*
X392312Y694572D02*
Y701929D01*
X389890Y693420D02*
X391042Y694572D01*
D76*
X110300Y865180D02*
D03*
X245300D02*
D03*
D77*
X141800Y805180D02*
D03*
X213800D02*
D03*
D78*
X116840Y261555D02*
D03*
X142240D02*
D03*
X167640D02*
D03*
X193040D02*
D03*
X218440D02*
D03*
X243840D02*
D03*
X269240D02*
D03*
X294640D02*
D03*
Y134555D02*
D03*
X269240D02*
D03*
X243840D02*
D03*
X218440D02*
D03*
X193040D02*
D03*
X167640D02*
D03*
X142240D02*
D03*
D79*
X116840D02*
D03*
D80*
X268605Y302895D02*
D03*
X288290Y290830D02*
D03*
X342900Y266700D02*
D03*
X321310Y279400D02*
D03*
D81*
X156210Y316230D02*
D03*
D82*
X181610D02*
D03*
X207010D02*
D03*
X232410D02*
D03*
D83*
X63500Y214555D02*
D03*
Y356688D02*
D03*
Y498822D02*
D03*
Y640955D02*
D03*
Y713740D02*
D03*
Y788510D02*
D03*
X586740Y703900D02*
D03*
Y560955D02*
D03*
Y418821D02*
D03*
Y134555D02*
D03*
Y276688D02*
D03*
D84*
X63500Y194555D02*
D03*
Y174555D02*
D03*
Y154555D02*
D03*
Y134555D02*
D03*
Y336688D02*
D03*
Y316688D02*
D03*
Y296688D02*
D03*
Y276688D02*
D03*
Y478822D02*
D03*
Y458822D02*
D03*
Y438822D02*
D03*
Y418822D02*
D03*
Y560955D02*
D03*
Y580955D02*
D03*
Y600955D02*
D03*
Y620955D02*
D03*
Y693740D02*
D03*
Y768510D02*
D03*
X586740Y723900D02*
D03*
Y640955D02*
D03*
Y620955D02*
D03*
Y600955D02*
D03*
Y580955D02*
D03*
Y498821D02*
D03*
Y478821D02*
D03*
Y458821D02*
D03*
Y438821D02*
D03*
Y154555D02*
D03*
Y174555D02*
D03*
Y194555D02*
D03*
Y214555D02*
D03*
Y356688D02*
D03*
Y336688D02*
D03*
Y316688D02*
D03*
Y296688D02*
D03*
D85*
X509560Y880110D02*
D03*
X577560D02*
D03*
D86*
X35000Y858520D02*
D03*
X615000D02*
D03*
D87*
X566300Y80010D02*
D03*
Y54610D02*
D03*
X540900Y80010D02*
D03*
Y54610D02*
D03*
X515500Y80010D02*
D03*
Y54610D02*
D03*
X490100Y80010D02*
D03*
Y54610D02*
D03*
X464700Y80010D02*
D03*
Y54610D02*
D03*
X439300Y80010D02*
D03*
Y54610D02*
D03*
X413900Y80010D02*
D03*
Y54610D02*
D03*
X388500Y80010D02*
D03*
Y54610D02*
D03*
X363100Y80010D02*
D03*
Y54610D02*
D03*
X337700Y80010D02*
D03*
Y54610D02*
D03*
X312300Y80010D02*
D03*
Y54610D02*
D03*
X286900Y80010D02*
D03*
Y54610D02*
D03*
X261500Y80010D02*
D03*
Y54610D02*
D03*
X236100Y80010D02*
D03*
Y54610D02*
D03*
X210700Y80010D02*
D03*
Y54610D02*
D03*
X185300Y80010D02*
D03*
Y54610D02*
D03*
X159900Y80010D02*
D03*
Y54610D02*
D03*
X134500Y80010D02*
D03*
Y54610D02*
D03*
X109100Y80010D02*
D03*
Y54610D02*
D03*
X83700Y80010D02*
D03*
D88*
Y54610D02*
D03*
D89*
X242318Y379848D02*
D03*
X543560Y316230D02*
D03*
X537210Y480060D02*
D03*
X525780Y359410D02*
D03*
X426720Y882650D02*
D03*
X434340D02*
D03*
X419100D02*
D03*
X411480D02*
D03*
X403860Y863600D02*
D03*
X411480D02*
D03*
X419100D02*
D03*
X434340D02*
D03*
X426720D02*
D03*
Y844550D02*
D03*
X434340D02*
D03*
X419100D02*
D03*
X411480D02*
D03*
X403860D02*
D03*
X441960D02*
D03*
X449580D02*
D03*
X441960Y863600D02*
D03*
X449580D02*
D03*
Y857250D02*
D03*
X441960D02*
D03*
X449580Y850900D02*
D03*
X441960D02*
D03*
Y869950D02*
D03*
X449580D02*
D03*
X441960Y876300D02*
D03*
X449580D02*
D03*
X403860Y882650D02*
D03*
X449580D02*
D03*
X441960D02*
D03*
X403860Y889000D02*
D03*
X411480D02*
D03*
X419100D02*
D03*
X434340D02*
D03*
X426720D02*
D03*
X449580D02*
D03*
X441960D02*
D03*
X576580Y833120D02*
D03*
X553720D02*
D03*
X568960D02*
D03*
X561340D02*
D03*
X571500Y772160D02*
D03*
Y765810D02*
D03*
X548640Y772160D02*
D03*
Y765810D02*
D03*
X556260D02*
D03*
Y772160D02*
D03*
X541020D02*
D03*
Y765810D02*
D03*
X533400D02*
D03*
Y772160D02*
D03*
X563880D02*
D03*
Y765810D02*
D03*
X530860Y814070D02*
D03*
Y807720D02*
D03*
Y801370D02*
D03*
X538480D02*
D03*
Y807720D02*
D03*
Y814070D02*
D03*
X561340Y826770D02*
D03*
Y820420D02*
D03*
Y814070D02*
D03*
Y807720D02*
D03*
Y801370D02*
D03*
X568960D02*
D03*
Y807720D02*
D03*
Y814070D02*
D03*
Y820420D02*
D03*
Y826770D02*
D03*
X553720D02*
D03*
Y820420D02*
D03*
Y814070D02*
D03*
Y807720D02*
D03*
Y801370D02*
D03*
X546100D02*
D03*
Y807720D02*
D03*
Y814070D02*
D03*
Y820420D02*
D03*
X576580Y826770D02*
D03*
Y820420D02*
D03*
Y814070D02*
D03*
Y807720D02*
D03*
Y801370D02*
D03*
X525780Y765810D02*
D03*
Y772160D02*
D03*
Y778510D02*
D03*
Y784860D02*
D03*
Y791210D02*
D03*
X495300D02*
D03*
Y784860D02*
D03*
Y778510D02*
D03*
Y772160D02*
D03*
Y765810D02*
D03*
X502920D02*
D03*
Y772160D02*
D03*
Y778510D02*
D03*
Y784860D02*
D03*
Y791210D02*
D03*
X518160D02*
D03*
Y784860D02*
D03*
Y778510D02*
D03*
Y772160D02*
D03*
Y765810D02*
D03*
X510540D02*
D03*
Y772160D02*
D03*
Y778510D02*
D03*
Y784860D02*
D03*
Y791210D02*
D03*
X464820D02*
D03*
Y784860D02*
D03*
Y778510D02*
D03*
Y772160D02*
D03*
Y765810D02*
D03*
X472440D02*
D03*
Y772160D02*
D03*
Y778510D02*
D03*
Y784860D02*
D03*
Y791210D02*
D03*
X487680D02*
D03*
Y784860D02*
D03*
Y778510D02*
D03*
Y772160D02*
D03*
Y765810D02*
D03*
X480060D02*
D03*
Y772160D02*
D03*
Y778510D02*
D03*
Y784860D02*
D03*
Y791210D02*
D03*
X449580D02*
D03*
Y784860D02*
D03*
Y778510D02*
D03*
Y772160D02*
D03*
Y765810D02*
D03*
X457200D02*
D03*
Y772160D02*
D03*
Y778510D02*
D03*
Y784860D02*
D03*
Y791210D02*
D03*
X441960D02*
D03*
Y784860D02*
D03*
Y778510D02*
D03*
Y772160D02*
D03*
Y765810D02*
D03*
X434340D02*
D03*
Y772160D02*
D03*
Y778510D02*
D03*
Y784860D02*
D03*
Y791210D02*
D03*
X426720Y765810D02*
D03*
Y772160D02*
D03*
Y778510D02*
D03*
Y784860D02*
D03*
Y791210D02*
D03*
X215900Y215900D02*
D03*
X487680Y193040D02*
D03*
X480060D02*
D03*
X487680Y157480D02*
D03*
X480060Y200660D02*
D03*
X487680D02*
D03*
X530860Y584200D02*
D03*
X538480D02*
D03*
Y576580D02*
D03*
X530860D02*
D03*
X515620D02*
D03*
X523240D02*
D03*
Y584200D02*
D03*
X515620D02*
D03*
X508000D02*
D03*
X523240Y502920D02*
D03*
X515620D02*
D03*
X485140Y515620D02*
D03*
X472440D02*
D03*
X297180Y317500D02*
D03*
X289560D02*
D03*
X281940D02*
D03*
X297180Y309880D02*
D03*
X289560D02*
D03*
X281940D02*
D03*
X373380Y457200D02*
D03*
X381000D02*
D03*
X388620D02*
D03*
X373380Y464820D02*
D03*
X381000D02*
D03*
X388620D02*
D03*
X424180Y485140D02*
D03*
X416560D02*
D03*
X408940D02*
D03*
X401320D02*
D03*
X393700D02*
D03*
X386080D02*
D03*
X368300Y279400D02*
D03*
X378460D02*
D03*
Y289560D02*
D03*
X368300D02*
D03*
Y299720D02*
D03*
X378460D02*
D03*
X368300Y634492D02*
D03*
Y641096D02*
D03*
Y647700D02*
D03*
X377444D02*
D03*
Y641096D02*
D03*
Y634492D02*
D03*
X471932Y183134D02*
D03*
Y176784D02*
D03*
X464312Y183134D02*
D03*
X471932Y170434D02*
D03*
X464312Y176784D02*
D03*
Y170434D02*
D03*
X456692D02*
D03*
Y176784D02*
D03*
Y183134D02*
D03*
X449072Y170434D02*
D03*
Y176784D02*
D03*
X424100Y240270D02*
D03*
X265178Y329048D02*
D03*
X501650Y565150D02*
D03*
X495300Y527050D02*
D03*
X407670Y647700D02*
D03*
X431800Y681228D02*
D03*
X422656D02*
D03*
X431800Y690372D02*
D03*
X422656D02*
D03*
X248920Y770128D02*
D03*
X285496Y797560D02*
D03*
X230632Y760984D02*
D03*
X331216Y715264D02*
D03*
X294640Y797560D02*
D03*
X157480Y879856D02*
D03*
X111760Y797560D02*
D03*
X340360Y806704D02*
D03*
X303784D02*
D03*
X340360Y751840D02*
D03*
X175768Y760984D02*
D03*
X111760Y788416D02*
D03*
X166624Y824992D02*
D03*
X157480Y834136D02*
D03*
X303784Y788416D02*
D03*
X349504Y770128D02*
D03*
X194056Y760984D02*
D03*
X157480Y843280D02*
D03*
X331216Y806704D02*
D03*
X422656Y706120D02*
D03*
X111760Y834136D02*
D03*
X130048Y751840D02*
D03*
X349504Y788416D02*
D03*
X166624Y843280D02*
D03*
X139192Y870712D02*
D03*
X312928Y806704D02*
D03*
X331216Y751840D02*
D03*
X203200Y760984D02*
D03*
X111760Y779272D02*
D03*
X166624Y788416D02*
D03*
X358648Y806704D02*
D03*
X431800Y715264D02*
D03*
X203200Y770128D02*
D03*
X130048Y861568D02*
D03*
X102616Y815848D02*
D03*
X285496Y742696D02*
D03*
X120904Y879856D02*
D03*
X413512Y696976D02*
D03*
X148336Y760984D02*
D03*
X120904D02*
D03*
X340360Y715264D02*
D03*
X166624Y779272D02*
D03*
X358648Y797560D02*
D03*
X139192Y861568D02*
D03*
X157480D02*
D03*
X166624Y760984D02*
D03*
X148336Y779272D02*
D03*
X166624Y806704D02*
D03*
X148336Y770128D02*
D03*
X276352Y733552D02*
D03*
X285496Y751840D02*
D03*
X130048Y834136D02*
D03*
X157480Y770128D02*
D03*
X331216Y788416D02*
D03*
X139192Y779272D02*
D03*
X404368Y696976D02*
D03*
X157480Y760984D02*
D03*
X102616Y806704D02*
D03*
X349504Y760984D02*
D03*
X285496Y733552D02*
D03*
X221488Y770128D02*
D03*
X358648D02*
D03*
X422656Y715264D02*
D03*
X130048Y843280D02*
D03*
X120904Y834136D02*
D03*
X102616Y843280D02*
D03*
X340360Y733552D02*
D03*
X331216Y724408D02*
D03*
X130048Y870712D02*
D03*
X175768Y770128D02*
D03*
X285496Y788416D02*
D03*
X148336Y834136D02*
D03*
X276352Y724408D02*
D03*
X111760Y824992D02*
D03*
X258064Y760984D02*
D03*
X349504Y742696D02*
D03*
X120904Y788416D02*
D03*
X303784Y770128D02*
D03*
X130048Y779272D02*
D03*
X111760Y806704D02*
D03*
X358648Y760984D02*
D03*
X130048Y770128D02*
D03*
X120904Y824992D02*
D03*
X340360Y779272D02*
D03*
X312928Y797560D02*
D03*
Y715264D02*
D03*
X166624Y770128D02*
D03*
X276352Y742696D02*
D03*
X139192Y852424D02*
D03*
X340360Y742696D02*
D03*
X267208Y760984D02*
D03*
X422656Y696976D02*
D03*
X139192Y843280D02*
D03*
X294640Y779272D02*
D03*
X349504Y797560D02*
D03*
X166624Y834136D02*
D03*
X212344Y760984D02*
D03*
X322072Y797560D02*
D03*
X358648Y715264D02*
D03*
X404368Y706120D02*
D03*
X267208Y742696D02*
D03*
X212344Y770128D02*
D03*
X157480Y824992D02*
D03*
X111760Y815848D02*
D03*
X367792Y751840D02*
D03*
X413512Y706120D02*
D03*
X340360Y788416D02*
D03*
X349504Y724408D02*
D03*
X230632Y770128D02*
D03*
X303784Y797560D02*
D03*
X184912Y760984D02*
D03*
X166624Y797560D02*
D03*
X358648Y724408D02*
D03*
X102616Y779272D02*
D03*
X285496D02*
D03*
X157480Y852424D02*
D03*
X331216Y770128D02*
D03*
X285496Y724408D02*
D03*
X312928Y788416D02*
D03*
X294640Y806704D02*
D03*
X322072Y770128D02*
D03*
X148336Y861568D02*
D03*
X349504Y733552D02*
D03*
X120904Y779272D02*
D03*
X267208Y770128D02*
D03*
X358648Y733552D02*
D03*
X148336Y870712D02*
D03*
X166624Y852424D02*
D03*
X349504Y806704D02*
D03*
X148336Y843280D02*
D03*
X239776Y760984D02*
D03*
X367792Y806704D02*
D03*
X267208Y751840D02*
D03*
X130048Y852424D02*
D03*
X322072Y788416D02*
D03*
X294640D02*
D03*
X102616Y824992D02*
D03*
X340360Y724408D02*
D03*
X312928Y779272D02*
D03*
X331216Y742696D02*
D03*
X148336Y879856D02*
D03*
X358648Y788416D02*
D03*
X157480Y870712D02*
D03*
X349504Y751840D02*
D03*
X267208Y779272D02*
D03*
X139192Y879856D02*
D03*
X166624Y870712D02*
D03*
X367792Y797560D02*
D03*
X340360Y760984D02*
D03*
X285496Y715264D02*
D03*
X120904Y770128D02*
D03*
X139192D02*
D03*
X367792Y715264D02*
D03*
X331216Y733552D02*
D03*
X130048Y760984D02*
D03*
X358648Y751840D02*
D03*
X322072Y806704D02*
D03*
X166624Y815848D02*
D03*
X340360Y770128D02*
D03*
X431800Y696976D02*
D03*
X322072Y779272D02*
D03*
X276352Y788416D02*
D03*
X312928Y770128D02*
D03*
X184912D02*
D03*
X130048Y879856D02*
D03*
X102616Y797560D02*
D03*
X139192Y760984D02*
D03*
X276352Y770128D02*
D03*
X358648Y779272D02*
D03*
X285496Y760984D02*
D03*
X358648Y742696D02*
D03*
X294640Y770128D02*
D03*
X120904Y843280D02*
D03*
X349504Y779272D02*
D03*
X139192Y834136D02*
D03*
X303784Y715264D02*
D03*
X111760Y770128D02*
D03*
X431800Y706120D02*
D03*
X331216Y797560D02*
D03*
X102616Y834136D02*
D03*
X331216Y760984D02*
D03*
X258064Y770128D02*
D03*
X248920Y760984D02*
D03*
X340360Y797560D02*
D03*
X303784Y779272D02*
D03*
X276352Y751840D02*
D03*
X166624Y879856D02*
D03*
X194056Y770128D02*
D03*
X148336Y852424D02*
D03*
X102616Y788416D02*
D03*
X349504Y715264D02*
D03*
X239776Y770128D02*
D03*
X294640Y715264D02*
D03*
X285496Y770128D02*
D03*
X276352Y760984D02*
D03*
X331216Y779272D02*
D03*
X276352D02*
D03*
X157480D02*
D03*
X111760Y843280D02*
D03*
X367792Y724408D02*
D03*
X221488Y760984D02*
D03*
X322072Y715264D02*
D03*
X166624Y861568D02*
D03*
X378460Y618490D02*
D03*
X334010Y320410D02*
D03*
X323598Y440438D02*
D03*
X523240Y875030D02*
D03*
X441096Y478790D02*
D03*
X448310Y492760D02*
D03*
X426244Y456347D02*
D03*
X453866D02*
D03*
X533989Y593090D02*
D03*
X532130Y497840D02*
D03*
X434100Y266126D02*
D03*
X419100Y246060D02*
D03*
X429100D02*
D03*
X409100D02*
D03*
X419100Y266285D02*
D03*
X91440Y381391D02*
D03*
X455930Y516890D02*
D03*
X394347Y372228D02*
D03*
Y359528D02*
D03*
X374398Y337039D02*
D03*
X359158Y321799D02*
D03*
X288038Y337039D02*
D03*
X270628Y407788D02*
D03*
X506730Y397510D02*
D03*
X483362Y606552D02*
D03*
X107950Y603143D02*
D03*
X429180Y326150D02*
D03*
X424100Y279974D02*
D03*
X414100D02*
D03*
X404100Y266126D02*
D03*
X399100Y279974D02*
D03*
X434180Y320360D02*
D03*
X424180D02*
D03*
X419180Y326150D02*
D03*
X414180Y320360D02*
D03*
X409180Y326150D02*
D03*
X404100Y240270D02*
D03*
X399100Y246060D02*
D03*
X337820Y458470D02*
D03*
X328930D02*
D03*
X320040D02*
D03*
X111760Y312928D02*
D03*
Y303784D02*
D03*
Y294640D02*
D03*
Y285496D02*
D03*
X102616Y312928D02*
D03*
Y303784D02*
D03*
Y294640D02*
D03*
Y285496D02*
D03*
X93472Y312928D02*
D03*
Y303784D02*
D03*
Y294640D02*
D03*
Y285496D02*
D03*
X84328Y303784D02*
D03*
Y294640D02*
D03*
Y285496D02*
D03*
X325120Y538480D02*
D03*
X322580Y544830D02*
D03*
X318820Y589230D02*
D03*
X388620Y572770D02*
D03*
X552450Y596900D02*
D03*
X441960D02*
D03*
X483362Y625348D02*
D03*
X349250Y575310D02*
D03*
X350520Y541020D02*
D03*
X112522Y242062D02*
D03*
X372110Y502160D02*
D03*
X506730Y480060D02*
D03*
X406400Y457200D02*
D03*
X289528Y438300D02*
D03*
X467360Y387350D02*
D03*
X375838Y394888D02*
D03*
X313957Y474713D02*
D03*
X312320Y489050D02*
D03*
X303530Y469265D02*
D03*
X318820Y482650D02*
D03*
X292100Y464820D02*
D03*
X420118Y392548D02*
D03*
X326178Y291619D02*
D03*
X304800Y327660D02*
D03*
X272442Y326152D02*
D03*
X280670Y435728D02*
D03*
X619760Y787400D02*
D03*
X422910Y817880D02*
D03*
D90*
X351808Y382388D02*
D03*
X342253D02*
D03*
X315553D02*
D03*
X351808Y368790D02*
D03*
X315553D02*
D03*
X328678Y405581D02*
D03*
X342253Y359146D02*
D03*
X328678D02*
D03*
X342253Y395312D02*
D03*
X328678Y368790D02*
D03*
Y382388D02*
D03*
X342253Y368790D02*
D03*
X328678Y395312D02*
D03*
X342253Y405581D02*
D03*
X315553Y359146D02*
D03*
X351808Y395312D02*
D03*
X315553D02*
D03*
Y405581D02*
D03*
X305909Y368790D02*
D03*
Y382388D02*
D03*
Y395312D02*
D03*
M02*
