G04*
G04 #@! TF.GenerationSoftware,Altium Limited,Altium Designer,21.0.9 (235)*
G04*
G04 Layer_Physical_Order=4*
G04 Layer_Color=16711680*
%FSLAX44Y44*%
%MOMM*%
G71*
G04*
G04 #@! TF.SameCoordinates,58F94E15-CAE4-4791-8A53-09B8A48F05B3*
G04*
G04*
G04 #@! TF.FilePolarity,Positive*
G04*
G01*
G75*
%ADD12C,0.2540*%
%ADD13C,0.1270*%
%ADD26R,1.0160X1.3970*%
%ADD33R,2.7400X0.9800*%
%ADD72R,6.4000X6.1383*%
%ADD73C,0.1778*%
%ADD74C,0.7620*%
G04:AMPARAMS|DCode=76|XSize=3mm|YSize=1.6mm|CornerRadius=0.8mm|HoleSize=0mm|Usage=FLASHONLY|Rotation=90.000|XOffset=0mm|YOffset=0mm|HoleType=Round|Shape=RoundedRectangle|*
%AMROUNDEDRECTD76*
21,1,3.0000,0.0000,0,0,90.0*
21,1,1.4000,1.6000,0,0,90.0*
1,1,1.6000,0.0000,0.7000*
1,1,1.6000,0.0000,-0.7000*
1,1,1.6000,0.0000,-0.7000*
1,1,1.6000,0.0000,0.7000*
%
%ADD76ROUNDEDRECTD76*%
%ADD77C,4.0000*%
%ADD78C,1.5300*%
%ADD79R,1.5300X1.5300*%
%ADD80C,1.1810*%
%ADD81R,1.4500X1.4500*%
%ADD82C,1.4500*%
%ADD83R,1.3080X1.3080*%
%ADD84C,1.3080*%
%ADD85C,1.0000*%
%ADD86C,1.5240*%
%ADD87C,1.3700*%
%ADD88R,1.3700X1.3700*%
%ADD89C,0.4572*%
%ADD90C,0.5000*%
G36*
X454660Y836930D02*
X398780D01*
X398780Y892008D01*
X454660D01*
X454660Y836930D01*
D02*
G37*
G36*
X396741D02*
X396896Y836150D01*
X397338Y835488D01*
X398000Y835046D01*
X398780Y834891D01*
X452621D01*
X452621Y798405D01*
X452545Y798329D01*
X438729D01*
X438610Y799550D01*
X438610Y799599D01*
Y813350D01*
X426244D01*
Y815153D01*
X426544Y815452D01*
X427196Y817027D01*
Y818733D01*
X426544Y820308D01*
X425338Y821514D01*
X423763Y822166D01*
X422057D01*
X420482Y821514D01*
X419277Y820308D01*
X418624Y818733D01*
Y817027D01*
X419277Y815452D01*
X419576Y815153D01*
Y813350D01*
X407210D01*
Y799550D01*
X421268D01*
X421393Y798280D01*
X420860Y798174D01*
X420198Y797732D01*
X419756Y797070D01*
X419601Y796290D01*
Y762000D01*
X419601Y762000D01*
X419756Y761220D01*
X420198Y760558D01*
X420198Y760558D01*
X421468Y759288D01*
X421468Y759288D01*
X422130Y758846D01*
X422910Y758691D01*
X454660Y758691D01*
X581660Y758691D01*
X582440Y758846D01*
X583102Y759288D01*
X583544Y759950D01*
X583699Y760730D01*
X583699Y852677D01*
X584969Y852827D01*
X585874Y849056D01*
X587714Y844617D01*
X590224Y840519D01*
X593345Y836865D01*
X596999Y833744D01*
X601097Y831234D01*
X605536Y829395D01*
X610209Y828273D01*
X615000Y827896D01*
X619791Y828273D01*
X624463Y829395D01*
X628903Y831234D01*
X633001Y833744D01*
X636655Y836865D01*
X639776Y840519D01*
X640356Y841466D01*
X641578Y841121D01*
Y8422D01*
X8422D01*
Y841121D01*
X9644Y841466D01*
X10224Y840519D01*
X13345Y836865D01*
X16999Y833744D01*
X21097Y831234D01*
X25537Y829395D01*
X30209Y828273D01*
X35000Y827896D01*
X39791Y828273D01*
X44464Y829395D01*
X48903Y831234D01*
X53001Y833744D01*
X56655Y836865D01*
X59776Y840519D01*
X62287Y844617D01*
X64126Y849056D01*
X65247Y853729D01*
X65624Y858520D01*
X65247Y863311D01*
X64126Y867983D01*
X62287Y872423D01*
X59776Y876521D01*
X56655Y880175D01*
X53001Y883296D01*
X48903Y885807D01*
X44464Y887645D01*
X39791Y888767D01*
X35000Y889144D01*
X30209Y888767D01*
X25537Y887645D01*
X21097Y885807D01*
X16999Y883296D01*
X13345Y880175D01*
X10224Y876521D01*
X9644Y875574D01*
X8422Y875919D01*
Y892008D01*
X396741D01*
X396741Y836930D01*
D02*
G37*
G36*
X581660Y867410D02*
X581660Y760730D01*
X454660Y760730D01*
X422910Y760730D01*
X421640Y762000D01*
Y796290D01*
X453390D01*
X454660Y797560D01*
X454660Y834891D01*
D01*
X455440Y835046D01*
X456102Y835488D01*
X456544Y836150D01*
X456699Y836930D01*
X456699Y867410D01*
X581660Y867410D01*
D02*
G37*
%LPC*%
G36*
X167477Y884142D02*
X165771D01*
X164196Y883490D01*
X162990Y882284D01*
X162739Y881677D01*
X161365D01*
X161113Y882284D01*
X159908Y883490D01*
X158333Y884142D01*
X156627D01*
X155052Y883490D01*
X153847Y882284D01*
X153595Y881677D01*
X152221D01*
X151969Y882284D01*
X150764Y883490D01*
X149189Y884142D01*
X147483D01*
X145908Y883490D01*
X144703Y882284D01*
X144451Y881677D01*
X143077D01*
X142825Y882284D01*
X141620Y883490D01*
X140045Y884142D01*
X138339D01*
X136764Y883490D01*
X135559Y882284D01*
X135307Y881677D01*
X133933D01*
X133681Y882284D01*
X132476Y883490D01*
X130901Y884142D01*
X129195D01*
X127620Y883490D01*
X126414Y882284D01*
X126163Y881677D01*
X124789D01*
X124537Y882284D01*
X123332Y883490D01*
X121757Y884142D01*
X120051D01*
X118476Y883490D01*
X117270Y882284D01*
X116879Y881338D01*
X115445Y880837D01*
X115343Y880915D01*
X112910Y881923D01*
X110300Y882266D01*
X107690Y881923D01*
X105257Y880915D01*
X103168Y879312D01*
X101565Y877223D01*
X100557Y874790D01*
X100214Y872180D01*
Y858180D01*
X100557Y855570D01*
X101565Y853137D01*
X103168Y851048D01*
X105257Y849445D01*
X107690Y848437D01*
X109209Y848237D01*
X109381Y846934D01*
X109332Y846914D01*
X108126Y845708D01*
X107875Y845101D01*
X106501D01*
X106250Y845708D01*
X105044Y846914D01*
X103469Y847566D01*
X101763D01*
X100188Y846914D01*
X98982Y845708D01*
X98330Y844133D01*
Y842427D01*
X98982Y840852D01*
X100188Y839647D01*
X100795Y839395D01*
Y838021D01*
X100188Y837769D01*
X98982Y836564D01*
X98330Y834989D01*
Y833283D01*
X98982Y831708D01*
X100188Y830502D01*
X100795Y830251D01*
Y828877D01*
X100188Y828625D01*
X98982Y827420D01*
X98330Y825845D01*
Y824139D01*
X98982Y822564D01*
X100188Y821358D01*
X100795Y821107D01*
Y819733D01*
X100188Y819482D01*
X98982Y818276D01*
X98330Y816701D01*
Y814995D01*
X98982Y813420D01*
X100188Y812215D01*
X100795Y811963D01*
Y810589D01*
X100188Y810338D01*
X98982Y809132D01*
X98330Y807557D01*
Y805851D01*
X98982Y804276D01*
X100188Y803071D01*
X100795Y802819D01*
Y801445D01*
X100188Y801193D01*
X98982Y799988D01*
X98330Y798413D01*
Y796707D01*
X98982Y795132D01*
X100188Y793926D01*
X100795Y793675D01*
Y792301D01*
X100188Y792049D01*
X98982Y790844D01*
X98330Y789269D01*
Y787563D01*
X98982Y785988D01*
X100188Y784782D01*
X100795Y784531D01*
Y783157D01*
X100188Y782906D01*
X98982Y781700D01*
X98330Y780125D01*
Y778419D01*
X98982Y776844D01*
X100188Y775639D01*
X101763Y774986D01*
X103469D01*
X105044Y775639D01*
X106250Y776844D01*
X106501Y777451D01*
X107875D01*
X108126Y776844D01*
X109332Y775639D01*
X109939Y775387D01*
Y774013D01*
X109332Y773762D01*
X108126Y772556D01*
X107474Y770981D01*
Y769275D01*
X108126Y767700D01*
X109332Y766495D01*
X110907Y765842D01*
X112613D01*
X114188Y766495D01*
X115393Y767700D01*
X115645Y768307D01*
X117019D01*
X117270Y767700D01*
X118476Y766495D01*
X119083Y766243D01*
Y764869D01*
X118476Y764617D01*
X117270Y763412D01*
X116618Y761837D01*
Y760131D01*
X117270Y758556D01*
X118476Y757350D01*
X120051Y756698D01*
X121757D01*
X123332Y757350D01*
X124537Y758556D01*
X124789Y759163D01*
X126163D01*
X126414Y758556D01*
X127620Y757350D01*
X128227Y757099D01*
Y755725D01*
X127620Y755473D01*
X126414Y754268D01*
X125762Y752693D01*
Y750987D01*
X126414Y749412D01*
X127620Y748206D01*
X129195Y747554D01*
X130901D01*
X132476Y748206D01*
X133681Y749412D01*
X134334Y750987D01*
Y752693D01*
X133681Y754268D01*
X132476Y755473D01*
X131869Y755725D01*
Y757099D01*
X132476Y757350D01*
X133681Y758556D01*
X133933Y759163D01*
X135307D01*
X135559Y758556D01*
X136764Y757350D01*
X138339Y756698D01*
X140045D01*
X141620Y757350D01*
X142825Y758556D01*
X143077Y759163D01*
X144451D01*
X144703Y758556D01*
X145908Y757350D01*
X147483Y756698D01*
X149189D01*
X150764Y757350D01*
X151969Y758556D01*
X152221Y759163D01*
X153595D01*
X153847Y758556D01*
X155052Y757350D01*
X156627Y756698D01*
X158333D01*
X159908Y757350D01*
X161113Y758556D01*
X161365Y759163D01*
X162739D01*
X162990Y758556D01*
X164196Y757350D01*
X165771Y756698D01*
X167477D01*
X169052Y757350D01*
X170257Y758556D01*
X170509Y759163D01*
X171883D01*
X172134Y758556D01*
X173340Y757350D01*
X174915Y756698D01*
X176621D01*
X178196Y757350D01*
X179401Y758556D01*
X179653Y759163D01*
X181027D01*
X181278Y758556D01*
X182484Y757350D01*
X184059Y756698D01*
X185765D01*
X187340Y757350D01*
X188545Y758556D01*
X188797Y759163D01*
X190171D01*
X190422Y758556D01*
X191628Y757350D01*
X193203Y756698D01*
X194909D01*
X196484Y757350D01*
X197689Y758556D01*
X197941Y759163D01*
X199315D01*
X199566Y758556D01*
X200772Y757350D01*
X202347Y756698D01*
X204053D01*
X205628Y757350D01*
X206833Y758556D01*
X207085Y759163D01*
X208459D01*
X208710Y758556D01*
X209916Y757350D01*
X211491Y756698D01*
X213197D01*
X214772Y757350D01*
X215977Y758556D01*
X216229Y759163D01*
X217603D01*
X217854Y758556D01*
X219060Y757350D01*
X220635Y756698D01*
X222341D01*
X223916Y757350D01*
X225121Y758556D01*
X225373Y759163D01*
X226747D01*
X226999Y758556D01*
X228204Y757350D01*
X229779Y756698D01*
X231485D01*
X233060Y757350D01*
X234265Y758556D01*
X234517Y759163D01*
X235891D01*
X236143Y758556D01*
X237348Y757350D01*
X238923Y756698D01*
X240629D01*
X242204Y757350D01*
X243410Y758556D01*
X243661Y759163D01*
X245035D01*
X245287Y758556D01*
X246492Y757350D01*
X248067Y756698D01*
X249773D01*
X251348Y757350D01*
X252554Y758556D01*
X252805Y759163D01*
X254179D01*
X254431Y758556D01*
X255636Y757350D01*
X257211Y756698D01*
X258917D01*
X260492Y757350D01*
X261698Y758556D01*
X261949Y759163D01*
X263323D01*
X263575Y758556D01*
X264780Y757350D01*
X265387Y757099D01*
Y755725D01*
X264780Y755473D01*
X263575Y754268D01*
X262922Y752693D01*
Y750987D01*
X263575Y749412D01*
X264780Y748206D01*
X265387Y747955D01*
Y746581D01*
X264780Y746329D01*
X263575Y745124D01*
X262922Y743549D01*
Y741843D01*
X263575Y740268D01*
X264780Y739062D01*
X266355Y738410D01*
X268061D01*
X269636Y739062D01*
X270842Y740268D01*
X271093Y740875D01*
X272467D01*
X272719Y740268D01*
X273924Y739062D01*
X274531Y738811D01*
Y737437D01*
X273924Y737186D01*
X272719Y735980D01*
X272066Y734405D01*
Y732699D01*
X272719Y731124D01*
X273924Y729919D01*
X274531Y729667D01*
Y728293D01*
X273924Y728042D01*
X272719Y726836D01*
X272066Y725261D01*
Y723555D01*
X272719Y721980D01*
X273924Y720775D01*
X275499Y720122D01*
X277205D01*
X278780Y720775D01*
X279986Y721980D01*
X280237Y722587D01*
X281611D01*
X281863Y721980D01*
X283068Y720775D01*
X283675Y720523D01*
Y719149D01*
X283068Y718897D01*
X281863Y717692D01*
X281210Y716117D01*
Y714411D01*
X281863Y712836D01*
X283068Y711630D01*
X284643Y710978D01*
X286349D01*
X287924Y711630D01*
X289130Y712836D01*
X289381Y713443D01*
X290755D01*
X291007Y712836D01*
X292212Y711630D01*
X293787Y710978D01*
X295493D01*
X297068Y711630D01*
X298274Y712836D01*
X298525Y713443D01*
X299899D01*
X300151Y712836D01*
X301356Y711630D01*
X302931Y710978D01*
X304637D01*
X306212Y711630D01*
X307418Y712836D01*
X307669Y713443D01*
X309043D01*
X309294Y712836D01*
X310500Y711630D01*
X312075Y710978D01*
X313781D01*
X315356Y711630D01*
X316562Y712836D01*
X316813Y713443D01*
X318187D01*
X318438Y712836D01*
X319644Y711630D01*
X321219Y710978D01*
X322925D01*
X324500Y711630D01*
X325705Y712836D01*
X325957Y713443D01*
X327331D01*
X327583Y712836D01*
X328788Y711630D01*
X330363Y710978D01*
X332069D01*
X333644Y711630D01*
X334850Y712836D01*
X335101Y713443D01*
X336475D01*
X336726Y712836D01*
X337932Y711630D01*
X339507Y710978D01*
X341213D01*
X342788Y711630D01*
X343993Y712836D01*
X344245Y713443D01*
X345619D01*
X345871Y712836D01*
X347076Y711630D01*
X348651Y710978D01*
X350357D01*
X351932Y711630D01*
X353138Y712836D01*
X353389Y713443D01*
X354763D01*
X355014Y712836D01*
X356220Y711630D01*
X357795Y710978D01*
X359501D01*
X361076Y711630D01*
X362281Y712836D01*
X362533Y713443D01*
X363907D01*
X364159Y712836D01*
X365364Y711630D01*
X366939Y710978D01*
X368645D01*
X370220Y711630D01*
X371426Y712836D01*
X372078Y714411D01*
Y716117D01*
X371426Y717692D01*
X370220Y718897D01*
X369613Y719149D01*
Y720523D01*
X370220Y720775D01*
X371426Y721980D01*
X372078Y723555D01*
Y725261D01*
X371426Y726836D01*
X370220Y728042D01*
X368645Y728694D01*
X366939D01*
X365364Y728042D01*
X364159Y726836D01*
X363907Y726229D01*
X362533D01*
X362281Y726836D01*
X361076Y728042D01*
X360469Y728293D01*
Y729667D01*
X361076Y729919D01*
X362281Y731124D01*
X362934Y732699D01*
Y734405D01*
X362281Y735980D01*
X361076Y737186D01*
X360469Y737437D01*
Y738811D01*
X361076Y739062D01*
X362281Y740268D01*
X362934Y741843D01*
Y743549D01*
X362281Y745124D01*
X361076Y746329D01*
X360469Y746581D01*
Y747955D01*
X361076Y748206D01*
X362281Y749412D01*
X362533Y750019D01*
X363907D01*
X364159Y749412D01*
X365364Y748206D01*
X366939Y747554D01*
X368645D01*
X370220Y748206D01*
X371426Y749412D01*
X372078Y750987D01*
Y752693D01*
X371426Y754268D01*
X370220Y755473D01*
X368645Y756126D01*
X366939D01*
X365364Y755473D01*
X364159Y754268D01*
X363907Y753661D01*
X362533D01*
X362281Y754268D01*
X361076Y755473D01*
X360469Y755725D01*
Y757099D01*
X361076Y757350D01*
X362281Y758556D01*
X362934Y760131D01*
Y761837D01*
X362281Y763412D01*
X361076Y764617D01*
X360469Y764869D01*
Y766243D01*
X361076Y766495D01*
X362281Y767700D01*
X362934Y769275D01*
Y770981D01*
X362281Y772556D01*
X361076Y773762D01*
X360469Y774013D01*
Y775387D01*
X361076Y775639D01*
X362281Y776844D01*
X362934Y778419D01*
Y780125D01*
X362281Y781700D01*
X361076Y782906D01*
X360469Y783157D01*
Y784531D01*
X361076Y784782D01*
X362281Y785988D01*
X362934Y787563D01*
Y789269D01*
X362281Y790844D01*
X361076Y792049D01*
X360469Y792301D01*
Y793675D01*
X361076Y793926D01*
X362281Y795132D01*
X362533Y795739D01*
X363907D01*
X364159Y795132D01*
X365364Y793926D01*
X366939Y793274D01*
X368645D01*
X370220Y793926D01*
X371426Y795132D01*
X372078Y796707D01*
Y798413D01*
X371426Y799988D01*
X370220Y801193D01*
X369613Y801445D01*
Y802819D01*
X370220Y803071D01*
X371426Y804276D01*
X372078Y805851D01*
Y807557D01*
X371426Y809132D01*
X370220Y810338D01*
X368645Y810990D01*
X366939D01*
X365364Y810338D01*
X364159Y809132D01*
X363907Y808525D01*
X362533D01*
X362281Y809132D01*
X361076Y810338D01*
X359501Y810990D01*
X357795D01*
X356220Y810338D01*
X355014Y809132D01*
X354763Y808525D01*
X353389D01*
X353138Y809132D01*
X351932Y810338D01*
X350357Y810990D01*
X348651D01*
X347076Y810338D01*
X345871Y809132D01*
X345619Y808525D01*
X344245D01*
X343993Y809132D01*
X342788Y810338D01*
X341213Y810990D01*
X339507D01*
X337932Y810338D01*
X336726Y809132D01*
X336475Y808525D01*
X335101D01*
X334850Y809132D01*
X333644Y810338D01*
X332069Y810990D01*
X330363D01*
X328788Y810338D01*
X327583Y809132D01*
X327331Y808525D01*
X325957D01*
X325705Y809132D01*
X324500Y810338D01*
X322925Y810990D01*
X321219D01*
X319644Y810338D01*
X318438Y809132D01*
X318187Y808525D01*
X316813D01*
X316562Y809132D01*
X315356Y810338D01*
X313781Y810990D01*
X312075D01*
X310500Y810338D01*
X309294Y809132D01*
X309043Y808525D01*
X307669D01*
X307418Y809132D01*
X306212Y810338D01*
X304637Y810990D01*
X302931D01*
X301356Y810338D01*
X300151Y809132D01*
X299899Y808525D01*
X298525D01*
X298274Y809132D01*
X297068Y810338D01*
X295493Y810990D01*
X293787D01*
X292212Y810338D01*
X291007Y809132D01*
X290354Y807557D01*
Y805851D01*
X291007Y804276D01*
X292212Y803071D01*
X292819Y802819D01*
Y801445D01*
X292212Y801193D01*
X291007Y799988D01*
X290755Y799381D01*
X289381D01*
X289130Y799988D01*
X287924Y801193D01*
X286349Y801846D01*
X284643D01*
X283068Y801193D01*
X281863Y799988D01*
X281210Y798413D01*
Y796707D01*
X281863Y795132D01*
X283068Y793926D01*
X283675Y793675D01*
Y792301D01*
X283068Y792049D01*
X281863Y790844D01*
X281611Y790237D01*
X280237D01*
X279986Y790844D01*
X278780Y792049D01*
X277205Y792702D01*
X275499D01*
X273924Y792049D01*
X272719Y790844D01*
X272066Y789269D01*
Y787563D01*
X272719Y785988D01*
X273924Y784782D01*
X274531Y784531D01*
Y783157D01*
X273924Y782906D01*
X272719Y781700D01*
X272467Y781093D01*
X271093D01*
X270842Y781700D01*
X269636Y782906D01*
X268061Y783558D01*
X266355D01*
X264780Y782906D01*
X263575Y781700D01*
X262922Y780125D01*
Y778419D01*
X263575Y776844D01*
X264780Y775639D01*
X265387Y775387D01*
Y774013D01*
X264780Y773762D01*
X263575Y772556D01*
X263323Y771949D01*
X261949D01*
X261698Y772556D01*
X260492Y773762D01*
X258917Y774414D01*
X257211D01*
X255636Y773762D01*
X254431Y772556D01*
X254179Y771949D01*
X252805D01*
X252554Y772556D01*
X251348Y773762D01*
X249773Y774414D01*
X248067D01*
X246492Y773762D01*
X245287Y772556D01*
X245035Y771949D01*
X243661D01*
X243410Y772556D01*
X242204Y773762D01*
X240629Y774414D01*
X238923D01*
X237348Y773762D01*
X236143Y772556D01*
X235891Y771949D01*
X234517D01*
X234265Y772556D01*
X233060Y773762D01*
X231485Y774414D01*
X229779D01*
X228204Y773762D01*
X226999Y772556D01*
X226747Y771949D01*
X225373D01*
X225121Y772556D01*
X223916Y773762D01*
X222341Y774414D01*
X220635D01*
X219060Y773762D01*
X217854Y772556D01*
X217603Y771949D01*
X216229D01*
X215977Y772556D01*
X214772Y773762D01*
X213197Y774414D01*
X211491D01*
X209916Y773762D01*
X208710Y772556D01*
X208459Y771949D01*
X207085D01*
X206833Y772556D01*
X205628Y773762D01*
X204053Y774414D01*
X202347D01*
X200772Y773762D01*
X199566Y772556D01*
X199315Y771949D01*
X197941D01*
X197689Y772556D01*
X196484Y773762D01*
X194909Y774414D01*
X193203D01*
X191628Y773762D01*
X190422Y772556D01*
X190171Y771949D01*
X188797D01*
X188545Y772556D01*
X187340Y773762D01*
X185765Y774414D01*
X184059D01*
X182484Y773762D01*
X181278Y772556D01*
X181027Y771949D01*
X179653D01*
X179401Y772556D01*
X178196Y773762D01*
X176621Y774414D01*
X174915D01*
X173340Y773762D01*
X172134Y772556D01*
X171883Y771949D01*
X170509D01*
X170257Y772556D01*
X169052Y773762D01*
X168445Y774013D01*
Y775387D01*
X169052Y775639D01*
X170257Y776844D01*
X170910Y778419D01*
Y780125D01*
X170257Y781700D01*
X169052Y782906D01*
X168445Y783157D01*
Y784531D01*
X169052Y784782D01*
X170257Y785988D01*
X170910Y787563D01*
Y789269D01*
X170257Y790844D01*
X169052Y792049D01*
X168445Y792301D01*
Y793675D01*
X169052Y793926D01*
X170257Y795132D01*
X170910Y796707D01*
Y798413D01*
X170257Y799988D01*
X169052Y801193D01*
X168445Y801445D01*
Y802819D01*
X169052Y803071D01*
X170257Y804276D01*
X170910Y805851D01*
Y807557D01*
X170257Y809132D01*
X169052Y810338D01*
X168445Y810589D01*
Y811963D01*
X169052Y812215D01*
X170257Y813420D01*
X170910Y814995D01*
Y816701D01*
X170257Y818276D01*
X169052Y819482D01*
X168445Y819733D01*
Y821107D01*
X169052Y821358D01*
X170257Y822564D01*
X170910Y824139D01*
Y825845D01*
X170257Y827420D01*
X169052Y828625D01*
X168445Y828877D01*
Y830251D01*
X169052Y830502D01*
X170257Y831708D01*
X170910Y833283D01*
Y834989D01*
X170257Y836564D01*
X169052Y837769D01*
X168445Y838021D01*
Y839395D01*
X169052Y839647D01*
X170257Y840852D01*
X170910Y842427D01*
Y844133D01*
X170257Y845708D01*
X169052Y846914D01*
X168445Y847165D01*
Y848539D01*
X169052Y848791D01*
X170257Y849996D01*
X170910Y851571D01*
Y853277D01*
X170257Y854852D01*
X169052Y856058D01*
X168445Y856309D01*
Y857683D01*
X169052Y857934D01*
X170257Y859140D01*
X170910Y860715D01*
Y862421D01*
X170257Y863996D01*
X169052Y865201D01*
X168445Y865453D01*
Y866827D01*
X169052Y867078D01*
X170257Y868284D01*
X170910Y869859D01*
Y871565D01*
X170257Y873140D01*
X169052Y874345D01*
X168445Y874597D01*
Y875971D01*
X169052Y876223D01*
X170257Y877428D01*
X170910Y879003D01*
Y880709D01*
X170257Y882284D01*
X169052Y883490D01*
X167477Y884142D01*
D02*
G37*
G36*
X245300Y882266D02*
X242689Y881923D01*
X240257Y880915D01*
X238168Y879312D01*
X236565Y877223D01*
X235557Y874790D01*
X235214Y872180D01*
Y858180D01*
X235557Y855570D01*
X236565Y853137D01*
X238168Y851048D01*
X240257Y849445D01*
X242689Y848437D01*
X245300Y848094D01*
X247910Y848437D01*
X250343Y849445D01*
X252432Y851048D01*
X254035Y853137D01*
X255043Y855570D01*
X255386Y858180D01*
Y872180D01*
X255043Y874790D01*
X254035Y877223D01*
X252432Y879312D01*
X250343Y880915D01*
X247910Y881923D01*
X245300Y882266D01*
D02*
G37*
G36*
X215967Y827180D02*
X211633D01*
X207383Y826335D01*
X203379Y824676D01*
X199776Y822269D01*
X196712Y819204D01*
X194304Y815601D01*
X192645Y811597D01*
X191800Y807347D01*
Y803013D01*
X192645Y798763D01*
X194304Y794759D01*
X196712Y791156D01*
X199776Y788092D01*
X203379Y785684D01*
X207383Y784025D01*
X211633Y783180D01*
X215967D01*
X220217Y784025D01*
X224221Y785684D01*
X227824Y788092D01*
X230889Y791156D01*
X233296Y794759D01*
X234954Y798763D01*
X235800Y803013D01*
Y807347D01*
X234954Y811597D01*
X233296Y815601D01*
X230889Y819204D01*
X227824Y822269D01*
X224221Y824676D01*
X220217Y826335D01*
X215967Y827180D01*
D02*
G37*
G36*
X620613Y791686D02*
X618907D01*
X617332Y791033D01*
X616127Y789828D01*
X615474Y788253D01*
Y786547D01*
X616127Y784972D01*
X617332Y783766D01*
X618907Y783114D01*
X620613D01*
X622188Y783766D01*
X623394Y784972D01*
X624046Y786547D01*
Y788253D01*
X623394Y789828D01*
X622188Y791033D01*
X620613Y791686D01*
D02*
G37*
G36*
X72040Y797050D02*
X54960D01*
Y779970D01*
X72040D01*
Y797050D01*
D02*
G37*
G36*
X64624Y777050D02*
X62376D01*
X60204Y776468D01*
X58256Y775344D01*
X56666Y773754D01*
X55542Y771806D01*
X55448Y771456D01*
X31910D01*
X30783Y771231D01*
X29827Y770593D01*
X18237Y759003D01*
X17599Y758047D01*
X17374Y756920D01*
Y48260D01*
X17599Y47133D01*
X18237Y46177D01*
X48717Y15697D01*
X49673Y15059D01*
X50800Y14834D01*
X224670D01*
X225797Y15059D01*
X226753Y15697D01*
X257662Y46607D01*
X258084Y46363D01*
X260335Y45760D01*
X262665D01*
X264916Y46363D01*
X266934Y47528D01*
X268582Y49176D01*
X269747Y51194D01*
X270350Y53445D01*
Y55775D01*
X269747Y58026D01*
X268582Y60044D01*
X268071Y60554D01*
X268598Y61824D01*
X279803D01*
X280329Y60554D01*
X279818Y60044D01*
X278653Y58026D01*
X278050Y55775D01*
Y53445D01*
X278653Y51194D01*
X279818Y49176D01*
X281466Y47528D01*
X283484Y46363D01*
X285735Y45760D01*
X288065D01*
X290316Y46363D01*
X292334Y47528D01*
X293982Y49176D01*
X295147Y51194D01*
X295750Y53445D01*
Y55775D01*
X295147Y58026D01*
X293982Y60044D01*
X293471Y60554D01*
X293997Y61824D01*
X305203D01*
X305729Y60554D01*
X305218Y60044D01*
X304053Y58026D01*
X303450Y55775D01*
Y53445D01*
X304053Y51194D01*
X305218Y49176D01*
X306866Y47528D01*
X308884Y46363D01*
X311135Y45760D01*
X313465D01*
X315716Y46363D01*
X317734Y47528D01*
X319382Y49176D01*
X320547Y51194D01*
X321150Y53445D01*
Y55775D01*
X320547Y58026D01*
X319382Y60044D01*
X318871Y60554D01*
X319398Y61824D01*
X330603D01*
X331129Y60554D01*
X330618Y60044D01*
X329453Y58026D01*
X328850Y55775D01*
Y53445D01*
X329453Y51194D01*
X330618Y49176D01*
X332266Y47528D01*
X334284Y46363D01*
X336535Y45760D01*
X338865D01*
X341116Y46363D01*
X343134Y47528D01*
X344782Y49176D01*
X345947Y51194D01*
X346550Y53445D01*
Y55775D01*
X345947Y58026D01*
X344782Y60044D01*
X344271Y60554D01*
X344798Y61824D01*
X356003D01*
X356529Y60554D01*
X356018Y60044D01*
X354853Y58026D01*
X354250Y55775D01*
Y53445D01*
X354853Y51194D01*
X356018Y49176D01*
X357666Y47528D01*
X359684Y46363D01*
X361935Y45760D01*
X364265D01*
X366516Y46363D01*
X368534Y47528D01*
X370182Y49176D01*
X371347Y51194D01*
X371950Y53445D01*
Y55775D01*
X371347Y58026D01*
X370182Y60044D01*
X369671Y60554D01*
X370197Y61824D01*
X380776D01*
X381262Y60651D01*
X380986Y60376D01*
X379750Y58234D01*
X379119Y55880D01*
X388500D01*
X397881D01*
X397250Y58234D01*
X396014Y60376D01*
X395738Y60651D01*
X396224Y61824D01*
X406803D01*
X407329Y60554D01*
X406818Y60044D01*
X405653Y58026D01*
X405050Y55775D01*
Y53445D01*
X405653Y51194D01*
X406818Y49176D01*
X408466Y47528D01*
X410484Y46363D01*
X412735Y45760D01*
X415065D01*
X417316Y46363D01*
X419334Y47528D01*
X420982Y49176D01*
X422147Y51194D01*
X422750Y53445D01*
Y55775D01*
X422147Y58026D01*
X420982Y60044D01*
X420471Y60554D01*
X420998Y61824D01*
X425500D01*
X430682Y56642D01*
X430450Y55775D01*
Y53445D01*
X431053Y51194D01*
X432218Y49176D01*
X433866Y47528D01*
X435884Y46363D01*
X438135Y45760D01*
X440465D01*
X442716Y46363D01*
X444734Y47528D01*
X446382Y49176D01*
X447547Y51194D01*
X448150Y53445D01*
Y55775D01*
X447547Y58026D01*
X446382Y60044D01*
X444734Y61692D01*
X442716Y62857D01*
X440882Y63348D01*
X441049Y64618D01*
X450785D01*
X451307Y63837D01*
X456697Y58448D01*
X456453Y58026D01*
X455850Y55775D01*
Y53445D01*
X456453Y51194D01*
X457618Y49176D01*
X459266Y47528D01*
X461284Y46363D01*
X463535Y45760D01*
X465865D01*
X468116Y46363D01*
X470134Y47528D01*
X471782Y49176D01*
X472947Y51194D01*
X473550Y53445D01*
Y55775D01*
X472947Y58026D01*
X471782Y60044D01*
X470134Y61692D01*
X468116Y62857D01*
X465865Y63460D01*
X463535D01*
X461284Y62857D01*
X460862Y62613D01*
X456182Y67294D01*
X456111Y67650D01*
X455473Y68605D01*
X454431Y69647D01*
X453476Y70285D01*
X452348Y70510D01*
X442945D01*
X442716Y71763D01*
X444734Y72928D01*
X446382Y74576D01*
X447547Y76594D01*
X448150Y78845D01*
Y81175D01*
X447547Y83426D01*
X446382Y85444D01*
X444734Y87092D01*
X442716Y88257D01*
X440465Y88860D01*
X438135D01*
X435884Y88257D01*
X433866Y87092D01*
X432218Y85444D01*
X431053Y83426D01*
X430450Y81175D01*
Y78845D01*
X431053Y76594D01*
X432218Y74576D01*
X433866Y72928D01*
X435884Y71763D01*
X435655Y70510D01*
X417545D01*
X417316Y71763D01*
X419334Y72928D01*
X420982Y74576D01*
X422147Y76594D01*
X422750Y78845D01*
Y81175D01*
X422147Y83426D01*
X420982Y85444D01*
X419334Y87092D01*
X417316Y88257D01*
X415065Y88860D01*
X412735D01*
X410484Y88257D01*
X408466Y87092D01*
X406818Y85444D01*
X405653Y83426D01*
X405050Y81175D01*
Y78845D01*
X405653Y76594D01*
X406818Y74576D01*
X408466Y72928D01*
X410484Y71763D01*
X410255Y70510D01*
X392145D01*
X391916Y71763D01*
X393934Y72928D01*
X395582Y74576D01*
X396747Y76594D01*
X397350Y78845D01*
Y81175D01*
X396747Y83426D01*
X395582Y85444D01*
X393934Y87092D01*
X391916Y88257D01*
X389665Y88860D01*
X387335D01*
X385084Y88257D01*
X383066Y87092D01*
X381418Y85444D01*
X380253Y83426D01*
X379650Y81175D01*
Y78845D01*
X380253Y76594D01*
X381418Y74576D01*
X383066Y72928D01*
X385084Y71763D01*
X384855Y70510D01*
X366745D01*
X366516Y71763D01*
X368534Y72928D01*
X370182Y74576D01*
X371347Y76594D01*
X371950Y78845D01*
Y81175D01*
X371347Y83426D01*
X370182Y85444D01*
X368534Y87092D01*
X366516Y88257D01*
X364265Y88860D01*
X361935D01*
X359684Y88257D01*
X357666Y87092D01*
X356018Y85444D01*
X354853Y83426D01*
X354250Y81175D01*
Y78845D01*
X354853Y76594D01*
X356018Y74576D01*
X357666Y72928D01*
X359684Y71763D01*
X359455Y70510D01*
X341345D01*
X341116Y71763D01*
X343134Y72928D01*
X344782Y74576D01*
X345947Y76594D01*
X346550Y78845D01*
Y81175D01*
X345947Y83426D01*
X344782Y85444D01*
X343134Y87092D01*
X341116Y88257D01*
X340646Y88383D01*
Y128200D01*
X410566Y198121D01*
X411836Y197595D01*
Y154432D01*
X412061Y153305D01*
X412699Y152349D01*
X461754Y103294D01*
Y88383D01*
X461284Y88257D01*
X459266Y87092D01*
X457618Y85444D01*
X456453Y83426D01*
X455850Y81175D01*
Y78845D01*
X456453Y76594D01*
X457618Y74576D01*
X459266Y72928D01*
X461284Y71763D01*
X463535Y71160D01*
X465865D01*
X468116Y71763D01*
X470134Y72928D01*
X471782Y74576D01*
X472947Y76594D01*
X473550Y78845D01*
Y81175D01*
X472947Y83426D01*
X471782Y85444D01*
X470134Y87092D01*
X468116Y88257D01*
X467646Y88383D01*
Y104514D01*
X467421Y105641D01*
X466783Y106597D01*
X417728Y155652D01*
Y163597D01*
X418998Y163983D01*
X419303Y163525D01*
X491947Y90881D01*
X492547Y90480D01*
X492903Y90243D01*
X492531Y89080D01*
X491370Y89391D01*
Y81280D01*
X499481D01*
X498850Y83634D01*
X497614Y85776D01*
X495866Y87524D01*
X493756Y88742D01*
X493724Y88760D01*
X494030Y90018D01*
X494099Y90018D01*
X501954D01*
X507727Y84246D01*
X507253Y83426D01*
X506650Y81175D01*
Y78845D01*
X507253Y76594D01*
X508418Y74576D01*
X510066Y72928D01*
X512084Y71763D01*
X514335Y71160D01*
X516665D01*
X518916Y71763D01*
X520934Y72928D01*
X522582Y74576D01*
X523747Y76594D01*
X524104Y77928D01*
X525374Y77761D01*
Y64770D01*
X525599Y63643D01*
X526237Y62687D01*
X532282Y56642D01*
X532050Y55775D01*
Y53445D01*
X532653Y51194D01*
X533818Y49176D01*
X535466Y47528D01*
X537484Y46363D01*
X539735Y45760D01*
X542065D01*
X544316Y46363D01*
X546334Y47528D01*
X547982Y49176D01*
X549147Y51194D01*
X549750Y53445D01*
Y55775D01*
X549147Y58026D01*
X547982Y60044D01*
X546334Y61692D01*
X544316Y62857D01*
X542065Y63460D01*
X539735D01*
X537484Y62857D01*
X535528Y61728D01*
X531266Y65990D01*
Y76865D01*
X532536Y77033D01*
X532653Y76594D01*
X533818Y74576D01*
X535466Y72928D01*
X537484Y71763D01*
X539735Y71160D01*
X542065D01*
X544316Y71763D01*
X546334Y72928D01*
X547982Y74576D01*
X549147Y76594D01*
X549750Y78845D01*
Y81175D01*
X549147Y83426D01*
X547982Y85444D01*
X546334Y87092D01*
X544316Y88257D01*
X542065Y88860D01*
X539735D01*
X537484Y88257D01*
X535466Y87092D01*
X533818Y85444D01*
X532653Y83426D01*
X532536Y82987D01*
X531266Y83155D01*
Y91694D01*
X531041Y92821D01*
X530403Y93777D01*
X530403Y93777D01*
X522021Y102159D01*
X521065Y102797D01*
X519938Y103022D01*
X500076D01*
X432206Y170892D01*
Y243104D01*
X432733Y243632D01*
X433386Y245207D01*
Y246912D01*
X433143Y247498D01*
X433992Y248768D01*
X479044D01*
X480171Y248993D01*
X481127Y249631D01*
X543440Y311944D01*
X544413D01*
X545988Y312596D01*
X547193Y313802D01*
X547846Y315377D01*
Y317083D01*
X547193Y318658D01*
X545988Y319863D01*
X544770Y320368D01*
X544295Y321689D01*
X550723Y328117D01*
X551361Y329073D01*
X551586Y330200D01*
Y468630D01*
X551361Y469757D01*
X550723Y470713D01*
X541496Y479940D01*
Y480913D01*
X540844Y482488D01*
X539638Y483694D01*
X538063Y484346D01*
X536357D01*
X536132Y484252D01*
X535076Y484958D01*
Y494724D01*
X535764Y495412D01*
X536416Y496987D01*
Y498693D01*
X535764Y500268D01*
X534558Y501474D01*
X532983Y502126D01*
X531277D01*
X529702Y501474D01*
X528497Y500268D01*
X527844Y498693D01*
Y496987D01*
X528497Y495412D01*
X529184Y494724D01*
Y482451D01*
X527914Y482066D01*
X527863Y482143D01*
X507543Y502463D01*
X506587Y503101D01*
X505460Y503326D01*
X392380D01*
X354806Y540900D01*
Y541873D01*
X354154Y543448D01*
X352948Y544654D01*
X351373Y545306D01*
X349667D01*
X348092Y544654D01*
X346886Y543448D01*
X346681Y542952D01*
X345183Y542654D01*
X304799Y583038D01*
X303843Y583676D01*
X302716Y583900D01*
X71552D01*
X71458Y584251D01*
X70334Y586199D01*
X68744Y587789D01*
X66796Y588913D01*
X64624Y589495D01*
X62376D01*
X60204Y588913D01*
X58256Y587789D01*
X56666Y586199D01*
X55542Y584251D01*
X54960Y582079D01*
Y579831D01*
X55542Y577659D01*
X56666Y575711D01*
X58256Y574121D01*
X60204Y572997D01*
X62376Y572415D01*
X64624D01*
X66796Y572997D01*
X68744Y574121D01*
X70334Y575711D01*
X71458Y577659D01*
X71552Y578009D01*
X301496D01*
X371789Y507716D01*
X371263Y506446D01*
X371257D01*
X369682Y505793D01*
X368476Y504588D01*
X367824Y503013D01*
Y501307D01*
X368476Y499732D01*
X369682Y498526D01*
X371257Y497874D01*
X372963D01*
X374538Y498526D01*
X375743Y499732D01*
X376396Y501307D01*
Y501313D01*
X377666Y501839D01*
X388828Y490677D01*
X389784Y490039D01*
X390911Y489814D01*
X445194D01*
X445882Y489127D01*
X447457Y488474D01*
X449163D01*
X450738Y489127D01*
X451944Y490332D01*
X452596Y491907D01*
Y493613D01*
X451944Y495188D01*
X450967Y496164D01*
X451242Y497242D01*
X451356Y497434D01*
X504240D01*
X522834Y478840D01*
Y362526D01*
X522146Y361838D01*
X521494Y360263D01*
Y358557D01*
X522146Y356982D01*
X523352Y355776D01*
X524927Y355124D01*
X526633D01*
X528208Y355776D01*
X529184Y356753D01*
X530262Y356478D01*
X530454Y356364D01*
Y323800D01*
X469950Y263296D01*
X438941D01*
X438093Y264566D01*
X438386Y265273D01*
Y266978D01*
X437733Y268554D01*
X437086Y269202D01*
Y317204D01*
X437813Y317932D01*
X438466Y319508D01*
Y321213D01*
X437813Y322788D01*
X436608Y323993D01*
X435033Y324646D01*
X434571D01*
X433466Y325298D01*
Y327002D01*
X432813Y328578D01*
X431608Y329784D01*
X430033Y330436D01*
X428327D01*
X426752Y329784D01*
X425546Y328578D01*
X424894Y327002D01*
Y326463D01*
X424180Y326051D01*
X423466Y326463D01*
Y327002D01*
X422813Y328578D01*
X421608Y329784D01*
X420033Y330436D01*
X418327D01*
X416752Y329784D01*
X415546Y328578D01*
X414894Y327002D01*
Y326463D01*
X414180Y326051D01*
X413466Y326463D01*
Y327002D01*
X412813Y328578D01*
X411608Y329784D01*
X410033Y330436D01*
X408327D01*
X406752Y329784D01*
X405546Y328578D01*
X404894Y327002D01*
Y326030D01*
X397017Y318153D01*
X396379Y317197D01*
X396154Y316070D01*
Y283090D01*
X395466Y282402D01*
X394814Y280827D01*
Y279121D01*
X395466Y277546D01*
X396154Y276858D01*
Y258760D01*
X396379Y257633D01*
X397017Y256677D01*
X404063Y249631D01*
X404538Y249314D01*
X405028Y248878D01*
X405130Y247676D01*
X404814Y246912D01*
Y246373D01*
X404100Y245961D01*
X403386Y246373D01*
Y246912D01*
X402733Y248488D01*
X401528Y249694D01*
X399953Y250346D01*
X398247D01*
X396672Y249694D01*
X395466Y248488D01*
X394814Y246912D01*
Y245940D01*
X391617Y242743D01*
X390979Y241787D01*
X390754Y240660D01*
Y206452D01*
X269611Y85309D01*
X268582Y85444D01*
X266934Y87092D01*
X264916Y88257D01*
X262665Y88860D01*
X260335D01*
X258084Y88257D01*
X256066Y87092D01*
X254418Y85444D01*
X253253Y83426D01*
X253136Y82987D01*
X251866Y83155D01*
Y87615D01*
X290217Y125966D01*
X290915Y125563D01*
X293370Y124905D01*
X295910D01*
X298365Y125563D01*
X300565Y126833D01*
X302362Y128630D01*
X303632Y130830D01*
X304290Y133285D01*
Y135826D01*
X303632Y138280D01*
X302362Y140480D01*
X300565Y142277D01*
X298365Y143547D01*
X295910Y144205D01*
X293370D01*
X290915Y143547D01*
X288715Y142277D01*
X286918Y140480D01*
X285648Y138280D01*
X284990Y135826D01*
Y133285D01*
X285648Y130830D01*
X286051Y130132D01*
X246837Y90918D01*
X246199Y89962D01*
X245974Y88835D01*
Y84097D01*
X245924Y84076D01*
X244704Y83887D01*
X243614Y85776D01*
X241866Y87524D01*
X239724Y88760D01*
X237370Y89391D01*
Y80010D01*
X234830D01*
Y89391D01*
X232476Y88760D01*
X230334Y87524D01*
X228586Y85776D01*
X227736Y84302D01*
X226466Y84643D01*
Y87680D01*
X264776Y125990D01*
X265515Y125563D01*
X267969Y124905D01*
X270511D01*
X272965Y125563D01*
X275165Y126833D01*
X276962Y128630D01*
X278232Y130830D01*
X278890Y133285D01*
Y135826D01*
X278232Y138280D01*
X276962Y140480D01*
X275165Y142277D01*
X272965Y143547D01*
X270511Y144205D01*
X267969D01*
X265515Y143547D01*
X263315Y142277D01*
X261518Y140480D01*
X260248Y138280D01*
X259590Y135826D01*
Y133285D01*
X260248Y130830D01*
X260627Y130173D01*
X221437Y90983D01*
X220799Y90027D01*
X220574Y88900D01*
Y82259D01*
X219304Y82092D01*
X218947Y83426D01*
X217782Y85444D01*
X216134Y87092D01*
X214116Y88257D01*
X211865Y88860D01*
X209535D01*
X207284Y88257D01*
X205266Y87092D01*
X203618Y85444D01*
X202453Y83426D01*
X201850Y81175D01*
Y78845D01*
X202453Y76594D01*
X203618Y74576D01*
X205266Y72928D01*
X207284Y71763D01*
X209535Y71160D01*
X211865D01*
X214116Y71763D01*
X216134Y72928D01*
X217782Y74576D01*
X218947Y76594D01*
X219304Y77928D01*
X220574Y77761D01*
Y73660D01*
X220799Y72533D01*
X221437Y71577D01*
X230152Y62862D01*
X230312Y62498D01*
X230211Y61237D01*
X229018Y60044D01*
X227853Y58026D01*
X227250Y55775D01*
Y53445D01*
X227853Y51194D01*
X228097Y50772D01*
X210750Y33426D01*
X52020D01*
X34696Y50750D01*
Y678230D01*
X47260Y690794D01*
X55448D01*
X55542Y690444D01*
X56666Y688496D01*
X58256Y686906D01*
X60204Y685782D01*
X62376Y685200D01*
X64624D01*
X66796Y685782D01*
X68744Y686906D01*
X70334Y688496D01*
X71458Y690444D01*
X72040Y692616D01*
Y694864D01*
X71458Y697036D01*
X70334Y698984D01*
X68744Y700574D01*
X66796Y701698D01*
X64624Y702280D01*
X62376D01*
X60204Y701698D01*
X58256Y700574D01*
X56666Y698984D01*
X55542Y697036D01*
X55448Y696686D01*
X46040D01*
X46040Y696686D01*
X44913Y696461D01*
X43957Y695823D01*
X29667Y681533D01*
X29029Y680577D01*
X28804Y679450D01*
Y49530D01*
X29029Y48403D01*
X29667Y47447D01*
X48717Y28397D01*
X49673Y27759D01*
X50800Y27534D01*
X211970D01*
X213097Y27759D01*
X214053Y28397D01*
X232262Y46607D01*
X232684Y46363D01*
X234935Y45760D01*
X237265D01*
X239516Y46363D01*
X241534Y47528D01*
X243182Y49176D01*
X244347Y51194D01*
X244950Y53445D01*
Y55775D01*
X244347Y58026D01*
X243182Y60044D01*
X242671Y60554D01*
X243197Y61824D01*
X254403D01*
X254929Y60554D01*
X254418Y60044D01*
X253253Y58026D01*
X252650Y55775D01*
Y53445D01*
X253253Y51194D01*
X253497Y50772D01*
X223450Y20726D01*
X52020D01*
X23266Y49480D01*
Y755700D01*
X33130Y765564D01*
X55448D01*
X55542Y765214D01*
X56666Y763266D01*
X58256Y761676D01*
X60204Y760552D01*
X62376Y759970D01*
X64624D01*
X66796Y760552D01*
X68744Y761676D01*
X70334Y763266D01*
X71458Y765214D01*
X72040Y767386D01*
Y769634D01*
X71458Y771806D01*
X70334Y773754D01*
X68744Y775344D01*
X66796Y776468D01*
X64624Y777050D01*
D02*
G37*
G36*
X432653Y719550D02*
X430947D01*
X429372Y718897D01*
X428167Y717692D01*
X427915Y717085D01*
X426541D01*
X426289Y717692D01*
X425084Y718897D01*
X423509Y719550D01*
X421803D01*
X420228Y718897D01*
X419022Y717692D01*
X418370Y716117D01*
Y714411D01*
X419022Y712836D01*
X420228Y711630D01*
X420835Y711379D01*
Y710005D01*
X420228Y709753D01*
X419022Y708548D01*
X418771Y707941D01*
X417397D01*
X417146Y708548D01*
X415940Y709753D01*
X414365Y710406D01*
X412659D01*
X411084Y709753D01*
X409879Y708548D01*
X409627Y707941D01*
X408253D01*
X408002Y708548D01*
X406796Y709753D01*
X405221Y710406D01*
X403515D01*
X401940Y709753D01*
X400734Y708548D01*
X400082Y706973D01*
Y705267D01*
X400734Y703692D01*
X401940Y702486D01*
X402547Y702235D01*
Y700861D01*
X401940Y700610D01*
X400734Y699404D01*
X400082Y697829D01*
Y696123D01*
X400734Y694548D01*
X401940Y693343D01*
X403515Y692690D01*
X405221D01*
X406796Y693343D01*
X408002Y694548D01*
X408253Y695155D01*
X409627D01*
X409879Y694548D01*
X411084Y693343D01*
X412659Y692690D01*
X414365D01*
X415940Y693343D01*
X417146Y694548D01*
X417397Y695155D01*
X418771D01*
X419022Y694548D01*
X419897Y693674D01*
X419022Y692800D01*
X418370Y691225D01*
Y689519D01*
X419022Y687944D01*
X420228Y686739D01*
X420835Y686487D01*
Y685113D01*
X420228Y684862D01*
X419022Y683656D01*
X418370Y682081D01*
Y680375D01*
X419022Y678800D01*
X420228Y677595D01*
X421803Y676942D01*
X423509D01*
X425084Y677595D01*
X426289Y678800D01*
X426541Y679407D01*
X427915D01*
X428167Y678800D01*
X429372Y677595D01*
X430947Y676942D01*
X432653D01*
X434228Y677595D01*
X435434Y678800D01*
X436086Y680375D01*
Y682081D01*
X435434Y683656D01*
X434228Y684862D01*
X433621Y685113D01*
Y686487D01*
X434228Y686739D01*
X435434Y687944D01*
X436086Y689519D01*
Y691225D01*
X435434Y692800D01*
X434559Y693674D01*
X435434Y694548D01*
X436086Y696123D01*
Y697829D01*
X435434Y699404D01*
X434228Y700610D01*
X433621Y700861D01*
Y702235D01*
X434228Y702486D01*
X435434Y703692D01*
X436086Y705267D01*
Y706973D01*
X435434Y708548D01*
X434228Y709753D01*
X433621Y710005D01*
Y711379D01*
X434228Y711630D01*
X435434Y712836D01*
X436086Y714411D01*
Y716117D01*
X435434Y717692D01*
X434228Y718897D01*
X432653Y719550D01*
D02*
G37*
G36*
X378297Y651986D02*
X376591D01*
X375016Y651333D01*
X373811Y650128D01*
X373559Y649521D01*
X372185D01*
X371934Y650128D01*
X370728Y651333D01*
X369153Y651986D01*
X367447D01*
X365872Y651333D01*
X364666Y650128D01*
X364014Y648553D01*
Y646847D01*
X364666Y645272D01*
X365541Y644398D01*
X364666Y643524D01*
X364014Y641949D01*
Y640243D01*
X364666Y638668D01*
X365541Y637794D01*
X364666Y636920D01*
X364014Y635345D01*
Y633639D01*
X364666Y632064D01*
X365872Y630858D01*
X367447Y630206D01*
X369153D01*
X370728Y630858D01*
X371934Y632064D01*
X372185Y632671D01*
X373559D01*
X373811Y632064D01*
X375016Y630858D01*
X376591Y630206D01*
X378297D01*
X379872Y630858D01*
X381077Y632064D01*
X381730Y633639D01*
Y635345D01*
X381077Y636920D01*
X380203Y637794D01*
X381077Y638668D01*
X381730Y640243D01*
Y641949D01*
X381077Y643524D01*
X380203Y644398D01*
X381077Y645272D01*
X381730Y646847D01*
Y648553D01*
X381077Y650128D01*
X379872Y651333D01*
X378297Y651986D01*
D02*
G37*
G36*
X587864Y649495D02*
X585616D01*
X583444Y648913D01*
X581496Y647788D01*
X579906Y646199D01*
X578782Y644251D01*
X578200Y642079D01*
Y639831D01*
X578782Y637659D01*
X579906Y635711D01*
X581496Y634121D01*
X583444Y632997D01*
X585616Y632415D01*
X587864D01*
X590036Y632997D01*
X591984Y634121D01*
X593574Y635711D01*
X594698Y637659D01*
X595280Y639831D01*
Y642079D01*
X594698Y644251D01*
X593574Y646199D01*
X591984Y647788D01*
X590036Y648913D01*
X587864Y649495D01*
D02*
G37*
G36*
X72040D02*
X54960D01*
Y632415D01*
X72040D01*
Y649495D01*
D02*
G37*
G36*
X484215Y629634D02*
X482509D01*
X480934Y628982D01*
X479729Y627776D01*
X479076Y626201D01*
Y624495D01*
X479729Y622920D01*
X480934Y621715D01*
X482509Y621062D01*
X484215D01*
X485790Y621715D01*
X486996Y622920D01*
X487648Y624495D01*
Y626201D01*
X486996Y627776D01*
X485790Y628982D01*
X484215Y629634D01*
D02*
G37*
G36*
X408523Y651986D02*
X406817D01*
X405242Y651333D01*
X404036Y650128D01*
X403384Y648553D01*
Y647580D01*
X378580Y622776D01*
X377607D01*
X376032Y622123D01*
X374827Y620918D01*
X374174Y619343D01*
Y617637D01*
X374827Y616062D01*
X376032Y614856D01*
X377607Y614204D01*
X379313D01*
X380888Y614856D01*
X382094Y616062D01*
X382746Y617637D01*
Y618610D01*
X407550Y643414D01*
X408523D01*
X410098Y644066D01*
X411303Y645272D01*
X411956Y646847D01*
Y648553D01*
X411303Y650128D01*
X410098Y651333D01*
X408523Y651986D01*
D02*
G37*
G36*
X587864Y629495D02*
X585616D01*
X583444Y628913D01*
X581496Y627789D01*
X579906Y626199D01*
X578782Y624251D01*
X578200Y622079D01*
Y619831D01*
X578782Y617659D01*
X579906Y615711D01*
X581496Y614121D01*
X583444Y612997D01*
X585616Y612415D01*
X587864D01*
X590036Y612997D01*
X591984Y614121D01*
X593574Y615711D01*
X594698Y617659D01*
X595280Y619831D01*
Y622079D01*
X594698Y624251D01*
X593574Y626199D01*
X591984Y627789D01*
X590036Y628913D01*
X587864Y629495D01*
D02*
G37*
G36*
X64624D02*
X62376D01*
X60204Y628913D01*
X58256Y627789D01*
X56666Y626199D01*
X55542Y624251D01*
X54960Y622079D01*
Y619831D01*
X55542Y617659D01*
X56666Y615711D01*
X58256Y614121D01*
X60204Y612997D01*
X62376Y612415D01*
X64624D01*
X66796Y612997D01*
X68744Y614121D01*
X70334Y615711D01*
X71458Y617659D01*
X72040Y619831D01*
Y622079D01*
X71458Y624251D01*
X70334Y626199D01*
X68744Y627789D01*
X66796Y628913D01*
X64624Y629495D01*
D02*
G37*
G36*
X72040Y722280D02*
X54960D01*
Y705200D01*
X72040D01*
Y707816D01*
X78826D01*
X79628Y707014D01*
X102026Y684616D01*
Y603143D01*
X102477Y600876D01*
X103761Y598954D01*
X105683Y597670D01*
X107950Y597219D01*
X110217Y597670D01*
X112139Y598954D01*
X113423Y600876D01*
X113874Y603143D01*
Y687070D01*
X113423Y689337D01*
X112139Y691259D01*
X88006Y715392D01*
X85469Y717929D01*
X83547Y719213D01*
X81280Y719664D01*
X72040D01*
Y722280D01*
D02*
G37*
G36*
X587864Y732440D02*
X585616D01*
X583444Y731858D01*
X581496Y730734D01*
X579906Y729144D01*
X578782Y727196D01*
X578200Y725024D01*
Y722776D01*
X578782Y720604D01*
X579906Y718656D01*
X581496Y717066D01*
X583444Y715942D01*
X585616Y715360D01*
X587864D01*
X590036Y715942D01*
X591984Y717066D01*
X593574Y718656D01*
X594381Y720054D01*
X595772Y720262D01*
X596494Y719546D01*
Y712574D01*
X595280Y712440D01*
X595224Y712440D01*
X578200D01*
Y706846D01*
X550738D01*
X549611Y706621D01*
X548655Y705983D01*
X534111Y691439D01*
X533473Y690483D01*
X533248Y689356D01*
Y610820D01*
X522274Y599846D01*
X445076D01*
X444388Y600533D01*
X442813Y601186D01*
X441107D01*
X439532Y600533D01*
X438326Y599328D01*
X437674Y597753D01*
Y596047D01*
X438326Y594472D01*
X439532Y593266D01*
X441107Y592614D01*
X442813D01*
X444388Y593266D01*
X445076Y593954D01*
X523494D01*
X524621Y594179D01*
X525577Y594817D01*
X538277Y607517D01*
X538915Y608473D01*
X539140Y609600D01*
Y688136D01*
X551958Y700954D01*
X578200D01*
Y695360D01*
X595224D01*
X595280Y695360D01*
X596494Y695226D01*
Y689560D01*
X595680Y688746D01*
X571500D01*
X570373Y688521D01*
X569417Y687883D01*
X550367Y668833D01*
X549729Y667877D01*
X549504Y666750D01*
Y600016D01*
X548816Y599328D01*
X548164Y597753D01*
Y596047D01*
X548816Y594472D01*
X549057Y594232D01*
X548531Y592962D01*
X538275D01*
Y593943D01*
X537622Y595518D01*
X536417Y596724D01*
X534841Y597376D01*
X533136D01*
X531561Y596724D01*
X530355Y595518D01*
X529703Y593943D01*
Y592237D01*
X530355Y590662D01*
X531561Y589456D01*
X533136Y588804D01*
X533520D01*
X534391Y587934D01*
X535346Y587295D01*
X536474Y587071D01*
X559536D01*
X560664Y587295D01*
X561619Y587934D01*
X571695Y598009D01*
X578688D01*
X578782Y597659D01*
X579906Y595711D01*
X581496Y594121D01*
X583444Y592997D01*
X585616Y592415D01*
X587864D01*
X590036Y592997D01*
X591984Y594121D01*
X593574Y595711D01*
X594698Y597659D01*
X595280Y599831D01*
Y602079D01*
X594698Y604251D01*
X593574Y606199D01*
X591984Y607789D01*
X590036Y608913D01*
X587864Y609495D01*
X585616D01*
X583444Y608913D01*
X581496Y607789D01*
X579906Y606199D01*
X578782Y604251D01*
X578688Y603900D01*
X570475D01*
X569348Y603676D01*
X568392Y603038D01*
X568392Y603038D01*
X558316Y592962D01*
X556369D01*
X555843Y594232D01*
X556083Y594472D01*
X556736Y596047D01*
Y597753D01*
X556083Y599328D01*
X555396Y600016D01*
Y665530D01*
X572720Y682854D01*
X596900D01*
X598027Y683079D01*
X598983Y683717D01*
X601523Y686257D01*
X602161Y687213D01*
X602386Y688340D01*
Y721360D01*
X602161Y722487D01*
X601523Y723443D01*
X598983Y725983D01*
X598027Y726621D01*
X596900Y726846D01*
X594792D01*
X594698Y727196D01*
X593574Y729144D01*
X591984Y730734D01*
X590036Y731858D01*
X587864Y732440D01*
D02*
G37*
G36*
X64624Y609495D02*
X62376D01*
X60204Y608913D01*
X58256Y607789D01*
X56666Y606199D01*
X55542Y604251D01*
X54960Y602079D01*
Y599831D01*
X55542Y597659D01*
X56666Y595711D01*
X58256Y594121D01*
X60204Y592997D01*
X62376Y592415D01*
X64624D01*
X66796Y592997D01*
X67111Y593178D01*
X70552Y589737D01*
X71508Y589099D01*
X72635Y588874D01*
X72635Y588874D01*
X314534D01*
Y588377D01*
X315187Y586802D01*
X316393Y585596D01*
X317968Y584944D01*
X319673D01*
X321248Y585596D01*
X322454Y586802D01*
X323106Y588377D01*
Y590082D01*
X322454Y591657D01*
X321248Y592863D01*
X319673Y593516D01*
X318700D01*
X318313Y593903D01*
X317357Y594541D01*
X316230Y594766D01*
X73855D01*
X71276Y597344D01*
X71458Y597659D01*
X72040Y599831D01*
Y602079D01*
X71458Y604251D01*
X70334Y606199D01*
X68744Y607789D01*
X66796Y608913D01*
X64624Y609495D01*
D02*
G37*
G36*
X587864Y589495D02*
X585616D01*
X583444Y588913D01*
X581496Y587789D01*
X579906Y586199D01*
X578782Y584251D01*
X578200Y582079D01*
Y579831D01*
X578782Y577659D01*
X579906Y575711D01*
X581496Y574121D01*
X583444Y572997D01*
X585616Y572415D01*
X587864D01*
X590036Y572997D01*
X591984Y574121D01*
X593574Y575711D01*
X594698Y577659D01*
X595280Y579831D01*
Y582079D01*
X594698Y584251D01*
X593574Y586199D01*
X591984Y587789D01*
X590036Y588913D01*
X587864Y589495D01*
D02*
G37*
G36*
X389473Y577056D02*
X387767D01*
X386192Y576404D01*
X384986Y575198D01*
X384334Y573623D01*
Y571917D01*
X384986Y570342D01*
X386192Y569137D01*
X387767Y568484D01*
X389473D01*
X391048Y569137D01*
X392253Y570342D01*
X392906Y571917D01*
Y573623D01*
X392253Y575198D01*
X391048Y576404D01*
X389473Y577056D01*
D02*
G37*
G36*
X502503Y569436D02*
X500797D01*
X499222Y568783D01*
X498017Y567578D01*
X497364Y566003D01*
Y564297D01*
X498017Y562722D01*
X499222Y561516D01*
X500797Y560864D01*
X502503D01*
X504078Y561516D01*
X505284Y562722D01*
X505936Y564297D01*
Y566003D01*
X505284Y567578D01*
X504078Y568783D01*
X502503Y569436D01*
D02*
G37*
G36*
X595280Y569495D02*
X578200D01*
Y552415D01*
X595280D01*
Y569495D01*
D02*
G37*
G36*
X64624D02*
X62376D01*
X60204Y568913D01*
X58256Y567789D01*
X56666Y566199D01*
X55542Y564251D01*
X54960Y562079D01*
Y559831D01*
X55542Y557659D01*
X56666Y555711D01*
X58256Y554121D01*
X60204Y552997D01*
X62376Y552415D01*
X64624D01*
X66796Y552997D01*
X68744Y554121D01*
X70334Y555711D01*
X71458Y557659D01*
X72040Y559831D01*
Y562079D01*
X71458Y564251D01*
X70334Y566199D01*
X68744Y567789D01*
X66796Y568913D01*
X64624Y569495D01*
D02*
G37*
G36*
X323433Y549116D02*
X321727D01*
X320152Y548464D01*
X319464Y547776D01*
X92710D01*
X91583Y547551D01*
X90627Y546913D01*
X83007Y539293D01*
X82369Y538337D01*
X82144Y537210D01*
Y463500D01*
X80412Y461767D01*
X71552D01*
X71458Y462118D01*
X70334Y464065D01*
X68744Y465655D01*
X66796Y466780D01*
X64624Y467362D01*
X62376D01*
X60204Y466780D01*
X58256Y465655D01*
X56666Y464065D01*
X55542Y462118D01*
X54960Y459946D01*
Y457697D01*
X55542Y455525D01*
X56666Y453578D01*
X58256Y451988D01*
X60204Y450864D01*
X62376Y450282D01*
X64624D01*
X66796Y450864D01*
X68744Y451988D01*
X70334Y453578D01*
X71458Y455525D01*
X71552Y455876D01*
X81632D01*
X82759Y456100D01*
X83715Y456739D01*
X87173Y460197D01*
X87224Y460274D01*
X88494Y459889D01*
Y384506D01*
X87807Y383818D01*
X87154Y382243D01*
Y380538D01*
X87807Y378963D01*
X89012Y377757D01*
X90587Y377105D01*
X92293D01*
X93868Y377757D01*
X95073Y378963D01*
X95726Y380538D01*
Y382243D01*
X95073Y383818D01*
X94386Y384506D01*
Y528370D01*
X101550Y535534D01*
X322004D01*
X322692Y534846D01*
X324267Y534194D01*
X325973D01*
X327548Y534846D01*
X328754Y536052D01*
X329406Y537627D01*
Y539333D01*
X328754Y540908D01*
X327548Y542113D01*
X326307Y542627D01*
X326866Y543977D01*
Y545683D01*
X326213Y547258D01*
X325008Y548464D01*
X323433Y549116D01*
D02*
G37*
G36*
X496153Y531336D02*
X494447D01*
X492872Y530684D01*
X491666Y529478D01*
X491014Y527903D01*
Y526197D01*
X491666Y524622D01*
X492872Y523416D01*
X494447Y522764D01*
X496153D01*
X497728Y523416D01*
X498933Y524622D01*
X499586Y526197D01*
Y527903D01*
X498933Y529478D01*
X497728Y530684D01*
X496153Y531336D01*
D02*
G37*
G36*
X350103Y579596D02*
X348397D01*
X346822Y578943D01*
X345616Y577738D01*
X344964Y576163D01*
Y574457D01*
X345616Y572882D01*
X346822Y571676D01*
X348397Y571024D01*
X349370D01*
X405587Y514807D01*
X406543Y514169D01*
X407670Y513944D01*
X452814D01*
X453502Y513256D01*
X455077Y512604D01*
X456783D01*
X458358Y513256D01*
X459563Y514462D01*
X460216Y516037D01*
Y517743D01*
X459563Y519318D01*
X458358Y520523D01*
X456783Y521176D01*
X455077D01*
X453502Y520523D01*
X452814Y519836D01*
X408890D01*
X353536Y575190D01*
Y576163D01*
X352883Y577738D01*
X351678Y578943D01*
X350103Y579596D01*
D02*
G37*
G36*
X72040Y507362D02*
X54960D01*
Y490282D01*
X72040D01*
Y507362D01*
D02*
G37*
G36*
X587864Y507361D02*
X585616D01*
X583444Y506780D01*
X581496Y505655D01*
X579906Y504065D01*
X578782Y502118D01*
X578200Y499946D01*
Y497697D01*
X578782Y495525D01*
X579906Y493578D01*
X581496Y491988D01*
X583444Y490863D01*
X585616Y490281D01*
X587864D01*
X590036Y490863D01*
X591984Y491988D01*
X593574Y493578D01*
X594698Y495525D01*
X595280Y497697D01*
Y499946D01*
X594698Y502118D01*
X593574Y504065D01*
X591984Y505655D01*
X590036Y506780D01*
X587864Y507361D01*
D02*
G37*
G36*
X507583Y484346D02*
X505877D01*
X504302Y483694D01*
X503097Y482488D01*
X502444Y480913D01*
Y479207D01*
X503097Y477632D01*
X504302Y476427D01*
X505877Y475774D01*
X507583D01*
X509158Y476427D01*
X510364Y477632D01*
X511016Y479207D01*
Y480913D01*
X510364Y482488D01*
X509158Y483694D01*
X507583Y484346D01*
D02*
G37*
G36*
X355640Y499516D02*
X255270D01*
X254143Y499291D01*
X253187Y498653D01*
X128320Y373786D01*
X85040D01*
X80416Y378410D01*
Y436327D01*
X80191Y437454D01*
X79553Y438410D01*
X77058Y440905D01*
X76102Y441543D01*
X74975Y441767D01*
X71552D01*
X71458Y442118D01*
X70334Y444065D01*
X68744Y445655D01*
X66796Y446780D01*
X64624Y447362D01*
X62376D01*
X60204Y446780D01*
X58256Y445655D01*
X56666Y444065D01*
X55542Y442118D01*
X54960Y439946D01*
Y437697D01*
X55542Y435525D01*
X56666Y433578D01*
X58256Y431988D01*
X60204Y430864D01*
X62376Y430282D01*
X64624D01*
X66796Y430864D01*
X68744Y431988D01*
X70334Y433578D01*
X71458Y435525D01*
X71552Y435876D01*
X73755D01*
X74524Y435107D01*
Y377190D01*
X74749Y376063D01*
X75387Y375107D01*
X81737Y368757D01*
X81737Y368757D01*
X82693Y368119D01*
X83820Y367894D01*
X129540D01*
X130667Y368119D01*
X131623Y368757D01*
X220670Y457804D01*
X221807Y457219D01*
X221844Y457183D01*
Y356642D01*
X222069Y355514D01*
X222707Y354559D01*
X255727Y321539D01*
X255727Y321539D01*
X256769Y320497D01*
X257724Y319859D01*
X258852Y319634D01*
X269240D01*
X270367Y319859D01*
X271323Y320497D01*
X272692Y321866D01*
X273294D01*
X274870Y322519D01*
X276075Y323724D01*
X276728Y325300D01*
Y327005D01*
X276075Y328580D01*
X274870Y329786D01*
X273294Y330438D01*
X271589D01*
X270669Y330057D01*
X269853Y329951D01*
X269136Y330692D01*
X268811Y331476D01*
X267606Y332682D01*
X266031Y333334D01*
X265058D01*
X234086Y364306D01*
Y455980D01*
X249873Y471767D01*
X298553D01*
X299401Y470497D01*
X299244Y470118D01*
Y468412D01*
X299897Y466837D01*
X300584Y466149D01*
Y463308D01*
X299962Y462686D01*
X296998D01*
X296292Y463742D01*
X296386Y463967D01*
Y465673D01*
X295734Y467248D01*
X294528Y468453D01*
X292953Y469106D01*
X291247D01*
X289672Y468453D01*
X288984Y467766D01*
X281940D01*
X280813Y467541D01*
X279857Y466903D01*
X279857Y466903D01*
X273507Y460553D01*
X272869Y459597D01*
X272644Y458470D01*
Y412735D01*
X271588Y412030D01*
X271481Y412074D01*
X269776D01*
X268200Y411422D01*
X266995Y410216D01*
X266342Y408641D01*
Y406936D01*
X266995Y405360D01*
X268200Y404155D01*
X269419Y403650D01*
X269893Y402329D01*
X250358Y382794D01*
X245434D01*
X244746Y383482D01*
X243171Y384134D01*
X241465D01*
X239890Y383482D01*
X238684Y382276D01*
X238032Y380701D01*
Y378996D01*
X238684Y377421D01*
X239890Y376215D01*
X241465Y375562D01*
X243171D01*
X244746Y376215D01*
X245434Y376903D01*
X251578D01*
X252705Y377127D01*
X253661Y377766D01*
X277673Y401777D01*
X277673Y401777D01*
X278311Y402733D01*
X278536Y403860D01*
Y430830D01*
X279592Y431536D01*
X279817Y431442D01*
X281523D01*
X283098Y432095D01*
X284303Y433301D01*
X284956Y434876D01*
Y435072D01*
X286226Y435541D01*
X287100Y434667D01*
X288675Y434014D01*
X289648D01*
X292797Y430865D01*
X292797Y430865D01*
X293753Y430227D01*
X294880Y430002D01*
X382148D01*
X383275Y430227D01*
X384231Y430865D01*
X406280Y452914D01*
X407253D01*
X408828Y453567D01*
X410033Y454772D01*
X410686Y456347D01*
Y458053D01*
X410033Y459628D01*
X408828Y460834D01*
X407253Y461486D01*
X405547D01*
X403972Y460834D01*
X402766Y459628D01*
X402114Y458053D01*
Y457080D01*
X380928Y435894D01*
X326893D01*
X326385Y437164D01*
X327231Y438010D01*
X327884Y439585D01*
Y441291D01*
X327231Y442866D01*
X326026Y444071D01*
X324450Y444724D01*
X322745D01*
X321170Y444071D01*
X319964Y442866D01*
X319312Y441291D01*
Y439585D01*
X319964Y438010D01*
X320811Y437164D01*
X320303Y435894D01*
X296100D01*
X293814Y438180D01*
Y439153D01*
X293162Y440728D01*
X291956Y441934D01*
X290381Y442586D01*
X288675D01*
X287100Y441934D01*
X285895Y440728D01*
X285551Y439899D01*
X284069Y439390D01*
X283616Y439710D01*
Y453440D01*
X286970Y456794D01*
X301182D01*
X302309Y457019D01*
X303265Y457657D01*
X305613Y460005D01*
X305613Y460005D01*
X306251Y460961D01*
X306476Y462088D01*
X306476Y462088D01*
Y466149D01*
X307164Y466837D01*
X307816Y468412D01*
Y470118D01*
X307659Y470497D01*
X308507Y471767D01*
X310842D01*
X311530Y471079D01*
X313105Y470427D01*
X314810D01*
X316385Y471079D01*
X317591Y472285D01*
X318243Y473860D01*
Y475565D01*
X317591Y477141D01*
X317540Y477191D01*
X317775Y477836D01*
X318163Y478364D01*
X319673D01*
X321248Y479017D01*
X322454Y480223D01*
X323106Y481798D01*
Y483503D01*
X322555Y484834D01*
X323088Y486104D01*
X349200D01*
X364947Y470357D01*
X364947Y470357D01*
X365903Y469719D01*
X367030Y469494D01*
X367030Y469494D01*
X417172D01*
Y395664D01*
X416484Y394976D01*
X415832Y393401D01*
Y391696D01*
X415975Y391352D01*
X415269Y390296D01*
X384597D01*
X380124Y394768D01*
Y395741D01*
X379472Y397316D01*
X378266Y398522D01*
X376691Y399174D01*
X374986D01*
X373410Y398522D01*
X372205Y397316D01*
X371552Y395741D01*
Y394036D01*
X372205Y392461D01*
X373410Y391255D01*
X374986Y390602D01*
X375959D01*
X381294Y385267D01*
X382249Y384629D01*
X383377Y384404D01*
X464244D01*
X464932Y383717D01*
X466507Y383064D01*
X468213D01*
X469788Y383717D01*
X470993Y384922D01*
X471646Y386497D01*
Y388203D01*
X470993Y389778D01*
X469788Y390984D01*
X468213Y391636D01*
X466507D01*
X464932Y390984D01*
X464244Y390296D01*
X424967D01*
X424261Y391352D01*
X424404Y391696D01*
Y393401D01*
X423751Y394976D01*
X423064Y395664D01*
Y451807D01*
X424333Y452500D01*
X425392Y452062D01*
X427097D01*
X428672Y452714D01*
X429360Y453402D01*
X450750D01*
X451438Y452714D01*
X453013Y452062D01*
X454719D01*
X456294Y452714D01*
X457500Y453920D01*
X458152Y455495D01*
Y457200D01*
X457500Y458775D01*
X456294Y459981D01*
X454719Y460633D01*
X453013D01*
X451438Y459981D01*
X450750Y459293D01*
X429360D01*
X428672Y459981D01*
X427097Y460633D01*
X425392D01*
X424333Y460195D01*
X423064Y460888D01*
Y471422D01*
X422839Y472549D01*
X422201Y473505D01*
X421183Y474523D01*
X421106Y474574D01*
X421491Y475844D01*
X437980D01*
X438668Y475157D01*
X440243Y474504D01*
X441948D01*
X443523Y475157D01*
X444729Y476362D01*
X445382Y477937D01*
Y479643D01*
X444729Y481218D01*
X443523Y482424D01*
X441948Y483076D01*
X440243D01*
X438668Y482424D01*
X437980Y481736D01*
X374641D01*
X357723Y498653D01*
X356768Y499291D01*
X355640Y499516D01*
D02*
G37*
G36*
X64624Y487362D02*
X62376D01*
X60204Y486780D01*
X58256Y485655D01*
X56666Y484065D01*
X55542Y482118D01*
X54960Y479946D01*
Y477697D01*
X55542Y475525D01*
X56666Y473578D01*
X58256Y471988D01*
X60204Y470864D01*
X62376Y470282D01*
X64624D01*
X66796Y470864D01*
X68744Y471988D01*
X70334Y473578D01*
X71458Y475525D01*
X72040Y477697D01*
Y479946D01*
X71458Y482118D01*
X70334Y484065D01*
X68744Y485655D01*
X66796Y486780D01*
X64624Y487362D01*
D02*
G37*
G36*
X587864Y487361D02*
X585616D01*
X583444Y486780D01*
X581496Y485655D01*
X579906Y484065D01*
X578782Y482118D01*
X578200Y479946D01*
Y477697D01*
X578782Y475525D01*
X579906Y473578D01*
X581496Y471988D01*
X583444Y470863D01*
X585616Y470282D01*
X587864D01*
X590036Y470863D01*
X591984Y471988D01*
X593574Y473578D01*
X594698Y475525D01*
X595280Y477697D01*
Y479946D01*
X594698Y482118D01*
X593574Y484065D01*
X591984Y485655D01*
X590036Y486780D01*
X587864Y487361D01*
D02*
G37*
G36*
Y467361D02*
X585616D01*
X583444Y466780D01*
X581496Y465655D01*
X579906Y464065D01*
X578782Y462118D01*
X578200Y459946D01*
Y457697D01*
X578782Y455525D01*
X579906Y453578D01*
X581496Y451988D01*
X583444Y450863D01*
X585616Y450281D01*
X587864D01*
X590036Y450863D01*
X591984Y451988D01*
X593574Y453578D01*
X594698Y455525D01*
X595280Y457697D01*
Y459946D01*
X594698Y462118D01*
X593574Y464065D01*
X591984Y465655D01*
X590036Y466780D01*
X587864Y467361D01*
D02*
G37*
G36*
Y447361D02*
X585616D01*
X583444Y446780D01*
X581496Y445655D01*
X579906Y444065D01*
X578782Y442118D01*
X578200Y439946D01*
Y437697D01*
X578782Y435525D01*
X579906Y433578D01*
X581496Y431988D01*
X583444Y430863D01*
X585616Y430281D01*
X587864D01*
X590036Y430863D01*
X591984Y431988D01*
X593574Y433578D01*
X594698Y435525D01*
X595280Y437697D01*
Y439946D01*
X594698Y442118D01*
X593574Y444065D01*
X591984Y445655D01*
X590036Y446780D01*
X587864Y447361D01*
D02*
G37*
G36*
X477360Y447149D02*
X457360D01*
X456580Y446994D01*
X455918Y446552D01*
X455476Y445890D01*
X455321Y445110D01*
Y426110D01*
X455476Y425330D01*
X455918Y424668D01*
X456580Y424226D01*
X457360Y424071D01*
X477360D01*
X478140Y424226D01*
X478802Y424668D01*
X479244Y425330D01*
X479399Y426110D01*
Y445110D01*
X479244Y445890D01*
X478802Y446552D01*
X478140Y446994D01*
X477360Y447149D01*
D02*
G37*
G36*
X64624Y427362D02*
X62376D01*
X60204Y426780D01*
X58256Y425655D01*
X56666Y424065D01*
X55542Y422118D01*
X54960Y419946D01*
Y417697D01*
X55542Y415525D01*
X56666Y413578D01*
X58256Y411988D01*
X60204Y410864D01*
X62376Y410282D01*
X64624D01*
X66796Y410864D01*
X68744Y411988D01*
X70334Y413578D01*
X71458Y415525D01*
X72040Y417697D01*
Y419946D01*
X71458Y422118D01*
X70334Y424065D01*
X68744Y425655D01*
X66796Y426780D01*
X64624Y427362D01*
D02*
G37*
G36*
X595280Y427361D02*
X578200D01*
Y410282D01*
X595280D01*
Y427361D01*
D02*
G37*
G36*
X507583Y401796D02*
X505877D01*
X504302Y401143D01*
X503097Y399938D01*
X502444Y398363D01*
Y396657D01*
X503097Y395082D01*
X504302Y393876D01*
X505877Y393224D01*
X507583D01*
X509158Y393876D01*
X510364Y395082D01*
X511016Y396657D01*
Y398363D01*
X510364Y399938D01*
X509158Y401143D01*
X507583Y401796D01*
D02*
G37*
G36*
X395200Y376514D02*
X393495D01*
X391920Y375862D01*
X390714Y374656D01*
X390062Y373081D01*
Y371376D01*
X390714Y369800D01*
X391920Y368595D01*
X393495Y367942D01*
X395200D01*
X396775Y368595D01*
X397981Y369800D01*
X398633Y371376D01*
Y373081D01*
X397981Y374656D01*
X396775Y375862D01*
X395200Y376514D01*
D02*
G37*
G36*
Y363814D02*
X393495D01*
X391920Y363162D01*
X390714Y361956D01*
X390062Y360381D01*
Y358676D01*
X390714Y357100D01*
X391920Y355895D01*
X393495Y355242D01*
X395200D01*
X396775Y355895D01*
X397981Y357100D01*
X398633Y358676D01*
Y360381D01*
X397981Y361956D01*
X396775Y363162D01*
X395200Y363814D01*
D02*
G37*
G36*
X587864Y365228D02*
X585616D01*
X583444Y364646D01*
X581496Y363522D01*
X579906Y361932D01*
X578782Y359985D01*
X578200Y357812D01*
Y355564D01*
X578782Y353392D01*
X579906Y351445D01*
X581496Y349855D01*
X583444Y348730D01*
X585616Y348148D01*
X587864D01*
X590036Y348730D01*
X591984Y349855D01*
X593574Y351445D01*
X594698Y353392D01*
X595280Y355564D01*
Y357812D01*
X594698Y359985D01*
X593574Y361932D01*
X591984Y363522D01*
X590036Y364646D01*
X587864Y365228D01*
D02*
G37*
G36*
X72040D02*
X54960D01*
Y348148D01*
X72040D01*
Y365228D01*
D02*
G37*
G36*
X477360Y364599D02*
X457360D01*
X456580Y364444D01*
X455918Y364002D01*
X455476Y363340D01*
X455321Y362560D01*
Y343560D01*
X455476Y342780D01*
X455918Y342118D01*
X456580Y341676D01*
X457360Y341521D01*
X477360D01*
X478140Y341676D01*
X478802Y342118D01*
X479244Y342780D01*
X479399Y343560D01*
Y362560D01*
X479244Y363340D01*
X478802Y364002D01*
X478140Y364444D01*
X477360Y364599D01*
D02*
G37*
G36*
X375251Y341325D02*
X373545D01*
X371970Y340672D01*
X370764Y339467D01*
X370112Y337891D01*
Y336186D01*
X370764Y334611D01*
X371970Y333405D01*
X373545Y332753D01*
X375251D01*
X376826Y333405D01*
X378031Y334611D01*
X378684Y336186D01*
Y337891D01*
X378031Y339467D01*
X376826Y340672D01*
X375251Y341325D01*
D02*
G37*
G36*
X288890D02*
X287185D01*
X285610Y340672D01*
X284404Y339467D01*
X283752Y337891D01*
Y336186D01*
X284404Y334611D01*
X285610Y333405D01*
X287185Y332753D01*
X288890D01*
X290466Y333405D01*
X291671Y334611D01*
X292324Y336186D01*
Y337891D01*
X291671Y339467D01*
X290466Y340672D01*
X288890Y341325D01*
D02*
G37*
G36*
X587864Y345228D02*
X585616D01*
X583444Y344646D01*
X581496Y343522D01*
X579906Y341932D01*
X578782Y339985D01*
X578200Y337812D01*
Y335564D01*
X578782Y333392D01*
X579906Y331445D01*
X581496Y329855D01*
X583444Y328730D01*
X585616Y328148D01*
X587864D01*
X590036Y328730D01*
X591984Y329855D01*
X593574Y331445D01*
X594698Y333392D01*
X595280Y335564D01*
Y337812D01*
X594698Y339985D01*
X593574Y341932D01*
X591984Y343522D01*
X590036Y344646D01*
X587864Y345228D01*
D02*
G37*
G36*
X64624D02*
X62376D01*
X60204Y344646D01*
X58256Y343522D01*
X56666Y341932D01*
X55542Y339985D01*
X54960Y337812D01*
Y335564D01*
X55542Y333392D01*
X55724Y333078D01*
X44907Y322261D01*
X44269Y321306D01*
X44044Y320178D01*
Y53340D01*
X44269Y52213D01*
X44907Y51257D01*
X60147Y36017D01*
X61103Y35379D01*
X62230Y35154D01*
X194190D01*
X195317Y35379D01*
X196273Y36017D01*
X206862Y46607D01*
X207284Y46363D01*
X209535Y45760D01*
X211865D01*
X214116Y46363D01*
X216134Y47528D01*
X217782Y49176D01*
X218947Y51194D01*
X219550Y53445D01*
Y55775D01*
X218947Y58026D01*
X217782Y60044D01*
X216134Y61692D01*
X214116Y62857D01*
X211865Y63460D01*
X209535D01*
X207284Y62857D01*
X205266Y61692D01*
X203618Y60044D01*
X202453Y58026D01*
X201850Y55775D01*
Y53445D01*
X202453Y51194D01*
X202697Y50772D01*
X192970Y41046D01*
X63450D01*
X49936Y54560D01*
Y318958D01*
X59889Y328912D01*
X60204Y328730D01*
X62376Y328148D01*
X64624D01*
X66796Y328730D01*
X68744Y329855D01*
X70334Y331445D01*
X71458Y333392D01*
X72040Y335564D01*
Y337812D01*
X71458Y339985D01*
X70334Y341932D01*
X68744Y343522D01*
X66796Y344646D01*
X64624Y345228D01*
D02*
G37*
G36*
X360010Y326085D02*
X358305D01*
X356730Y325432D01*
X355524Y324226D01*
X354872Y322651D01*
Y320946D01*
X355524Y319371D01*
X356730Y318165D01*
X358305Y317513D01*
X360010D01*
X361586Y318165D01*
X362791Y319371D01*
X363444Y320946D01*
Y322651D01*
X362791Y324226D01*
X361586Y325432D01*
X360010Y326085D01*
D02*
G37*
G36*
X233699Y326020D02*
X233680D01*
Y317500D01*
X242200D01*
Y317519D01*
X241533Y320009D01*
X240244Y322241D01*
X238421Y324064D01*
X236189Y325353D01*
X233699Y326020D01*
D02*
G37*
G36*
X231140D02*
X231121D01*
X228631Y325353D01*
X226399Y324064D01*
X224576Y322241D01*
X223287Y320009D01*
X222620Y317519D01*
Y317500D01*
X231140D01*
Y326020D01*
D02*
G37*
G36*
X112613Y317214D02*
X110907D01*
X109332Y316562D01*
X108126Y315356D01*
X107875Y314749D01*
X106501D01*
X106250Y315356D01*
X105044Y316562D01*
X103469Y317214D01*
X101763D01*
X100188Y316562D01*
X98982Y315356D01*
X98731Y314749D01*
X97357D01*
X97106Y315356D01*
X95900Y316562D01*
X94325Y317214D01*
X92619D01*
X91044Y316562D01*
X89838Y315356D01*
X89186Y313781D01*
Y312075D01*
X89838Y310500D01*
X91044Y309294D01*
X91651Y309043D01*
Y307669D01*
X91044Y307418D01*
X89838Y306212D01*
X89587Y305605D01*
X88213D01*
X87962Y306212D01*
X86756Y307418D01*
X85181Y308070D01*
X83475D01*
X81900Y307418D01*
X80695Y306212D01*
X80042Y304637D01*
Y302931D01*
X80695Y301356D01*
X81900Y300151D01*
X82507Y299899D01*
Y298525D01*
X81900Y298274D01*
X80695Y297068D01*
X80042Y295493D01*
Y293787D01*
X80695Y292212D01*
X81900Y291007D01*
X82507Y290755D01*
Y289381D01*
X81900Y289130D01*
X80695Y287924D01*
X80042Y286349D01*
Y284643D01*
X80695Y283068D01*
X81900Y281863D01*
X83475Y281210D01*
X85181D01*
X86756Y281863D01*
X87962Y283068D01*
X88213Y283675D01*
X89587D01*
X89838Y283068D01*
X91044Y281863D01*
X92619Y281210D01*
X94325D01*
X95900Y281863D01*
X97106Y283068D01*
X97357Y283675D01*
X98731D01*
X98982Y283068D01*
X100188Y281863D01*
X101763Y281210D01*
X103469D01*
X105044Y281863D01*
X106250Y283068D01*
X106501Y283675D01*
X107875D01*
X108126Y283068D01*
X109332Y281863D01*
X110907Y281210D01*
X112613D01*
X114188Y281863D01*
X115393Y283068D01*
X116046Y284643D01*
Y286349D01*
X115393Y287924D01*
X114188Y289130D01*
X113581Y289381D01*
Y290755D01*
X114188Y291007D01*
X115393Y292212D01*
X116046Y293787D01*
Y295493D01*
X115393Y297068D01*
X114188Y298274D01*
X113581Y298525D01*
Y299899D01*
X114188Y300151D01*
X115393Y301356D01*
X116046Y302931D01*
Y304637D01*
X115393Y306212D01*
X114188Y307418D01*
X113581Y307669D01*
Y309043D01*
X114188Y309294D01*
X115393Y310500D01*
X116046Y312075D01*
Y313781D01*
X115393Y315356D01*
X114188Y316562D01*
X112613Y317214D01*
D02*
G37*
G36*
X587864Y325228D02*
X585616D01*
X583444Y324646D01*
X581496Y323522D01*
X579906Y321932D01*
X578782Y319984D01*
X578200Y317812D01*
Y315564D01*
X578782Y313392D01*
X579906Y311444D01*
X581496Y309855D01*
X583444Y308730D01*
X585616Y308148D01*
X587864D01*
X590036Y308730D01*
X591984Y309855D01*
X593574Y311444D01*
X594698Y313392D01*
X595280Y315564D01*
Y317812D01*
X594698Y319984D01*
X593574Y321932D01*
X591984Y323522D01*
X590036Y324646D01*
X587864Y325228D01*
D02*
G37*
G36*
X64624D02*
X62376D01*
X60204Y324646D01*
X58256Y323522D01*
X56666Y321932D01*
X55542Y319984D01*
X54960Y317812D01*
Y315564D01*
X55542Y313392D01*
X56666Y311444D01*
X58256Y309855D01*
X60204Y308730D01*
X62376Y308148D01*
X64624D01*
X66796Y308730D01*
X68744Y309855D01*
X70334Y311444D01*
X71458Y313392D01*
X72040Y315564D01*
Y317812D01*
X71458Y319984D01*
X70334Y321932D01*
X68744Y323522D01*
X66796Y324646D01*
X64624Y325228D01*
D02*
G37*
G36*
X208228Y325480D02*
X205792D01*
X203440Y324850D01*
X201330Y323632D01*
X199608Y321910D01*
X198390Y319800D01*
X197760Y317448D01*
Y315012D01*
X198390Y312660D01*
X199608Y310550D01*
X201330Y308828D01*
X203440Y307610D01*
X205792Y306980D01*
X208228D01*
X210580Y307610D01*
X212690Y308828D01*
X214412Y310550D01*
X215630Y312660D01*
X216260Y315012D01*
Y317448D01*
X215630Y319800D01*
X214412Y321910D01*
X212690Y323632D01*
X210580Y324850D01*
X208228Y325480D01*
D02*
G37*
G36*
X182828D02*
X180392D01*
X178040Y324850D01*
X175930Y323632D01*
X174208Y321910D01*
X172990Y319800D01*
X172360Y317448D01*
Y315012D01*
X172990Y312660D01*
X174208Y310550D01*
X175930Y308828D01*
X178040Y307610D01*
X180392Y306980D01*
X182828D01*
X185180Y307610D01*
X187290Y308828D01*
X189012Y310550D01*
X190230Y312660D01*
X190860Y315012D01*
Y317448D01*
X190230Y319800D01*
X189012Y321910D01*
X187290Y323632D01*
X185180Y324850D01*
X182828Y325480D01*
D02*
G37*
G36*
X165460D02*
X146960D01*
Y306980D01*
X165460D01*
Y325480D01*
D02*
G37*
G36*
X242200Y314960D02*
X233680D01*
Y306440D01*
X233699D01*
X236189Y307107D01*
X238421Y308396D01*
X240244Y310219D01*
X241533Y312451D01*
X242200Y314941D01*
Y314960D01*
D02*
G37*
G36*
X231140D02*
X222620D01*
Y314941D01*
X223287Y312451D01*
X224576Y310219D01*
X226399Y308396D01*
X228631Y307107D01*
X231121Y306440D01*
X231140D01*
Y314960D01*
D02*
G37*
G36*
X269646Y310800D02*
X267564D01*
X265554Y310261D01*
X263751Y309221D01*
X262279Y307749D01*
X261239Y305946D01*
X260700Y303936D01*
Y301854D01*
X261239Y299844D01*
X262279Y298041D01*
X263751Y296569D01*
X265554Y295529D01*
X267564Y294990D01*
X269646D01*
X271656Y295529D01*
X273459Y296569D01*
X274931Y298041D01*
X275971Y299844D01*
X276510Y301854D01*
Y303936D01*
X275971Y305946D01*
X274931Y307749D01*
X273459Y309221D01*
X271656Y310261D01*
X269646Y310800D01*
D02*
G37*
G36*
X587864Y305228D02*
X585616D01*
X583444Y304646D01*
X581496Y303522D01*
X579906Y301932D01*
X578782Y299984D01*
X578200Y297812D01*
Y295564D01*
X578782Y293392D01*
X579906Y291444D01*
X581496Y289855D01*
X583444Y288730D01*
X585616Y288148D01*
X587864D01*
X590036Y288730D01*
X591984Y289855D01*
X593574Y291444D01*
X594698Y293392D01*
X595280Y295564D01*
Y297812D01*
X594698Y299984D01*
X593574Y301932D01*
X591984Y303522D01*
X590036Y304646D01*
X587864Y305228D01*
D02*
G37*
G36*
X64624D02*
X62376D01*
X60204Y304646D01*
X58256Y303522D01*
X56666Y301932D01*
X55542Y299984D01*
X54960Y297812D01*
Y295564D01*
X55542Y293392D01*
X56666Y291444D01*
X58256Y289855D01*
X60204Y288730D01*
X62376Y288148D01*
X64624D01*
X66796Y288730D01*
X68744Y289855D01*
X70334Y291444D01*
X71458Y293392D01*
X72040Y295564D01*
Y297812D01*
X71458Y299984D01*
X70334Y301932D01*
X68744Y303522D01*
X66796Y304646D01*
X64624Y305228D01*
D02*
G37*
G36*
X305653Y331946D02*
X303947D01*
X302372Y331293D01*
X301166Y330088D01*
X300514Y328513D01*
Y326807D01*
X301166Y325232D01*
X302372Y324026D01*
X303947Y323374D01*
X305653D01*
X307228Y324026D01*
X308175Y324973D01*
X330760D01*
X331242Y323703D01*
X330377Y322838D01*
X329724Y321263D01*
Y319558D01*
X330377Y317983D01*
X331582Y316777D01*
X333157Y316124D01*
X334863D01*
X336438Y316777D01*
X337644Y317983D01*
X337886Y318568D01*
X339278Y318845D01*
X340213Y318009D01*
Y274164D01*
X339849Y274066D01*
X338046Y273026D01*
X336574Y271554D01*
X335534Y269751D01*
X334995Y267741D01*
Y265659D01*
X335534Y263649D01*
X335722Y263322D01*
X321467Y249067D01*
X166370D01*
X165342Y248862D01*
X164470Y248280D01*
X153040Y236850D01*
X152458Y235978D01*
X152253Y234950D01*
Y232440D01*
X147860D01*
Y214470D01*
X152253D01*
Y139051D01*
X150983Y138711D01*
X149962Y140480D01*
X148165Y142277D01*
X145965Y143547D01*
X143511Y144205D01*
X140969D01*
X138515Y143547D01*
X136315Y142277D01*
X134767Y140729D01*
X133497Y141080D01*
Y154367D01*
Y160868D01*
X134365Y161778D01*
X136632Y162229D01*
X138554Y163513D01*
X139838Y165435D01*
X140289Y167702D01*
X139838Y169969D01*
X138554Y171891D01*
X136632Y173175D01*
X135477Y173404D01*
Y174699D01*
X136632Y174929D01*
X138554Y176213D01*
X139838Y178135D01*
X140289Y180402D01*
X139838Y182669D01*
X138554Y184590D01*
X136632Y185875D01*
X135477Y186104D01*
Y187399D01*
X136632Y187629D01*
X138554Y188913D01*
X139838Y190835D01*
X140289Y193102D01*
X139838Y195369D01*
X138554Y197290D01*
X136632Y198575D01*
X134365Y199026D01*
X133497Y199936D01*
Y203741D01*
Y219615D01*
X138398D01*
Y233786D01*
X155570Y250957D01*
X156152Y251829D01*
X156357Y252857D01*
Y268889D01*
X164181Y276713D01*
X313846D01*
X313944Y276349D01*
X314984Y274546D01*
X316456Y273074D01*
X318259Y272034D01*
X320269Y271495D01*
X322351D01*
X324361Y272034D01*
X326164Y273074D01*
X327636Y274546D01*
X328676Y276349D01*
X329215Y278359D01*
Y280441D01*
X328676Y282451D01*
X328424Y282887D01*
X328660Y283240D01*
X328865Y284268D01*
Y288244D01*
X329811Y289191D01*
X330464Y290767D01*
Y292472D01*
X329811Y294047D01*
X328606Y295253D01*
X327030Y295905D01*
X325325D01*
X323750Y295253D01*
X322544Y294047D01*
X321892Y292472D01*
Y290767D01*
X322544Y289191D01*
X322739Y288997D01*
X322708Y288513D01*
X322351Y287305D01*
X320269D01*
X318259Y286766D01*
X316456Y285726D01*
X314984Y284254D01*
X313944Y282451D01*
X313846Y282087D01*
X291109D01*
X290942Y283357D01*
X291341Y283464D01*
X293144Y284504D01*
X294616Y285976D01*
X295656Y287779D01*
X296195Y289789D01*
Y291871D01*
X295656Y293881D01*
X294616Y295684D01*
X293144Y297156D01*
X291341Y298196D01*
X289331Y298735D01*
X287249D01*
X285239Y298196D01*
X283436Y297156D01*
X281964Y295684D01*
X280924Y293881D01*
X280385Y291871D01*
Y289789D01*
X280924Y287779D01*
X281964Y285976D01*
X283436Y284504D01*
X285239Y283464D01*
X285639Y283357D01*
X285471Y282087D01*
X163068D01*
X162040Y281882D01*
X161168Y281300D01*
X151770Y271902D01*
X151188Y271030D01*
X150983Y270002D01*
Y269018D01*
X149713Y268493D01*
X148497Y269709D01*
X146173Y271051D01*
X143582Y271745D01*
X143510D01*
Y261555D01*
Y251365D01*
X143582D01*
X146173Y252059D01*
X148497Y253401D01*
X148699Y253603D01*
X150077Y253185D01*
X150097Y253084D01*
X134599Y237585D01*
X124238D01*
Y219615D01*
X128123D01*
Y203741D01*
Y199452D01*
X128061D01*
X128512Y197185D01*
X129796Y195263D01*
X131718Y193979D01*
X132198Y193883D01*
X132073Y192613D01*
X128235D01*
Y192676D01*
X125968Y192225D01*
X124046Y190940D01*
X122762Y189019D01*
X122311Y186752D01*
X122762Y184485D01*
X124046Y182563D01*
X125968Y181279D01*
X127123Y181049D01*
Y179754D01*
X125968Y179525D01*
X124046Y178241D01*
X122762Y176319D01*
X122311Y174052D01*
X122762Y171785D01*
X124046Y169863D01*
X125968Y168579D01*
X128235Y168128D01*
Y168190D01*
X132073D01*
X132198Y166920D01*
X131718Y166825D01*
X129796Y165541D01*
X128512Y163619D01*
X128061Y161352D01*
X128123D01*
Y154367D01*
Y97633D01*
X122560Y92070D01*
X121978Y91198D01*
X121773Y90170D01*
Y71083D01*
X113170Y62479D01*
X112516Y62857D01*
X110265Y63460D01*
X107935D01*
X105684Y62857D01*
X103666Y61692D01*
X102018Y60044D01*
X100853Y58026D01*
X100250Y55775D01*
Y53445D01*
X100853Y51194D01*
X102018Y49176D01*
X103666Y47528D01*
X105684Y46363D01*
X107935Y45760D01*
X110265D01*
X112516Y46363D01*
X114534Y47528D01*
X116182Y49176D01*
X117347Y51194D01*
X117950Y53445D01*
Y55775D01*
X117347Y58026D01*
X116969Y58680D01*
X126360Y68070D01*
X126942Y68942D01*
X127147Y69970D01*
Y72425D01*
X128320Y72911D01*
X128734Y72496D01*
X130876Y71260D01*
X133230Y70629D01*
Y80010D01*
Y89391D01*
X130876Y88760D01*
X128734Y87524D01*
X128320Y87109D01*
X127147Y87595D01*
Y89057D01*
X132710Y94620D01*
X133292Y95492D01*
X133497Y96520D01*
Y128030D01*
X134767Y128381D01*
X136315Y126833D01*
X138515Y125563D01*
X140969Y124905D01*
X143511D01*
X145965Y125563D01*
X148165Y126833D01*
X149962Y128630D01*
X150983Y130399D01*
X152253Y130059D01*
Y124303D01*
X145420Y117470D01*
X144838Y116598D01*
X144633Y115570D01*
Y83379D01*
X143363Y83212D01*
X143250Y83634D01*
X142014Y85776D01*
X140266Y87524D01*
X138124Y88760D01*
X135770Y89391D01*
Y80010D01*
Y70629D01*
X138124Y71260D01*
X140266Y72496D01*
X142014Y74244D01*
X143250Y76386D01*
X143363Y76808D01*
X144633Y76641D01*
Y69693D01*
X137823Y62882D01*
X135665Y63460D01*
X133335D01*
X131084Y62857D01*
X129066Y61692D01*
X127418Y60044D01*
X126253Y58026D01*
X125650Y55775D01*
Y53445D01*
X126253Y51194D01*
X127418Y49176D01*
X129066Y47528D01*
X131084Y46363D01*
X133335Y45760D01*
X135665D01*
X137916Y46363D01*
X139934Y47528D01*
X141582Y49176D01*
X142747Y51194D01*
X143350Y53445D01*
Y55775D01*
X142747Y58026D01*
X141948Y59409D01*
X149220Y66680D01*
X149802Y67552D01*
X150007Y68580D01*
Y77832D01*
X151277Y77999D01*
X151653Y76594D01*
X152818Y74576D01*
X154466Y72928D01*
X156484Y71763D01*
X158735Y71160D01*
X161065D01*
X163316Y71763D01*
X165334Y72928D01*
X166982Y74576D01*
X168147Y76594D01*
X168750Y78845D01*
Y81175D01*
X168147Y83426D01*
X166982Y85444D01*
X165334Y87092D01*
X163316Y88257D01*
X161065Y88860D01*
X158735D01*
X156484Y88257D01*
X154466Y87092D01*
X152818Y85444D01*
X151653Y83426D01*
X151277Y82021D01*
X150007Y82188D01*
Y114457D01*
X156840Y121290D01*
X157422Y122162D01*
X157627Y123190D01*
Y130059D01*
X158897Y130399D01*
X159918Y128630D01*
X161715Y126833D01*
X163915Y125563D01*
X166369Y124905D01*
X168911D01*
X171365Y125563D01*
X173565Y126833D01*
X175362Y128630D01*
X176632Y130830D01*
X177290Y133285D01*
Y135826D01*
X176632Y138280D01*
X175362Y140480D01*
X173565Y142277D01*
X171365Y143547D01*
X168911Y144205D01*
X166369D01*
X163915Y143547D01*
X161715Y142277D01*
X159918Y140480D01*
X158897Y138711D01*
X157627Y139051D01*
Y214470D01*
X162020D01*
Y232440D01*
X157627D01*
Y233837D01*
X167483Y243693D01*
X322580D01*
X323608Y243898D01*
X324480Y244480D01*
X339522Y259522D01*
X339849Y259334D01*
X341859Y258795D01*
X343941D01*
X345951Y259334D01*
X347754Y260374D01*
X349226Y261846D01*
X350266Y263649D01*
X350805Y265659D01*
Y267741D01*
X350266Y269751D01*
X349226Y271554D01*
X347754Y273026D01*
X345951Y274066D01*
X345587Y274164D01*
Y319150D01*
X345382Y320178D01*
X344800Y321050D01*
X336290Y329560D01*
X335418Y330142D01*
X334390Y330347D01*
X308175D01*
X307228Y331293D01*
X305653Y331946D01*
D02*
G37*
G36*
X595280Y285228D02*
X578200D01*
Y268148D01*
X595280D01*
Y285228D01*
D02*
G37*
G36*
X64624D02*
X62376D01*
X60204Y284646D01*
X58256Y283522D01*
X56666Y281932D01*
X55542Y279984D01*
X54960Y277812D01*
Y275564D01*
X55542Y273392D01*
X56666Y271444D01*
X58256Y269855D01*
X60204Y268730D01*
X62376Y268148D01*
X64624D01*
X66796Y268730D01*
X68744Y269855D01*
X70334Y271444D01*
X71458Y273392D01*
X72040Y275564D01*
Y277812D01*
X71458Y279984D01*
X70334Y281932D01*
X68744Y283522D01*
X66796Y284646D01*
X64624Y285228D01*
D02*
G37*
G36*
X295982Y271745D02*
X295910D01*
Y262825D01*
X304830D01*
Y262897D01*
X304136Y265488D01*
X302794Y267812D01*
X300897Y269709D01*
X298573Y271051D01*
X295982Y271745D01*
D02*
G37*
G36*
X293370D02*
X293298D01*
X290707Y271051D01*
X288383Y269709D01*
X286486Y267812D01*
X285144Y265488D01*
X284450Y262897D01*
Y262825D01*
X293370D01*
Y271745D01*
D02*
G37*
G36*
X140970D02*
X140898D01*
X138307Y271051D01*
X135983Y269709D01*
X134086Y267812D01*
X132744Y265488D01*
X132050Y262897D01*
Y262825D01*
X140970D01*
Y271745D01*
D02*
G37*
G36*
X270511Y271205D02*
X267969D01*
X265515Y270547D01*
X263315Y269277D01*
X261518Y267480D01*
X260248Y265280D01*
X259590Y262826D01*
Y260285D01*
X260248Y257830D01*
X261518Y255630D01*
X263315Y253833D01*
X265515Y252563D01*
X267969Y251905D01*
X270511D01*
X272965Y252563D01*
X275165Y253833D01*
X276962Y255630D01*
X278232Y257830D01*
X278890Y260285D01*
Y262826D01*
X278232Y265280D01*
X276962Y267480D01*
X275165Y269277D01*
X272965Y270547D01*
X270511Y271205D01*
D02*
G37*
G36*
X245110D02*
X242570D01*
X240115Y270547D01*
X237915Y269277D01*
X236118Y267480D01*
X234848Y265280D01*
X234190Y262826D01*
Y260285D01*
X234848Y257830D01*
X236118Y255630D01*
X237915Y253833D01*
X240115Y252563D01*
X242570Y251905D01*
X245110D01*
X247565Y252563D01*
X249765Y253833D01*
X251562Y255630D01*
X252832Y257830D01*
X253490Y260285D01*
Y262826D01*
X252832Y265280D01*
X251562Y267480D01*
X249765Y269277D01*
X247565Y270547D01*
X245110Y271205D01*
D02*
G37*
G36*
X219711D02*
X217169D01*
X214715Y270547D01*
X212515Y269277D01*
X210718Y267480D01*
X209448Y265280D01*
X208790Y262826D01*
Y260285D01*
X209448Y257830D01*
X210718Y255630D01*
X212515Y253833D01*
X214715Y252563D01*
X217169Y251905D01*
X219711D01*
X222165Y252563D01*
X224365Y253833D01*
X226162Y255630D01*
X227432Y257830D01*
X228090Y260285D01*
Y262826D01*
X227432Y265280D01*
X226162Y267480D01*
X224365Y269277D01*
X222165Y270547D01*
X219711Y271205D01*
D02*
G37*
G36*
X194310D02*
X191770D01*
X189315Y270547D01*
X187115Y269277D01*
X185318Y267480D01*
X184048Y265280D01*
X183390Y262826D01*
Y260285D01*
X184048Y257830D01*
X185318Y255630D01*
X187115Y253833D01*
X189315Y252563D01*
X191770Y251905D01*
X194310D01*
X196765Y252563D01*
X198965Y253833D01*
X200762Y255630D01*
X202032Y257830D01*
X202690Y260285D01*
Y262826D01*
X202032Y265280D01*
X200762Y267480D01*
X198965Y269277D01*
X196765Y270547D01*
X194310Y271205D01*
D02*
G37*
G36*
X168911D02*
X166369D01*
X163915Y270547D01*
X161715Y269277D01*
X159918Y267480D01*
X158648Y265280D01*
X157990Y262826D01*
Y260285D01*
X158648Y257830D01*
X159918Y255630D01*
X161715Y253833D01*
X163915Y252563D01*
X166369Y251905D01*
X168911D01*
X171365Y252563D01*
X173565Y253833D01*
X175362Y255630D01*
X176632Y257830D01*
X177290Y260285D01*
Y262826D01*
X176632Y265280D01*
X175362Y267480D01*
X173565Y269277D01*
X171365Y270547D01*
X168911Y271205D01*
D02*
G37*
G36*
X118111D02*
X115569D01*
X113115Y270547D01*
X110915Y269277D01*
X109118Y267480D01*
X107848Y265280D01*
X107190Y262826D01*
Y260285D01*
X107848Y257830D01*
X109118Y255630D01*
X110915Y253833D01*
X113115Y252563D01*
X115569Y251905D01*
X118111D01*
X120565Y252563D01*
X122765Y253833D01*
X124562Y255630D01*
X125832Y257830D01*
X126490Y260285D01*
Y262826D01*
X125832Y265280D01*
X124562Y267480D01*
X122765Y269277D01*
X120565Y270547D01*
X118111Y271205D01*
D02*
G37*
G36*
X304830Y260285D02*
X295910D01*
Y251365D01*
X295982D01*
X298573Y252059D01*
X300897Y253401D01*
X302794Y255298D01*
X304136Y257622D01*
X304830Y260214D01*
Y260285D01*
D02*
G37*
G36*
X293370D02*
X284450D01*
Y260214D01*
X285144Y257622D01*
X286486Y255298D01*
X288383Y253401D01*
X290707Y252059D01*
X293298Y251365D01*
X293370D01*
Y260285D01*
D02*
G37*
G36*
X140970D02*
X132050D01*
Y260214D01*
X132744Y257622D01*
X134086Y255298D01*
X135983Y253401D01*
X138307Y252059D01*
X140898Y251365D01*
X140970D01*
Y260285D01*
D02*
G37*
G36*
X113375Y246348D02*
X111669D01*
X110094Y245695D01*
X108889Y244490D01*
X108236Y242915D01*
Y241209D01*
X108889Y239634D01*
X109188Y239335D01*
Y237585D01*
X105442D01*
Y219615D01*
X119602D01*
Y237585D01*
X115856D01*
Y239335D01*
X116156Y239634D01*
X116808Y241209D01*
Y242915D01*
X116156Y244490D01*
X114950Y245695D01*
X113375Y246348D01*
D02*
G37*
G36*
X180816Y232440D02*
X166656D01*
Y214470D01*
X180816D01*
Y220121D01*
X206964D01*
X211614Y215471D01*
Y215047D01*
X212267Y213472D01*
X213472Y212267D01*
X215047Y211614D01*
X216753D01*
X218328Y212267D01*
X219534Y213472D01*
X220186Y215047D01*
Y216753D01*
X219534Y218328D01*
X218328Y219534D01*
X216753Y220186D01*
X216329D01*
X210702Y225813D01*
X209621Y226535D01*
X208345Y226789D01*
X180816D01*
Y232440D01*
D02*
G37*
G36*
X587864Y223095D02*
X585616D01*
X583444Y222513D01*
X581496Y221389D01*
X579906Y219799D01*
X578782Y217851D01*
X578200Y215679D01*
Y213431D01*
X578782Y211259D01*
X579906Y209311D01*
X581496Y207721D01*
X583444Y206597D01*
X585616Y206015D01*
X587864D01*
X590036Y206597D01*
X591984Y207721D01*
X593574Y209311D01*
X594698Y211259D01*
X595280Y213431D01*
Y215679D01*
X594698Y217851D01*
X593574Y219799D01*
X591984Y221389D01*
X590036Y222513D01*
X587864Y223095D01*
D02*
G37*
G36*
X72040D02*
X54960D01*
Y206015D01*
X72040D01*
Y223095D01*
D02*
G37*
G36*
X587864Y203095D02*
X585616D01*
X583444Y202513D01*
X581496Y201389D01*
X579906Y199799D01*
X578782Y197851D01*
X578200Y195679D01*
Y193431D01*
X578782Y191259D01*
X579906Y189311D01*
X581496Y187721D01*
X583444Y186597D01*
X585616Y186015D01*
X587864D01*
X590036Y186597D01*
X591984Y187721D01*
X593574Y189311D01*
X594698Y191259D01*
X595280Y193431D01*
Y195679D01*
X594698Y197851D01*
X593574Y199799D01*
X591984Y201389D01*
X590036Y202513D01*
X587864Y203095D01*
D02*
G37*
G36*
X64624D02*
X62376D01*
X60204Y202513D01*
X58256Y201389D01*
X56666Y199799D01*
X55542Y197851D01*
X54960Y195679D01*
Y193431D01*
X55542Y191259D01*
X56666Y189311D01*
X58256Y187721D01*
X60204Y186597D01*
X62376Y186015D01*
X64624D01*
X66796Y186597D01*
X68744Y187721D01*
X70334Y189311D01*
X71458Y191259D01*
X72040Y193431D01*
Y195679D01*
X71458Y197851D01*
X70334Y199799D01*
X68744Y201389D01*
X66796Y202513D01*
X64624Y203095D01*
D02*
G37*
G36*
X472785Y187420D02*
X471079D01*
X469504Y186768D01*
X468952Y186215D01*
X468122Y185676D01*
X467292Y186215D01*
X466740Y186768D01*
X465165Y187420D01*
X463459D01*
X461884Y186768D01*
X461332Y186215D01*
X460502Y185676D01*
X459672Y186215D01*
X459120Y186768D01*
X457545Y187420D01*
X455839D01*
X454264Y186768D01*
X453059Y185562D01*
X452406Y183987D01*
Y182281D01*
X453059Y180706D01*
X453000Y180643D01*
X451500Y180417D01*
X449925Y181070D01*
X448219D01*
X446644Y180417D01*
X445438Y179212D01*
X444786Y177637D01*
Y175931D01*
X445438Y174356D01*
X446186Y173609D01*
X445438Y172862D01*
X444786Y171287D01*
Y169581D01*
X445438Y168006D01*
X446644Y166800D01*
X448219Y166148D01*
X449925D01*
X451500Y166800D01*
X452052Y167353D01*
X452882Y167892D01*
X453712Y167353D01*
X454264Y166800D01*
X455839Y166148D01*
X457545D01*
X459120Y166800D01*
X459672Y167353D01*
X460502Y167892D01*
X461332Y167353D01*
X461884Y166800D01*
X463459Y166148D01*
X465165D01*
X466740Y166800D01*
X467292Y167353D01*
X468122Y167892D01*
X468952Y167353D01*
X469504Y166800D01*
X471079Y166148D01*
X472785D01*
X474360Y166800D01*
X475565Y168006D01*
X476218Y169581D01*
Y171287D01*
X475565Y172862D01*
X474818Y173609D01*
X475565Y174356D01*
X476218Y175931D01*
Y177637D01*
X475565Y179212D01*
X474818Y179959D01*
X475565Y180706D01*
X476218Y182281D01*
Y183987D01*
X475565Y185562D01*
X474360Y186768D01*
X472785Y187420D01*
D02*
G37*
G36*
X64624Y183095D02*
X62376D01*
X60204Y182513D01*
X58256Y181389D01*
X56666Y179799D01*
X55542Y177851D01*
X54960Y175679D01*
Y173431D01*
X55542Y171259D01*
X56666Y169311D01*
X58256Y167721D01*
X60204Y166597D01*
X62376Y166015D01*
X64624D01*
X66796Y166597D01*
X68744Y167721D01*
X70334Y169311D01*
X71458Y171259D01*
X72040Y173431D01*
Y175679D01*
X71458Y177851D01*
X70334Y179799D01*
X68744Y181389D01*
X66796Y182513D01*
X64624Y183095D01*
D02*
G37*
G36*
X587864Y163095D02*
X585616D01*
X583444Y162513D01*
X581496Y161389D01*
X579906Y159799D01*
X578782Y157851D01*
X578200Y155679D01*
Y153431D01*
X578782Y151259D01*
X579906Y149311D01*
X581496Y147721D01*
X583444Y146597D01*
X585616Y146015D01*
X587864D01*
X590036Y146597D01*
X591984Y147721D01*
X593574Y149311D01*
X594698Y151259D01*
X595280Y153431D01*
Y155679D01*
X594698Y157851D01*
X593574Y159799D01*
X591984Y161389D01*
X590036Y162513D01*
X587864Y163095D01*
D02*
G37*
G36*
X64624D02*
X62376D01*
X60204Y162513D01*
X58256Y161389D01*
X56666Y159799D01*
X55542Y157851D01*
X54960Y155679D01*
Y153431D01*
X55542Y151259D01*
X56666Y149311D01*
X58256Y147721D01*
X60204Y146597D01*
X62376Y146015D01*
X64624D01*
X66796Y146597D01*
X68744Y147721D01*
X70334Y149311D01*
X71458Y151259D01*
X72040Y153431D01*
Y155679D01*
X71458Y157851D01*
X70334Y159799D01*
X68744Y161389D01*
X66796Y162513D01*
X64624Y163095D01*
D02*
G37*
G36*
X595280Y143095D02*
X578200D01*
Y126015D01*
X595280D01*
Y143095D01*
D02*
G37*
G36*
X64624D02*
X62376D01*
X60204Y142513D01*
X58256Y141389D01*
X56666Y139799D01*
X55542Y137851D01*
X54960Y135679D01*
Y133431D01*
X55542Y131259D01*
X56666Y129311D01*
X58256Y127721D01*
X60204Y126597D01*
X62376Y126015D01*
X64624D01*
X66796Y126597D01*
X68744Y127721D01*
X70334Y129311D01*
X71458Y131259D01*
X72040Y133431D01*
Y135679D01*
X71458Y137851D01*
X70334Y139799D01*
X68744Y141389D01*
X66796Y142513D01*
X64624Y143095D01*
D02*
G37*
G36*
X245110Y144205D02*
X242570D01*
X240115Y143547D01*
X237915Y142277D01*
X236118Y140480D01*
X234848Y138280D01*
X234190Y135826D01*
Y133285D01*
X234848Y130830D01*
X236118Y128630D01*
X237915Y126833D01*
X240115Y125563D01*
X242570Y124905D01*
X245110D01*
X247565Y125563D01*
X249765Y126833D01*
X251562Y128630D01*
X252832Y130830D01*
X253490Y133285D01*
Y135826D01*
X252832Y138280D01*
X251562Y140480D01*
X249765Y142277D01*
X247565Y143547D01*
X245110Y144205D01*
D02*
G37*
G36*
X219711D02*
X217169D01*
X214715Y143547D01*
X212515Y142277D01*
X210718Y140480D01*
X209448Y138280D01*
X208790Y135826D01*
Y133285D01*
X209448Y130830D01*
X210718Y128630D01*
X212515Y126833D01*
X214715Y125563D01*
X217169Y124905D01*
X219711D01*
X222165Y125563D01*
X224365Y126833D01*
X226162Y128630D01*
X227432Y130830D01*
X228090Y133285D01*
Y135826D01*
X227432Y138280D01*
X226162Y140480D01*
X224365Y142277D01*
X222165Y143547D01*
X219711Y144205D01*
D02*
G37*
G36*
X194310D02*
X191770D01*
X189315Y143547D01*
X187115Y142277D01*
X185318Y140480D01*
X184048Y138280D01*
X183390Y135826D01*
Y133285D01*
X184048Y130830D01*
X185318Y128630D01*
X187115Y126833D01*
X189315Y125563D01*
X191770Y124905D01*
X194310D01*
X196765Y125563D01*
X198965Y126833D01*
X200762Y128630D01*
X202032Y130830D01*
X202690Y133285D01*
Y135826D01*
X202032Y138280D01*
X200762Y140480D01*
X198965Y142277D01*
X196765Y143547D01*
X194310Y144205D01*
D02*
G37*
G36*
X126490D02*
X107190D01*
Y124905D01*
X126490D01*
Y144205D01*
D02*
G37*
G36*
X488830Y89391D02*
X486476Y88760D01*
X484334Y87524D01*
X482586Y85776D01*
X481350Y83634D01*
X480719Y81280D01*
X488830D01*
Y89391D01*
D02*
G37*
G36*
X567465Y88860D02*
X565135D01*
X562884Y88257D01*
X560866Y87092D01*
X559218Y85444D01*
X558053Y83426D01*
X557450Y81175D01*
Y78845D01*
X558053Y76594D01*
X559218Y74576D01*
X560866Y72928D01*
X562884Y71763D01*
X565135Y71160D01*
X567465D01*
X569716Y71763D01*
X571734Y72928D01*
X573382Y74576D01*
X574547Y76594D01*
X575150Y78845D01*
Y81175D01*
X574547Y83426D01*
X573382Y85444D01*
X571734Y87092D01*
X569716Y88257D01*
X567465Y88860D01*
D02*
G37*
G36*
X186465D02*
X184135D01*
X181884Y88257D01*
X179866Y87092D01*
X178218Y85444D01*
X177053Y83426D01*
X176450Y81175D01*
Y78845D01*
X177053Y76594D01*
X178218Y74576D01*
X179866Y72928D01*
X181884Y71763D01*
X184135Y71160D01*
X186465D01*
X188716Y71763D01*
X190734Y72928D01*
X192382Y74576D01*
X193547Y76594D01*
X194150Y78845D01*
Y81175D01*
X193547Y83426D01*
X192382Y85444D01*
X190734Y87092D01*
X188716Y88257D01*
X186465Y88860D01*
D02*
G37*
G36*
X110265D02*
X107935D01*
X105684Y88257D01*
X103666Y87092D01*
X102018Y85444D01*
X100853Y83426D01*
X100250Y81175D01*
Y78845D01*
X100853Y76594D01*
X102018Y74576D01*
X103666Y72928D01*
X105684Y71763D01*
X107935Y71160D01*
X110265D01*
X112516Y71763D01*
X114534Y72928D01*
X116182Y74576D01*
X117347Y76594D01*
X117950Y78845D01*
Y81175D01*
X117347Y83426D01*
X116182Y85444D01*
X114534Y87092D01*
X112516Y88257D01*
X110265Y88860D01*
D02*
G37*
G36*
X84865D02*
X82535D01*
X80284Y88257D01*
X78266Y87092D01*
X76618Y85444D01*
X75453Y83426D01*
X74850Y81175D01*
Y78845D01*
X75453Y76594D01*
X76618Y74576D01*
X78266Y72928D01*
X80284Y71763D01*
X82535Y71160D01*
X84865D01*
X87116Y71763D01*
X89134Y72928D01*
X90782Y74576D01*
X91947Y76594D01*
X92550Y78845D01*
Y81175D01*
X91947Y83426D01*
X90782Y85444D01*
X89134Y87092D01*
X87116Y88257D01*
X84865Y88860D01*
D02*
G37*
G36*
X499481Y78740D02*
X491370D01*
Y70629D01*
X493724Y71260D01*
X495866Y72496D01*
X497614Y74244D01*
X498850Y76386D01*
X499481Y78740D01*
D02*
G37*
G36*
X488830D02*
X480719D01*
X481350Y76386D01*
X482586Y74244D01*
X484334Y72496D01*
X486476Y71260D01*
X488830Y70629D01*
Y78740D01*
D02*
G37*
G36*
X186570Y63991D02*
Y55880D01*
X194681D01*
X194050Y58234D01*
X192814Y60376D01*
X191066Y62124D01*
X188924Y63360D01*
X186570Y63991D01*
D02*
G37*
G36*
X567570D02*
Y55880D01*
X575681D01*
X575050Y58234D01*
X573814Y60376D01*
X572066Y62124D01*
X569924Y63360D01*
X567570Y63991D01*
D02*
G37*
G36*
X184030D02*
X181676Y63360D01*
X179534Y62124D01*
X177786Y60376D01*
X176550Y58234D01*
X175919Y55880D01*
X184030D01*
Y63991D01*
D02*
G37*
G36*
X565030D02*
X562676Y63360D01*
X560534Y62124D01*
X558786Y60376D01*
X557550Y58234D01*
X556919Y55880D01*
X565030D01*
Y63991D01*
D02*
G37*
G36*
X516665Y63460D02*
X514335D01*
X512084Y62857D01*
X510066Y61692D01*
X508418Y60044D01*
X507253Y58026D01*
X506650Y55775D01*
Y53445D01*
X507253Y51194D01*
X508418Y49176D01*
X510066Y47528D01*
X512084Y46363D01*
X514335Y45760D01*
X516665D01*
X518916Y46363D01*
X520934Y47528D01*
X522582Y49176D01*
X523747Y51194D01*
X524350Y53445D01*
Y55775D01*
X523747Y58026D01*
X522582Y60044D01*
X520934Y61692D01*
X518916Y62857D01*
X516665Y63460D01*
D02*
G37*
G36*
X491265D02*
X488935D01*
X486684Y62857D01*
X484666Y61692D01*
X483018Y60044D01*
X481853Y58026D01*
X481250Y55775D01*
Y53445D01*
X481853Y51194D01*
X483018Y49176D01*
X484666Y47528D01*
X486684Y46363D01*
X488935Y45760D01*
X491265D01*
X493516Y46363D01*
X495534Y47528D01*
X497182Y49176D01*
X498347Y51194D01*
X498950Y53445D01*
Y55775D01*
X498347Y58026D01*
X497182Y60044D01*
X495534Y61692D01*
X493516Y62857D01*
X491265Y63460D01*
D02*
G37*
G36*
X161065D02*
X158735D01*
X156484Y62857D01*
X154466Y61692D01*
X152818Y60044D01*
X151653Y58026D01*
X151050Y55775D01*
Y53445D01*
X151653Y51194D01*
X152818Y49176D01*
X154466Y47528D01*
X156484Y46363D01*
X158735Y45760D01*
X161065D01*
X163316Y46363D01*
X165334Y47528D01*
X166982Y49176D01*
X168147Y51194D01*
X168750Y53445D01*
Y55775D01*
X168147Y58026D01*
X166982Y60044D01*
X165334Y61692D01*
X163316Y62857D01*
X161065Y63460D01*
D02*
G37*
G36*
X92550D02*
X74850D01*
Y45760D01*
X92550D01*
Y63460D01*
D02*
G37*
G36*
X575681Y53340D02*
X567570D01*
Y45229D01*
X569924Y45860D01*
X572066Y47096D01*
X573814Y48844D01*
X575050Y50986D01*
X575681Y53340D01*
D02*
G37*
G36*
X397881D02*
X389770D01*
Y45229D01*
X392124Y45860D01*
X394266Y47096D01*
X396014Y48844D01*
X397250Y50986D01*
X397881Y53340D01*
D02*
G37*
G36*
X194681D02*
X186570D01*
Y45229D01*
X188924Y45860D01*
X191066Y47096D01*
X192814Y48844D01*
X194050Y50986D01*
X194681Y53340D01*
D02*
G37*
G36*
X565030D02*
X556919D01*
X557550Y50986D01*
X558786Y48844D01*
X560534Y47096D01*
X562676Y45860D01*
X565030Y45229D01*
Y53340D01*
D02*
G37*
G36*
X387230D02*
X379119D01*
X379750Y50986D01*
X380986Y48844D01*
X382734Y47096D01*
X384876Y45860D01*
X387230Y45229D01*
Y53340D01*
D02*
G37*
G36*
X184030D02*
X175919D01*
X176550Y50986D01*
X177786Y48844D01*
X179534Y47096D01*
X181676Y45860D01*
X184030Y45229D01*
Y53340D01*
D02*
G37*
%LPD*%
G36*
X406154Y235117D02*
Y202040D01*
X335617Y131503D01*
X334979Y130547D01*
X334754Y129420D01*
Y88383D01*
X334284Y88257D01*
X332266Y87092D01*
X330618Y85444D01*
X329453Y83426D01*
X328850Y81175D01*
Y78845D01*
X329453Y76594D01*
X330618Y74576D01*
X332266Y72928D01*
X334284Y71763D01*
X334055Y70510D01*
X317165D01*
X316824Y71780D01*
X318066Y72496D01*
X319814Y74244D01*
X321050Y76386D01*
X321681Y78740D01*
X312300D01*
X302919D01*
X303550Y76386D01*
X304786Y74244D01*
X306534Y72496D01*
X307775Y71780D01*
X307435Y70510D01*
X290545D01*
X290316Y71763D01*
X292334Y72928D01*
X293982Y74576D01*
X295147Y76594D01*
X295750Y78845D01*
Y81175D01*
X295147Y83426D01*
X293982Y85444D01*
X292334Y87092D01*
X291276Y87703D01*
X291067Y89290D01*
X403149Y201371D01*
X403787Y202327D01*
X404012Y203454D01*
Y235559D01*
X405105Y235872D01*
X406154Y235117D01*
D02*
G37*
%LPC*%
G36*
X313570Y89391D02*
Y81280D01*
X321681D01*
X321050Y83634D01*
X319814Y85776D01*
X318066Y87524D01*
X315924Y88760D01*
X313570Y89391D01*
D02*
G37*
G36*
X311030D02*
X308676Y88760D01*
X306534Y87524D01*
X304786Y85776D01*
X303550Y83634D01*
X302919Y81280D01*
X311030D01*
Y89391D01*
D02*
G37*
%LPD*%
D12*
X208345Y223455D02*
X215900Y215900D01*
X173736Y223455D02*
X208345D01*
X112522Y228600D02*
Y242062D01*
X422910Y806450D02*
Y817880D01*
D13*
X130810Y199452D02*
G03*
X133985Y196277I3175J0D01*
G01*
X134365Y189927D02*
G03*
X134365Y196277I0J3175D01*
G01*
X128235Y189927D02*
G03*
X128235Y183577I0J-3175D01*
G01*
X134365Y177227D02*
G03*
X134365Y183577I0J3175D01*
G01*
X128235Y177227D02*
G03*
X128235Y170877I0J-3175D01*
G01*
X134365Y164527D02*
G03*
X134365Y170877I0J3175D01*
G01*
X133985Y164527D02*
G03*
X130810Y161352I0J-3175D01*
G01*
X153670Y270002D02*
X163068Y279400D01*
X131318Y230505D02*
X153670Y252857D01*
Y270002D01*
X163068Y279400D02*
X321310D01*
X131318Y228600D02*
Y230505D01*
X342900Y266700D02*
Y319150D01*
X334390Y327660D02*
X342900Y319150D01*
X304800Y327660D02*
X334390D01*
X322580Y246380D02*
X342900Y266700D01*
X166370Y246380D02*
X322580D01*
X154940Y123190D02*
Y234950D01*
X166370Y246380D01*
X147320Y115570D02*
X154940Y123190D01*
X147320Y68580D02*
Y115570D01*
X134500Y54610D02*
Y55760D01*
X147320Y68580D01*
X109100Y54610D02*
X124460Y69970D01*
Y90170D02*
X130810Y96520D01*
X124460Y69970D02*
Y90170D01*
X130810Y96520D02*
Y154367D01*
X321310Y279400D02*
X326178Y284268D01*
Y291619D01*
X130810Y199452D02*
Y203741D01*
X133985Y196277D02*
X134365D01*
X128235Y189927D02*
X134365D01*
X128235Y183577D02*
X134365D01*
X128235Y177227D02*
X134365D01*
X128235Y170877D02*
X134365D01*
X133985Y164527D02*
X134365D01*
X130810Y154367D02*
Y161352D01*
Y203741D02*
Y224790D01*
D26*
X112522Y228600D02*
D03*
X131318D02*
D03*
X173736Y223455D02*
D03*
X154940D02*
D03*
D33*
X422910Y852170D02*
D03*
Y806450D02*
D03*
D72*
X490982Y829310D02*
D03*
D73*
X415290Y260350D02*
X471170D01*
X410976Y256540D02*
X474980D01*
X532130Y410845D02*
X533400Y409575D01*
X474980Y256540D02*
X548640Y330200D01*
X533400Y322580D02*
Y409575D01*
X548640Y330200D02*
Y468630D01*
X537210Y480060D02*
X548640Y468630D01*
X532130Y410845D02*
Y497840D01*
X471170Y260350D02*
X533400Y322580D01*
X479044Y251714D02*
X543560Y316230D01*
X525780Y359410D02*
Y480060D01*
X596900Y685800D02*
X599440Y688340D01*
X596900Y723900D02*
X599440Y721360D01*
Y688340D02*
Y721360D01*
X536194Y689356D02*
X550738Y703900D01*
X586740D01*
X536194Y609600D02*
Y689356D01*
X523494Y596900D02*
X536194Y609600D01*
X441960Y596900D02*
X523494D01*
X421386Y165608D02*
Y237556D01*
X494030Y92964D02*
X503174D01*
X421386Y165608D02*
X494030Y92964D01*
X429260Y169672D02*
X498856Y100076D01*
X519938D01*
X429260Y169672D02*
Y245900D01*
X503174Y92964D02*
X515500Y80638D01*
Y80010D02*
Y80638D01*
X528320Y64770D02*
Y91694D01*
X519938Y100076D02*
X528320Y91694D01*
Y64770D02*
X538480Y54610D01*
X401066Y203454D02*
Y237236D01*
X287367Y80477D02*
Y89755D01*
X401066Y203454D01*
X393700Y205232D02*
Y240660D01*
X269940Y81473D02*
X393700Y205232D01*
X261500Y80010D02*
X262962Y81473D01*
X269940D01*
X393700Y240660D02*
X399100Y246060D01*
X414782Y154432D02*
X464700Y104514D01*
X414782Y154432D02*
Y241742D01*
X419100Y246060D01*
X401066Y237236D02*
X404100Y240270D01*
X421386Y237556D02*
X424100Y240270D01*
X429100Y246060D02*
X429260Y245900D01*
X464700Y80010D02*
Y104514D01*
X337700Y80010D02*
Y129420D01*
X409100Y200820D01*
Y246060D01*
X286900Y80010D02*
X287367Y80477D01*
X258852Y322580D02*
X269240D01*
X257810Y323622D02*
X257810D01*
X231140Y363086D02*
X265178Y329048D01*
X224790Y356642D02*
X257810Y323622D01*
X272442Y325782D02*
Y326152D01*
X257810Y323622D02*
X258852Y322580D01*
X269240D02*
X272442Y325782D01*
X231140Y363086D02*
Y457200D01*
X224790Y356642D02*
Y457200D01*
X378460Y618490D02*
X407670Y647700D01*
X289528Y438300D02*
X294880Y432948D01*
X382148D01*
X406400Y457200D01*
X269175Y134555D02*
X269240D01*
X223520Y88900D02*
X269175Y134555D01*
X223520Y73660D02*
Y88900D01*
X232410Y64770D02*
X426720D01*
X223520Y73660D02*
X232410Y64770D01*
X426720D02*
X436880Y54610D01*
X439300D01*
X257556Y67564D02*
X452348D01*
X248920Y76200D02*
Y88835D01*
Y76200D02*
X257556Y67564D01*
X453390Y65920D02*
Y66522D01*
X452348Y67564D02*
X453390Y66522D01*
X248920Y88835D02*
X294640Y134555D01*
X453390Y65920D02*
X464700Y54610D01*
X129540Y370840D02*
X255270Y496570D01*
X355640D02*
X373420Y478790D01*
X255270Y496570D02*
X355640D01*
X83820Y370840D02*
X129540D01*
X77470Y377190D02*
X83820Y370840D01*
X77470Y377190D02*
Y436327D01*
X74975Y438822D02*
X77470Y436327D01*
X63500Y438822D02*
X74975D01*
X91440Y381000D02*
Y529590D01*
X373420Y478790D02*
X441096D01*
X350420Y489050D02*
X367030Y472440D01*
X419100D01*
X312320Y489050D02*
X350420D01*
X419100Y472440D02*
X420118Y471422D01*
X302716Y580955D02*
X390911Y492760D01*
X63500Y580955D02*
X302716D01*
X390911Y492760D02*
X448310D01*
X426244Y456347D02*
X453866D01*
X559536Y590016D02*
X570475Y600955D01*
X586740D01*
X536474Y590016D02*
X559536D01*
X533989Y592501D02*
X536474Y590016D01*
X533989Y592501D02*
Y593090D01*
X391160Y500380D02*
X505460D01*
X525780Y480060D01*
X411480Y264160D02*
X415290Y260350D01*
X404635Y262882D02*
X410976Y256540D01*
X399100Y258760D02*
X406146Y251714D01*
X411480Y264160D02*
Y271780D01*
X414100Y274400D01*
Y279974D01*
X406146Y251714D02*
X479044D01*
X434140Y266166D02*
Y320320D01*
X434100Y266126D02*
X434140Y266166D01*
X404635Y262882D02*
Y265591D01*
X419100Y266285D02*
Y308356D01*
X404100Y266126D02*
X404635Y265591D01*
X349250Y575310D02*
X407670Y516890D01*
X455930D01*
X350520Y541020D02*
X391160Y500380D01*
X224670Y17780D02*
X261500Y54610D01*
X50800Y17780D02*
X224670D01*
X211970Y30480D02*
X236100Y54610D01*
X50800Y30480D02*
X211970D01*
X31750Y49530D02*
X50800Y30480D01*
X31750Y49530D02*
Y679450D01*
X20320Y48260D02*
X50800Y17780D01*
X20320Y48260D02*
Y756920D01*
X31910Y768510D01*
X31750Y679450D02*
X46040Y693740D01*
X63500D01*
X46990Y53340D02*
X62230Y38100D01*
X194190D01*
X46990Y53340D02*
Y320178D01*
X63500Y336688D01*
X31910Y768510D02*
X63500D01*
X194190Y38100D02*
X210700Y54610D01*
X429180Y313436D02*
Y326150D01*
X399100Y258760D02*
Y279974D01*
X434140Y320320D02*
X434180Y320360D01*
X424100Y279974D02*
Y308356D01*
X429180Y313436D01*
X424180D02*
Y320360D01*
X419100Y308356D02*
X424180Y313436D01*
X419180Y314762D02*
Y326150D01*
X414100Y309682D02*
X419180Y314762D01*
X414100Y279974D02*
Y309682D01*
X404100Y310280D02*
X414180Y320360D01*
X404100Y266126D02*
Y310280D01*
X399100Y316070D02*
X409180Y326150D01*
X399100Y279974D02*
Y316070D01*
X538480Y54610D02*
X540900D01*
X316230Y591820D02*
X318820Y589230D01*
X85090Y537210D02*
X92710Y544830D01*
X85090Y462280D02*
Y537210D01*
X63500Y458822D02*
X81632D01*
X85090Y462280D01*
X91440Y529590D02*
X100330Y538480D01*
X63500Y600955D02*
X72635Y591820D01*
X100330Y538480D02*
X325120D01*
X92710Y544830D02*
X322580D01*
X72635Y591820D02*
X316230D01*
X586740Y723900D02*
X596900D01*
X586740Y723900D02*
X586740Y723900D01*
X571500Y685800D02*
X596900D01*
X552450Y596900D02*
Y666750D01*
X571500Y685800D01*
X224790Y457200D02*
X250240Y482650D01*
X318820D01*
X231140Y457200D02*
X248653Y474713D01*
X313957D01*
X303530Y462088D02*
Y469265D01*
X301182Y459740D02*
X303530Y462088D01*
X285750Y459740D02*
X301182D01*
X280670Y435728D02*
Y454660D01*
X285750Y459740D01*
X281940Y464820D02*
X292100D01*
X275590Y403860D02*
Y458470D01*
X281940Y464820D01*
X375838Y394888D02*
X383377Y387350D01*
X467360D01*
X251578Y379848D02*
X275590Y403860D01*
X242318Y379848D02*
X251578D01*
X420118Y392548D02*
Y471422D01*
D74*
X107950Y603143D02*
Y687070D01*
X83817Y711203D02*
X107950Y687070D01*
X81280Y713740D02*
X83817Y711203D01*
X63500Y713740D02*
X81280D01*
D76*
X110300Y865180D02*
D03*
X245300D02*
D03*
D77*
X141800Y805180D02*
D03*
X213800D02*
D03*
D78*
X116840Y261555D02*
D03*
X142240D02*
D03*
X167640D02*
D03*
X193040D02*
D03*
X218440D02*
D03*
X243840D02*
D03*
X269240D02*
D03*
X294640D02*
D03*
Y134555D02*
D03*
X269240D02*
D03*
X243840D02*
D03*
X218440D02*
D03*
X193040D02*
D03*
X167640D02*
D03*
X142240D02*
D03*
D79*
X116840D02*
D03*
D80*
X268605Y302895D02*
D03*
X288290Y290830D02*
D03*
X342900Y266700D02*
D03*
X321310Y279400D02*
D03*
D81*
X156210Y316230D02*
D03*
D82*
X181610D02*
D03*
X207010D02*
D03*
X232410D02*
D03*
D83*
X63500Y214555D02*
D03*
Y356688D02*
D03*
Y498822D02*
D03*
Y640955D02*
D03*
Y713740D02*
D03*
Y788510D02*
D03*
X586740Y703900D02*
D03*
Y560955D02*
D03*
Y418821D02*
D03*
Y134555D02*
D03*
Y276688D02*
D03*
D84*
X63500Y194555D02*
D03*
Y174555D02*
D03*
Y154555D02*
D03*
Y134555D02*
D03*
Y336688D02*
D03*
Y316688D02*
D03*
Y296688D02*
D03*
Y276688D02*
D03*
Y478822D02*
D03*
Y458822D02*
D03*
Y438822D02*
D03*
Y418822D02*
D03*
Y560955D02*
D03*
Y580955D02*
D03*
Y600955D02*
D03*
Y620955D02*
D03*
Y693740D02*
D03*
Y768510D02*
D03*
X586740Y723900D02*
D03*
Y640955D02*
D03*
Y620955D02*
D03*
Y600955D02*
D03*
Y580955D02*
D03*
Y498821D02*
D03*
Y478821D02*
D03*
Y458821D02*
D03*
Y438821D02*
D03*
Y154555D02*
D03*
Y174555D02*
D03*
Y194555D02*
D03*
Y214555D02*
D03*
Y356688D02*
D03*
Y336688D02*
D03*
Y316688D02*
D03*
Y296688D02*
D03*
D85*
X509560Y880110D02*
D03*
X577560D02*
D03*
D86*
X35000Y858520D02*
D03*
X615000D02*
D03*
D87*
X566300Y80010D02*
D03*
Y54610D02*
D03*
X540900Y80010D02*
D03*
Y54610D02*
D03*
X515500Y80010D02*
D03*
Y54610D02*
D03*
X490100Y80010D02*
D03*
Y54610D02*
D03*
X464700Y80010D02*
D03*
Y54610D02*
D03*
X439300Y80010D02*
D03*
Y54610D02*
D03*
X413900Y80010D02*
D03*
Y54610D02*
D03*
X388500Y80010D02*
D03*
Y54610D02*
D03*
X363100Y80010D02*
D03*
Y54610D02*
D03*
X337700Y80010D02*
D03*
Y54610D02*
D03*
X312300Y80010D02*
D03*
Y54610D02*
D03*
X286900Y80010D02*
D03*
Y54610D02*
D03*
X261500Y80010D02*
D03*
Y54610D02*
D03*
X236100Y80010D02*
D03*
Y54610D02*
D03*
X210700Y80010D02*
D03*
Y54610D02*
D03*
X185300Y80010D02*
D03*
Y54610D02*
D03*
X159900Y80010D02*
D03*
Y54610D02*
D03*
X134500Y80010D02*
D03*
Y54610D02*
D03*
X109100Y80010D02*
D03*
Y54610D02*
D03*
X83700Y80010D02*
D03*
D88*
Y54610D02*
D03*
D89*
X242318Y379848D02*
D03*
X543560Y316230D02*
D03*
X537210Y480060D02*
D03*
X525780Y359410D02*
D03*
X426720Y882650D02*
D03*
X434340D02*
D03*
X419100D02*
D03*
X411480D02*
D03*
X403860Y863600D02*
D03*
X411480D02*
D03*
X419100D02*
D03*
X434340D02*
D03*
X426720D02*
D03*
Y844550D02*
D03*
X434340D02*
D03*
X419100D02*
D03*
X411480D02*
D03*
X403860D02*
D03*
X441960D02*
D03*
X449580D02*
D03*
X441960Y863600D02*
D03*
X449580D02*
D03*
Y857250D02*
D03*
X441960D02*
D03*
X449580Y850900D02*
D03*
X441960D02*
D03*
Y869950D02*
D03*
X449580D02*
D03*
X441960Y876300D02*
D03*
X449580D02*
D03*
X403860Y882650D02*
D03*
X449580D02*
D03*
X441960D02*
D03*
X403860Y889000D02*
D03*
X411480D02*
D03*
X419100D02*
D03*
X434340D02*
D03*
X426720D02*
D03*
X449580D02*
D03*
X441960D02*
D03*
X576580Y833120D02*
D03*
X553720D02*
D03*
X568960D02*
D03*
X561340D02*
D03*
X571500Y772160D02*
D03*
Y765810D02*
D03*
X548640Y772160D02*
D03*
Y765810D02*
D03*
X556260D02*
D03*
Y772160D02*
D03*
X541020D02*
D03*
Y765810D02*
D03*
X533400D02*
D03*
Y772160D02*
D03*
X563880D02*
D03*
Y765810D02*
D03*
X530860Y814070D02*
D03*
Y807720D02*
D03*
Y801370D02*
D03*
X538480D02*
D03*
Y807720D02*
D03*
Y814070D02*
D03*
X561340Y826770D02*
D03*
Y820420D02*
D03*
Y814070D02*
D03*
Y807720D02*
D03*
Y801370D02*
D03*
X568960D02*
D03*
Y807720D02*
D03*
Y814070D02*
D03*
Y820420D02*
D03*
Y826770D02*
D03*
X553720D02*
D03*
Y820420D02*
D03*
Y814070D02*
D03*
Y807720D02*
D03*
Y801370D02*
D03*
X546100D02*
D03*
Y807720D02*
D03*
Y814070D02*
D03*
Y820420D02*
D03*
X576580Y826770D02*
D03*
Y820420D02*
D03*
Y814070D02*
D03*
Y807720D02*
D03*
Y801370D02*
D03*
X525780Y765810D02*
D03*
Y772160D02*
D03*
Y778510D02*
D03*
Y784860D02*
D03*
Y791210D02*
D03*
X495300D02*
D03*
Y784860D02*
D03*
Y778510D02*
D03*
Y772160D02*
D03*
Y765810D02*
D03*
X502920D02*
D03*
Y772160D02*
D03*
Y778510D02*
D03*
Y784860D02*
D03*
Y791210D02*
D03*
X518160D02*
D03*
Y784860D02*
D03*
Y778510D02*
D03*
Y772160D02*
D03*
Y765810D02*
D03*
X510540D02*
D03*
Y772160D02*
D03*
Y778510D02*
D03*
Y784860D02*
D03*
Y791210D02*
D03*
X464820D02*
D03*
Y784860D02*
D03*
Y778510D02*
D03*
Y772160D02*
D03*
Y765810D02*
D03*
X472440D02*
D03*
Y772160D02*
D03*
Y778510D02*
D03*
Y784860D02*
D03*
Y791210D02*
D03*
X487680D02*
D03*
Y784860D02*
D03*
Y778510D02*
D03*
Y772160D02*
D03*
Y765810D02*
D03*
X480060D02*
D03*
Y772160D02*
D03*
Y778510D02*
D03*
Y784860D02*
D03*
Y791210D02*
D03*
X449580D02*
D03*
Y784860D02*
D03*
Y778510D02*
D03*
Y772160D02*
D03*
Y765810D02*
D03*
X457200D02*
D03*
Y772160D02*
D03*
Y778510D02*
D03*
Y784860D02*
D03*
Y791210D02*
D03*
X441960D02*
D03*
Y784860D02*
D03*
Y778510D02*
D03*
Y772160D02*
D03*
Y765810D02*
D03*
X434340D02*
D03*
Y772160D02*
D03*
Y778510D02*
D03*
Y784860D02*
D03*
Y791210D02*
D03*
X426720Y765810D02*
D03*
Y772160D02*
D03*
Y778510D02*
D03*
Y784860D02*
D03*
Y791210D02*
D03*
X215900Y215900D02*
D03*
X487680Y193040D02*
D03*
X480060D02*
D03*
X487680Y157480D02*
D03*
X480060Y200660D02*
D03*
X487680D02*
D03*
X530860Y584200D02*
D03*
X538480D02*
D03*
Y576580D02*
D03*
X530860D02*
D03*
X515620D02*
D03*
X523240D02*
D03*
Y584200D02*
D03*
X515620D02*
D03*
X508000D02*
D03*
X523240Y502920D02*
D03*
X515620D02*
D03*
X485140Y515620D02*
D03*
X472440D02*
D03*
X297180Y317500D02*
D03*
X289560D02*
D03*
X281940D02*
D03*
X297180Y309880D02*
D03*
X289560D02*
D03*
X281940D02*
D03*
X373380Y457200D02*
D03*
X381000D02*
D03*
X388620D02*
D03*
X373380Y464820D02*
D03*
X381000D02*
D03*
X388620D02*
D03*
X424180Y485140D02*
D03*
X416560D02*
D03*
X408940D02*
D03*
X401320D02*
D03*
X393700D02*
D03*
X386080D02*
D03*
X368300Y279400D02*
D03*
X378460D02*
D03*
Y289560D02*
D03*
X368300D02*
D03*
Y299720D02*
D03*
X378460D02*
D03*
X368300Y634492D02*
D03*
Y641096D02*
D03*
Y647700D02*
D03*
X377444D02*
D03*
Y641096D02*
D03*
Y634492D02*
D03*
X471932Y183134D02*
D03*
Y176784D02*
D03*
X464312Y183134D02*
D03*
X471932Y170434D02*
D03*
X464312Y176784D02*
D03*
Y170434D02*
D03*
X456692D02*
D03*
Y176784D02*
D03*
Y183134D02*
D03*
X449072Y170434D02*
D03*
Y176784D02*
D03*
X424100Y240270D02*
D03*
X265178Y329048D02*
D03*
X501650Y565150D02*
D03*
X495300Y527050D02*
D03*
X407670Y647700D02*
D03*
X431800Y681228D02*
D03*
X422656D02*
D03*
X431800Y690372D02*
D03*
X422656D02*
D03*
X248920Y770128D02*
D03*
X285496Y797560D02*
D03*
X230632Y760984D02*
D03*
X331216Y715264D02*
D03*
X294640Y797560D02*
D03*
X157480Y879856D02*
D03*
X111760Y797560D02*
D03*
X340360Y806704D02*
D03*
X303784D02*
D03*
X340360Y751840D02*
D03*
X175768Y760984D02*
D03*
X111760Y788416D02*
D03*
X166624Y824992D02*
D03*
X157480Y834136D02*
D03*
X303784Y788416D02*
D03*
X349504Y770128D02*
D03*
X194056Y760984D02*
D03*
X157480Y843280D02*
D03*
X331216Y806704D02*
D03*
X422656Y706120D02*
D03*
X111760Y834136D02*
D03*
X130048Y751840D02*
D03*
X349504Y788416D02*
D03*
X166624Y843280D02*
D03*
X139192Y870712D02*
D03*
X312928Y806704D02*
D03*
X331216Y751840D02*
D03*
X203200Y760984D02*
D03*
X111760Y779272D02*
D03*
X166624Y788416D02*
D03*
X358648Y806704D02*
D03*
X431800Y715264D02*
D03*
X203200Y770128D02*
D03*
X130048Y861568D02*
D03*
X102616Y815848D02*
D03*
X285496Y742696D02*
D03*
X120904Y879856D02*
D03*
X413512Y696976D02*
D03*
X148336Y760984D02*
D03*
X120904D02*
D03*
X340360Y715264D02*
D03*
X166624Y779272D02*
D03*
X358648Y797560D02*
D03*
X139192Y861568D02*
D03*
X157480D02*
D03*
X166624Y760984D02*
D03*
X148336Y779272D02*
D03*
X166624Y806704D02*
D03*
X148336Y770128D02*
D03*
X276352Y733552D02*
D03*
X285496Y751840D02*
D03*
X130048Y834136D02*
D03*
X157480Y770128D02*
D03*
X331216Y788416D02*
D03*
X139192Y779272D02*
D03*
X404368Y696976D02*
D03*
X157480Y760984D02*
D03*
X102616Y806704D02*
D03*
X349504Y760984D02*
D03*
X285496Y733552D02*
D03*
X221488Y770128D02*
D03*
X358648D02*
D03*
X422656Y715264D02*
D03*
X130048Y843280D02*
D03*
X120904Y834136D02*
D03*
X102616Y843280D02*
D03*
X340360Y733552D02*
D03*
X331216Y724408D02*
D03*
X130048Y870712D02*
D03*
X175768Y770128D02*
D03*
X285496Y788416D02*
D03*
X148336Y834136D02*
D03*
X276352Y724408D02*
D03*
X111760Y824992D02*
D03*
X258064Y760984D02*
D03*
X349504Y742696D02*
D03*
X120904Y788416D02*
D03*
X303784Y770128D02*
D03*
X130048Y779272D02*
D03*
X111760Y806704D02*
D03*
X358648Y760984D02*
D03*
X130048Y770128D02*
D03*
X120904Y824992D02*
D03*
X340360Y779272D02*
D03*
X312928Y797560D02*
D03*
Y715264D02*
D03*
X166624Y770128D02*
D03*
X276352Y742696D02*
D03*
X139192Y852424D02*
D03*
X340360Y742696D02*
D03*
X267208Y760984D02*
D03*
X422656Y696976D02*
D03*
X139192Y843280D02*
D03*
X294640Y779272D02*
D03*
X349504Y797560D02*
D03*
X166624Y834136D02*
D03*
X212344Y760984D02*
D03*
X322072Y797560D02*
D03*
X358648Y715264D02*
D03*
X404368Y706120D02*
D03*
X267208Y742696D02*
D03*
X212344Y770128D02*
D03*
X157480Y824992D02*
D03*
X111760Y815848D02*
D03*
X367792Y751840D02*
D03*
X413512Y706120D02*
D03*
X340360Y788416D02*
D03*
X349504Y724408D02*
D03*
X230632Y770128D02*
D03*
X303784Y797560D02*
D03*
X184912Y760984D02*
D03*
X166624Y797560D02*
D03*
X358648Y724408D02*
D03*
X102616Y779272D02*
D03*
X285496D02*
D03*
X157480Y852424D02*
D03*
X331216Y770128D02*
D03*
X285496Y724408D02*
D03*
X312928Y788416D02*
D03*
X294640Y806704D02*
D03*
X322072Y770128D02*
D03*
X148336Y861568D02*
D03*
X349504Y733552D02*
D03*
X120904Y779272D02*
D03*
X267208Y770128D02*
D03*
X358648Y733552D02*
D03*
X148336Y870712D02*
D03*
X166624Y852424D02*
D03*
X349504Y806704D02*
D03*
X148336Y843280D02*
D03*
X239776Y760984D02*
D03*
X367792Y806704D02*
D03*
X267208Y751840D02*
D03*
X130048Y852424D02*
D03*
X322072Y788416D02*
D03*
X294640D02*
D03*
X102616Y824992D02*
D03*
X340360Y724408D02*
D03*
X312928Y779272D02*
D03*
X331216Y742696D02*
D03*
X148336Y879856D02*
D03*
X358648Y788416D02*
D03*
X157480Y870712D02*
D03*
X349504Y751840D02*
D03*
X267208Y779272D02*
D03*
X139192Y879856D02*
D03*
X166624Y870712D02*
D03*
X367792Y797560D02*
D03*
X340360Y760984D02*
D03*
X285496Y715264D02*
D03*
X120904Y770128D02*
D03*
X139192D02*
D03*
X367792Y715264D02*
D03*
X331216Y733552D02*
D03*
X130048Y760984D02*
D03*
X358648Y751840D02*
D03*
X322072Y806704D02*
D03*
X166624Y815848D02*
D03*
X340360Y770128D02*
D03*
X431800Y696976D02*
D03*
X322072Y779272D02*
D03*
X276352Y788416D02*
D03*
X312928Y770128D02*
D03*
X184912D02*
D03*
X130048Y879856D02*
D03*
X102616Y797560D02*
D03*
X139192Y760984D02*
D03*
X276352Y770128D02*
D03*
X358648Y779272D02*
D03*
X285496Y760984D02*
D03*
X358648Y742696D02*
D03*
X294640Y770128D02*
D03*
X120904Y843280D02*
D03*
X349504Y779272D02*
D03*
X139192Y834136D02*
D03*
X303784Y715264D02*
D03*
X111760Y770128D02*
D03*
X431800Y706120D02*
D03*
X331216Y797560D02*
D03*
X102616Y834136D02*
D03*
X331216Y760984D02*
D03*
X258064Y770128D02*
D03*
X248920Y760984D02*
D03*
X340360Y797560D02*
D03*
X303784Y779272D02*
D03*
X276352Y751840D02*
D03*
X166624Y879856D02*
D03*
X194056Y770128D02*
D03*
X148336Y852424D02*
D03*
X102616Y788416D02*
D03*
X349504Y715264D02*
D03*
X239776Y770128D02*
D03*
X294640Y715264D02*
D03*
X285496Y770128D02*
D03*
X276352Y760984D02*
D03*
X331216Y779272D02*
D03*
X276352D02*
D03*
X157480D02*
D03*
X111760Y843280D02*
D03*
X367792Y724408D02*
D03*
X221488Y760984D02*
D03*
X322072Y715264D02*
D03*
X166624Y861568D02*
D03*
X378460Y618490D02*
D03*
X334010Y320410D02*
D03*
X323598Y440438D02*
D03*
X523240Y875030D02*
D03*
X441096Y478790D02*
D03*
X448310Y492760D02*
D03*
X426244Y456347D02*
D03*
X453866D02*
D03*
X533989Y593090D02*
D03*
X532130Y497840D02*
D03*
X434100Y266126D02*
D03*
X419100Y246060D02*
D03*
X429100D02*
D03*
X409100D02*
D03*
X419100Y266285D02*
D03*
X91440Y381391D02*
D03*
X455930Y516890D02*
D03*
X394347Y372228D02*
D03*
Y359528D02*
D03*
X374398Y337039D02*
D03*
X359158Y321799D02*
D03*
X288038Y337039D02*
D03*
X270628Y407788D02*
D03*
X506730Y397510D02*
D03*
X483362Y606552D02*
D03*
X107950Y603143D02*
D03*
X429180Y326150D02*
D03*
X424100Y279974D02*
D03*
X414100D02*
D03*
X404100Y266126D02*
D03*
X399100Y279974D02*
D03*
X434180Y320360D02*
D03*
X424180D02*
D03*
X419180Y326150D02*
D03*
X414180Y320360D02*
D03*
X409180Y326150D02*
D03*
X404100Y240270D02*
D03*
X399100Y246060D02*
D03*
X337820Y458470D02*
D03*
X328930D02*
D03*
X320040D02*
D03*
X111760Y312928D02*
D03*
Y303784D02*
D03*
Y294640D02*
D03*
Y285496D02*
D03*
X102616Y312928D02*
D03*
Y303784D02*
D03*
Y294640D02*
D03*
Y285496D02*
D03*
X93472Y312928D02*
D03*
Y303784D02*
D03*
Y294640D02*
D03*
Y285496D02*
D03*
X84328Y303784D02*
D03*
Y294640D02*
D03*
Y285496D02*
D03*
X325120Y538480D02*
D03*
X322580Y544830D02*
D03*
X318820Y589230D02*
D03*
X388620Y572770D02*
D03*
X552450Y596900D02*
D03*
X441960D02*
D03*
X483362Y625348D02*
D03*
X349250Y575310D02*
D03*
X350520Y541020D02*
D03*
X112522Y242062D02*
D03*
X372110Y502160D02*
D03*
X506730Y480060D02*
D03*
X406400Y457200D02*
D03*
X289528Y438300D02*
D03*
X467360Y387350D02*
D03*
X375838Y394888D02*
D03*
X313957Y474713D02*
D03*
X312320Y489050D02*
D03*
X303530Y469265D02*
D03*
X318820Y482650D02*
D03*
X292100Y464820D02*
D03*
X420118Y392548D02*
D03*
X326178Y291619D02*
D03*
X304800Y327660D02*
D03*
X272442Y326152D02*
D03*
X280670Y435728D02*
D03*
X619760Y787400D02*
D03*
X422910Y817880D02*
D03*
D90*
X351808Y382388D02*
D03*
X342253D02*
D03*
X315553D02*
D03*
X351808Y368790D02*
D03*
X315553D02*
D03*
X328678Y405581D02*
D03*
X342253Y359146D02*
D03*
X328678D02*
D03*
X342253Y395312D02*
D03*
X328678Y368790D02*
D03*
Y382388D02*
D03*
X342253Y368790D02*
D03*
X328678Y395312D02*
D03*
X342253Y405581D02*
D03*
X315553Y359146D02*
D03*
X351808Y395312D02*
D03*
X315553D02*
D03*
Y405581D02*
D03*
X305909Y368790D02*
D03*
Y382388D02*
D03*
Y395312D02*
D03*
M02*
