G04*
G04 #@! TF.GenerationSoftware,Altium Limited,Altium Designer,21.0.9 (235)*
G04*
G04 Layer_Color=16711935*
%FSLAX44Y44*%
%MOMM*%
G71*
G04*
G04 #@! TF.SameCoordinates,58F94E15-CAE4-4791-8A53-09B8A48F05B3*
G04*
G04*
G04 #@! TF.FilePolarity,Negative*
G04*
G01*
G75*
%ADD47R,1.2192X1.6002*%
%ADD52R,6.6032X6.3415*%
%ADD53R,2.9432X1.1832*%
G04:AMPARAMS|DCode=58|XSize=3.2032mm|YSize=1.8032mm|CornerRadius=0.9016mm|HoleSize=0mm|Usage=FLASHONLY|Rotation=90.000|XOffset=0mm|YOffset=0mm|HoleType=Round|Shape=RoundedRectangle|*
%AMROUNDEDRECTD58*
21,1,3.2032,0.0000,0,0,90.0*
21,1,1.4000,1.8032,0,0,90.0*
1,1,1.8032,0.0000,0.7000*
1,1,1.8032,0.0000,-0.7000*
1,1,1.8032,0.0000,-0.7000*
1,1,1.8032,0.0000,0.7000*
%
%ADD58ROUNDEDRECTD58*%
%ADD59C,4.2032*%
%ADD60C,1.7332*%
%ADD61R,1.7332X1.7332*%
%ADD62C,1.3842*%
%ADD63R,1.5500X1.5500*%
%ADD64C,1.5500*%
%ADD65R,1.5112X1.5112*%
%ADD66C,1.5112*%
%ADD67C,1.2032*%
%ADD68C,1.7272*%
%ADD69C,1.5732*%
%ADD70R,1.5732X1.5732*%
D47*
X112522Y228600D02*
D03*
X131318D02*
D03*
X173736Y223455D02*
D03*
X154940D02*
D03*
D52*
X490982Y829310D02*
D03*
D53*
X422910Y852170D02*
D03*
Y806450D02*
D03*
D58*
X110300Y865180D02*
D03*
X245300D02*
D03*
D59*
X141800Y805180D02*
D03*
X213800D02*
D03*
D60*
X116840Y261555D02*
D03*
X142240D02*
D03*
X167640D02*
D03*
X193040D02*
D03*
X218440D02*
D03*
X243840D02*
D03*
X269240D02*
D03*
X294640D02*
D03*
Y134555D02*
D03*
X269240D02*
D03*
X243840D02*
D03*
X218440D02*
D03*
X193040D02*
D03*
X167640D02*
D03*
X142240D02*
D03*
D61*
X116840D02*
D03*
D62*
X268605Y302895D02*
D03*
X288290Y290830D02*
D03*
X342900Y266700D02*
D03*
X321310Y279400D02*
D03*
D63*
X156210Y316230D02*
D03*
D64*
X181610D02*
D03*
X207010D02*
D03*
X232410D02*
D03*
D65*
X63500Y214555D02*
D03*
Y356688D02*
D03*
Y498822D02*
D03*
Y640955D02*
D03*
Y713740D02*
D03*
Y788510D02*
D03*
X586740Y703900D02*
D03*
Y560955D02*
D03*
Y418821D02*
D03*
Y134555D02*
D03*
Y276688D02*
D03*
D66*
X63500Y194555D02*
D03*
Y174555D02*
D03*
Y154555D02*
D03*
Y134555D02*
D03*
Y336688D02*
D03*
Y316688D02*
D03*
Y296688D02*
D03*
Y276688D02*
D03*
Y478822D02*
D03*
Y458822D02*
D03*
Y438822D02*
D03*
Y418822D02*
D03*
Y560955D02*
D03*
Y580955D02*
D03*
Y600955D02*
D03*
Y620955D02*
D03*
Y693740D02*
D03*
Y768510D02*
D03*
X586740Y723900D02*
D03*
Y640955D02*
D03*
Y620955D02*
D03*
Y600955D02*
D03*
Y580955D02*
D03*
Y498821D02*
D03*
Y478821D02*
D03*
Y458821D02*
D03*
Y438821D02*
D03*
Y154555D02*
D03*
Y174555D02*
D03*
Y194555D02*
D03*
Y214555D02*
D03*
Y356688D02*
D03*
Y336688D02*
D03*
Y316688D02*
D03*
Y296688D02*
D03*
D67*
X509560Y880110D02*
D03*
X577560D02*
D03*
D68*
X35000Y858520D02*
D03*
X615000D02*
D03*
D69*
X566300Y80010D02*
D03*
Y54610D02*
D03*
X540900Y80010D02*
D03*
Y54610D02*
D03*
X515500Y80010D02*
D03*
Y54610D02*
D03*
X490100Y80010D02*
D03*
Y54610D02*
D03*
X464700Y80010D02*
D03*
Y54610D02*
D03*
X439300Y80010D02*
D03*
Y54610D02*
D03*
X413900Y80010D02*
D03*
Y54610D02*
D03*
X388500Y80010D02*
D03*
Y54610D02*
D03*
X363100Y80010D02*
D03*
Y54610D02*
D03*
X337700Y80010D02*
D03*
Y54610D02*
D03*
X312300Y80010D02*
D03*
Y54610D02*
D03*
X286900Y80010D02*
D03*
Y54610D02*
D03*
X261500Y80010D02*
D03*
Y54610D02*
D03*
X236100Y80010D02*
D03*
Y54610D02*
D03*
X210700Y80010D02*
D03*
Y54610D02*
D03*
X185300Y80010D02*
D03*
Y54610D02*
D03*
X159900Y80010D02*
D03*
Y54610D02*
D03*
X134500Y80010D02*
D03*
Y54610D02*
D03*
X109100Y80010D02*
D03*
Y54610D02*
D03*
X83700Y80010D02*
D03*
D70*
Y54610D02*
D03*
M02*
