G04*
G04 #@! TF.GenerationSoftware,Altium Limited,Altium Designer,21.0.9 (235)*
G04*
G04 Layer_Color=16711935*
%FSLAX44Y44*%
%MOMM*%
G71*
G04*
G04 #@! TF.SameCoordinates,58F94E15-CAE4-4791-8A53-09B8A48F05B3*
G04*
G04*
G04 #@! TF.FilePolarity,Positive*
G04*
G01*
G75*
%ADD10C,0.2000*%
%ADD13C,0.1270*%
%ADD14C,0.2032*%
%ADD93C,0.0000*%
%ADD94C,0.1000*%
%ADD95C,0.0254*%
G36*
X472090Y195740D02*
X460090D01*
Y200740D01*
X472090D01*
Y195740D01*
D02*
G37*
G36*
X360330D02*
X348330D01*
Y200740D01*
X360330D01*
Y195740D01*
D02*
G37*
G36*
X472090Y148510D02*
X460090D01*
Y153510D01*
X472090D01*
Y148510D01*
D02*
G37*
G36*
X360330D02*
X348330D01*
Y153510D01*
X360330D01*
Y148510D01*
D02*
G37*
G36*
X472090Y133510D02*
X460090D01*
Y138510D01*
X472090D01*
Y133510D01*
D02*
G37*
G36*
X360330D02*
X348330D01*
Y138510D01*
X360330D01*
Y133510D01*
D02*
G37*
G36*
X50450Y44370D02*
X38450D01*
Y49370D01*
X50450D01*
Y44370D01*
D02*
G37*
G36*
Y29370D02*
X38450D01*
Y34370D01*
X50450D01*
Y29370D01*
D02*
G37*
G36*
X348330Y210740D02*
Y215740D01*
X360330D01*
Y210740D01*
X348330D01*
D02*
G37*
G36*
X460090D02*
Y215740D01*
X472090D01*
Y210740D01*
X460090D01*
D02*
G37*
G36*
X581820Y793400D02*
X586820D01*
Y781400D01*
X581820D01*
Y793400D01*
D02*
G37*
G36*
X596820D02*
X601820D01*
Y781400D01*
X596820D01*
Y793400D01*
D02*
G37*
G36*
X515560Y862080D02*
X521523D01*
Y843110D01*
X515560D01*
Y862080D01*
D02*
G37*
G36*
X540560Y862107D02*
X546561D01*
Y843110D01*
X540560D01*
Y862107D01*
D02*
G37*
G36*
X571569Y862103D02*
X571571D01*
Y843110D01*
X565560D01*
Y862104D01*
X571569D01*
Y862103D01*
D02*
G37*
D10*
X112240Y114055D02*
G03*
X112240Y114055I-1000J0D01*
G01*
X459710Y569150D02*
G03*
X459710Y569150I-1000J0D01*
G01*
X404820Y806310D02*
G03*
X404820Y806310I-1000J0D01*
G01*
X371678Y354388D02*
G03*
X371678Y354388I-1000J0D01*
G01*
X138010Y316230D02*
G03*
X138010Y316230I-1000J0D01*
G01*
X64500Y243555D02*
G03*
X64500Y243555I-1000J0D01*
G01*
Y385688D02*
G03*
X64500Y385688I-1000J0D01*
G01*
Y527822D02*
G03*
X64500Y527822I-1000J0D01*
G01*
Y669955D02*
G03*
X64500Y669955I-1000J0D01*
G01*
X83500Y713740D02*
G03*
X83500Y713740I-1000J0D01*
G01*
Y788510D02*
G03*
X83500Y788510I-1000J0D01*
G01*
X568740Y703900D02*
G03*
X568740Y703900I-1000J0D01*
G01*
X587740Y531955D02*
G03*
X587740Y531955I-1000J0D01*
G01*
Y389822D02*
G03*
X587740Y389822I-1000J0D01*
G01*
Y105555D02*
G03*
X587740Y105555I-1000J0D01*
G01*
Y247688D02*
G03*
X587740Y247688I-1000J0D01*
G01*
X369420Y575260D02*
G03*
X369420Y575260I-1000J0D01*
G01*
X443000Y829170D02*
G03*
X443000Y829170I-1000J0D01*
G01*
X452360Y414020D02*
G03*
X452360Y414020I-1000J0D01*
G01*
Y331470D02*
G03*
X452360Y331470I-1000J0D01*
G01*
X62950Y54610D02*
G03*
X62950Y54610I-1000J0D01*
G01*
X460090Y215740D02*
X472090D01*
X460090Y195740D02*
Y215740D01*
Y195740D02*
X472090D01*
Y215740D01*
X460090Y153510D02*
X472090D01*
X460090Y133510D02*
Y153510D01*
Y133510D02*
X472090D01*
Y153510D01*
X348330D02*
X360330D01*
X348330Y133510D02*
Y153510D01*
Y133510D02*
X360330D01*
Y153510D01*
X348330Y215740D02*
X360330D01*
X348330Y195740D02*
Y215740D01*
Y195740D02*
X360330D01*
Y215740D01*
X38450Y29370D02*
X50450D01*
Y49370D01*
X38450D02*
X50450D01*
X38450Y29370D02*
Y49370D01*
X601820Y781400D02*
Y793400D01*
X581820D02*
X601820D01*
X581820Y781400D02*
Y793400D01*
Y781400D02*
X601820D01*
D13*
X104140Y121855D02*
X307340D01*
Y274255D01*
X104140D02*
X307340D01*
X104140Y121855D02*
Y274255D01*
X479610Y570625D02*
X518610D01*
X479610Y521575D02*
X518610D01*
X479610D02*
Y570625D01*
X518610Y521575D02*
Y570625D01*
X443230Y863600D02*
X503070D01*
X502920Y795020D02*
Y863600D01*
X443230Y795020D02*
X503070D01*
X443230D02*
Y863600D01*
X363678Y347388D02*
Y417388D01*
X293678Y347388D02*
X363678D01*
X293678D02*
Y417388D01*
X363678D01*
X143510Y303530D02*
Y328930D01*
X245110D01*
Y303530D02*
Y328930D01*
X143510Y303530D02*
X245110D01*
X77000Y115055D02*
Y234055D01*
X1000Y115055D02*
X77000D01*
X1000D02*
Y234055D01*
X77000D01*
Y257188D02*
Y376188D01*
X1000Y257188D02*
X77000D01*
X1000D02*
Y376188D01*
X77000D01*
Y399322D02*
Y518322D01*
X1000Y399322D02*
X77000D01*
X1000D02*
Y518322D01*
X77000D01*
X1000Y660455D02*
X77000D01*
X1000Y541455D02*
Y660455D01*
Y541455D02*
X77000D01*
Y660455D01*
X1000Y733240D02*
X77000D01*
Y674240D02*
Y733240D01*
X1000Y674240D02*
X77000D01*
X1000D02*
Y733240D01*
Y749010D02*
Y808010D01*
Y749010D02*
X77000D01*
Y808010D01*
X1000D02*
X77000D01*
X649240Y684400D02*
Y743400D01*
X573240D02*
X649240D01*
X573240Y684400D02*
Y743400D01*
Y684400D02*
X649240D01*
X573240Y541455D02*
X649240D01*
Y660455D01*
X573240D02*
X649240D01*
X573240Y541455D02*
Y660455D01*
Y399322D02*
X649240D01*
Y518321D01*
X573240D02*
X649240D01*
X573240Y399322D02*
Y518321D01*
Y115055D02*
Y234055D01*
X649240D01*
Y115055D02*
Y234055D01*
X573240Y115055D02*
X649240D01*
X573240Y257188D02*
X649240D01*
Y376188D01*
X573240D02*
X649240D01*
X573240Y257188D02*
Y376188D01*
X367570Y508860D02*
Y552860D01*
X289570Y508860D02*
Y552860D01*
X367570D01*
X289570Y508860D02*
X367570D01*
X575560Y863110D02*
Y866110D01*
X511560Y863110D02*
Y866110D01*
Y895110D02*
Y898110D01*
X498560Y895110D02*
X511560D01*
X498560Y866110D02*
X511560D01*
X575560D02*
X588560D01*
X575560Y895110D02*
Y898110D01*
Y895110D02*
X588560D01*
X551560Y898110D02*
Y920110D01*
X566560D01*
Y898110D02*
Y920110D01*
X498560Y862110D02*
X588560D01*
X342750Y886460D02*
X402590D01*
X342900Y817880D02*
Y886460D01*
X342750Y817880D02*
X402590D01*
Y886460D01*
X273260Y857640D02*
X305860D01*
Y874640D01*
X273260D02*
X305860D01*
X273260Y857640D02*
Y874640D01*
X320740Y615250D02*
Y718250D01*
X217740D02*
X320740D01*
X217740Y615250D02*
Y718250D01*
Y615250D02*
X320740D01*
X457360Y414020D02*
X477360D01*
Y457200D01*
X457360D02*
X477360D01*
X457360Y414020D02*
Y457200D01*
Y331470D02*
X477360D01*
Y374650D01*
X457360D02*
X477360D01*
X457360Y331470D02*
Y374650D01*
D14*
X431584Y267843D02*
X426506Y262765D01*
Y267843D02*
X431584Y262765D01*
X429045Y267843D02*
Y262765D01*
X426506Y265304D02*
X431584D01*
X431664Y308229D02*
X426586Y303151D01*
Y308229D02*
X431664Y303151D01*
X429125Y308229D02*
Y303151D01*
X426586Y305690D02*
X431664D01*
D93*
X400116Y255016D02*
G03*
X398084Y255016I-1016J0D01*
G01*
X405116D02*
G03*
X403084Y255016I-1016J0D01*
G01*
X410116D02*
G03*
X408084Y255016I-1016J0D01*
G01*
X415116D02*
G03*
X413084Y255016I-1016J0D01*
G01*
X420116D02*
G03*
X418084Y255016I-1016J0D01*
G01*
X425116D02*
G03*
X423084Y255016I-1016J0D01*
G01*
X430116D02*
G03*
X428084Y255016I-1016J0D01*
G01*
X435116D02*
G03*
X433084Y255016I-1016J0D01*
G01*
X398084Y271018D02*
G03*
X400116Y271018I1016J0D01*
G01*
X403084D02*
G03*
X405116Y271018I1016J0D01*
G01*
X408084D02*
G03*
X410116Y271018I1016J0D01*
G01*
X413084D02*
G03*
X415116Y271018I1016J0D01*
G01*
X418084D02*
G03*
X420116Y271018I1016J0D01*
G01*
X423084D02*
G03*
X425116Y271018I1016J0D01*
G01*
X428084D02*
G03*
X430116Y271018I1016J0D01*
G01*
X433084D02*
G03*
X435116Y271018I1016J0D01*
G01*
X433164Y311404D02*
G03*
X435196Y311404I1016J0D01*
G01*
X428164D02*
G03*
X430196Y311404I1016J0D01*
G01*
X423164D02*
G03*
X425196Y311404I1016J0D01*
G01*
X418164D02*
G03*
X420196Y311404I1016J0D01*
G01*
X413164D02*
G03*
X415196Y311404I1016J0D01*
G01*
X408164D02*
G03*
X410196Y311404I1016J0D01*
G01*
X403164D02*
G03*
X405196Y311404I1016J0D01*
G01*
X398164D02*
G03*
X400196Y311404I1016J0D01*
G01*
X435196Y295402D02*
G03*
X433164Y295402I-1016J0D01*
G01*
X430196D02*
G03*
X428164Y295402I-1016J0D01*
G01*
X425196D02*
G03*
X423164Y295402I-1016J0D01*
G01*
X420196D02*
G03*
X418164Y295402I-1016J0D01*
G01*
X415196D02*
G03*
X413164Y295402I-1016J0D01*
G01*
X410196D02*
G03*
X408164Y295402I-1016J0D01*
G01*
X405196D02*
G03*
X403164Y295402I-1016J0D01*
G01*
X400196D02*
G03*
X398164Y295402I-1016J0D01*
G01*
X394589Y712978D02*
G03*
X394589Y706882I0J-3048D01*
G01*
X391804Y714375D02*
G03*
X391804Y714375I-762J0D01*
G01*
D94*
X510730Y374810D02*
Y390810D01*
X502730Y374810D02*
Y390810D01*
X510730D01*
X502730Y374810D02*
X510730D01*
X521780D02*
Y390810D01*
X529780Y374810D02*
Y390810D01*
X521780Y374810D02*
X529780D01*
X521780Y390810D02*
X529780D01*
X510730Y457360D02*
Y473360D01*
X502730Y457360D02*
Y473360D01*
X510730D01*
X502730Y457360D02*
X510730D01*
X181610Y336360D02*
X197610D01*
X181610Y344360D02*
X197610D01*
Y336360D02*
Y344360D01*
X181610Y336360D02*
Y344360D01*
X386718Y376228D02*
X402718D01*
X386718Y368228D02*
X402718D01*
X386718D02*
Y376228D01*
X402718Y368228D02*
Y376228D01*
X386718Y363528D02*
X402718D01*
X386718Y355528D02*
X402718D01*
X386718D02*
Y363528D01*
X402718Y355528D02*
Y363528D01*
X378398Y328668D02*
Y344668D01*
X370398Y328668D02*
Y344668D01*
X378398D01*
X370398Y328668D02*
X378398D01*
X363158Y313428D02*
Y329428D01*
X355158Y313428D02*
Y329428D01*
X363158D01*
X355158Y313428D02*
X363158D01*
X338010Y312040D02*
Y328040D01*
X330010Y312040D02*
Y328040D01*
X338010D01*
X330010Y312040D02*
X338010D01*
X292038Y328668D02*
Y344668D01*
X284038Y328668D02*
Y344668D01*
X292038D01*
X284038Y328668D02*
X292038D01*
X262258Y403788D02*
X278258D01*
X262258Y411788D02*
X278258D01*
Y403788D02*
Y411788D01*
X262258Y403788D02*
Y411788D01*
X319598Y432808D02*
Y448808D01*
X327598Y432808D02*
Y448808D01*
X319598Y432808D02*
X327598D01*
X319598Y448808D02*
X327598D01*
X207010Y286830D02*
X223010D01*
X207010Y294830D02*
X223010D01*
Y286830D02*
Y294830D01*
X207010Y286830D02*
Y294830D01*
X510730Y423800D02*
Y439800D01*
X502730Y423800D02*
Y439800D01*
X510730D01*
X502730Y423800D02*
X510730D01*
X68450Y42560D02*
Y92060D01*
X581550D01*
Y42560D02*
Y92060D01*
X68450Y42560D02*
X581550D01*
X68450D02*
Y92060D01*
X581550D01*
Y42560D02*
Y92060D01*
D95*
X500507Y196240D02*
Y201320D01*
Y196240D02*
X506984D01*
Y201320D01*
X500507D02*
X506984D01*
X500507Y215240D02*
Y220320D01*
Y215240D02*
X506984D01*
Y220320D01*
X500507D02*
X506984D01*
X487553Y205740D02*
Y210820D01*
X481076D02*
X487553D01*
X481076Y205740D02*
Y210820D01*
Y205740D02*
X487553D01*
X500507Y193802D02*
Y222758D01*
X487553D02*
X500507D01*
X487553Y193802D02*
Y222758D01*
Y193802D02*
X500507D01*
Y132740D02*
Y137820D01*
Y132740D02*
X506984D01*
Y137820D01*
X500507D02*
X506984D01*
X500507Y151740D02*
Y156820D01*
Y151740D02*
X506984D01*
Y156820D01*
X500507D02*
X506984D01*
X487553Y142240D02*
Y147320D01*
X481076D02*
X487553D01*
X481076Y142240D02*
Y147320D01*
Y142240D02*
X487553D01*
X500507Y130302D02*
Y159258D01*
X487553D02*
X500507D01*
X487553Y130302D02*
Y159258D01*
Y130302D02*
X500507D01*
X388747Y132740D02*
Y137820D01*
Y132740D02*
X395224D01*
Y137820D01*
X388747D02*
X395224D01*
X388747Y151740D02*
Y156820D01*
Y151740D02*
X395224D01*
Y156820D01*
X388747D02*
X395224D01*
X375793Y142240D02*
Y147320D01*
X369316D02*
X375793D01*
X369316Y142240D02*
Y147320D01*
Y142240D02*
X375793D01*
X388747Y130302D02*
Y159258D01*
X375793D02*
X388747D01*
X375793Y130302D02*
Y159258D01*
Y130302D02*
X388747D01*
Y196240D02*
Y201320D01*
Y196240D02*
X395224D01*
Y201320D01*
X388747D02*
X395224D01*
X388747Y215240D02*
Y220320D01*
Y215240D02*
X395224D01*
Y220320D01*
X388747D02*
X395224D01*
X375793Y205740D02*
Y210820D01*
X369316D02*
X375793D01*
X369316Y205740D02*
Y210820D01*
Y205740D02*
X375793D01*
X388747Y193802D02*
Y222758D01*
X375793D02*
X388747D01*
X375793Y193802D02*
Y222758D01*
Y193802D02*
X388747D01*
X436666Y255016D02*
Y271018D01*
X396534Y255016D02*
Y271018D01*
X398084D01*
X396534Y255016D02*
X398084D01*
X435116Y271018D02*
X436666D01*
X435116Y255016D02*
X436666D01*
X400116D02*
X403084D01*
X405116D02*
X408084D01*
X410116D02*
X413084D01*
X415116D02*
X418084D01*
X420116D02*
X423084D01*
X425116D02*
X428084D01*
X430116D02*
X433084D01*
X400116Y271018D02*
X403084D01*
X405116D02*
X408084D01*
X410116D02*
X413084D01*
X415116D02*
X418084D01*
X420116D02*
X423084D01*
X425116D02*
X428084D01*
X430116D02*
X433084D01*
X434126D02*
X436666Y268478D01*
X434206Y311404D02*
X436746Y308864D01*
X430196Y311404D02*
X433164D01*
X425196D02*
X428164D01*
X420196D02*
X423164D01*
X415196D02*
X418164D01*
X410196D02*
X413164D01*
X405196D02*
X408164D01*
X400196D02*
X403164D01*
X430196Y295402D02*
X433164D01*
X425196D02*
X428164D01*
X420196D02*
X423164D01*
X415196D02*
X418164D01*
X410196D02*
X413164D01*
X405196D02*
X408164D01*
X400196D02*
X403164D01*
X435196D02*
X436746D01*
X435196Y311404D02*
X436746D01*
X396614Y295402D02*
X398164D01*
X396614Y311404D02*
X398164D01*
X396614Y295402D02*
Y311404D01*
X436746Y295402D02*
Y311404D01*
X372491Y716407D02*
X394589D01*
Y703453D02*
Y716407D01*
X372491Y703453D02*
X394589D01*
X372491D02*
Y716407D01*
X469900Y844540D02*
Y857240D01*
X463550Y847080D02*
X476250D01*
X463550Y854700D02*
X469900Y847080D01*
X464820Y854700D02*
X469900Y847080D01*
X466090Y854700D02*
X469900Y847080D01*
X467360Y854700D02*
X469900Y847080D01*
X468630Y854700D02*
X469900Y847080D01*
X476250Y854700D01*
X469900Y847080D02*
X474980Y854700D01*
X469900Y847080D02*
X473710Y854700D01*
X469900Y847080D02*
X472440Y854700D01*
X469900Y847080D02*
X471170Y854700D01*
X463550D02*
X476250D01*
X484500Y822950D02*
Y878850D01*
X455300D02*
X484500D01*
X455300Y822950D02*
Y878850D01*
Y822950D02*
X484500D01*
M02*
