G04*
G04 #@! TF.GenerationSoftware,Altium Limited,Altium Designer,21.0.9 (235)*
G04*
G04 Layer_Physical_Order=3*
G04 Layer_Color=16440176*
%FSLAX44Y44*%
%MOMM*%
G71*
G04*
G04 #@! TF.SameCoordinates,58F94E15-CAE4-4791-8A53-09B8A48F05B3*
G04*
G04*
G04 #@! TF.FilePolarity,Positive*
G04*
G01*
G75*
%ADD78C,1.5300*%
%ADD83R,1.3080X1.3080*%
%ADD84C,1.3080*%
%ADD87C,1.3700*%
%ADD88R,1.3700X1.3700*%
%ADD89C,0.4572*%
%ADD91C,2.2860*%
%ADD92C,1.2700*%
G36*
X641578Y875919D02*
X640356Y875574D01*
X639776Y876521D01*
X636655Y880175D01*
X633001Y883296D01*
X628903Y885807D01*
X624463Y887645D01*
X619791Y888767D01*
X615000Y889144D01*
X610209Y888767D01*
X605536Y887645D01*
X601097Y885807D01*
X596999Y883296D01*
X593345Y880175D01*
X590224Y876521D01*
X587714Y872423D01*
X585874Y867983D01*
X584753Y863311D01*
X584376Y858520D01*
X584753Y853729D01*
X585874Y849056D01*
X587714Y844617D01*
X590224Y840519D01*
X593345Y836865D01*
X596999Y833744D01*
X601097Y831234D01*
X605536Y829395D01*
X610209Y828273D01*
X615000Y827896D01*
X619791Y828273D01*
X624463Y829395D01*
X628903Y831234D01*
X633001Y833744D01*
X636655Y836865D01*
X639776Y840519D01*
X640356Y841466D01*
X641578Y841121D01*
Y8422D01*
X590640D01*
X590387Y9692D01*
X590790Y9859D01*
X593595Y12012D01*
X606986Y25403D01*
X609139Y28208D01*
X610492Y31475D01*
X610954Y34981D01*
Y123887D01*
X610492Y127393D01*
X609139Y130660D01*
X606986Y133465D01*
X596318Y144133D01*
X593513Y146286D01*
X592549Y146685D01*
X592389Y148126D01*
X593574Y149311D01*
X594698Y151259D01*
X595280Y153431D01*
Y155679D01*
X594698Y157851D01*
X593574Y159799D01*
X591984Y161389D01*
X590036Y162513D01*
X587864Y163095D01*
X585616D01*
X585483Y163197D01*
Y165913D01*
X585616Y166015D01*
X587864D01*
X590036Y166597D01*
X591984Y167721D01*
X593574Y169311D01*
X594698Y171259D01*
X595280Y173431D01*
Y175679D01*
X594698Y177851D01*
X593574Y179799D01*
X591984Y181389D01*
X590036Y182513D01*
X587864Y183095D01*
X585616D01*
X585483Y183197D01*
Y185913D01*
X585616Y186015D01*
X587864D01*
X590036Y186597D01*
X591984Y187721D01*
X593574Y189311D01*
X594698Y191259D01*
X595280Y193431D01*
Y195679D01*
X594698Y197851D01*
X593574Y199799D01*
X591984Y201389D01*
X590036Y202513D01*
X587864Y203095D01*
X585616D01*
X585483Y203197D01*
Y205913D01*
X585616Y206015D01*
X587864D01*
X590036Y206597D01*
X591984Y207721D01*
X593574Y209311D01*
X594698Y211259D01*
X595280Y213431D01*
Y215679D01*
X594698Y217851D01*
X593574Y219799D01*
X591984Y221389D01*
X590036Y222513D01*
X587864Y223095D01*
X586753D01*
X585483Y224310D01*
X585483Y268148D01*
X585328Y268929D01*
X584886Y269590D01*
X584224Y270032D01*
X583444Y270187D01*
X580239D01*
Y283189D01*
X583444D01*
X584224Y283344D01*
X584886Y283786D01*
X585328Y284448D01*
X585483Y285228D01*
Y288046D01*
X585616Y288148D01*
X587864D01*
X590036Y288730D01*
X591984Y289855D01*
X593574Y291444D01*
X594698Y293392D01*
X595280Y295564D01*
Y297812D01*
X594698Y299984D01*
X593574Y301932D01*
X591984Y303522D01*
X590036Y304646D01*
X587864Y305228D01*
X585616D01*
X585483Y305330D01*
Y308046D01*
X585616Y308148D01*
X587864D01*
X590036Y308730D01*
X591984Y309855D01*
X593574Y311444D01*
X594698Y313392D01*
X595280Y315564D01*
Y317812D01*
X594698Y319984D01*
X593574Y321932D01*
X591984Y323522D01*
X590036Y324646D01*
X587864Y325228D01*
X585616D01*
X585483Y325330D01*
Y328046D01*
X585616Y328148D01*
X587864D01*
X590036Y328730D01*
X591984Y329855D01*
X593574Y331445D01*
X594698Y333392D01*
X595280Y335564D01*
Y337812D01*
X594698Y339985D01*
X593574Y341932D01*
X591984Y343522D01*
X590036Y344646D01*
X587864Y345228D01*
X585616D01*
X585483Y345330D01*
Y348046D01*
X585616Y348148D01*
X587864D01*
X590036Y348730D01*
X591984Y349855D01*
X593574Y351445D01*
X594698Y353392D01*
X595280Y355564D01*
Y357812D01*
X594698Y359985D01*
X593574Y361932D01*
X591984Y363522D01*
X590036Y364646D01*
X587864Y365228D01*
X586753D01*
X585483Y366443D01*
X585483Y410282D01*
X585328Y411062D01*
X584886Y411724D01*
X584224Y412165D01*
X583444Y412321D01*
X580239D01*
Y425322D01*
X583444D01*
X584224Y425478D01*
X584886Y425920D01*
X585328Y426581D01*
X585483Y427361D01*
Y430180D01*
X585616Y430281D01*
X587864D01*
X590036Y430863D01*
X591984Y431988D01*
X593574Y433578D01*
X594698Y435525D01*
X595280Y437697D01*
Y439946D01*
X594698Y442118D01*
X593574Y444065D01*
X591984Y445655D01*
X590036Y446780D01*
X587864Y447361D01*
X585616D01*
X585483Y447463D01*
Y450180D01*
X585616Y450281D01*
X587864D01*
X590036Y450863D01*
X591984Y451988D01*
X593574Y453578D01*
X594698Y455525D01*
X595280Y457697D01*
Y459946D01*
X594698Y462118D01*
X593574Y464065D01*
X591984Y465655D01*
X590036Y466780D01*
X587864Y467361D01*
X585616D01*
X585483Y467463D01*
Y470180D01*
X585616Y470282D01*
X587864D01*
X590036Y470863D01*
X591984Y471988D01*
X593574Y473578D01*
X594698Y475525D01*
X595280Y477697D01*
Y479946D01*
X594698Y482118D01*
X593574Y484065D01*
X591984Y485655D01*
X590036Y486780D01*
X587864Y487361D01*
X585616D01*
X585483Y487463D01*
Y490180D01*
X585616Y490281D01*
X587864D01*
X590036Y490863D01*
X591984Y491988D01*
X593574Y493578D01*
X594698Y495525D01*
X595280Y497697D01*
Y499946D01*
X594698Y502118D01*
X593574Y504065D01*
X591984Y505655D01*
X590036Y506780D01*
X587864Y507361D01*
X585616D01*
X585483Y507463D01*
Y518048D01*
Y530278D01*
X585483Y542627D01*
Y552415D01*
X585328Y553195D01*
X584886Y553857D01*
X584224Y554299D01*
X583444Y554454D01*
X580239D01*
Y567456D01*
X583444D01*
X584224Y567611D01*
X584886Y568053D01*
X585328Y568714D01*
X585483Y569495D01*
Y572313D01*
X585616Y572415D01*
X587864D01*
X590036Y572997D01*
X591984Y574121D01*
X593574Y575711D01*
X594698Y577659D01*
X595280Y579831D01*
Y582079D01*
X594698Y584251D01*
X593574Y586199D01*
X591984Y587789D01*
X590036Y588913D01*
X587864Y589495D01*
X585616D01*
X585483Y589597D01*
Y592313D01*
X585616Y592415D01*
X587864D01*
X590036Y592997D01*
X591984Y594121D01*
X593574Y595711D01*
X594698Y597659D01*
X595280Y599831D01*
Y602079D01*
X594698Y604251D01*
X593574Y606199D01*
X591984Y607789D01*
X590036Y608913D01*
X587864Y609495D01*
X585616D01*
X585483Y609597D01*
Y612313D01*
X585616Y612415D01*
X587864D01*
X590036Y612997D01*
X591984Y614121D01*
X593574Y615711D01*
X594698Y617659D01*
X595280Y619831D01*
Y622079D01*
X594698Y624251D01*
X593574Y626199D01*
X591984Y627789D01*
X590036Y628913D01*
X587864Y629495D01*
X586239D01*
Y632415D01*
X587864D01*
X590036Y632997D01*
X591984Y634121D01*
X593574Y635711D01*
X594698Y637659D01*
X595280Y639831D01*
Y642079D01*
X594698Y644251D01*
X593574Y646199D01*
X591984Y647788D01*
X590036Y648913D01*
X587864Y649495D01*
X586239D01*
Y671061D01*
X591820D01*
X592600Y671216D01*
X593262Y671658D01*
X603422Y681818D01*
X603864Y682480D01*
X604019Y683260D01*
Y731520D01*
X604019Y731520D01*
X603864Y732300D01*
X603422Y732962D01*
X603422Y732962D01*
X598342Y738042D01*
X598342Y738042D01*
X597680Y738484D01*
X596900Y738639D01*
X553720D01*
X553720Y738639D01*
X552940Y738484D01*
X552278Y738042D01*
X552278Y738042D01*
X526878Y712642D01*
X526436Y711980D01*
X526281Y711200D01*
Y616719D01*
X383360Y616719D01*
X382746Y617637D01*
Y619343D01*
X382094Y620918D01*
X380888Y622123D01*
X379313Y622776D01*
X377607D01*
X376032Y622123D01*
X374827Y620918D01*
X374174Y619343D01*
Y617989D01*
X373325Y616719D01*
X72216Y616719D01*
X71547Y617989D01*
X72040Y619831D01*
Y622079D01*
X71458Y624251D01*
X70334Y626199D01*
X68744Y627789D01*
X66796Y628913D01*
X64624Y629495D01*
X62376D01*
X60204Y628913D01*
X58256Y627789D01*
X56666Y626199D01*
X55542Y624251D01*
X54960Y622079D01*
Y619831D01*
X55542Y617659D01*
X56666Y615711D01*
X58256Y614121D01*
X60204Y612997D01*
X62376Y612415D01*
X64624D01*
X64757Y612313D01*
Y609597D01*
X64624Y609495D01*
X62376D01*
X60204Y608913D01*
X58256Y607789D01*
X56666Y606199D01*
X55542Y604251D01*
X54960Y602079D01*
Y599831D01*
X55542Y597659D01*
X56666Y595711D01*
X58256Y594121D01*
X60204Y592997D01*
X62376Y592415D01*
X64624D01*
X64757Y592313D01*
Y589597D01*
X64624Y589495D01*
X62376D01*
X60204Y588913D01*
X58256Y587789D01*
X56666Y586199D01*
X55542Y584251D01*
X54960Y582079D01*
Y579831D01*
X55542Y577659D01*
X56666Y575711D01*
X58256Y574121D01*
X60204Y572997D01*
X62376Y572415D01*
X64624D01*
X64757Y572313D01*
Y569597D01*
X64624Y569495D01*
X62376D01*
X60204Y568913D01*
X58256Y567789D01*
X56666Y566199D01*
X55542Y564251D01*
X54960Y562079D01*
Y559831D01*
X55542Y557659D01*
X56666Y555711D01*
X58256Y554121D01*
X60204Y552997D01*
X62376Y552415D01*
X63487D01*
X64757Y551200D01*
X64757Y538592D01*
Y511122D01*
Y507362D01*
X64912Y506581D01*
X65354Y505920D01*
X66016Y505478D01*
X66796Y505322D01*
X70001D01*
Y492321D01*
X66796D01*
X66016Y492166D01*
X65354Y491724D01*
X64912Y491062D01*
X64757Y490282D01*
Y487464D01*
X64624Y487362D01*
X62376D01*
X60204Y486780D01*
X58256Y485655D01*
X56666Y484065D01*
X55542Y482118D01*
X54960Y479946D01*
Y477697D01*
X55542Y475525D01*
X56666Y473578D01*
X58256Y471988D01*
X60204Y470864D01*
X62376Y470282D01*
X64624D01*
X64757Y470180D01*
Y467464D01*
X64624Y467362D01*
X62376D01*
X60204Y466780D01*
X58256Y465655D01*
X56666Y464065D01*
X55542Y462118D01*
X54960Y459946D01*
Y457697D01*
X55542Y455525D01*
X56666Y453578D01*
X58256Y451988D01*
X60204Y450864D01*
X62376Y450282D01*
X64624D01*
X64757Y450180D01*
Y447464D01*
X64624Y447362D01*
X62376D01*
X60204Y446780D01*
X58256Y445655D01*
X56666Y444065D01*
X55542Y442118D01*
X54960Y439946D01*
Y437697D01*
X55542Y435525D01*
X56666Y433578D01*
X58256Y431988D01*
X60204Y430864D01*
X62376Y430282D01*
X64624D01*
X64757Y430180D01*
Y427464D01*
X64624Y427362D01*
X62376D01*
X60204Y426780D01*
X58256Y425655D01*
X56666Y424065D01*
X55542Y422118D01*
X54960Y419946D01*
Y417697D01*
X55542Y415525D01*
X56666Y413578D01*
X58256Y411988D01*
X60204Y410864D01*
X62376Y410282D01*
X63487D01*
X64757Y409067D01*
X64757Y365228D01*
X64912Y364448D01*
X65354Y363786D01*
X66016Y363344D01*
X66796Y363189D01*
X71447D01*
X72040Y363071D01*
X105458D01*
X107239Y362837D01*
X108774Y362201D01*
X110200Y361107D01*
X135229Y336078D01*
X136322Y334653D01*
X136958Y333117D01*
X137193Y331336D01*
Y276362D01*
X136958Y274581D01*
X136322Y273046D01*
X136279Y272990D01*
X136120Y272666D01*
X135948Y272348D01*
X135944Y272310D01*
X135927Y272276D01*
X135904Y271916D01*
X135867Y271557D01*
X135878Y271520D01*
X135875Y271482D01*
X135991Y271140D01*
X136095Y270795D01*
X136680Y269687D01*
X136315Y269277D01*
X134518Y267480D01*
X134049Y266667D01*
X133011Y267266D01*
X132884Y267309D01*
X132772Y267384D01*
X132510Y267436D01*
X132258Y267521D01*
X132124Y267513D01*
X131992Y267539D01*
X131730Y267487D01*
X131464Y267470D01*
X131343Y267410D01*
X131211Y267384D01*
X130990Y267236D01*
X130750Y267118D01*
X130662Y267017D01*
X130550Y266942D01*
X127817Y264209D01*
X126590Y264538D01*
X126336Y265488D01*
X124994Y267812D01*
X123097Y269709D01*
X120773Y271051D01*
X118903Y271552D01*
X118523Y272968D01*
X120300Y274746D01*
X120742Y275407D01*
X120898Y276187D01*
X121170Y276644D01*
X121891Y277361D01*
X122071D01*
X122851Y277516D01*
X123513Y277958D01*
X123513Y277958D01*
X123830Y278275D01*
X124272Y278937D01*
X124427Y279717D01*
Y322580D01*
X124272Y323360D01*
X123830Y324022D01*
X123168Y324464D01*
X122388Y324619D01*
X73660Y324619D01*
X73660Y324619D01*
X72880Y324464D01*
X72218Y324022D01*
X72218Y324022D01*
X71776Y323360D01*
X71621Y322580D01*
Y322243D01*
X70351Y321902D01*
X70334Y321932D01*
X68744Y323522D01*
X66796Y324646D01*
X64624Y325228D01*
X62376D01*
X60204Y324646D01*
X58256Y323522D01*
X56666Y321932D01*
X55542Y319984D01*
X54960Y317812D01*
Y315564D01*
X55542Y313392D01*
X56666Y311444D01*
X58256Y309855D01*
X60204Y308730D01*
X62376Y308148D01*
X64624D01*
X66796Y308730D01*
X68744Y309855D01*
X70334Y311444D01*
X70351Y311474D01*
X71621Y311134D01*
Y302243D01*
X70351Y301902D01*
X70334Y301932D01*
X68744Y303522D01*
X66796Y304646D01*
X64624Y305228D01*
X62376D01*
X60204Y304646D01*
X58256Y303522D01*
X56666Y301932D01*
X55542Y299984D01*
X54960Y297812D01*
Y295564D01*
X55542Y293392D01*
X56666Y291444D01*
X58256Y289855D01*
X60204Y288730D01*
X62376Y288148D01*
X64624D01*
X66796Y288730D01*
X68744Y289855D01*
X70334Y291444D01*
X70351Y291474D01*
X71621Y291134D01*
Y282243D01*
X70351Y281902D01*
X70334Y281932D01*
X68744Y283522D01*
X66796Y284646D01*
X64624Y285228D01*
X62376D01*
X60204Y284646D01*
X58256Y283522D01*
X56666Y281932D01*
X55542Y279984D01*
X54960Y277812D01*
Y275564D01*
X55542Y273392D01*
X56666Y271444D01*
X58256Y269855D01*
X60204Y268730D01*
X62376Y268148D01*
X64624D01*
X66796Y268730D01*
X68744Y269855D01*
X70334Y271444D01*
X70351Y271474D01*
X71621Y271134D01*
X71621Y220109D01*
X70351Y219769D01*
X70334Y219799D01*
X68744Y221389D01*
X66796Y222513D01*
X64624Y223095D01*
X62376D01*
X60204Y222513D01*
X58256Y221389D01*
X56666Y219799D01*
X55542Y217851D01*
X54960Y215679D01*
Y213431D01*
X55542Y211259D01*
X56666Y209311D01*
X58256Y207721D01*
X60204Y206597D01*
X62376Y206015D01*
X64624D01*
X66796Y206597D01*
X68744Y207721D01*
X70334Y209311D01*
X70351Y209341D01*
X71621Y209000D01*
Y200109D01*
X70351Y199769D01*
X70334Y199799D01*
X68744Y201389D01*
X66796Y202513D01*
X64624Y203095D01*
X62376D01*
X60204Y202513D01*
X58256Y201389D01*
X56666Y199799D01*
X55542Y197851D01*
X54960Y195679D01*
Y193431D01*
X55542Y191259D01*
X56666Y189311D01*
X58256Y187721D01*
X60204Y186597D01*
X62376Y186015D01*
X64624D01*
X66796Y186597D01*
X68744Y187721D01*
X70334Y189311D01*
X70351Y189341D01*
X71621Y189001D01*
Y180109D01*
X70351Y179769D01*
X70334Y179799D01*
X68744Y181389D01*
X66796Y182513D01*
X64624Y183095D01*
X62376D01*
X60204Y182513D01*
X58256Y181389D01*
X56666Y179799D01*
X55542Y177851D01*
X54960Y175679D01*
Y173431D01*
X55542Y171259D01*
X56666Y169311D01*
X58256Y167721D01*
X60204Y166597D01*
X62376Y166015D01*
X64624D01*
X66796Y166597D01*
X68744Y167721D01*
X70334Y169311D01*
X70351Y169341D01*
X71621Y169001D01*
Y160109D01*
X70351Y159769D01*
X70334Y159799D01*
X68744Y161389D01*
X66796Y162513D01*
X64624Y163095D01*
X62376D01*
X60204Y162513D01*
X58256Y161389D01*
X56666Y159799D01*
X55542Y157851D01*
X54960Y155679D01*
Y153431D01*
X55542Y151259D01*
X56666Y149311D01*
X58256Y147721D01*
X60204Y146597D01*
X62376Y146015D01*
X64624D01*
X66796Y146597D01*
X68744Y147721D01*
X70334Y149311D01*
X70351Y149341D01*
X71621Y149001D01*
X71621Y140109D01*
X70351Y139769D01*
X70334Y139799D01*
X68744Y141389D01*
X66796Y142513D01*
X64624Y143095D01*
X62376D01*
X60204Y142513D01*
X58256Y141389D01*
X56666Y139799D01*
X55542Y137851D01*
X54960Y135679D01*
Y133431D01*
X55542Y131259D01*
X56666Y129311D01*
X58256Y127721D01*
X60204Y126597D01*
X62376Y126015D01*
X64624D01*
X66796Y126597D01*
X68744Y127721D01*
X70334Y129311D01*
X70351Y129341D01*
X71621Y129001D01*
Y93556D01*
X65679D01*
X62173Y93094D01*
X58906Y91741D01*
X56101Y89588D01*
X41222Y74709D01*
X39069Y71904D01*
X37716Y68637D01*
X37254Y65131D01*
Y34981D01*
X37716Y31475D01*
X39069Y28208D01*
X41222Y25403D01*
X54613Y12012D01*
X57418Y9859D01*
X57821Y9692D01*
X57568Y8422D01*
X8422D01*
Y841121D01*
X9644Y841466D01*
X10224Y840519D01*
X13345Y836865D01*
X16999Y833744D01*
X21097Y831234D01*
X25537Y829395D01*
X30209Y828273D01*
X35000Y827896D01*
X39791Y828273D01*
X44464Y829395D01*
X48903Y831234D01*
X53001Y833744D01*
X56655Y836865D01*
X59776Y840519D01*
X62287Y844617D01*
X64126Y849056D01*
X65247Y853729D01*
X65624Y858520D01*
X65247Y863311D01*
X64126Y867983D01*
X62287Y872423D01*
X59776Y876521D01*
X56655Y880175D01*
X53001Y883296D01*
X48903Y885807D01*
X44464Y887645D01*
X39791Y888767D01*
X35000Y889144D01*
X30209Y888767D01*
X25537Y887645D01*
X21097Y885807D01*
X16999Y883296D01*
X13345Y880175D01*
X10224Y876521D01*
X9644Y875574D01*
X8422Y875919D01*
Y892008D01*
X399147D01*
X399941Y890738D01*
X399574Y889853D01*
Y888147D01*
X400227Y886572D01*
X400974Y885825D01*
X400227Y885078D01*
X399574Y883503D01*
Y881797D01*
X400227Y880222D01*
X401432Y879016D01*
X403007Y878364D01*
X404713D01*
X406288Y879016D01*
X406840Y879569D01*
X407670Y880108D01*
X408500Y879569D01*
X409052Y879016D01*
X410627Y878364D01*
X412333D01*
X413908Y879016D01*
X414460Y879569D01*
X415290Y880108D01*
X416120Y879569D01*
X416672Y879016D01*
X418247Y878364D01*
X419953D01*
X421528Y879016D01*
X422080Y879569D01*
X422910Y880108D01*
X423740Y879569D01*
X424292Y879016D01*
X425867Y878364D01*
X427573D01*
X429148Y879016D01*
X429700Y879569D01*
X430530Y880108D01*
X431360Y879569D01*
X431912Y879016D01*
X433487Y878364D01*
X435193D01*
X436768Y879016D01*
X438268Y878791D01*
X438326Y878728D01*
X437674Y877153D01*
Y875447D01*
X438326Y873872D01*
X439074Y873125D01*
X438326Y872378D01*
X437674Y870803D01*
Y869097D01*
X438326Y867522D01*
X438268Y867459D01*
X436768Y867234D01*
X435193Y867886D01*
X433487D01*
X431912Y867234D01*
X431360Y866681D01*
X430530Y866142D01*
X429700Y866681D01*
X429148Y867234D01*
X427573Y867886D01*
X425867D01*
X424292Y867234D01*
X423740Y866681D01*
X422910Y866142D01*
X422080Y866681D01*
X421528Y867234D01*
X419953Y867886D01*
X418247D01*
X416672Y867234D01*
X416120Y866681D01*
X415290Y866142D01*
X414460Y866681D01*
X413908Y867234D01*
X412333Y867886D01*
X410627D01*
X409052Y867234D01*
X408500Y866681D01*
X407670Y866142D01*
X406840Y866681D01*
X406288Y867234D01*
X404713Y867886D01*
X403007D01*
X401432Y867234D01*
X400227Y866028D01*
X399574Y864453D01*
Y862747D01*
X400227Y861172D01*
X401432Y859967D01*
X403007Y859314D01*
X404713D01*
X406288Y859967D01*
X406840Y860519D01*
X407670Y861058D01*
X408500Y860519D01*
X409052Y859967D01*
X410627Y859314D01*
X412333D01*
X413908Y859967D01*
X414460Y860519D01*
X415290Y861058D01*
X416120Y860519D01*
X416672Y859967D01*
X418247Y859314D01*
X419953D01*
X421528Y859967D01*
X422080Y860519D01*
X422910Y861058D01*
X423740Y860519D01*
X424292Y859967D01*
X425867Y859314D01*
X427573D01*
X429148Y859967D01*
X429700Y860519D01*
X430530Y861058D01*
X431360Y860519D01*
X431912Y859967D01*
X433487Y859314D01*
X435193D01*
X436768Y859967D01*
X438268Y859741D01*
X438326Y859678D01*
X437674Y858103D01*
Y856397D01*
X438326Y854822D01*
X439074Y854075D01*
X438326Y853328D01*
X437674Y851753D01*
Y850047D01*
X438326Y848472D01*
X438268Y848409D01*
X436768Y848184D01*
X435193Y848836D01*
X433487D01*
X431912Y848184D01*
X431360Y847631D01*
X430530Y847092D01*
X429700Y847631D01*
X429148Y848184D01*
X427573Y848836D01*
X425867D01*
X424292Y848184D01*
X423740Y847631D01*
X422910Y847092D01*
X422080Y847631D01*
X421528Y848184D01*
X419953Y848836D01*
X418247D01*
X416672Y848184D01*
X416120Y847631D01*
X415290Y847092D01*
X414460Y847631D01*
X413908Y848184D01*
X412333Y848836D01*
X410627D01*
X409052Y848184D01*
X408500Y847631D01*
X407670Y847092D01*
X406840Y847631D01*
X406288Y848184D01*
X404713Y848836D01*
X403007D01*
X401432Y848184D01*
X400227Y846978D01*
X399574Y845403D01*
Y843697D01*
X400227Y842122D01*
X401432Y840917D01*
X403007Y840264D01*
X404713D01*
X406288Y840917D01*
X406840Y841469D01*
X407670Y842008D01*
X408500Y841469D01*
X409052Y840917D01*
X410627Y840264D01*
X412333D01*
X413908Y840917D01*
X414460Y841469D01*
X415290Y842008D01*
X416120Y841469D01*
X416672Y840917D01*
X418247Y840264D01*
X419953D01*
X421528Y840917D01*
X422080Y841469D01*
X422910Y842008D01*
X423740Y841469D01*
X424292Y840917D01*
X425867Y840264D01*
X427573D01*
X429148Y840917D01*
X429700Y841469D01*
X430530Y842008D01*
X431360Y841469D01*
X431912Y840917D01*
X433487Y840264D01*
X435193D01*
X436768Y840917D01*
X437320Y841469D01*
X438150Y842008D01*
X438980Y841469D01*
X439532Y840917D01*
X441107Y840264D01*
X442813D01*
X444388Y840917D01*
X444940Y841469D01*
X445770Y842008D01*
X446600Y841469D01*
X447152Y840917D01*
X448727Y840264D01*
X450433D01*
X452008Y840917D01*
X453214Y842122D01*
X453866Y843697D01*
Y845403D01*
X453214Y846978D01*
X452466Y847725D01*
X453214Y848472D01*
X453866Y850047D01*
Y851753D01*
X453214Y853328D01*
X452466Y854075D01*
X453214Y854822D01*
X453866Y856397D01*
Y858103D01*
X453214Y859678D01*
X452466Y860425D01*
X453214Y861172D01*
X453866Y862747D01*
Y864453D01*
X453214Y866028D01*
X452466Y866775D01*
X453214Y867522D01*
X453866Y869097D01*
Y870803D01*
X453214Y872378D01*
X452466Y873125D01*
X453214Y873872D01*
X453866Y875447D01*
Y877153D01*
X453214Y878728D01*
X452466Y879475D01*
X453214Y880222D01*
X453866Y881797D01*
Y883503D01*
X453214Y885078D01*
X452466Y885825D01*
X453214Y886572D01*
X453866Y888147D01*
Y889853D01*
X453499Y890738D01*
X454293Y892008D01*
X641578D01*
Y875919D01*
D02*
G37*
G36*
X601980Y731520D02*
Y683260D01*
X591820Y673100D01*
X584200D01*
Y649116D01*
X583444Y648913D01*
X581496Y647788D01*
X579906Y646199D01*
X578782Y644251D01*
X578200Y642079D01*
Y639831D01*
X578782Y637659D01*
X579906Y635711D01*
X581496Y634121D01*
X583444Y632997D01*
X584200Y632794D01*
Y629115D01*
X583444Y628913D01*
X581496Y627789D01*
X579906Y626199D01*
X578782Y624251D01*
X578200Y622079D01*
Y619831D01*
X578782Y617659D01*
X579906Y615711D01*
X581496Y614121D01*
X583444Y612997D01*
Y608913D01*
X581496Y607789D01*
X579906Y606199D01*
X578782Y604251D01*
X578200Y602079D01*
Y599831D01*
X578782Y597659D01*
X579906Y595711D01*
X581496Y594121D01*
X583444Y592997D01*
Y588913D01*
X581496Y587789D01*
X579906Y586199D01*
X578782Y584251D01*
X578200Y582079D01*
Y579831D01*
X578782Y577659D01*
X579906Y575711D01*
X581496Y574121D01*
X583444Y572997D01*
Y569495D01*
X578200D01*
Y552415D01*
X583444D01*
Y542627D01*
X583444Y530278D01*
Y518048D01*
Y506780D01*
X581496Y505655D01*
X579906Y504065D01*
X578782Y502118D01*
X578200Y499946D01*
Y497697D01*
X578782Y495525D01*
X579906Y493578D01*
X581496Y491988D01*
X583444Y490863D01*
Y486780D01*
X581496Y485655D01*
X579906Y484065D01*
X578782Y482118D01*
X578200Y479946D01*
Y477697D01*
X578782Y475525D01*
X579906Y473578D01*
X581496Y471988D01*
X583444Y470863D01*
Y466780D01*
X581496Y465655D01*
X579906Y464065D01*
X578782Y462118D01*
X578200Y459946D01*
Y457697D01*
X578782Y455525D01*
X579906Y453578D01*
X581496Y451988D01*
X583444Y450863D01*
Y446780D01*
X581496Y445655D01*
X579906Y444065D01*
X578782Y442118D01*
X578200Y439946D01*
Y437697D01*
X578782Y435525D01*
X579906Y433578D01*
X581496Y431988D01*
X583444Y430863D01*
Y427361D01*
X578200D01*
Y410282D01*
X583444D01*
X583444Y364646D01*
X581496Y363522D01*
X579906Y361932D01*
X578782Y359985D01*
X578200Y357812D01*
Y355564D01*
X578782Y353392D01*
X579906Y351445D01*
X581496Y349855D01*
X583444Y348730D01*
Y344646D01*
X581496Y343522D01*
X579906Y341932D01*
X578782Y339985D01*
X578200Y337812D01*
Y335564D01*
X578782Y333392D01*
X579906Y331445D01*
X581496Y329855D01*
X583444Y328730D01*
Y324646D01*
X581496Y323522D01*
X579906Y321932D01*
X578782Y319984D01*
X578200Y317812D01*
Y315564D01*
X578782Y313392D01*
X579906Y311444D01*
X581496Y309855D01*
X583444Y308730D01*
Y304646D01*
X581496Y303522D01*
X579906Y301932D01*
X578782Y299984D01*
X578200Y297812D01*
Y295564D01*
X578782Y293392D01*
X579906Y291444D01*
X581496Y289855D01*
X583444Y288730D01*
Y285228D01*
X578200D01*
Y268148D01*
X583444D01*
X583444Y222513D01*
X581496Y221389D01*
X579906Y219799D01*
X578782Y217851D01*
X578200Y215679D01*
Y213431D01*
X578782Y211259D01*
X579906Y209311D01*
X581496Y207721D01*
X583444Y206597D01*
Y202513D01*
X581496Y201389D01*
X579906Y199799D01*
X578782Y197851D01*
X578200Y195679D01*
Y193431D01*
X578782Y191259D01*
X579906Y189311D01*
X581496Y187721D01*
X583444Y186597D01*
Y182513D01*
X581496Y181389D01*
X579906Y179799D01*
X578782Y177851D01*
X578200Y175679D01*
Y173431D01*
X578782Y171259D01*
X579906Y169311D01*
X581496Y167721D01*
X583444Y166597D01*
Y162513D01*
X581496Y161389D01*
X579906Y159799D01*
X578782Y157851D01*
X578200Y155679D01*
Y153431D01*
X578709Y151529D01*
X577835Y150855D01*
X577661Y150781D01*
X574886Y153557D01*
Y176109D01*
Y507309D01*
X574424Y510815D01*
X573071Y514082D01*
X570918Y516887D01*
X557527Y530278D01*
X554722Y532431D01*
X551455Y533784D01*
X547949Y534246D01*
X517421D01*
X512656Y539011D01*
Y562610D01*
X512194Y566116D01*
X510841Y569383D01*
X508688Y572188D01*
X498528Y582348D01*
X495723Y584501D01*
X492456Y585854D01*
X488950Y586316D01*
X388620D01*
X385114Y585854D01*
X381847Y584501D01*
X379042Y582348D01*
X376889Y579543D01*
X375536Y576276D01*
X375074Y572770D01*
X375536Y569264D01*
X376889Y565997D01*
X379042Y563192D01*
X381847Y561039D01*
X385114Y559686D01*
X388620Y559224D01*
X483339D01*
X485564Y556999D01*
Y533400D01*
X486026Y529894D01*
X487379Y526627D01*
X489532Y523822D01*
X502232Y511122D01*
X505037Y508969D01*
X508304Y507616D01*
X511810Y507154D01*
X511997D01*
X512523Y505884D01*
X511987Y505348D01*
X511334Y503773D01*
Y502067D01*
X511987Y500492D01*
X513192Y499286D01*
X514767Y498634D01*
X516473D01*
X518048Y499286D01*
X518600Y499839D01*
X519430Y500378D01*
X520260Y499839D01*
X520812Y499286D01*
X522387Y498634D01*
X524093D01*
X525668Y499286D01*
X526874Y500492D01*
X527526Y502067D01*
Y503773D01*
X526874Y505348D01*
X526337Y505884D01*
X526863Y507154D01*
X542338D01*
X547794Y501698D01*
Y319853D01*
X546524Y319327D01*
X545988Y319863D01*
X544413Y320516D01*
X542707D01*
X541132Y319863D01*
X539926Y318658D01*
X539274Y317083D01*
Y315377D01*
X539926Y313802D01*
X541132Y312596D01*
X542707Y311944D01*
X544413D01*
X545988Y312596D01*
X546524Y313133D01*
X547794Y312607D01*
Y189655D01*
X492015D01*
X491443Y190925D01*
X491966Y192187D01*
Y193893D01*
X491314Y195468D01*
X490761Y196020D01*
X490222Y196850D01*
X490761Y197680D01*
X491314Y198232D01*
X491966Y199807D01*
Y201513D01*
X491314Y203088D01*
X490108Y204293D01*
X488533Y204946D01*
X486827D01*
X485252Y204293D01*
X484700Y203741D01*
X483870Y203202D01*
X483040Y203741D01*
X482488Y204293D01*
X480913Y204946D01*
X479207D01*
X477632Y204293D01*
X476427Y203088D01*
X475774Y201513D01*
Y199807D01*
X476427Y198232D01*
X476979Y197680D01*
X477518Y196850D01*
X476979Y196020D01*
X476427Y195468D01*
X475774Y193893D01*
Y192187D01*
X476297Y190925D01*
X475724Y189655D01*
X454914D01*
X451408Y189193D01*
X448141Y187840D01*
X445336Y185687D01*
X443183Y182882D01*
X441830Y179615D01*
X441368Y176109D01*
X441830Y172603D01*
X443183Y169336D01*
X445336Y166531D01*
X448141Y164378D01*
X451408Y163025D01*
X454914Y162563D01*
X485433D01*
X485686Y161293D01*
X485252Y161113D01*
X484047Y159908D01*
X483394Y158333D01*
Y156627D01*
X484047Y155052D01*
X485252Y153847D01*
X486827Y153194D01*
X488533D01*
X490108Y153847D01*
X491314Y155052D01*
X491966Y156627D01*
Y158333D01*
X491314Y159908D01*
X490108Y161113D01*
X489674Y161293D01*
X489927Y162563D01*
X547794D01*
Y147946D01*
X548256Y144440D01*
X549609Y141173D01*
X551762Y138368D01*
X565153Y124977D01*
X567958Y122824D01*
X571225Y121471D01*
X574731Y121009D01*
X581129D01*
X583444Y118694D01*
X583444Y69070D01*
Y40174D01*
X581370Y38100D01*
X68049Y38100D01*
X66796Y39353D01*
Y61971D01*
X71290Y66464D01*
X109100D01*
X112606Y66926D01*
X114743Y67811D01*
X120650D01*
X121430Y67966D01*
X122092Y68408D01*
X122534Y69070D01*
X122689Y69850D01*
Y95250D01*
X122534Y96030D01*
X122092Y96692D01*
X121430Y97134D01*
X120650Y97289D01*
X103639D01*
X103639Y277361D01*
X118372Y277361D01*
X118858Y276187D01*
X113256Y270585D01*
X113115Y270547D01*
X110915Y269277D01*
X109118Y267480D01*
X107848Y265280D01*
X107190Y262826D01*
Y260285D01*
X107848Y257830D01*
X109118Y255630D01*
X110915Y253833D01*
X113115Y252563D01*
X115569Y251905D01*
X118111D01*
X120565Y252563D01*
X122765Y253833D01*
X124562Y255630D01*
X125832Y257830D01*
X126385Y259893D01*
X131992Y265500D01*
X133130Y264842D01*
X132590Y262826D01*
Y260285D01*
X133248Y257830D01*
X134518Y255630D01*
X136315Y253833D01*
X138515Y252563D01*
X140969Y251905D01*
X143511D01*
X145965Y252563D01*
X148165Y253833D01*
X149962Y255630D01*
X151232Y257830D01*
X151890Y260285D01*
Y262826D01*
X151232Y265280D01*
X149962Y267480D01*
X148165Y269277D01*
X145965Y270547D01*
X143511Y271205D01*
X140969D01*
X138592Y270568D01*
X138483Y270640D01*
X137897Y271748D01*
X138104Y272017D01*
X138945Y274049D01*
X139232Y276229D01*
Y331470D01*
X138945Y333650D01*
X138104Y335681D01*
X136765Y337425D01*
X111547Y362644D01*
X109803Y363982D01*
X107772Y364823D01*
X105592Y365110D01*
X72040D01*
Y365228D01*
X66796D01*
X66796Y410864D01*
X68744Y411988D01*
X70334Y413578D01*
X71458Y415525D01*
X72040Y417697D01*
Y419946D01*
X71458Y422118D01*
X70334Y424065D01*
X68744Y425655D01*
X66796Y426780D01*
Y430864D01*
X68744Y431988D01*
X70334Y433578D01*
X71458Y435525D01*
X72040Y437697D01*
Y439946D01*
X71458Y442118D01*
X70334Y444065D01*
X68744Y445655D01*
X66796Y446780D01*
Y450864D01*
X68744Y451988D01*
X70334Y453578D01*
X71458Y455525D01*
X72040Y457697D01*
Y459946D01*
X71458Y462118D01*
X70334Y464065D01*
X68744Y465655D01*
X66796Y466780D01*
Y470864D01*
X68744Y471988D01*
X70334Y473578D01*
X71458Y475525D01*
X72040Y477697D01*
Y479946D01*
X71458Y482118D01*
X70334Y484065D01*
X68744Y485655D01*
X66796Y486780D01*
Y490282D01*
X72040D01*
Y507362D01*
X66796D01*
Y511122D01*
Y538592D01*
X66796Y552997D01*
X68744Y554121D01*
X70334Y555711D01*
X71458Y557659D01*
X72040Y559831D01*
Y562079D01*
X71458Y564251D01*
X70334Y566199D01*
X68744Y567789D01*
X66796Y568913D01*
Y572997D01*
X68744Y574121D01*
X70334Y575711D01*
X71458Y577659D01*
X72040Y579831D01*
Y582079D01*
X71458Y584251D01*
X70334Y586199D01*
X68744Y587789D01*
X66796Y588913D01*
Y592997D01*
X68744Y594121D01*
X70334Y595711D01*
X71458Y597659D01*
X72040Y599831D01*
Y602079D01*
X71458Y604251D01*
X70334Y606199D01*
X68744Y607789D01*
X66796Y608913D01*
Y612997D01*
X68744Y614121D01*
X69303Y614680D01*
X376458Y614680D01*
X377607Y614204D01*
X379313D01*
X380462Y614680D01*
X528320Y614680D01*
Y711200D01*
X553720Y736600D01*
X596900D01*
X601980Y731520D01*
D02*
G37*
G36*
X122388Y279717D02*
X122071Y279400D01*
X101600Y279400D01*
X101600Y95250D01*
X120650D01*
Y69850D01*
X112369D01*
X112202Y71120D01*
X112724Y71260D01*
X114866Y72496D01*
X116614Y74244D01*
X117850Y76386D01*
X118481Y78740D01*
X109100D01*
X99719D01*
X100350Y76386D01*
X101586Y74244D01*
X103334Y72496D01*
X105476Y71260D01*
X105998Y71120D01*
X105831Y69850D01*
X101600D01*
X86969Y69850D01*
X86802Y71120D01*
X87324Y71260D01*
X89466Y72496D01*
X91214Y74244D01*
X92450Y76386D01*
X93081Y78740D01*
X83700D01*
Y80010D01*
X82430D01*
Y89391D01*
X80076Y88760D01*
X77934Y87524D01*
X76186Y85776D01*
X74950Y83634D01*
X74930Y83560D01*
X73660Y83727D01*
X73660Y322580D01*
X73660Y322580D01*
X122388Y322580D01*
Y279717D01*
D02*
G37*
%LPC*%
G36*
X167477Y884142D02*
X165771D01*
X164196Y883490D01*
X162990Y882284D01*
X162739Y881677D01*
X161365D01*
X161113Y882284D01*
X159908Y883490D01*
X158333Y884142D01*
X156627D01*
X155052Y883490D01*
X153847Y882284D01*
X153595Y881677D01*
X152221D01*
X151969Y882284D01*
X150764Y883490D01*
X149189Y884142D01*
X147483D01*
X145908Y883490D01*
X144703Y882284D01*
X144451Y881677D01*
X143077D01*
X142825Y882284D01*
X141620Y883490D01*
X140045Y884142D01*
X138339D01*
X136764Y883490D01*
X135559Y882284D01*
X135307Y881677D01*
X133933D01*
X133681Y882284D01*
X132476Y883490D01*
X130901Y884142D01*
X129195D01*
X127620Y883490D01*
X126414Y882284D01*
X126163Y881677D01*
X124789D01*
X124537Y882284D01*
X123332Y883490D01*
X121757Y884142D01*
X120051D01*
X118476Y883490D01*
X117270Y882284D01*
X116879Y881338D01*
X115445Y880837D01*
X115343Y880915D01*
X112910Y881923D01*
X110300Y882266D01*
X107690Y881923D01*
X105257Y880915D01*
X103168Y879312D01*
X101565Y877223D01*
X100557Y874790D01*
X100214Y872180D01*
Y858180D01*
X100557Y855570D01*
X101565Y853137D01*
X103168Y851048D01*
X105257Y849445D01*
X107690Y848437D01*
X109209Y848237D01*
X109381Y846934D01*
X109332Y846914D01*
X108126Y845708D01*
X107875Y845101D01*
X106501D01*
X106250Y845708D01*
X105044Y846914D01*
X103469Y847566D01*
X101763D01*
X100188Y846914D01*
X98982Y845708D01*
X98330Y844133D01*
Y842427D01*
X98982Y840852D01*
X100188Y839647D01*
X100795Y839395D01*
Y838021D01*
X100188Y837769D01*
X98982Y836564D01*
X98330Y834989D01*
Y833283D01*
X98982Y831708D01*
X100188Y830502D01*
X100795Y830251D01*
Y828877D01*
X100188Y828625D01*
X98982Y827420D01*
X98330Y825845D01*
Y824139D01*
X98982Y822564D01*
X100188Y821358D01*
X100795Y821107D01*
Y819733D01*
X100188Y819482D01*
X98982Y818276D01*
X98330Y816701D01*
Y814995D01*
X98982Y813420D01*
X100188Y812215D01*
X100795Y811963D01*
Y810589D01*
X100188Y810338D01*
X98982Y809132D01*
X98330Y807557D01*
Y805851D01*
X98982Y804276D01*
X100188Y803071D01*
X100795Y802819D01*
Y801445D01*
X100188Y801193D01*
X98982Y799988D01*
X98330Y798413D01*
Y796707D01*
X98982Y795132D01*
X100188Y793926D01*
X100795Y793675D01*
Y792301D01*
X100188Y792049D01*
X98982Y790844D01*
X98330Y789269D01*
Y787563D01*
X98982Y785988D01*
X100188Y784782D01*
X100795Y784531D01*
Y783157D01*
X100188Y782906D01*
X98982Y781700D01*
X98330Y780125D01*
Y778419D01*
X98982Y776844D01*
X100188Y775639D01*
X101763Y774986D01*
X103469D01*
X105044Y775639D01*
X106250Y776844D01*
X106501Y777451D01*
X107875D01*
X108126Y776844D01*
X109332Y775639D01*
X109939Y775387D01*
Y774013D01*
X109332Y773762D01*
X108126Y772556D01*
X107474Y770981D01*
Y769275D01*
X108126Y767700D01*
X109332Y766495D01*
X110907Y765842D01*
X112613D01*
X114188Y766495D01*
X115393Y767700D01*
X115645Y768307D01*
X117019D01*
X117270Y767700D01*
X118476Y766495D01*
X119083Y766243D01*
Y764869D01*
X118476Y764617D01*
X117270Y763412D01*
X116618Y761837D01*
Y760131D01*
X117270Y758556D01*
X118476Y757350D01*
X120051Y756698D01*
X121757D01*
X123332Y757350D01*
X124537Y758556D01*
X124789Y759163D01*
X126163D01*
X126414Y758556D01*
X127620Y757350D01*
X128227Y757099D01*
Y755725D01*
X127620Y755473D01*
X126414Y754268D01*
X125762Y752693D01*
Y750987D01*
X126414Y749412D01*
X127620Y748206D01*
X129195Y747554D01*
X130901D01*
X132476Y748206D01*
X133681Y749412D01*
X134334Y750987D01*
Y752693D01*
X133681Y754268D01*
X132476Y755473D01*
X131869Y755725D01*
Y757099D01*
X132476Y757350D01*
X133681Y758556D01*
X133933Y759163D01*
X135307D01*
X135559Y758556D01*
X136764Y757350D01*
X138339Y756698D01*
X140045D01*
X141620Y757350D01*
X142825Y758556D01*
X143077Y759163D01*
X144451D01*
X144703Y758556D01*
X145908Y757350D01*
X147483Y756698D01*
X149189D01*
X150764Y757350D01*
X151969Y758556D01*
X152221Y759163D01*
X153595D01*
X153847Y758556D01*
X155052Y757350D01*
X156627Y756698D01*
X158333D01*
X159908Y757350D01*
X161113Y758556D01*
X161365Y759163D01*
X162739D01*
X162990Y758556D01*
X164196Y757350D01*
X165771Y756698D01*
X167477D01*
X169052Y757350D01*
X170257Y758556D01*
X170509Y759163D01*
X171883D01*
X172134Y758556D01*
X173340Y757350D01*
X174915Y756698D01*
X176621D01*
X178196Y757350D01*
X179401Y758556D01*
X179653Y759163D01*
X181027D01*
X181278Y758556D01*
X182484Y757350D01*
X184059Y756698D01*
X185765D01*
X187340Y757350D01*
X188545Y758556D01*
X188797Y759163D01*
X190171D01*
X190422Y758556D01*
X191628Y757350D01*
X193203Y756698D01*
X194909D01*
X196484Y757350D01*
X197689Y758556D01*
X197941Y759163D01*
X199315D01*
X199566Y758556D01*
X200772Y757350D01*
X202347Y756698D01*
X204053D01*
X205628Y757350D01*
X206833Y758556D01*
X207085Y759163D01*
X208459D01*
X208710Y758556D01*
X209916Y757350D01*
X211491Y756698D01*
X213197D01*
X214772Y757350D01*
X215977Y758556D01*
X216229Y759163D01*
X217603D01*
X217854Y758556D01*
X219060Y757350D01*
X220635Y756698D01*
X222341D01*
X223916Y757350D01*
X225121Y758556D01*
X225373Y759163D01*
X226747D01*
X226999Y758556D01*
X228204Y757350D01*
X229779Y756698D01*
X231485D01*
X233060Y757350D01*
X234265Y758556D01*
X234517Y759163D01*
X235891D01*
X236143Y758556D01*
X237348Y757350D01*
X238923Y756698D01*
X240629D01*
X242204Y757350D01*
X243410Y758556D01*
X243661Y759163D01*
X245035D01*
X245287Y758556D01*
X246492Y757350D01*
X248067Y756698D01*
X249773D01*
X251348Y757350D01*
X252554Y758556D01*
X252805Y759163D01*
X254179D01*
X254431Y758556D01*
X255636Y757350D01*
X257211Y756698D01*
X258917D01*
X260492Y757350D01*
X261698Y758556D01*
X261949Y759163D01*
X263323D01*
X263575Y758556D01*
X264780Y757350D01*
X265387Y757099D01*
Y755725D01*
X264780Y755473D01*
X263575Y754268D01*
X262922Y752693D01*
Y750987D01*
X263575Y749412D01*
X264780Y748206D01*
X265387Y747955D01*
Y746581D01*
X264780Y746329D01*
X263575Y745124D01*
X262922Y743549D01*
Y741843D01*
X263575Y740268D01*
X264780Y739062D01*
X266355Y738410D01*
X268061D01*
X269636Y739062D01*
X270842Y740268D01*
X271093Y740875D01*
X272467D01*
X272719Y740268D01*
X273924Y739062D01*
X274531Y738811D01*
Y737437D01*
X273924Y737186D01*
X272719Y735980D01*
X272066Y734405D01*
Y732699D01*
X272719Y731124D01*
X273924Y729919D01*
X274531Y729667D01*
Y728293D01*
X273924Y728042D01*
X272719Y726836D01*
X272066Y725261D01*
Y723555D01*
X272719Y721980D01*
X273924Y720775D01*
X275499Y720122D01*
X277205D01*
X278780Y720775D01*
X279986Y721980D01*
X280237Y722587D01*
X281611D01*
X281863Y721980D01*
X283068Y720775D01*
X283675Y720523D01*
Y719149D01*
X283068Y718897D01*
X281863Y717692D01*
X281210Y716117D01*
Y714411D01*
X281863Y712836D01*
X283068Y711630D01*
X284643Y710978D01*
X286349D01*
X287924Y711630D01*
X289130Y712836D01*
X289381Y713443D01*
X290755D01*
X291007Y712836D01*
X292212Y711630D01*
X293787Y710978D01*
X295493D01*
X297068Y711630D01*
X298274Y712836D01*
X298525Y713443D01*
X299899D01*
X300151Y712836D01*
X301356Y711630D01*
X302931Y710978D01*
X304637D01*
X306212Y711630D01*
X307418Y712836D01*
X307669Y713443D01*
X309043D01*
X309294Y712836D01*
X310500Y711630D01*
X312075Y710978D01*
X313781D01*
X315356Y711630D01*
X316562Y712836D01*
X316813Y713443D01*
X318187D01*
X318438Y712836D01*
X319644Y711630D01*
X321219Y710978D01*
X322925D01*
X324500Y711630D01*
X325705Y712836D01*
X325957Y713443D01*
X327331D01*
X327583Y712836D01*
X328788Y711630D01*
X330363Y710978D01*
X332069D01*
X333644Y711630D01*
X334850Y712836D01*
X335101Y713443D01*
X336475D01*
X336726Y712836D01*
X337932Y711630D01*
X339507Y710978D01*
X341213D01*
X342788Y711630D01*
X343993Y712836D01*
X344245Y713443D01*
X345619D01*
X345871Y712836D01*
X347076Y711630D01*
X348651Y710978D01*
X350357D01*
X351932Y711630D01*
X353138Y712836D01*
X353389Y713443D01*
X354763D01*
X355014Y712836D01*
X356220Y711630D01*
X357795Y710978D01*
X359501D01*
X361076Y711630D01*
X362281Y712836D01*
X362533Y713443D01*
X363907D01*
X364159Y712836D01*
X365364Y711630D01*
X366939Y710978D01*
X368645D01*
X370220Y711630D01*
X371426Y712836D01*
X372078Y714411D01*
Y716117D01*
X371426Y717692D01*
X370220Y718897D01*
X369613Y719149D01*
Y720523D01*
X370220Y720775D01*
X371426Y721980D01*
X372078Y723555D01*
Y725261D01*
X371426Y726836D01*
X370220Y728042D01*
X368645Y728694D01*
X366939D01*
X365364Y728042D01*
X364159Y726836D01*
X363907Y726229D01*
X362533D01*
X362281Y726836D01*
X361076Y728042D01*
X360469Y728293D01*
Y729667D01*
X361076Y729919D01*
X362281Y731124D01*
X362934Y732699D01*
Y734405D01*
X362281Y735980D01*
X361076Y737186D01*
X360469Y737437D01*
Y738811D01*
X361076Y739062D01*
X362281Y740268D01*
X362934Y741843D01*
Y743549D01*
X362281Y745124D01*
X361076Y746329D01*
X360469Y746581D01*
Y747955D01*
X361076Y748206D01*
X362281Y749412D01*
X362533Y750019D01*
X363907D01*
X364159Y749412D01*
X365364Y748206D01*
X366939Y747554D01*
X368645D01*
X370220Y748206D01*
X371426Y749412D01*
X372078Y750987D01*
Y752693D01*
X371426Y754268D01*
X370220Y755473D01*
X368645Y756126D01*
X366939D01*
X365364Y755473D01*
X364159Y754268D01*
X363907Y753661D01*
X362533D01*
X362281Y754268D01*
X361076Y755473D01*
X360469Y755725D01*
Y757099D01*
X361076Y757350D01*
X362281Y758556D01*
X362934Y760131D01*
Y761837D01*
X362281Y763412D01*
X361076Y764617D01*
X360469Y764869D01*
Y766243D01*
X361076Y766495D01*
X362281Y767700D01*
X362934Y769275D01*
Y770981D01*
X362281Y772556D01*
X361076Y773762D01*
X360469Y774013D01*
Y775387D01*
X361076Y775639D01*
X362281Y776844D01*
X362934Y778419D01*
Y780125D01*
X362281Y781700D01*
X361076Y782906D01*
X360469Y783157D01*
Y784531D01*
X361076Y784782D01*
X362281Y785988D01*
X362934Y787563D01*
Y789269D01*
X362281Y790844D01*
X361076Y792049D01*
X360469Y792301D01*
Y793675D01*
X361076Y793926D01*
X362281Y795132D01*
X362533Y795739D01*
X363907D01*
X364159Y795132D01*
X365364Y793926D01*
X366939Y793274D01*
X368645D01*
X370220Y793926D01*
X371426Y795132D01*
X372078Y796707D01*
Y798413D01*
X371426Y799988D01*
X370220Y801193D01*
X369613Y801445D01*
Y802819D01*
X370220Y803071D01*
X371426Y804276D01*
X372078Y805851D01*
Y807557D01*
X371426Y809132D01*
X370220Y810338D01*
X368645Y810990D01*
X366939D01*
X365364Y810338D01*
X364159Y809132D01*
X363907Y808525D01*
X362533D01*
X362281Y809132D01*
X361076Y810338D01*
X359501Y810990D01*
X357795D01*
X356220Y810338D01*
X355014Y809132D01*
X354763Y808525D01*
X353389D01*
X353138Y809132D01*
X351932Y810338D01*
X350357Y810990D01*
X348651D01*
X347076Y810338D01*
X345871Y809132D01*
X345619Y808525D01*
X344245D01*
X343993Y809132D01*
X342788Y810338D01*
X341213Y810990D01*
X339507D01*
X337932Y810338D01*
X336726Y809132D01*
X336475Y808525D01*
X335101D01*
X334850Y809132D01*
X333644Y810338D01*
X332069Y810990D01*
X330363D01*
X328788Y810338D01*
X327583Y809132D01*
X327331Y808525D01*
X325957D01*
X325705Y809132D01*
X324500Y810338D01*
X322925Y810990D01*
X321219D01*
X319644Y810338D01*
X318438Y809132D01*
X318187Y808525D01*
X316813D01*
X316562Y809132D01*
X315356Y810338D01*
X313781Y810990D01*
X312075D01*
X310500Y810338D01*
X309294Y809132D01*
X309043Y808525D01*
X307669D01*
X307418Y809132D01*
X306212Y810338D01*
X304637Y810990D01*
X302931D01*
X301356Y810338D01*
X300151Y809132D01*
X299899Y808525D01*
X298525D01*
X298274Y809132D01*
X297068Y810338D01*
X295493Y810990D01*
X293787D01*
X292212Y810338D01*
X291007Y809132D01*
X290354Y807557D01*
Y805851D01*
X291007Y804276D01*
X292212Y803071D01*
X292819Y802819D01*
Y801445D01*
X292212Y801193D01*
X291007Y799988D01*
X290755Y799381D01*
X289381D01*
X289130Y799988D01*
X287924Y801193D01*
X286349Y801846D01*
X284643D01*
X283068Y801193D01*
X281863Y799988D01*
X281210Y798413D01*
Y796707D01*
X281863Y795132D01*
X283068Y793926D01*
X283675Y793675D01*
Y792301D01*
X283068Y792049D01*
X281863Y790844D01*
X281611Y790237D01*
X280237D01*
X279986Y790844D01*
X278780Y792049D01*
X277205Y792702D01*
X275499D01*
X273924Y792049D01*
X272719Y790844D01*
X272066Y789269D01*
Y787563D01*
X272719Y785988D01*
X273924Y784782D01*
X274531Y784531D01*
Y783157D01*
X273924Y782906D01*
X272719Y781700D01*
X272467Y781093D01*
X271093D01*
X270842Y781700D01*
X269636Y782906D01*
X268061Y783558D01*
X266355D01*
X264780Y782906D01*
X263575Y781700D01*
X262922Y780125D01*
Y778419D01*
X263575Y776844D01*
X264780Y775639D01*
X265387Y775387D01*
Y774013D01*
X264780Y773762D01*
X263575Y772556D01*
X263323Y771949D01*
X261949D01*
X261698Y772556D01*
X260492Y773762D01*
X258917Y774414D01*
X257211D01*
X255636Y773762D01*
X254431Y772556D01*
X254179Y771949D01*
X252805D01*
X252554Y772556D01*
X251348Y773762D01*
X249773Y774414D01*
X248067D01*
X246492Y773762D01*
X245287Y772556D01*
X245035Y771949D01*
X243661D01*
X243410Y772556D01*
X242204Y773762D01*
X240629Y774414D01*
X238923D01*
X237348Y773762D01*
X236143Y772556D01*
X235891Y771949D01*
X234517D01*
X234265Y772556D01*
X233060Y773762D01*
X231485Y774414D01*
X229779D01*
X228204Y773762D01*
X226999Y772556D01*
X226747Y771949D01*
X225373D01*
X225121Y772556D01*
X223916Y773762D01*
X222341Y774414D01*
X220635D01*
X219060Y773762D01*
X217854Y772556D01*
X217603Y771949D01*
X216229D01*
X215977Y772556D01*
X214772Y773762D01*
X213197Y774414D01*
X211491D01*
X209916Y773762D01*
X208710Y772556D01*
X208459Y771949D01*
X207085D01*
X206833Y772556D01*
X205628Y773762D01*
X204053Y774414D01*
X202347D01*
X200772Y773762D01*
X199566Y772556D01*
X199315Y771949D01*
X197941D01*
X197689Y772556D01*
X196484Y773762D01*
X194909Y774414D01*
X193203D01*
X191628Y773762D01*
X190422Y772556D01*
X190171Y771949D01*
X188797D01*
X188545Y772556D01*
X187340Y773762D01*
X185765Y774414D01*
X184059D01*
X182484Y773762D01*
X181278Y772556D01*
X181027Y771949D01*
X179653D01*
X179401Y772556D01*
X178196Y773762D01*
X176621Y774414D01*
X174915D01*
X173340Y773762D01*
X172134Y772556D01*
X171883Y771949D01*
X170509D01*
X170257Y772556D01*
X169052Y773762D01*
X168445Y774013D01*
Y775387D01*
X169052Y775639D01*
X170257Y776844D01*
X170910Y778419D01*
Y780125D01*
X170257Y781700D01*
X169052Y782906D01*
X168445Y783157D01*
Y784531D01*
X169052Y784782D01*
X170257Y785988D01*
X170910Y787563D01*
Y789269D01*
X170257Y790844D01*
X169052Y792049D01*
X168445Y792301D01*
Y793675D01*
X169052Y793926D01*
X170257Y795132D01*
X170910Y796707D01*
Y798413D01*
X170257Y799988D01*
X169052Y801193D01*
X168445Y801445D01*
Y802819D01*
X169052Y803071D01*
X170257Y804276D01*
X170910Y805851D01*
Y807557D01*
X170257Y809132D01*
X169052Y810338D01*
X168445Y810589D01*
Y811963D01*
X169052Y812215D01*
X170257Y813420D01*
X170910Y814995D01*
Y816701D01*
X170257Y818276D01*
X169052Y819482D01*
X168445Y819733D01*
Y821107D01*
X169052Y821358D01*
X170257Y822564D01*
X170910Y824139D01*
Y825845D01*
X170257Y827420D01*
X169052Y828625D01*
X168445Y828877D01*
Y830251D01*
X169052Y830502D01*
X170257Y831708D01*
X170910Y833283D01*
Y834989D01*
X170257Y836564D01*
X169052Y837769D01*
X168445Y838021D01*
Y839395D01*
X169052Y839647D01*
X170257Y840852D01*
X170910Y842427D01*
Y844133D01*
X170257Y845708D01*
X169052Y846914D01*
X168445Y847165D01*
Y848539D01*
X169052Y848791D01*
X170257Y849996D01*
X170910Y851571D01*
Y853277D01*
X170257Y854852D01*
X169052Y856058D01*
X168445Y856309D01*
Y857683D01*
X169052Y857934D01*
X170257Y859140D01*
X170910Y860715D01*
Y862421D01*
X170257Y863996D01*
X169052Y865201D01*
X168445Y865453D01*
Y866827D01*
X169052Y867078D01*
X170257Y868284D01*
X170910Y869859D01*
Y871565D01*
X170257Y873140D01*
X169052Y874345D01*
X168445Y874597D01*
Y875971D01*
X169052Y876223D01*
X170257Y877428D01*
X170910Y879003D01*
Y880709D01*
X170257Y882284D01*
X169052Y883490D01*
X167477Y884142D01*
D02*
G37*
G36*
X578482Y887110D02*
X576638D01*
X574858Y886633D01*
X573262Y885711D01*
X571959Y884408D01*
X571037Y882812D01*
X570560Y881032D01*
Y879188D01*
X571037Y877408D01*
X571959Y875812D01*
X573262Y874509D01*
X574858Y873587D01*
X576638Y873110D01*
X578482D01*
X580262Y873587D01*
X581858Y874509D01*
X583161Y875812D01*
X584083Y877408D01*
X584560Y879188D01*
Y881032D01*
X584083Y882812D01*
X583161Y884408D01*
X581858Y885711D01*
X580262Y886633D01*
X578482Y887110D01*
D02*
G37*
G36*
X510482D02*
X508638D01*
X506858Y886633D01*
X505262Y885711D01*
X503959Y884408D01*
X503037Y882812D01*
X502560Y881032D01*
Y879188D01*
X503037Y877408D01*
X503959Y875812D01*
X505262Y874509D01*
X506858Y873587D01*
X508638Y873110D01*
X510482D01*
X512262Y873587D01*
X513858Y874509D01*
X515161Y875812D01*
X516083Y877408D01*
X516560Y879188D01*
Y881032D01*
X516083Y882812D01*
X515161Y884408D01*
X513858Y885711D01*
X512262Y886633D01*
X510482Y887110D01*
D02*
G37*
G36*
X524093Y879316D02*
X522387D01*
X520812Y878663D01*
X519607Y877458D01*
X518954Y875883D01*
Y874177D01*
X519607Y872602D01*
X520812Y871396D01*
X522387Y870744D01*
X524093D01*
X525668Y871396D01*
X526874Y872602D01*
X527526Y874177D01*
Y875883D01*
X526874Y877458D01*
X525668Y878663D01*
X524093Y879316D01*
D02*
G37*
G36*
X245300Y882266D02*
X242689Y881923D01*
X240257Y880915D01*
X238168Y879312D01*
X236565Y877223D01*
X235557Y874790D01*
X235214Y872180D01*
Y858180D01*
X235557Y855570D01*
X236565Y853137D01*
X238168Y851048D01*
X240257Y849445D01*
X242689Y848437D01*
X245300Y848094D01*
X247910Y848437D01*
X250343Y849445D01*
X252432Y851048D01*
X254035Y853137D01*
X255043Y855570D01*
X255386Y858180D01*
Y872180D01*
X255043Y874790D01*
X254035Y877223D01*
X252432Y879312D01*
X250343Y880915D01*
X247910Y881923D01*
X245300Y882266D01*
D02*
G37*
G36*
X423763Y822166D02*
X422057D01*
X420482Y821514D01*
X419277Y820308D01*
X418624Y818733D01*
Y817027D01*
X419277Y815452D01*
X420482Y814247D01*
X422057Y813594D01*
X423763D01*
X425338Y814247D01*
X426544Y815452D01*
X427196Y817027D01*
Y818733D01*
X426544Y820308D01*
X425338Y821514D01*
X423763Y822166D01*
D02*
G37*
G36*
X215967Y827180D02*
X211633D01*
X207383Y826335D01*
X203379Y824676D01*
X199776Y822269D01*
X196712Y819204D01*
X194304Y815601D01*
X192645Y811597D01*
X191800Y807347D01*
Y803013D01*
X192645Y798763D01*
X194304Y794759D01*
X196712Y791156D01*
X199776Y788092D01*
X203379Y785684D01*
X207383Y784025D01*
X211633Y783180D01*
X215967D01*
X220217Y784025D01*
X224221Y785684D01*
X227824Y788092D01*
X230889Y791156D01*
X233296Y794759D01*
X234954Y798763D01*
X235800Y803013D01*
Y807347D01*
X234954Y811597D01*
X233296Y815601D01*
X230889Y819204D01*
X227824Y822269D01*
X224221Y824676D01*
X220217Y826335D01*
X215967Y827180D01*
D02*
G37*
G36*
X620613Y791686D02*
X618907D01*
X617332Y791033D01*
X616127Y789828D01*
X615474Y788253D01*
Y786547D01*
X616127Y784972D01*
X617332Y783766D01*
X618907Y783114D01*
X620613D01*
X622188Y783766D01*
X623394Y784972D01*
X624046Y786547D01*
Y788253D01*
X623394Y789828D01*
X622188Y791033D01*
X620613Y791686D01*
D02*
G37*
G36*
X64624Y797050D02*
X62376D01*
X60204Y796468D01*
X58256Y795344D01*
X56666Y793754D01*
X55542Y791806D01*
X54960Y789634D01*
Y787386D01*
X55542Y785214D01*
X56666Y783266D01*
X58256Y781676D01*
X60204Y780552D01*
X62376Y779970D01*
X64624D01*
X66796Y780552D01*
X68744Y781676D01*
X70334Y783266D01*
X71458Y785214D01*
X72040Y787386D01*
Y789634D01*
X71458Y791806D01*
X70334Y793754D01*
X68744Y795344D01*
X66796Y796468D01*
X64624Y797050D01*
D02*
G37*
G36*
Y777050D02*
X62376D01*
X60204Y776468D01*
X58256Y775344D01*
X56666Y773754D01*
X55542Y771806D01*
X54960Y769634D01*
Y767386D01*
X55542Y765214D01*
X56666Y763266D01*
X58256Y761676D01*
X60204Y760552D01*
X62376Y759970D01*
X64624D01*
X66796Y760552D01*
X68744Y761676D01*
X70334Y763266D01*
X71458Y765214D01*
X72040Y767386D01*
Y769634D01*
X71458Y771806D01*
X70334Y773754D01*
X68744Y775344D01*
X66796Y776468D01*
X64624Y777050D01*
D02*
G37*
G36*
X432653Y719550D02*
X430947D01*
X429372Y718897D01*
X428167Y717692D01*
X427915Y717085D01*
X426541D01*
X426289Y717692D01*
X425084Y718897D01*
X423509Y719550D01*
X421803D01*
X420228Y718897D01*
X419022Y717692D01*
X418370Y716117D01*
Y714411D01*
X419022Y712836D01*
X420228Y711630D01*
X420835Y711379D01*
Y710005D01*
X420228Y709753D01*
X419022Y708548D01*
X418771Y707941D01*
X417397D01*
X417146Y708548D01*
X415940Y709753D01*
X414365Y710406D01*
X412659D01*
X411084Y709753D01*
X409879Y708548D01*
X409627Y707941D01*
X408253D01*
X408002Y708548D01*
X406796Y709753D01*
X405221Y710406D01*
X403515D01*
X401940Y709753D01*
X400734Y708548D01*
X400082Y706973D01*
Y705267D01*
X400734Y703692D01*
X401940Y702486D01*
X402547Y702235D01*
Y700861D01*
X401940Y700610D01*
X400734Y699404D01*
X400082Y697829D01*
Y696123D01*
X400734Y694548D01*
X401940Y693343D01*
X403515Y692690D01*
X405221D01*
X406796Y693343D01*
X408002Y694548D01*
X408253Y695155D01*
X409627D01*
X409879Y694548D01*
X411084Y693343D01*
X412659Y692690D01*
X414365D01*
X415940Y693343D01*
X417146Y694548D01*
X417397Y695155D01*
X418771D01*
X419022Y694548D01*
X419897Y693674D01*
X419022Y692800D01*
X418370Y691225D01*
Y689519D01*
X419022Y687944D01*
X420228Y686739D01*
X420835Y686487D01*
Y685113D01*
X420228Y684862D01*
X419022Y683656D01*
X418370Y682081D01*
Y680375D01*
X419022Y678800D01*
X420228Y677595D01*
X421803Y676942D01*
X423509D01*
X425084Y677595D01*
X426289Y678800D01*
X426541Y679407D01*
X427915D01*
X428167Y678800D01*
X429372Y677595D01*
X430947Y676942D01*
X432653D01*
X434228Y677595D01*
X435434Y678800D01*
X436086Y680375D01*
Y682081D01*
X435434Y683656D01*
X434228Y684862D01*
X433621Y685113D01*
Y686487D01*
X434228Y686739D01*
X435434Y687944D01*
X436086Y689519D01*
Y691225D01*
X435434Y692800D01*
X434559Y693674D01*
X435434Y694548D01*
X436086Y696123D01*
Y697829D01*
X435434Y699404D01*
X434228Y700610D01*
X433621Y700861D01*
Y702235D01*
X434228Y702486D01*
X435434Y703692D01*
X436086Y705267D01*
Y706973D01*
X435434Y708548D01*
X434228Y709753D01*
X433621Y710005D01*
Y711379D01*
X434228Y711630D01*
X435434Y712836D01*
X436086Y714411D01*
Y716117D01*
X435434Y717692D01*
X434228Y718897D01*
X432653Y719550D01*
D02*
G37*
G36*
X64624Y722280D02*
X62376D01*
X60204Y721698D01*
X58256Y720574D01*
X56666Y718984D01*
X55542Y717036D01*
X54960Y714864D01*
Y712616D01*
X55542Y710444D01*
X56666Y708496D01*
X58256Y706906D01*
X60204Y705782D01*
X62376Y705200D01*
X64624D01*
X66796Y705782D01*
X68744Y706906D01*
X70334Y708496D01*
X71458Y710444D01*
X72040Y712616D01*
Y714864D01*
X71458Y717036D01*
X70334Y718984D01*
X68744Y720574D01*
X66796Y721698D01*
X64624Y722280D01*
D02*
G37*
G36*
Y702280D02*
X62376D01*
X60204Y701698D01*
X58256Y700574D01*
X56666Y698984D01*
X55542Y697036D01*
X54960Y694864D01*
Y692616D01*
X55542Y690444D01*
X56666Y688496D01*
X58256Y686906D01*
X60204Y685782D01*
X62376Y685200D01*
X64624D01*
X66796Y685782D01*
X68744Y686906D01*
X70334Y688496D01*
X71458Y690444D01*
X72040Y692616D01*
Y694864D01*
X71458Y697036D01*
X70334Y698984D01*
X68744Y700574D01*
X66796Y701698D01*
X64624Y702280D01*
D02*
G37*
G36*
X378297Y651986D02*
X376591D01*
X375016Y651333D01*
X373811Y650128D01*
X373559Y649521D01*
X372185D01*
X371934Y650128D01*
X370728Y651333D01*
X369153Y651986D01*
X367447D01*
X365872Y651333D01*
X364666Y650128D01*
X364014Y648553D01*
Y646847D01*
X364666Y645272D01*
X365541Y644398D01*
X364666Y643524D01*
X364014Y641949D01*
Y640243D01*
X364666Y638668D01*
X365541Y637794D01*
X364666Y636920D01*
X364014Y635345D01*
Y633639D01*
X364666Y632064D01*
X365872Y630858D01*
X367447Y630206D01*
X369153D01*
X370728Y630858D01*
X371934Y632064D01*
X372185Y632671D01*
X373559D01*
X373811Y632064D01*
X375016Y630858D01*
X376591Y630206D01*
X378297D01*
X379872Y630858D01*
X381077Y632064D01*
X381730Y633639D01*
Y635345D01*
X381077Y636920D01*
X380203Y637794D01*
X381077Y638668D01*
X381730Y640243D01*
Y641949D01*
X381077Y643524D01*
X380203Y644398D01*
X381077Y645272D01*
X381730Y646847D01*
Y648553D01*
X381077Y650128D01*
X379872Y651333D01*
X378297Y651986D01*
D02*
G37*
G36*
X408523D02*
X406817D01*
X405242Y651333D01*
X404036Y650128D01*
X403384Y648553D01*
Y646847D01*
X404036Y645272D01*
X405242Y644066D01*
X406817Y643414D01*
X408523D01*
X410098Y644066D01*
X411303Y645272D01*
X411956Y646847D01*
Y648553D01*
X411303Y650128D01*
X410098Y651333D01*
X408523Y651986D01*
D02*
G37*
G36*
X64770Y650015D02*
Y642225D01*
X72560D01*
X71961Y644460D01*
X70766Y646530D01*
X69075Y648221D01*
X67005Y649416D01*
X64770Y650015D01*
D02*
G37*
G36*
X62230D02*
X59995Y649416D01*
X57925Y648221D01*
X56234Y646530D01*
X55039Y644460D01*
X54440Y642225D01*
X62230D01*
Y650015D01*
D02*
G37*
G36*
Y639685D02*
X54440D01*
X55039Y637450D01*
X56234Y635380D01*
X57925Y633689D01*
X59995Y632494D01*
X62230Y631895D01*
Y639685D01*
D02*
G37*
G36*
X72560D02*
X64770D01*
Y631895D01*
X67005Y632494D01*
X69075Y633689D01*
X70766Y635380D01*
X71961Y637450D01*
X72560Y639685D01*
D02*
G37*
G36*
X484215Y629634D02*
X482509D01*
X480934Y628982D01*
X479729Y627776D01*
X479076Y626201D01*
Y624495D01*
X479729Y622920D01*
X480934Y621715D01*
X482509Y621062D01*
X484215D01*
X485790Y621715D01*
X486996Y622920D01*
X487648Y624495D01*
Y626201D01*
X486996Y627776D01*
X485790Y628982D01*
X484215Y629634D01*
D02*
G37*
G36*
X64624Y345228D02*
X62376D01*
X60204Y344646D01*
X58256Y343522D01*
X56666Y341932D01*
X55542Y339985D01*
X54960Y337812D01*
Y335564D01*
X55542Y333392D01*
X56666Y331445D01*
X58256Y329855D01*
X60204Y328730D01*
X62376Y328148D01*
X64624D01*
X66796Y328730D01*
X68744Y329855D01*
X70334Y331445D01*
X71458Y333392D01*
X72040Y335564D01*
Y337812D01*
X71458Y339985D01*
X70334Y341932D01*
X68744Y343522D01*
X66796Y344646D01*
X64624Y345228D01*
D02*
G37*
G36*
X587864Y732440D02*
X585616D01*
X583444Y731858D01*
X581496Y730734D01*
X579906Y729144D01*
X578782Y727196D01*
X578200Y725024D01*
Y722776D01*
X578782Y720604D01*
X579906Y718656D01*
X581496Y717066D01*
X583444Y715942D01*
X585616Y715360D01*
X587864D01*
X590036Y715942D01*
X591984Y717066D01*
X593574Y718656D01*
X594698Y720604D01*
X595280Y722776D01*
Y725024D01*
X594698Y727196D01*
X593574Y729144D01*
X591984Y730734D01*
X590036Y731858D01*
X587864Y732440D01*
D02*
G37*
G36*
Y712440D02*
X585616D01*
X583444Y711858D01*
X581496Y710734D01*
X579906Y709144D01*
X578782Y707196D01*
X578200Y705024D01*
Y702776D01*
X578782Y700604D01*
X579906Y698656D01*
X581496Y697066D01*
X583444Y695942D01*
X585616Y695360D01*
X587864D01*
X590036Y695942D01*
X591984Y697066D01*
X593574Y698656D01*
X594698Y700604D01*
X595280Y702776D01*
Y705024D01*
X594698Y707196D01*
X593574Y709144D01*
X591984Y710734D01*
X590036Y711858D01*
X587864Y712440D01*
D02*
G37*
G36*
X484215Y610838D02*
X482509D01*
X480934Y610186D01*
X479729Y608980D01*
X479076Y607405D01*
Y605699D01*
X479729Y604124D01*
X480934Y602919D01*
X482509Y602266D01*
X484215D01*
X485790Y602919D01*
X486996Y604124D01*
X487648Y605699D01*
Y607405D01*
X486996Y608980D01*
X485790Y610186D01*
X484215Y610838D01*
D02*
G37*
G36*
X553303Y601186D02*
X551597D01*
X550022Y600533D01*
X548816Y599328D01*
X548164Y597753D01*
Y596047D01*
X548816Y594472D01*
X550022Y593266D01*
X551597Y592614D01*
X553303D01*
X554878Y593266D01*
X556083Y594472D01*
X556736Y596047D01*
Y597753D01*
X556083Y599328D01*
X554878Y600533D01*
X553303Y601186D01*
D02*
G37*
G36*
X442813D02*
X441107D01*
X439532Y600533D01*
X438326Y599328D01*
X437674Y597753D01*
Y596047D01*
X438326Y594472D01*
X439532Y593266D01*
X441107Y592614D01*
X442813D01*
X444388Y593266D01*
X445593Y594472D01*
X446246Y596047D01*
Y597753D01*
X445593Y599328D01*
X444388Y600533D01*
X442813Y601186D01*
D02*
G37*
G36*
X534841Y597376D02*
X533136D01*
X531561Y596724D01*
X530355Y595518D01*
X529703Y593943D01*
Y592237D01*
X530355Y590662D01*
X531261Y589756D01*
X530838Y588486D01*
X530007D01*
X528432Y587834D01*
X527880Y587281D01*
X527050Y586742D01*
X526220Y587281D01*
X525668Y587834D01*
X524093Y588486D01*
X522387D01*
X520812Y587834D01*
X520260Y587281D01*
X519430Y586742D01*
X518600Y587281D01*
X518048Y587834D01*
X516473Y588486D01*
X514767D01*
X513192Y587834D01*
X512640Y587281D01*
X511810Y586742D01*
X510980Y587281D01*
X510428Y587834D01*
X508853Y588486D01*
X507147D01*
X505572Y587834D01*
X504366Y586628D01*
X503714Y585053D01*
Y583347D01*
X504366Y581772D01*
X505572Y580566D01*
X507147Y579914D01*
X508853D01*
X510428Y580566D01*
X510980Y581119D01*
X511348Y581358D01*
X512081Y581129D01*
X512656Y579740D01*
X512539Y579560D01*
X511987Y579008D01*
X511334Y577433D01*
Y575727D01*
X511987Y574152D01*
X513192Y572947D01*
X514767Y572294D01*
X516473D01*
X518048Y572947D01*
X518600Y573499D01*
X519430Y574038D01*
X520260Y573499D01*
X520812Y572947D01*
X522387Y572294D01*
X524093D01*
X525668Y572947D01*
X526220Y573499D01*
X527050Y574038D01*
X527880Y573499D01*
X528432Y572947D01*
X530007Y572294D01*
X531713D01*
X533288Y572947D01*
X533840Y573499D01*
X534670Y574038D01*
X535500Y573499D01*
X536052Y572947D01*
X537627Y572294D01*
X539333D01*
X540908Y572947D01*
X542113Y574152D01*
X542766Y575727D01*
Y577433D01*
X542113Y579008D01*
X541561Y579560D01*
X541022Y580390D01*
X541561Y581220D01*
X542113Y581772D01*
X542766Y583347D01*
Y585053D01*
X542113Y586628D01*
X540908Y587834D01*
X539333Y588486D01*
X537627D01*
X536052Y587834D01*
X535500Y587281D01*
X534670Y586742D01*
X533840Y587281D01*
X533587Y587534D01*
X534011Y588804D01*
X534841D01*
X536417Y589456D01*
X537622Y590662D01*
X538275Y592237D01*
Y593943D01*
X537622Y595518D01*
X536417Y596724D01*
X534841Y597376D01*
D02*
G37*
G36*
X319673Y593516D02*
X317968D01*
X316393Y592863D01*
X315187Y591657D01*
X314534Y590082D01*
Y588377D01*
X315187Y586802D01*
X316393Y585596D01*
X317968Y584944D01*
X319673D01*
X321248Y585596D01*
X322454Y586802D01*
X323106Y588377D01*
Y590082D01*
X322454Y591657D01*
X321248Y592863D01*
X319673Y593516D01*
D02*
G37*
G36*
X350103Y579596D02*
X348397D01*
X346822Y578943D01*
X345616Y577738D01*
X344964Y576163D01*
Y574457D01*
X345616Y572882D01*
X346822Y571676D01*
X348397Y571024D01*
X350103D01*
X351678Y571676D01*
X352883Y572882D01*
X353536Y574457D01*
Y576163D01*
X352883Y577738D01*
X351678Y578943D01*
X350103Y579596D01*
D02*
G37*
G36*
X351373Y545306D02*
X349667D01*
X348092Y544654D01*
X346886Y543448D01*
X346234Y541873D01*
Y540167D01*
X346886Y538592D01*
X348092Y537387D01*
X349667Y536734D01*
X351373D01*
X352948Y537387D01*
X354154Y538592D01*
X354806Y540167D01*
Y541873D01*
X354154Y543448D01*
X352948Y544654D01*
X351373Y545306D01*
D02*
G37*
G36*
X323433Y549116D02*
X321727D01*
X320152Y548464D01*
X318946Y547258D01*
X318294Y545683D01*
Y543977D01*
X318946Y542402D01*
X320152Y541197D01*
X321393Y540682D01*
X320834Y539333D01*
Y537627D01*
X321487Y536052D01*
X322692Y534846D01*
X324267Y534194D01*
X325973D01*
X327548Y534846D01*
X328754Y536052D01*
X329406Y537627D01*
Y539333D01*
X328754Y540908D01*
X327548Y542113D01*
X326307Y542627D01*
X326866Y543977D01*
Y545683D01*
X326213Y547258D01*
X325008Y548464D01*
X323433Y549116D01*
D02*
G37*
G36*
X456783Y521176D02*
X455077D01*
X453502Y520523D01*
X452296Y519318D01*
X451644Y517743D01*
Y516037D01*
X452296Y514462D01*
X453502Y513256D01*
X455077Y512604D01*
X456783D01*
X458358Y513256D01*
X459563Y514462D01*
X460216Y516037D01*
Y517743D01*
X459563Y519318D01*
X458358Y520523D01*
X456783Y521176D01*
D02*
G37*
G36*
X485993Y519906D02*
X484287D01*
X482712Y519254D01*
X481507Y518048D01*
X480854Y516473D01*
Y514767D01*
X481507Y513192D01*
X482712Y511987D01*
X484287Y511334D01*
X485993D01*
X487568Y511987D01*
X488773Y513192D01*
X489426Y514767D01*
Y516473D01*
X488773Y518048D01*
X487568Y519254D01*
X485993Y519906D01*
D02*
G37*
G36*
X473293D02*
X471587D01*
X470012Y519254D01*
X468806Y518048D01*
X468154Y516473D01*
Y514767D01*
X468806Y513192D01*
X470012Y511987D01*
X471587Y511334D01*
X473293D01*
X474868Y511987D01*
X476073Y513192D01*
X476726Y514767D01*
Y516473D01*
X476073Y518048D01*
X474868Y519254D01*
X473293Y519906D01*
D02*
G37*
G36*
X532983Y502126D02*
X531277D01*
X529702Y501474D01*
X528497Y500268D01*
X527844Y498693D01*
Y496987D01*
X528497Y495412D01*
X529702Y494207D01*
X531277Y493554D01*
X532983D01*
X534558Y494207D01*
X535764Y495412D01*
X536416Y496987D01*
Y498693D01*
X535764Y500268D01*
X534558Y501474D01*
X532983Y502126D01*
D02*
G37*
G36*
X449163Y497046D02*
X447457D01*
X445882Y496394D01*
X444677Y495188D01*
X444024Y493613D01*
Y491907D01*
X444677Y490332D01*
X445882Y489127D01*
X447457Y488474D01*
X449163D01*
X450738Y489127D01*
X451944Y490332D01*
X452596Y491907D01*
Y493613D01*
X451944Y495188D01*
X450738Y496394D01*
X449163Y497046D01*
D02*
G37*
G36*
X425033Y489426D02*
X423327D01*
X421752Y488773D01*
X421200Y488221D01*
X420370Y487682D01*
X419540Y488221D01*
X418988Y488773D01*
X417413Y489426D01*
X415707D01*
X414132Y488773D01*
X413580Y488221D01*
X412750Y487682D01*
X411920Y488221D01*
X411368Y488773D01*
X409793Y489426D01*
X408087D01*
X406512Y488773D01*
X405960Y488221D01*
X405130Y487682D01*
X404300Y488221D01*
X403748Y488773D01*
X402173Y489426D01*
X400467D01*
X398892Y488773D01*
X398340Y488221D01*
X397510Y487682D01*
X396680Y488221D01*
X396128Y488773D01*
X394553Y489426D01*
X392847D01*
X391272Y488773D01*
X390720Y488221D01*
X389890Y487682D01*
X389060Y488221D01*
X388508Y488773D01*
X386933Y489426D01*
X385227D01*
X383652Y488773D01*
X382447Y487568D01*
X381794Y485993D01*
Y484287D01*
X382447Y482712D01*
X383652Y481507D01*
X385227Y480854D01*
X386933D01*
X388508Y481507D01*
X389060Y482059D01*
X389890Y482598D01*
X390720Y482059D01*
X391272Y481507D01*
X392847Y480854D01*
X394553D01*
X396128Y481507D01*
X396680Y482059D01*
X397510Y482598D01*
X398340Y482059D01*
X398892Y481507D01*
X400467Y480854D01*
X402173D01*
X403748Y481507D01*
X404300Y482059D01*
X405130Y482598D01*
X405960Y482059D01*
X406512Y481507D01*
X408087Y480854D01*
X409793D01*
X411368Y481507D01*
X411920Y482059D01*
X412750Y482598D01*
X413580Y482059D01*
X414132Y481507D01*
X415707Y480854D01*
X417413D01*
X418988Y481507D01*
X419540Y482059D01*
X420370Y482598D01*
X421200Y482059D01*
X421752Y481507D01*
X423327Y480854D01*
X425033D01*
X426608Y481507D01*
X427813Y482712D01*
X428466Y484287D01*
Y485993D01*
X427813Y487568D01*
X426608Y488773D01*
X425033Y489426D01*
D02*
G37*
G36*
X538063Y484346D02*
X536357D01*
X534782Y483694D01*
X533577Y482488D01*
X532924Y480913D01*
Y479207D01*
X533577Y477632D01*
X534782Y476427D01*
X536357Y475774D01*
X538063D01*
X539638Y476427D01*
X540844Y477632D01*
X541496Y479207D01*
Y480913D01*
X540844Y482488D01*
X539638Y483694D01*
X538063Y484346D01*
D02*
G37*
G36*
X441948Y483076D02*
X440243D01*
X438668Y482424D01*
X437462Y481218D01*
X436810Y479643D01*
Y477937D01*
X437462Y476362D01*
X438668Y475157D01*
X440243Y474504D01*
X441948D01*
X443523Y475157D01*
X444729Y476362D01*
X445382Y477937D01*
Y479643D01*
X444729Y481218D01*
X443523Y482424D01*
X441948Y483076D01*
D02*
G37*
G36*
X313173Y493336D02*
X311468D01*
X309893Y492683D01*
X308687Y491477D01*
X308034Y489902D01*
Y488197D01*
X308687Y486622D01*
X309893Y485416D01*
X311468Y484764D01*
X313173D01*
X313787Y485018D01*
X314759Y484046D01*
X314534Y483503D01*
Y481798D01*
X315187Y480223D01*
X315238Y480172D01*
X315002Y479527D01*
X314615Y478999D01*
X313105D01*
X311530Y478346D01*
X310324Y477141D01*
X309671Y475565D01*
Y473860D01*
X310324Y472285D01*
X311530Y471079D01*
X313105Y470427D01*
X314810D01*
X316385Y471079D01*
X317591Y472285D01*
X318243Y473860D01*
Y475565D01*
X317591Y477141D01*
X317540Y477191D01*
X317775Y477836D01*
X318163Y478364D01*
X319673D01*
X321248Y479017D01*
X322454Y480223D01*
X323106Y481798D01*
Y483503D01*
X322454Y485078D01*
X321248Y486284D01*
X319673Y486936D01*
X317968D01*
X317353Y486682D01*
X316381Y487654D01*
X316606Y488197D01*
Y489902D01*
X315954Y491477D01*
X314748Y492683D01*
X313173Y493336D01*
D02*
G37*
G36*
X389473Y469106D02*
X387767D01*
X386192Y468453D01*
X385640Y467901D01*
X384810Y467362D01*
X383980Y467901D01*
X383428Y468453D01*
X381853Y469106D01*
X380147D01*
X378572Y468453D01*
X378020Y467901D01*
X377190Y467362D01*
X376360Y467901D01*
X375808Y468453D01*
X374233Y469106D01*
X372527D01*
X370952Y468453D01*
X369747Y467248D01*
X369094Y465673D01*
Y463967D01*
X369747Y462392D01*
X370299Y461840D01*
X370838Y461010D01*
X370299Y460180D01*
X369747Y459628D01*
X369094Y458053D01*
Y456347D01*
X369747Y454772D01*
X370952Y453567D01*
X372527Y452914D01*
X374233D01*
X375808Y453567D01*
X376360Y454119D01*
X377190Y454658D01*
X378020Y454119D01*
X378572Y453567D01*
X380147Y452914D01*
X381853D01*
X383428Y453567D01*
X383980Y454119D01*
X384810Y454658D01*
X385640Y454119D01*
X386192Y453567D01*
X387767Y452914D01*
X389473D01*
X391048Y453567D01*
X392253Y454772D01*
X392906Y456347D01*
Y458053D01*
X392253Y459628D01*
X391701Y460180D01*
X391162Y461010D01*
X391701Y461840D01*
X392253Y462392D01*
X392906Y463967D01*
Y465673D01*
X392253Y467248D01*
X391048Y468453D01*
X389473Y469106D01*
D02*
G37*
G36*
X304383Y473551D02*
X302677D01*
X301102Y472898D01*
X299897Y471693D01*
X299244Y470118D01*
Y468412D01*
X299897Y466837D01*
X301102Y465631D01*
X302677Y464979D01*
X304383D01*
X305958Y465631D01*
X307164Y466837D01*
X307816Y468412D01*
Y470118D01*
X307164Y471693D01*
X305958Y472898D01*
X304383Y473551D01*
D02*
G37*
G36*
X338673Y462756D02*
X336967D01*
X335392Y462104D01*
X334187Y460898D01*
X334062Y460598D01*
X332688D01*
X332564Y460898D01*
X331358Y462104D01*
X329783Y462756D01*
X328077D01*
X326502Y462104D01*
X325297Y460898D01*
X325172Y460598D01*
X323798D01*
X323674Y460898D01*
X322468Y462104D01*
X320893Y462756D01*
X319187D01*
X317612Y462104D01*
X316406Y460898D01*
X315754Y459323D01*
Y457617D01*
X316406Y456042D01*
X317612Y454837D01*
X319187Y454184D01*
X320893D01*
X322468Y454837D01*
X323674Y456042D01*
X323798Y456342D01*
X325172D01*
X325297Y456042D01*
X326502Y454837D01*
X328077Y454184D01*
X329783D01*
X331358Y454837D01*
X332564Y456042D01*
X332688Y456342D01*
X334062D01*
X334187Y456042D01*
X335392Y454837D01*
X336967Y454184D01*
X338673D01*
X340248Y454837D01*
X341454Y456042D01*
X342106Y457617D01*
Y459323D01*
X341454Y460898D01*
X340248Y462104D01*
X338673Y462756D01*
D02*
G37*
G36*
X292953Y469106D02*
X291247D01*
X289672Y468453D01*
X288466Y467248D01*
X287814Y465673D01*
Y463967D01*
X288466Y462392D01*
X289672Y461186D01*
X291247Y460534D01*
X292953D01*
X294528Y461186D01*
X295734Y462392D01*
X296386Y463967D01*
Y465673D01*
X295734Y467248D01*
X294528Y468453D01*
X292953Y469106D01*
D02*
G37*
G36*
X407253Y461486D02*
X405547D01*
X403972Y460834D01*
X402766Y459628D01*
X402114Y458053D01*
Y456347D01*
X402766Y454772D01*
X403972Y453567D01*
X405547Y452914D01*
X407253D01*
X408828Y453567D01*
X410033Y454772D01*
X410686Y456347D01*
Y458053D01*
X410033Y459628D01*
X408828Y460834D01*
X407253Y461486D01*
D02*
G37*
G36*
X454719Y460633D02*
X453013D01*
X451438Y459981D01*
X450233Y458775D01*
X449580Y457200D01*
Y455495D01*
X450233Y453920D01*
X451438Y452714D01*
X453013Y452062D01*
X454719D01*
X456294Y452714D01*
X457500Y453920D01*
X458152Y455495D01*
Y457200D01*
X457500Y458775D01*
X456294Y459981D01*
X454719Y460633D01*
D02*
G37*
G36*
X427097D02*
X425392D01*
X423816Y459981D01*
X422611Y458775D01*
X421958Y457200D01*
Y455495D01*
X422611Y453920D01*
X423816Y452714D01*
X425392Y452062D01*
X427097D01*
X428672Y452714D01*
X429878Y453920D01*
X430530Y455495D01*
Y457200D01*
X429878Y458775D01*
X428672Y459981D01*
X427097Y460633D01*
D02*
G37*
G36*
X290381Y442586D02*
X288675D01*
X287100Y441934D01*
X285895Y440728D01*
X285242Y439153D01*
Y438956D01*
X283972Y438488D01*
X283098Y439362D01*
X281523Y440014D01*
X279817D01*
X278242Y439362D01*
X277036Y438156D01*
X276384Y436581D01*
Y434876D01*
X277036Y433301D01*
X278242Y432095D01*
X279817Y431442D01*
X281523D01*
X283098Y432095D01*
X284303Y433301D01*
X284956Y434876D01*
Y435072D01*
X286226Y435541D01*
X287100Y434667D01*
X288675Y434014D01*
X290381D01*
X291956Y434667D01*
X293162Y435872D01*
X293814Y437448D01*
Y439153D01*
X293162Y440728D01*
X291956Y441934D01*
X290381Y442586D01*
D02*
G37*
G36*
X477360Y447149D02*
X457360D01*
X456580Y446994D01*
X455918Y446552D01*
X455476Y445890D01*
X455321Y445110D01*
Y426110D01*
X455476Y425330D01*
X455918Y424668D01*
X456580Y424226D01*
X457360Y424071D01*
X477360D01*
X478140Y424226D01*
X478802Y424668D01*
X479244Y425330D01*
X479399Y426110D01*
Y445110D01*
X479244Y445890D01*
X478802Y446552D01*
X478140Y446994D01*
X477360Y447149D01*
D02*
G37*
G36*
X316448Y410081D02*
X314658D01*
X313004Y409396D01*
X311738Y408130D01*
X311053Y406477D01*
Y404686D01*
X311738Y403032D01*
X313004Y401767D01*
X314658Y401081D01*
Y399812D01*
X313004Y399127D01*
X311738Y397861D01*
X311418Y397089D01*
X310044D01*
X309724Y397861D01*
X308458Y399127D01*
X306804Y399812D01*
X305014D01*
X303360Y399127D01*
X302094Y397861D01*
X301409Y396207D01*
Y394417D01*
X302094Y392763D01*
X303360Y391497D01*
X305014Y390812D01*
X306804D01*
X308458Y391497D01*
X309724Y392763D01*
X310044Y393535D01*
X311418D01*
X311738Y392763D01*
X313004Y391497D01*
X314658Y390812D01*
X316448D01*
X318102Y391497D01*
X319368Y392763D01*
X320053Y394417D01*
Y396207D01*
X319368Y397861D01*
X318102Y399127D01*
X316448Y399812D01*
Y401081D01*
X318102Y401767D01*
X319368Y403032D01*
X320053Y404686D01*
Y406477D01*
X319368Y408130D01*
X318102Y409396D01*
X316448Y410081D01*
D02*
G37*
G36*
X343148D02*
X341358D01*
X339704Y409396D01*
X338438Y408130D01*
X337753Y406477D01*
Y404686D01*
X338438Y403032D01*
X339704Y401767D01*
X341358Y401081D01*
Y399812D01*
X339704Y399127D01*
X338438Y397861D01*
X337753Y396207D01*
Y394417D01*
X338438Y392763D01*
X339704Y391497D01*
X341358Y390812D01*
X343148D01*
X344802Y391497D01*
X346068Y392763D01*
X346343Y393428D01*
X347718D01*
X347993Y392763D01*
X349259Y391497D01*
X350913Y390812D01*
X352703D01*
X354357Y391497D01*
X355623Y392763D01*
X356308Y394417D01*
Y396207D01*
X355623Y397861D01*
X354357Y399127D01*
X352703Y399812D01*
X350913D01*
X349259Y399127D01*
X347993Y397861D01*
X347718Y397197D01*
X346343D01*
X346068Y397861D01*
X344802Y399127D01*
X343148Y399812D01*
Y401081D01*
X344802Y401767D01*
X346068Y403032D01*
X346753Y404686D01*
Y406477D01*
X346068Y408130D01*
X344802Y409396D01*
X343148Y410081D01*
D02*
G37*
G36*
X329573D02*
X327783D01*
X326129Y409396D01*
X324863Y408130D01*
X324178Y406477D01*
Y404686D01*
X324863Y403032D01*
X326129Y401767D01*
X327783Y401081D01*
Y399812D01*
X326129Y399127D01*
X324863Y397861D01*
X324178Y396207D01*
Y394417D01*
X324863Y392763D01*
X326129Y391497D01*
X327783Y390812D01*
X329573D01*
X331227Y391497D01*
X332493Y392763D01*
X333178Y394417D01*
Y396207D01*
X332493Y397861D01*
X331227Y399127D01*
X329573Y399812D01*
Y401081D01*
X331227Y401767D01*
X332493Y403032D01*
X333178Y404686D01*
Y406477D01*
X332493Y408130D01*
X331227Y409396D01*
X329573Y410081D01*
D02*
G37*
G36*
X376691Y399174D02*
X374986D01*
X373410Y398522D01*
X372205Y397316D01*
X371552Y395741D01*
Y394036D01*
X372205Y392461D01*
X373410Y391255D01*
X374986Y390602D01*
X376691D01*
X378266Y391255D01*
X379472Y392461D01*
X380124Y394036D01*
Y395741D01*
X379472Y397316D01*
X378266Y398522D01*
X376691Y399174D01*
D02*
G37*
G36*
X420970Y396834D02*
X419265D01*
X417690Y396182D01*
X416484Y394976D01*
X415832Y393401D01*
Y391696D01*
X416484Y390121D01*
X417690Y388915D01*
X419265Y388262D01*
X420970D01*
X422546Y388915D01*
X423751Y390121D01*
X424404Y391696D01*
Y393401D01*
X423751Y394976D01*
X422546Y396182D01*
X420970Y396834D01*
D02*
G37*
G36*
X352703Y386888D02*
X350913D01*
X349259Y386203D01*
X347993Y384937D01*
X347718Y384273D01*
X346343D01*
X346068Y384937D01*
X344802Y386203D01*
X343148Y386888D01*
X341358D01*
X339704Y386203D01*
X338438Y384937D01*
X337753Y383283D01*
Y381493D01*
X338438Y379839D01*
X339704Y378573D01*
X341358Y377888D01*
X343148D01*
X344802Y378573D01*
X346068Y379839D01*
X346343Y380504D01*
X347718D01*
X347993Y379839D01*
X349259Y378573D01*
X350913Y377888D01*
X352703D01*
X354357Y378573D01*
X355623Y379839D01*
X356308Y381493D01*
Y383283D01*
X355623Y384937D01*
X354357Y386203D01*
X352703Y386888D01*
D02*
G37*
G36*
X316448D02*
X314658D01*
X313004Y386203D01*
X311738Y384937D01*
X311418Y384165D01*
X310044D01*
X309724Y384937D01*
X308458Y386203D01*
X306804Y386888D01*
X305014D01*
X303360Y386203D01*
X302094Y384937D01*
X301409Y383283D01*
Y381493D01*
X302094Y379839D01*
X303360Y378573D01*
X305014Y377888D01*
X306804D01*
X308458Y378573D01*
X309724Y379839D01*
X310044Y380612D01*
X311418D01*
X311738Y379839D01*
X313004Y378573D01*
X314658Y377888D01*
X316448D01*
X318102Y378573D01*
X319368Y379839D01*
X320053Y381493D01*
Y383283D01*
X319368Y384937D01*
X318102Y386203D01*
X316448Y386888D01*
D02*
G37*
G36*
X468213Y391636D02*
X466507D01*
X464932Y390984D01*
X463727Y389778D01*
X463074Y388203D01*
Y386497D01*
X463727Y384922D01*
X464932Y383717D01*
X466507Y383064D01*
X468213D01*
X469788Y383717D01*
X470993Y384922D01*
X471646Y386497D01*
Y388203D01*
X470993Y389778D01*
X469788Y390984D01*
X468213Y391636D01*
D02*
G37*
G36*
X329573Y386888D02*
X327783D01*
X326129Y386203D01*
X324863Y384937D01*
X324178Y383283D01*
Y381493D01*
X324863Y379839D01*
X326129Y378573D01*
X327783Y377888D01*
X329573D01*
X331227Y378573D01*
X332493Y379839D01*
X333178Y381493D01*
Y383283D01*
X332493Y384937D01*
X331227Y386203D01*
X329573Y386888D01*
D02*
G37*
G36*
X92293Y385676D02*
X90587D01*
X89012Y385024D01*
X87807Y383818D01*
X87154Y382243D01*
Y380538D01*
X87807Y378963D01*
X89012Y377757D01*
X90587Y377105D01*
X92293D01*
X93868Y377757D01*
X95073Y378963D01*
X95726Y380538D01*
Y382243D01*
X95073Y383818D01*
X93868Y385024D01*
X92293Y385676D01*
D02*
G37*
G36*
X243171Y384134D02*
X241465D01*
X239890Y383482D01*
X238684Y382276D01*
X238032Y380701D01*
Y378996D01*
X238684Y377421D01*
X239890Y376215D01*
X241465Y375562D01*
X243171D01*
X244746Y376215D01*
X245951Y377421D01*
X246604Y378996D01*
Y380701D01*
X245951Y382276D01*
X244746Y383482D01*
X243171Y384134D01*
D02*
G37*
G36*
X352703Y373290D02*
X350913D01*
X349259Y372605D01*
X347993Y371339D01*
X347718Y370675D01*
X346343D01*
X346068Y371339D01*
X344802Y372605D01*
X343148Y373290D01*
X341358D01*
X339704Y372605D01*
X338438Y371339D01*
X337753Y369686D01*
Y367895D01*
X338438Y366241D01*
X339704Y364976D01*
X340476Y364656D01*
Y363281D01*
X339704Y362961D01*
X338438Y361695D01*
X337753Y360041D01*
Y358251D01*
X338438Y356597D01*
X339704Y355331D01*
X341358Y354646D01*
X343148D01*
X344802Y355331D01*
X346068Y356597D01*
X346753Y358251D01*
Y360041D01*
X346068Y361695D01*
X344802Y362961D01*
X344030Y363281D01*
Y364656D01*
X344802Y364976D01*
X346068Y366241D01*
X346343Y366906D01*
X347718D01*
X347993Y366241D01*
X349259Y364976D01*
X350913Y364290D01*
X352703D01*
X354357Y364976D01*
X355623Y366241D01*
X356308Y367895D01*
Y369686D01*
X355623Y371339D01*
X354357Y372605D01*
X352703Y373290D01*
D02*
G37*
G36*
X316448D02*
X314658D01*
X313004Y372605D01*
X311738Y371339D01*
X311418Y370567D01*
X310044D01*
X309724Y371339D01*
X308458Y372605D01*
X306804Y373290D01*
X305014D01*
X303360Y372605D01*
X302094Y371339D01*
X301409Y369686D01*
Y367895D01*
X302094Y366241D01*
X303360Y364976D01*
X305014Y364290D01*
X306804D01*
X308458Y364976D01*
X309724Y366241D01*
X310044Y367014D01*
X311418D01*
X311738Y366241D01*
X313004Y364976D01*
X313776Y364656D01*
Y363281D01*
X313004Y362961D01*
X311738Y361695D01*
X311053Y360041D01*
Y358251D01*
X311738Y356597D01*
X313004Y355331D01*
X314658Y354646D01*
X316448D01*
X318102Y355331D01*
X319368Y356597D01*
X320053Y358251D01*
Y360041D01*
X319368Y361695D01*
X318102Y362961D01*
X317330Y363281D01*
Y364656D01*
X318102Y364976D01*
X319368Y366241D01*
X320053Y367895D01*
Y369686D01*
X319368Y371339D01*
X318102Y372605D01*
X316448Y373290D01*
D02*
G37*
G36*
X526633Y363696D02*
X524927D01*
X523352Y363044D01*
X522146Y361838D01*
X521494Y360263D01*
Y358557D01*
X522146Y356982D01*
X523352Y355776D01*
X524927Y355124D01*
X526633D01*
X528208Y355776D01*
X529413Y356982D01*
X530066Y358557D01*
Y360263D01*
X529413Y361838D01*
X528208Y363044D01*
X526633Y363696D01*
D02*
G37*
G36*
X329573Y373290D02*
X327783D01*
X326129Y372605D01*
X324863Y371339D01*
X324178Y369686D01*
Y367895D01*
X324863Y366241D01*
X326129Y364976D01*
X326901Y364656D01*
Y363281D01*
X326129Y362961D01*
X324863Y361695D01*
X324178Y360041D01*
Y358251D01*
X324863Y356597D01*
X326129Y355331D01*
X327783Y354646D01*
X329573D01*
X331227Y355331D01*
X332493Y356597D01*
X333178Y358251D01*
Y360041D01*
X332493Y361695D01*
X331227Y362961D01*
X330455Y363281D01*
Y364656D01*
X331227Y364976D01*
X332493Y366241D01*
X333178Y367895D01*
Y369686D01*
X332493Y371339D01*
X331227Y372605D01*
X329573Y373290D01*
D02*
G37*
G36*
X477360Y364599D02*
X457360D01*
X456580Y364444D01*
X455918Y364002D01*
X455476Y363340D01*
X455321Y362560D01*
Y343560D01*
X455476Y342780D01*
X455918Y342118D01*
X456580Y341676D01*
X457360Y341521D01*
X477360D01*
X478140Y341676D01*
X478802Y342118D01*
X479244Y342780D01*
X479399Y343560D01*
Y362560D01*
X479244Y363340D01*
X478802Y364002D01*
X478140Y364444D01*
X477360Y364599D01*
D02*
G37*
G36*
X430033Y330436D02*
X428327D01*
X426752Y329784D01*
X425546Y328578D01*
X424894Y327002D01*
Y326463D01*
X424180Y326051D01*
X423466Y326463D01*
Y327002D01*
X422813Y328578D01*
X421608Y329784D01*
X420033Y330436D01*
X418327D01*
X416752Y329784D01*
X415546Y328578D01*
X414894Y327002D01*
Y326463D01*
X414180Y326051D01*
X413466Y326463D01*
Y327002D01*
X412813Y328578D01*
X411608Y329784D01*
X410033Y330436D01*
X408327D01*
X406752Y329784D01*
X405546Y328578D01*
X404894Y327002D01*
Y325297D01*
X405546Y323722D01*
X406752Y322517D01*
X408327Y321864D01*
X408789D01*
X409894Y321213D01*
Y319508D01*
X410546Y317932D01*
X411752Y316726D01*
X413327Y316074D01*
X415033D01*
X416608Y316726D01*
X417813Y317932D01*
X418466Y319508D01*
Y320047D01*
X419180Y320459D01*
X419894Y320047D01*
Y319508D01*
X420546Y317932D01*
X421752Y316726D01*
X423327Y316074D01*
X425033D01*
X426608Y316726D01*
X427813Y317932D01*
X428466Y319508D01*
Y320047D01*
X429180Y320459D01*
X429894Y320047D01*
Y319508D01*
X430546Y317932D01*
X431752Y316726D01*
X433327Y316074D01*
X435033D01*
X436608Y316726D01*
X437813Y317932D01*
X438466Y319508D01*
Y321213D01*
X437813Y322788D01*
X436608Y323993D01*
X435033Y324646D01*
X434571D01*
X433466Y325298D01*
Y327002D01*
X432813Y328578D01*
X431608Y329784D01*
X430033Y330436D01*
D02*
G37*
G36*
X305653Y331946D02*
X303947D01*
X302372Y331293D01*
X301166Y330088D01*
X300514Y328513D01*
Y326807D01*
X301166Y325232D01*
X302372Y324026D01*
X303947Y323374D01*
X305653D01*
X307228Y324026D01*
X308433Y325232D01*
X309086Y326807D01*
Y328513D01*
X308433Y330088D01*
X307228Y331293D01*
X305653Y331946D01*
D02*
G37*
G36*
X266031Y333334D02*
X264325D01*
X262750Y332682D01*
X261544Y331476D01*
X260892Y329901D01*
Y328196D01*
X261544Y326620D01*
X262750Y325415D01*
X264325Y324762D01*
X266031D01*
X266950Y325143D01*
X267766Y325249D01*
X268484Y324508D01*
X268808Y323724D01*
X270014Y322519D01*
X271589Y321866D01*
X273294D01*
X274870Y322519D01*
X276075Y323724D01*
X276728Y325300D01*
Y327005D01*
X276075Y328580D01*
X274870Y329786D01*
X273294Y330438D01*
X271589D01*
X270669Y330057D01*
X269853Y329951D01*
X269136Y330692D01*
X268811Y331476D01*
X267606Y332682D01*
X266031Y333334D01*
D02*
G37*
G36*
X298033Y321786D02*
X296327D01*
X294752Y321133D01*
X294200Y320581D01*
X293370Y320042D01*
X292540Y320581D01*
X291988Y321133D01*
X290413Y321786D01*
X288707D01*
X287132Y321133D01*
X286580Y320581D01*
X285750Y320042D01*
X284920Y320581D01*
X284368Y321133D01*
X282793Y321786D01*
X281087D01*
X279512Y321133D01*
X278307Y319928D01*
X277654Y318353D01*
Y316647D01*
X278307Y315072D01*
X278859Y314520D01*
X279398Y313690D01*
X278859Y312860D01*
X278307Y312308D01*
X277654Y310733D01*
Y309027D01*
X278307Y307452D01*
X279512Y306246D01*
X281087Y305594D01*
X282793D01*
X284368Y306246D01*
X284920Y306799D01*
X285750Y307338D01*
X286580Y306799D01*
X287132Y306246D01*
X288707Y305594D01*
X290413D01*
X291988Y306246D01*
X292540Y306799D01*
X293370Y307338D01*
X294200Y306799D01*
X294752Y306246D01*
X296327Y305594D01*
X298033D01*
X299608Y306246D01*
X300814Y307452D01*
X301466Y309027D01*
Y310733D01*
X300814Y312308D01*
X300261Y312860D01*
X299722Y313690D01*
X300261Y314520D01*
X300814Y315072D01*
X301466Y316647D01*
Y318353D01*
X300814Y319928D01*
X299608Y321133D01*
X298033Y321786D01*
D02*
G37*
G36*
X233628Y325480D02*
X231192D01*
X228840Y324850D01*
X226730Y323632D01*
X225008Y321910D01*
X223790Y319800D01*
X223160Y317448D01*
Y315012D01*
X223790Y312660D01*
X225008Y310550D01*
X226730Y308828D01*
X228840Y307610D01*
X231192Y306980D01*
X233628D01*
X235980Y307610D01*
X238090Y308828D01*
X239812Y310550D01*
X241030Y312660D01*
X241660Y315012D01*
Y317448D01*
X241030Y319800D01*
X239812Y321910D01*
X238090Y323632D01*
X235980Y324850D01*
X233628Y325480D01*
D02*
G37*
G36*
X208228D02*
X205792D01*
X203440Y324850D01*
X201330Y323632D01*
X199608Y321910D01*
X198390Y319800D01*
X197760Y317448D01*
Y315012D01*
X198390Y312660D01*
X199608Y310550D01*
X201330Y308828D01*
X203440Y307610D01*
X205792Y306980D01*
X208228D01*
X210580Y307610D01*
X212690Y308828D01*
X214412Y310550D01*
X215630Y312660D01*
X216260Y315012D01*
Y317448D01*
X215630Y319800D01*
X214412Y321910D01*
X212690Y323632D01*
X210580Y324850D01*
X208228Y325480D01*
D02*
G37*
G36*
X182828D02*
X180392D01*
X178040Y324850D01*
X175930Y323632D01*
X174208Y321910D01*
X172990Y319800D01*
X172360Y317448D01*
Y315012D01*
X172990Y312660D01*
X174208Y310550D01*
X175930Y308828D01*
X178040Y307610D01*
X180392Y306980D01*
X182828D01*
X185180Y307610D01*
X187290Y308828D01*
X189012Y310550D01*
X190230Y312660D01*
X190860Y315012D01*
Y317448D01*
X190230Y319800D01*
X189012Y321910D01*
X187290Y323632D01*
X185180Y324850D01*
X182828Y325480D01*
D02*
G37*
G36*
X157428D02*
X154992D01*
X152640Y324850D01*
X150530Y323632D01*
X148808Y321910D01*
X147590Y319800D01*
X146960Y317448D01*
Y315012D01*
X147590Y312660D01*
X148808Y310550D01*
X150530Y308828D01*
X152640Y307610D01*
X154992Y306980D01*
X157428D01*
X159780Y307610D01*
X161890Y308828D01*
X163612Y310550D01*
X164830Y312660D01*
X165460Y315012D01*
Y317448D01*
X164830Y319800D01*
X163612Y321910D01*
X161890Y323632D01*
X159780Y324850D01*
X157428Y325480D01*
D02*
G37*
G36*
X379313Y304006D02*
X377607D01*
X376032Y303354D01*
X374827Y302148D01*
X374174Y300573D01*
Y298867D01*
X374827Y297292D01*
X376032Y296087D01*
X377607Y295434D01*
X379313D01*
X380888Y296087D01*
X382094Y297292D01*
X382746Y298867D01*
Y300573D01*
X382094Y302148D01*
X380888Y303354D01*
X379313Y304006D01*
D02*
G37*
G36*
X369153D02*
X367447D01*
X365872Y303354D01*
X364666Y302148D01*
X364014Y300573D01*
Y298867D01*
X364666Y297292D01*
X365872Y296087D01*
X367447Y295434D01*
X369153D01*
X370728Y296087D01*
X371934Y297292D01*
X372586Y298867D01*
Y300573D01*
X371934Y302148D01*
X370728Y303354D01*
X369153Y304006D01*
D02*
G37*
G36*
X269646Y310800D02*
X267564D01*
X265554Y310261D01*
X263751Y309221D01*
X262279Y307749D01*
X261239Y305946D01*
X260700Y303936D01*
Y301854D01*
X261239Y299844D01*
X262279Y298041D01*
X263751Y296569D01*
X265554Y295529D01*
X267564Y294990D01*
X269646D01*
X271656Y295529D01*
X273459Y296569D01*
X274931Y298041D01*
X275971Y299844D01*
X276510Y301854D01*
Y303936D01*
X275971Y305946D01*
X274931Y307749D01*
X273459Y309221D01*
X271656Y310261D01*
X269646Y310800D01*
D02*
G37*
G36*
X327030Y295905D02*
X325325D01*
X323750Y295253D01*
X322544Y294047D01*
X321892Y292472D01*
Y290767D01*
X322544Y289191D01*
X323396Y288340D01*
X322739Y287201D01*
X322351Y287305D01*
X320269D01*
X318259Y286766D01*
X316456Y285726D01*
X314984Y284254D01*
X313944Y282451D01*
X313405Y280441D01*
Y278359D01*
X313944Y276349D01*
X314984Y274546D01*
X316456Y273074D01*
X318259Y272034D01*
X320269Y271495D01*
X322351D01*
X324361Y272034D01*
X326164Y273074D01*
X327636Y274546D01*
X328676Y276349D01*
X329215Y278359D01*
Y280441D01*
X328676Y282451D01*
X327636Y284254D01*
X326164Y285726D01*
X325579Y286063D01*
X325919Y287333D01*
X327030D01*
X328606Y287986D01*
X329811Y289191D01*
X330464Y290767D01*
Y292472D01*
X329811Y294047D01*
X328606Y295253D01*
X327030Y295905D01*
D02*
G37*
G36*
X379313Y293846D02*
X377607D01*
X376032Y293193D01*
X374827Y291988D01*
X374174Y290413D01*
Y288707D01*
X374827Y287132D01*
X376032Y285926D01*
X377607Y285274D01*
X379313D01*
X380888Y285926D01*
X382094Y287132D01*
X382746Y288707D01*
Y290413D01*
X382094Y291988D01*
X380888Y293193D01*
X379313Y293846D01*
D02*
G37*
G36*
X369153D02*
X367447D01*
X365872Y293193D01*
X364666Y291988D01*
X364014Y290413D01*
Y288707D01*
X364666Y287132D01*
X365872Y285926D01*
X367447Y285274D01*
X369153D01*
X370728Y285926D01*
X371934Y287132D01*
X372586Y288707D01*
Y290413D01*
X371934Y291988D01*
X370728Y293193D01*
X369153Y293846D01*
D02*
G37*
G36*
X289331Y298735D02*
X287249D01*
X285239Y298196D01*
X283436Y297156D01*
X281964Y295684D01*
X280924Y293881D01*
X280385Y291871D01*
Y289789D01*
X280924Y287779D01*
X281964Y285976D01*
X283436Y284504D01*
X285239Y283464D01*
X287249Y282925D01*
X289331D01*
X291341Y283464D01*
X293144Y284504D01*
X294616Y285976D01*
X295656Y287779D01*
X296195Y289789D01*
Y291871D01*
X295656Y293881D01*
X294616Y295684D01*
X293144Y297156D01*
X291341Y298196D01*
X289331Y298735D01*
D02*
G37*
G36*
X424953Y284260D02*
X423247D01*
X421672Y283608D01*
X420466Y282402D01*
X419814Y280827D01*
Y279121D01*
X420466Y277546D01*
X421672Y276341D01*
X423247Y275688D01*
X424953D01*
X426528Y276341D01*
X427733Y277546D01*
X428386Y279121D01*
Y280827D01*
X427733Y282402D01*
X426528Y283608D01*
X424953Y284260D01*
D02*
G37*
G36*
X414953D02*
X413247D01*
X411672Y283608D01*
X410466Y282402D01*
X409814Y280827D01*
Y279121D01*
X410466Y277546D01*
X411672Y276341D01*
X413247Y275688D01*
X414953D01*
X416528Y276341D01*
X417733Y277546D01*
X418386Y279121D01*
Y280827D01*
X417733Y282402D01*
X416528Y283608D01*
X414953Y284260D01*
D02*
G37*
G36*
X399953D02*
X398247D01*
X396672Y283608D01*
X395466Y282402D01*
X394814Y280827D01*
Y279121D01*
X395466Y277546D01*
X396672Y276341D01*
X398247Y275688D01*
X399953D01*
X401528Y276341D01*
X402733Y277546D01*
X403386Y279121D01*
Y280827D01*
X402733Y282402D01*
X401528Y283608D01*
X399953Y284260D01*
D02*
G37*
G36*
X379313Y283686D02*
X377607D01*
X376032Y283034D01*
X374827Y281828D01*
X374174Y280253D01*
Y278547D01*
X374827Y276972D01*
X376032Y275767D01*
X377607Y275114D01*
X379313D01*
X380888Y275767D01*
X382094Y276972D01*
X382746Y278547D01*
Y280253D01*
X382094Y281828D01*
X380888Y283034D01*
X379313Y283686D01*
D02*
G37*
G36*
X369153D02*
X367447D01*
X365872Y283034D01*
X364666Y281828D01*
X364014Y280253D01*
Y278547D01*
X364666Y276972D01*
X365872Y275767D01*
X367447Y275114D01*
X369153D01*
X370728Y275767D01*
X371934Y276972D01*
X372586Y278547D01*
Y280253D01*
X371934Y281828D01*
X370728Y283034D01*
X369153Y283686D01*
D02*
G37*
G36*
X270582Y271745D02*
X270510D01*
Y262825D01*
X279430D01*
Y262897D01*
X278736Y265488D01*
X277394Y267812D01*
X275497Y269709D01*
X273173Y271051D01*
X270582Y271745D01*
D02*
G37*
G36*
X267970D02*
X267898D01*
X265307Y271051D01*
X262983Y269709D01*
X261086Y267812D01*
X259744Y265488D01*
X259050Y262897D01*
Y262825D01*
X267970D01*
Y271745D01*
D02*
G37*
G36*
X419953Y270571D02*
X418247D01*
X416672Y269918D01*
X415466Y268713D01*
X414814Y267138D01*
Y265432D01*
X415466Y263857D01*
X416672Y262652D01*
X418247Y261999D01*
X419953D01*
X421528Y262652D01*
X422733Y263857D01*
X423386Y265432D01*
Y267138D01*
X422733Y268713D01*
X421528Y269918D01*
X419953Y270571D01*
D02*
G37*
G36*
X434953Y270412D02*
X433247D01*
X431672Y269760D01*
X430466Y268554D01*
X429814Y266978D01*
Y265273D01*
X430466Y263698D01*
X431672Y262493D01*
X433247Y261840D01*
X434953D01*
X436528Y262493D01*
X437733Y263698D01*
X438386Y265273D01*
Y266978D01*
X437733Y268554D01*
X436528Y269760D01*
X434953Y270412D01*
D02*
G37*
G36*
X404953D02*
X403247D01*
X401672Y269760D01*
X400466Y268554D01*
X399814Y266978D01*
Y265273D01*
X400466Y263698D01*
X401672Y262493D01*
X403247Y261840D01*
X404953D01*
X406528Y262493D01*
X407733Y263698D01*
X408386Y265273D01*
Y266978D01*
X407733Y268554D01*
X406528Y269760D01*
X404953Y270412D01*
D02*
G37*
G36*
X343941Y274605D02*
X341859D01*
X339849Y274066D01*
X338046Y273026D01*
X336574Y271554D01*
X335534Y269751D01*
X334995Y267741D01*
Y265659D01*
X335534Y263649D01*
X336574Y261846D01*
X338046Y260374D01*
X339849Y259334D01*
X341859Y258795D01*
X343941D01*
X345951Y259334D01*
X347754Y260374D01*
X349226Y261846D01*
X350266Y263649D01*
X350805Y265659D01*
Y267741D01*
X350266Y269751D01*
X349226Y271554D01*
X347754Y273026D01*
X345951Y274066D01*
X343941Y274605D01*
D02*
G37*
G36*
X295910Y271205D02*
X293370D01*
X290915Y270547D01*
X288715Y269277D01*
X286918Y267480D01*
X285648Y265280D01*
X284990Y262826D01*
Y260285D01*
X285648Y257830D01*
X286918Y255630D01*
X288715Y253833D01*
X290915Y252563D01*
X293370Y251905D01*
X295910D01*
X298365Y252563D01*
X300565Y253833D01*
X302362Y255630D01*
X303632Y257830D01*
X304290Y260285D01*
Y262826D01*
X303632Y265280D01*
X302362Y267480D01*
X300565Y269277D01*
X298365Y270547D01*
X295910Y271205D01*
D02*
G37*
G36*
X245110D02*
X242570D01*
X240115Y270547D01*
X237915Y269277D01*
X236118Y267480D01*
X234848Y265280D01*
X234190Y262826D01*
Y260285D01*
X234848Y257830D01*
X236118Y255630D01*
X237915Y253833D01*
X240115Y252563D01*
X242570Y251905D01*
X245110D01*
X247565Y252563D01*
X249765Y253833D01*
X251562Y255630D01*
X252832Y257830D01*
X253490Y260285D01*
Y262826D01*
X252832Y265280D01*
X251562Y267480D01*
X249765Y269277D01*
X247565Y270547D01*
X245110Y271205D01*
D02*
G37*
G36*
X219711D02*
X217169D01*
X214715Y270547D01*
X212515Y269277D01*
X210718Y267480D01*
X209448Y265280D01*
X208790Y262826D01*
Y260285D01*
X209448Y257830D01*
X210718Y255630D01*
X212515Y253833D01*
X214715Y252563D01*
X217169Y251905D01*
X219711D01*
X222165Y252563D01*
X224365Y253833D01*
X226162Y255630D01*
X227432Y257830D01*
X228090Y260285D01*
Y262826D01*
X227432Y265280D01*
X226162Y267480D01*
X224365Y269277D01*
X222165Y270547D01*
X219711Y271205D01*
D02*
G37*
G36*
X194310D02*
X191770D01*
X189315Y270547D01*
X187115Y269277D01*
X185318Y267480D01*
X184048Y265280D01*
X183390Y262826D01*
Y260285D01*
X184048Y257830D01*
X185318Y255630D01*
X187115Y253833D01*
X189315Y252563D01*
X191770Y251905D01*
X194310D01*
X196765Y252563D01*
X198965Y253833D01*
X200762Y255630D01*
X202032Y257830D01*
X202690Y260285D01*
Y262826D01*
X202032Y265280D01*
X200762Y267480D01*
X198965Y269277D01*
X196765Y270547D01*
X194310Y271205D01*
D02*
G37*
G36*
X168911D02*
X166369D01*
X163915Y270547D01*
X161715Y269277D01*
X159918Y267480D01*
X158648Y265280D01*
X157990Y262826D01*
Y260285D01*
X158648Y257830D01*
X159918Y255630D01*
X161715Y253833D01*
X163915Y252563D01*
X166369Y251905D01*
X168911D01*
X171365Y252563D01*
X173565Y253833D01*
X175362Y255630D01*
X176632Y257830D01*
X177290Y260285D01*
Y262826D01*
X176632Y265280D01*
X175362Y267480D01*
X173565Y269277D01*
X171365Y270547D01*
X168911Y271205D01*
D02*
G37*
G36*
X279430Y260285D02*
X270510D01*
Y251365D01*
X270582D01*
X273173Y252059D01*
X275497Y253401D01*
X277394Y255298D01*
X278736Y257622D01*
X279430Y260214D01*
Y260285D01*
D02*
G37*
G36*
X267970D02*
X259050D01*
Y260214D01*
X259744Y257622D01*
X261086Y255298D01*
X262983Y253401D01*
X265307Y252059D01*
X267898Y251365D01*
X267970D01*
Y260285D01*
D02*
G37*
G36*
X409953Y250346D02*
X408247D01*
X406672Y249694D01*
X405466Y248488D01*
X404814Y246912D01*
Y246373D01*
X404100Y245961D01*
X403386Y246373D01*
Y246912D01*
X402733Y248488D01*
X401528Y249694D01*
X399953Y250346D01*
X398247D01*
X396672Y249694D01*
X395466Y248488D01*
X394814Y246912D01*
Y245207D01*
X395466Y243632D01*
X396672Y242426D01*
X398247Y241774D01*
X398709D01*
X399814Y241122D01*
Y239417D01*
X400466Y237842D01*
X401672Y236637D01*
X403247Y235984D01*
X404953D01*
X406528Y236637D01*
X407733Y237842D01*
X408386Y239417D01*
Y241122D01*
X409491Y241774D01*
X409953D01*
X411528Y242426D01*
X412733Y243632D01*
X413386Y245207D01*
Y246912D01*
X412733Y248488D01*
X411528Y249694D01*
X409953Y250346D01*
D02*
G37*
G36*
X429953D02*
X428247D01*
X426672Y249694D01*
X425466Y248488D01*
X424814Y246912D01*
Y246373D01*
X424100Y245961D01*
X423386Y246373D01*
Y246912D01*
X422733Y248488D01*
X421528Y249694D01*
X419953Y250346D01*
X418247D01*
X416672Y249694D01*
X415466Y248488D01*
X414814Y246912D01*
Y245207D01*
X415466Y243632D01*
X416672Y242426D01*
X418247Y241774D01*
X418709D01*
X419814Y241122D01*
Y239417D01*
X420466Y237842D01*
X421672Y236637D01*
X423247Y235984D01*
X424953D01*
X426528Y236637D01*
X427733Y237842D01*
X428386Y239417D01*
Y241122D01*
X429491Y241774D01*
X429953D01*
X431528Y242426D01*
X432733Y243632D01*
X433386Y245207D01*
Y246912D01*
X432733Y248488D01*
X431528Y249694D01*
X429953Y250346D01*
D02*
G37*
G36*
X245182Y144745D02*
X245110D01*
Y135825D01*
X254030D01*
Y135897D01*
X253336Y138488D01*
X251994Y140812D01*
X250097Y142709D01*
X247773Y144051D01*
X245182Y144745D01*
D02*
G37*
G36*
X219782D02*
X219710D01*
Y135825D01*
X228630D01*
Y135897D01*
X227936Y138488D01*
X226594Y140812D01*
X224697Y142709D01*
X222373Y144051D01*
X219782Y144745D01*
D02*
G37*
G36*
X242570D02*
X242498D01*
X239907Y144051D01*
X237583Y142709D01*
X235686Y140812D01*
X234344Y138488D01*
X233650Y135897D01*
Y135825D01*
X242570D01*
Y144745D01*
D02*
G37*
G36*
X217170D02*
X217098D01*
X214507Y144051D01*
X212183Y142709D01*
X210286Y140812D01*
X208944Y138488D01*
X208250Y135897D01*
Y135825D01*
X217170D01*
Y144745D01*
D02*
G37*
G36*
X295910Y144205D02*
X293370D01*
X290915Y143547D01*
X288715Y142277D01*
X286918Y140480D01*
X285648Y138280D01*
X284990Y135826D01*
Y133285D01*
X285648Y130830D01*
X286918Y128630D01*
X288715Y126833D01*
X290915Y125563D01*
X293370Y124905D01*
X295910D01*
X298365Y125563D01*
X300565Y126833D01*
X302362Y128630D01*
X303632Y130830D01*
X304290Y133285D01*
Y135826D01*
X303632Y138280D01*
X302362Y140480D01*
X300565Y142277D01*
X298365Y143547D01*
X295910Y144205D01*
D02*
G37*
G36*
X270511D02*
X267969D01*
X265515Y143547D01*
X263315Y142277D01*
X261518Y140480D01*
X260248Y138280D01*
X259590Y135826D01*
Y133285D01*
X260248Y130830D01*
X261518Y128630D01*
X263315Y126833D01*
X265515Y125563D01*
X267969Y124905D01*
X270511D01*
X272965Y125563D01*
X275165Y126833D01*
X276962Y128630D01*
X278232Y130830D01*
X278890Y133285D01*
Y135826D01*
X278232Y138280D01*
X276962Y140480D01*
X275165Y142277D01*
X272965Y143547D01*
X270511Y144205D01*
D02*
G37*
G36*
X194310D02*
X191770D01*
X189315Y143547D01*
X187115Y142277D01*
X185318Y140480D01*
X184048Y138280D01*
X183390Y135826D01*
Y133285D01*
X184048Y130830D01*
X185318Y128630D01*
X187115Y126833D01*
X189315Y125563D01*
X191770Y124905D01*
X194310D01*
X196765Y125563D01*
X198965Y126833D01*
X200762Y128630D01*
X202032Y130830D01*
X202690Y133285D01*
Y135826D01*
X202032Y138280D01*
X200762Y140480D01*
X198965Y142277D01*
X196765Y143547D01*
X194310Y144205D01*
D02*
G37*
G36*
X168911D02*
X166369D01*
X163915Y143547D01*
X161715Y142277D01*
X159918Y140480D01*
X158648Y138280D01*
X157990Y135826D01*
Y133285D01*
X158648Y130830D01*
X159918Y128630D01*
X161715Y126833D01*
X163915Y125563D01*
X166369Y124905D01*
X168911D01*
X171365Y125563D01*
X173565Y126833D01*
X175362Y128630D01*
X176632Y130830D01*
X177290Y133285D01*
Y135826D01*
X176632Y138280D01*
X175362Y140480D01*
X173565Y142277D01*
X171365Y143547D01*
X168911Y144205D01*
D02*
G37*
G36*
X143511D02*
X140969D01*
X138515Y143547D01*
X136315Y142277D01*
X134518Y140480D01*
X133248Y138280D01*
X132590Y135826D01*
Y133285D01*
X133248Y130830D01*
X134518Y128630D01*
X136315Y126833D01*
X138515Y125563D01*
X140969Y124905D01*
X143511D01*
X145965Y125563D01*
X148165Y126833D01*
X149962Y128630D01*
X151232Y130830D01*
X151890Y133285D01*
Y135826D01*
X151232Y138280D01*
X149962Y140480D01*
X148165Y142277D01*
X145965Y143547D01*
X143511Y144205D01*
D02*
G37*
G36*
X126490D02*
X107190D01*
Y124905D01*
X126490D01*
Y144205D01*
D02*
G37*
G36*
X254030Y133285D02*
X245110D01*
Y124365D01*
X245182D01*
X247773Y125059D01*
X250097Y126401D01*
X251994Y128298D01*
X253336Y130622D01*
X254030Y133214D01*
Y133285D01*
D02*
G37*
G36*
X242570D02*
X233650D01*
Y133214D01*
X234344Y130622D01*
X235686Y128298D01*
X237583Y126401D01*
X239907Y125059D01*
X242498Y124365D01*
X242570D01*
Y133285D01*
D02*
G37*
G36*
X228630D02*
X219710D01*
Y124365D01*
X219782D01*
X222373Y125059D01*
X224697Y126401D01*
X226594Y128298D01*
X227936Y130622D01*
X228630Y133214D01*
Y133285D01*
D02*
G37*
G36*
X217170D02*
X208250D01*
Y133214D01*
X208944Y130622D01*
X210286Y128298D01*
X212183Y126401D01*
X214507Y125059D01*
X217098Y124365D01*
X217170D01*
Y133285D01*
D02*
G37*
G36*
X567465Y88860D02*
X565135D01*
X562884Y88257D01*
X560866Y87092D01*
X559218Y85444D01*
X558053Y83426D01*
X557450Y81175D01*
Y78845D01*
X558053Y76594D01*
X559218Y74576D01*
X560866Y72928D01*
X562884Y71763D01*
X565135Y71160D01*
X567465D01*
X569716Y71763D01*
X571734Y72928D01*
X573382Y74576D01*
X574547Y76594D01*
X575150Y78845D01*
Y81175D01*
X574547Y83426D01*
X573382Y85444D01*
X571734Y87092D01*
X569716Y88257D01*
X567465Y88860D01*
D02*
G37*
G36*
X542065D02*
X539735D01*
X537484Y88257D01*
X535466Y87092D01*
X533818Y85444D01*
X532653Y83426D01*
X532050Y81175D01*
Y78845D01*
X532653Y76594D01*
X533818Y74576D01*
X535466Y72928D01*
X537484Y71763D01*
X539735Y71160D01*
X542065D01*
X544316Y71763D01*
X546334Y72928D01*
X547982Y74576D01*
X549147Y76594D01*
X549750Y78845D01*
Y81175D01*
X549147Y83426D01*
X547982Y85444D01*
X546334Y87092D01*
X544316Y88257D01*
X542065Y88860D01*
D02*
G37*
G36*
X516665D02*
X514335D01*
X512084Y88257D01*
X510066Y87092D01*
X508418Y85444D01*
X507253Y83426D01*
X506650Y81175D01*
Y78845D01*
X507253Y76594D01*
X508418Y74576D01*
X510066Y72928D01*
X512084Y71763D01*
X514335Y71160D01*
X516665D01*
X518916Y71763D01*
X520934Y72928D01*
X522582Y74576D01*
X523747Y76594D01*
X524350Y78845D01*
Y81175D01*
X523747Y83426D01*
X522582Y85444D01*
X520934Y87092D01*
X518916Y88257D01*
X516665Y88860D01*
D02*
G37*
G36*
X491265D02*
X488935D01*
X486684Y88257D01*
X484666Y87092D01*
X483018Y85444D01*
X481853Y83426D01*
X481250Y81175D01*
Y78845D01*
X481853Y76594D01*
X483018Y74576D01*
X484666Y72928D01*
X486684Y71763D01*
X488935Y71160D01*
X491265D01*
X493516Y71763D01*
X495534Y72928D01*
X497182Y74576D01*
X498347Y76594D01*
X498950Y78845D01*
Y81175D01*
X498347Y83426D01*
X497182Y85444D01*
X495534Y87092D01*
X493516Y88257D01*
X491265Y88860D01*
D02*
G37*
G36*
X465865D02*
X463535D01*
X461284Y88257D01*
X459266Y87092D01*
X457618Y85444D01*
X456453Y83426D01*
X455850Y81175D01*
Y78845D01*
X456453Y76594D01*
X457618Y74576D01*
X459266Y72928D01*
X461284Y71763D01*
X463535Y71160D01*
X465865D01*
X468116Y71763D01*
X470134Y72928D01*
X471782Y74576D01*
X472947Y76594D01*
X473550Y78845D01*
Y81175D01*
X472947Y83426D01*
X471782Y85444D01*
X470134Y87092D01*
X468116Y88257D01*
X465865Y88860D01*
D02*
G37*
G36*
X440465D02*
X438135D01*
X435884Y88257D01*
X433866Y87092D01*
X432218Y85444D01*
X431053Y83426D01*
X430450Y81175D01*
Y78845D01*
X431053Y76594D01*
X432218Y74576D01*
X433866Y72928D01*
X435884Y71763D01*
X438135Y71160D01*
X440465D01*
X442716Y71763D01*
X444734Y72928D01*
X446382Y74576D01*
X447547Y76594D01*
X448150Y78845D01*
Y81175D01*
X447547Y83426D01*
X446382Y85444D01*
X444734Y87092D01*
X442716Y88257D01*
X440465Y88860D01*
D02*
G37*
G36*
X415065D02*
X412735D01*
X410484Y88257D01*
X408466Y87092D01*
X406818Y85444D01*
X405653Y83426D01*
X405050Y81175D01*
Y78845D01*
X405653Y76594D01*
X406818Y74576D01*
X408466Y72928D01*
X410484Y71763D01*
X412735Y71160D01*
X415065D01*
X417316Y71763D01*
X419334Y72928D01*
X420982Y74576D01*
X422147Y76594D01*
X422750Y78845D01*
Y81175D01*
X422147Y83426D01*
X420982Y85444D01*
X419334Y87092D01*
X417316Y88257D01*
X415065Y88860D01*
D02*
G37*
G36*
X389665D02*
X387335D01*
X385084Y88257D01*
X383066Y87092D01*
X381418Y85444D01*
X380253Y83426D01*
X379650Y81175D01*
Y78845D01*
X380253Y76594D01*
X381418Y74576D01*
X383066Y72928D01*
X385084Y71763D01*
X387335Y71160D01*
X389665D01*
X391916Y71763D01*
X393934Y72928D01*
X395582Y74576D01*
X396747Y76594D01*
X397350Y78845D01*
Y81175D01*
X396747Y83426D01*
X395582Y85444D01*
X393934Y87092D01*
X391916Y88257D01*
X389665Y88860D01*
D02*
G37*
G36*
X364265D02*
X361935D01*
X359684Y88257D01*
X357666Y87092D01*
X356018Y85444D01*
X354853Y83426D01*
X354250Y81175D01*
Y78845D01*
X354853Y76594D01*
X356018Y74576D01*
X357666Y72928D01*
X359684Y71763D01*
X361935Y71160D01*
X364265D01*
X366516Y71763D01*
X368534Y72928D01*
X370182Y74576D01*
X371347Y76594D01*
X371950Y78845D01*
Y81175D01*
X371347Y83426D01*
X370182Y85444D01*
X368534Y87092D01*
X366516Y88257D01*
X364265Y88860D01*
D02*
G37*
G36*
X338865D02*
X336535D01*
X334284Y88257D01*
X332266Y87092D01*
X330618Y85444D01*
X329453Y83426D01*
X328850Y81175D01*
Y78845D01*
X329453Y76594D01*
X330618Y74576D01*
X332266Y72928D01*
X334284Y71763D01*
X336535Y71160D01*
X338865D01*
X341116Y71763D01*
X343134Y72928D01*
X344782Y74576D01*
X345947Y76594D01*
X346550Y78845D01*
Y81175D01*
X345947Y83426D01*
X344782Y85444D01*
X343134Y87092D01*
X341116Y88257D01*
X338865Y88860D01*
D02*
G37*
G36*
X313465D02*
X311135D01*
X308884Y88257D01*
X306866Y87092D01*
X305218Y85444D01*
X304053Y83426D01*
X303450Y81175D01*
Y78845D01*
X304053Y76594D01*
X305218Y74576D01*
X306866Y72928D01*
X308884Y71763D01*
X311135Y71160D01*
X313465D01*
X315716Y71763D01*
X317734Y72928D01*
X319382Y74576D01*
X320547Y76594D01*
X321150Y78845D01*
Y81175D01*
X320547Y83426D01*
X319382Y85444D01*
X317734Y87092D01*
X315716Y88257D01*
X313465Y88860D01*
D02*
G37*
G36*
X288065D02*
X285735D01*
X283484Y88257D01*
X281466Y87092D01*
X279818Y85444D01*
X278653Y83426D01*
X278050Y81175D01*
Y78845D01*
X278653Y76594D01*
X279818Y74576D01*
X281466Y72928D01*
X283484Y71763D01*
X285735Y71160D01*
X288065D01*
X290316Y71763D01*
X292334Y72928D01*
X293982Y74576D01*
X295147Y76594D01*
X295750Y78845D01*
Y81175D01*
X295147Y83426D01*
X293982Y85444D01*
X292334Y87092D01*
X290316Y88257D01*
X288065Y88860D01*
D02*
G37*
G36*
X262665D02*
X260335D01*
X258084Y88257D01*
X256066Y87092D01*
X254418Y85444D01*
X253253Y83426D01*
X252650Y81175D01*
Y78845D01*
X253253Y76594D01*
X254418Y74576D01*
X256066Y72928D01*
X258084Y71763D01*
X260335Y71160D01*
X262665D01*
X264916Y71763D01*
X266934Y72928D01*
X268582Y74576D01*
X269747Y76594D01*
X270350Y78845D01*
Y81175D01*
X269747Y83426D01*
X268582Y85444D01*
X266934Y87092D01*
X264916Y88257D01*
X262665Y88860D01*
D02*
G37*
G36*
X237265D02*
X234935D01*
X232684Y88257D01*
X230666Y87092D01*
X229018Y85444D01*
X227853Y83426D01*
X227250Y81175D01*
Y78845D01*
X227853Y76594D01*
X229018Y74576D01*
X230666Y72928D01*
X232684Y71763D01*
X234935Y71160D01*
X237265D01*
X239516Y71763D01*
X241534Y72928D01*
X243182Y74576D01*
X244347Y76594D01*
X244950Y78845D01*
Y81175D01*
X244347Y83426D01*
X243182Y85444D01*
X241534Y87092D01*
X239516Y88257D01*
X237265Y88860D01*
D02*
G37*
G36*
X211865D02*
X209535D01*
X207284Y88257D01*
X205266Y87092D01*
X203618Y85444D01*
X202453Y83426D01*
X201850Y81175D01*
Y78845D01*
X202453Y76594D01*
X203618Y74576D01*
X205266Y72928D01*
X207284Y71763D01*
X209535Y71160D01*
X211865D01*
X214116Y71763D01*
X216134Y72928D01*
X217782Y74576D01*
X218947Y76594D01*
X219550Y78845D01*
Y81175D01*
X218947Y83426D01*
X217782Y85444D01*
X216134Y87092D01*
X214116Y88257D01*
X211865Y88860D01*
D02*
G37*
G36*
X186465D02*
X184135D01*
X181884Y88257D01*
X179866Y87092D01*
X178218Y85444D01*
X177053Y83426D01*
X176450Y81175D01*
Y78845D01*
X177053Y76594D01*
X178218Y74576D01*
X179866Y72928D01*
X181884Y71763D01*
X184135Y71160D01*
X186465D01*
X188716Y71763D01*
X190734Y72928D01*
X192382Y74576D01*
X193547Y76594D01*
X194150Y78845D01*
Y81175D01*
X193547Y83426D01*
X192382Y85444D01*
X190734Y87092D01*
X188716Y88257D01*
X186465Y88860D01*
D02*
G37*
G36*
X161065D02*
X158735D01*
X156484Y88257D01*
X154466Y87092D01*
X152818Y85444D01*
X151653Y83426D01*
X151050Y81175D01*
Y78845D01*
X151653Y76594D01*
X152818Y74576D01*
X154466Y72928D01*
X156484Y71763D01*
X158735Y71160D01*
X161065D01*
X163316Y71763D01*
X165334Y72928D01*
X166982Y74576D01*
X168147Y76594D01*
X168750Y78845D01*
Y81175D01*
X168147Y83426D01*
X166982Y85444D01*
X165334Y87092D01*
X163316Y88257D01*
X161065Y88860D01*
D02*
G37*
G36*
X135665D02*
X133335D01*
X131084Y88257D01*
X129066Y87092D01*
X127418Y85444D01*
X126253Y83426D01*
X125650Y81175D01*
Y78845D01*
X126253Y76594D01*
X127418Y74576D01*
X129066Y72928D01*
X131084Y71763D01*
X133335Y71160D01*
X135665D01*
X137916Y71763D01*
X139934Y72928D01*
X141582Y74576D01*
X142747Y76594D01*
X143350Y78845D01*
Y81175D01*
X142747Y83426D01*
X141582Y85444D01*
X139934Y87092D01*
X137916Y88257D01*
X135665Y88860D01*
D02*
G37*
G36*
X93090Y64000D02*
X84970D01*
Y55880D01*
X93090D01*
Y64000D01*
D02*
G37*
G36*
X288170Y63991D02*
Y55880D01*
X296281D01*
X295650Y58234D01*
X294414Y60376D01*
X292666Y62124D01*
X290524Y63360D01*
X288170Y63991D01*
D02*
G37*
G36*
X285630D02*
X283276Y63360D01*
X281134Y62124D01*
X279386Y60376D01*
X278150Y58234D01*
X277519Y55880D01*
X285630D01*
Y63991D01*
D02*
G37*
G36*
X82430Y64000D02*
X74310D01*
Y55880D01*
X82430D01*
Y64000D01*
D02*
G37*
G36*
X567465Y63460D02*
X565135D01*
X562884Y62857D01*
X560866Y61692D01*
X559218Y60044D01*
X558053Y58026D01*
X557450Y55775D01*
Y53445D01*
X558053Y51194D01*
X559218Y49176D01*
X560866Y47528D01*
X562884Y46363D01*
X565135Y45760D01*
X567465D01*
X569716Y46363D01*
X571734Y47528D01*
X573382Y49176D01*
X574547Y51194D01*
X575150Y53445D01*
Y55775D01*
X574547Y58026D01*
X573382Y60044D01*
X571734Y61692D01*
X569716Y62857D01*
X567465Y63460D01*
D02*
G37*
G36*
X542065D02*
X539735D01*
X537484Y62857D01*
X535466Y61692D01*
X533818Y60044D01*
X532653Y58026D01*
X532050Y55775D01*
Y53445D01*
X532653Y51194D01*
X533818Y49176D01*
X535466Y47528D01*
X537484Y46363D01*
X539735Y45760D01*
X542065D01*
X544316Y46363D01*
X546334Y47528D01*
X547982Y49176D01*
X549147Y51194D01*
X549750Y53445D01*
Y55775D01*
X549147Y58026D01*
X547982Y60044D01*
X546334Y61692D01*
X544316Y62857D01*
X542065Y63460D01*
D02*
G37*
G36*
X516665D02*
X514335D01*
X512084Y62857D01*
X510066Y61692D01*
X508418Y60044D01*
X507253Y58026D01*
X506650Y55775D01*
Y53445D01*
X507253Y51194D01*
X508418Y49176D01*
X510066Y47528D01*
X512084Y46363D01*
X514335Y45760D01*
X516665D01*
X518916Y46363D01*
X520934Y47528D01*
X522582Y49176D01*
X523747Y51194D01*
X524350Y53445D01*
Y55775D01*
X523747Y58026D01*
X522582Y60044D01*
X520934Y61692D01*
X518916Y62857D01*
X516665Y63460D01*
D02*
G37*
G36*
X491265D02*
X488935D01*
X486684Y62857D01*
X484666Y61692D01*
X483018Y60044D01*
X481853Y58026D01*
X481250Y55775D01*
Y53445D01*
X481853Y51194D01*
X483018Y49176D01*
X484666Y47528D01*
X486684Y46363D01*
X488935Y45760D01*
X491265D01*
X493516Y46363D01*
X495534Y47528D01*
X497182Y49176D01*
X498347Y51194D01*
X498950Y53445D01*
Y55775D01*
X498347Y58026D01*
X497182Y60044D01*
X495534Y61692D01*
X493516Y62857D01*
X491265Y63460D01*
D02*
G37*
G36*
X465865D02*
X463535D01*
X461284Y62857D01*
X459266Y61692D01*
X457618Y60044D01*
X456453Y58026D01*
X455850Y55775D01*
Y53445D01*
X456453Y51194D01*
X457618Y49176D01*
X459266Y47528D01*
X461284Y46363D01*
X463535Y45760D01*
X465865D01*
X468116Y46363D01*
X470134Y47528D01*
X471782Y49176D01*
X472947Y51194D01*
X473550Y53445D01*
Y55775D01*
X472947Y58026D01*
X471782Y60044D01*
X470134Y61692D01*
X468116Y62857D01*
X465865Y63460D01*
D02*
G37*
G36*
X440465D02*
X438135D01*
X435884Y62857D01*
X433866Y61692D01*
X432218Y60044D01*
X431053Y58026D01*
X430450Y55775D01*
Y53445D01*
X431053Y51194D01*
X432218Y49176D01*
X433866Y47528D01*
X435884Y46363D01*
X438135Y45760D01*
X440465D01*
X442716Y46363D01*
X444734Y47528D01*
X446382Y49176D01*
X447547Y51194D01*
X448150Y53445D01*
Y55775D01*
X447547Y58026D01*
X446382Y60044D01*
X444734Y61692D01*
X442716Y62857D01*
X440465Y63460D01*
D02*
G37*
G36*
X415065D02*
X412735D01*
X410484Y62857D01*
X408466Y61692D01*
X406818Y60044D01*
X405653Y58026D01*
X405050Y55775D01*
Y53445D01*
X405653Y51194D01*
X406818Y49176D01*
X408466Y47528D01*
X410484Y46363D01*
X412735Y45760D01*
X415065D01*
X417316Y46363D01*
X419334Y47528D01*
X420982Y49176D01*
X422147Y51194D01*
X422750Y53445D01*
Y55775D01*
X422147Y58026D01*
X420982Y60044D01*
X419334Y61692D01*
X417316Y62857D01*
X415065Y63460D01*
D02*
G37*
G36*
X389665D02*
X387335D01*
X385084Y62857D01*
X383066Y61692D01*
X381418Y60044D01*
X380253Y58026D01*
X379650Y55775D01*
Y53445D01*
X380253Y51194D01*
X381418Y49176D01*
X383066Y47528D01*
X385084Y46363D01*
X387335Y45760D01*
X389665D01*
X391916Y46363D01*
X393934Y47528D01*
X395582Y49176D01*
X396747Y51194D01*
X397350Y53445D01*
Y55775D01*
X396747Y58026D01*
X395582Y60044D01*
X393934Y61692D01*
X391916Y62857D01*
X389665Y63460D01*
D02*
G37*
G36*
X364265D02*
X361935D01*
X359684Y62857D01*
X357666Y61692D01*
X356018Y60044D01*
X354853Y58026D01*
X354250Y55775D01*
Y53445D01*
X354853Y51194D01*
X356018Y49176D01*
X357666Y47528D01*
X359684Y46363D01*
X361935Y45760D01*
X364265D01*
X366516Y46363D01*
X368534Y47528D01*
X370182Y49176D01*
X371347Y51194D01*
X371950Y53445D01*
Y55775D01*
X371347Y58026D01*
X370182Y60044D01*
X368534Y61692D01*
X366516Y62857D01*
X364265Y63460D01*
D02*
G37*
G36*
X338865D02*
X336535D01*
X334284Y62857D01*
X332266Y61692D01*
X330618Y60044D01*
X329453Y58026D01*
X328850Y55775D01*
Y53445D01*
X329453Y51194D01*
X330618Y49176D01*
X332266Y47528D01*
X334284Y46363D01*
X336535Y45760D01*
X338865D01*
X341116Y46363D01*
X343134Y47528D01*
X344782Y49176D01*
X345947Y51194D01*
X346550Y53445D01*
Y55775D01*
X345947Y58026D01*
X344782Y60044D01*
X343134Y61692D01*
X341116Y62857D01*
X338865Y63460D01*
D02*
G37*
G36*
X313465D02*
X311135D01*
X308884Y62857D01*
X306866Y61692D01*
X305218Y60044D01*
X304053Y58026D01*
X303450Y55775D01*
Y53445D01*
X304053Y51194D01*
X305218Y49176D01*
X306866Y47528D01*
X308884Y46363D01*
X311135Y45760D01*
X313465D01*
X315716Y46363D01*
X317734Y47528D01*
X319382Y49176D01*
X320547Y51194D01*
X321150Y53445D01*
Y55775D01*
X320547Y58026D01*
X319382Y60044D01*
X317734Y61692D01*
X315716Y62857D01*
X313465Y63460D01*
D02*
G37*
G36*
X262665D02*
X260335D01*
X258084Y62857D01*
X256066Y61692D01*
X254418Y60044D01*
X253253Y58026D01*
X252650Y55775D01*
Y53445D01*
X253253Y51194D01*
X254418Y49176D01*
X256066Y47528D01*
X258084Y46363D01*
X260335Y45760D01*
X262665D01*
X264916Y46363D01*
X266934Y47528D01*
X268582Y49176D01*
X269747Y51194D01*
X270350Y53445D01*
Y55775D01*
X269747Y58026D01*
X268582Y60044D01*
X266934Y61692D01*
X264916Y62857D01*
X262665Y63460D01*
D02*
G37*
G36*
X237265D02*
X234935D01*
X232684Y62857D01*
X230666Y61692D01*
X229018Y60044D01*
X227853Y58026D01*
X227250Y55775D01*
Y53445D01*
X227853Y51194D01*
X229018Y49176D01*
X230666Y47528D01*
X232684Y46363D01*
X234935Y45760D01*
X237265D01*
X239516Y46363D01*
X241534Y47528D01*
X243182Y49176D01*
X244347Y51194D01*
X244950Y53445D01*
Y55775D01*
X244347Y58026D01*
X243182Y60044D01*
X241534Y61692D01*
X239516Y62857D01*
X237265Y63460D01*
D02*
G37*
G36*
X211865D02*
X209535D01*
X207284Y62857D01*
X205266Y61692D01*
X203618Y60044D01*
X202453Y58026D01*
X201850Y55775D01*
Y53445D01*
X202453Y51194D01*
X203618Y49176D01*
X205266Y47528D01*
X207284Y46363D01*
X209535Y45760D01*
X211865D01*
X214116Y46363D01*
X216134Y47528D01*
X217782Y49176D01*
X218947Y51194D01*
X219550Y53445D01*
Y55775D01*
X218947Y58026D01*
X217782Y60044D01*
X216134Y61692D01*
X214116Y62857D01*
X211865Y63460D01*
D02*
G37*
G36*
X186465D02*
X184135D01*
X181884Y62857D01*
X179866Y61692D01*
X178218Y60044D01*
X177053Y58026D01*
X176450Y55775D01*
Y53445D01*
X177053Y51194D01*
X178218Y49176D01*
X179866Y47528D01*
X181884Y46363D01*
X184135Y45760D01*
X186465D01*
X188716Y46363D01*
X190734Y47528D01*
X192382Y49176D01*
X193547Y51194D01*
X194150Y53445D01*
Y55775D01*
X193547Y58026D01*
X192382Y60044D01*
X190734Y61692D01*
X188716Y62857D01*
X186465Y63460D01*
D02*
G37*
G36*
X161065D02*
X158735D01*
X156484Y62857D01*
X154466Y61692D01*
X152818Y60044D01*
X151653Y58026D01*
X151050Y55775D01*
Y53445D01*
X151653Y51194D01*
X152818Y49176D01*
X154466Y47528D01*
X156484Y46363D01*
X158735Y45760D01*
X161065D01*
X163316Y46363D01*
X165334Y47528D01*
X166982Y49176D01*
X168147Y51194D01*
X168750Y53445D01*
Y55775D01*
X168147Y58026D01*
X166982Y60044D01*
X165334Y61692D01*
X163316Y62857D01*
X161065Y63460D01*
D02*
G37*
G36*
X135665D02*
X133335D01*
X131084Y62857D01*
X129066Y61692D01*
X127418Y60044D01*
X126253Y58026D01*
X125650Y55775D01*
Y53445D01*
X126253Y51194D01*
X127418Y49176D01*
X129066Y47528D01*
X131084Y46363D01*
X133335Y45760D01*
X135665D01*
X137916Y46363D01*
X139934Y47528D01*
X141582Y49176D01*
X142747Y51194D01*
X143350Y53445D01*
Y55775D01*
X142747Y58026D01*
X141582Y60044D01*
X139934Y61692D01*
X137916Y62857D01*
X135665Y63460D01*
D02*
G37*
G36*
X110265D02*
X107935D01*
X105684Y62857D01*
X103666Y61692D01*
X102018Y60044D01*
X100853Y58026D01*
X100250Y55775D01*
Y53445D01*
X100853Y51194D01*
X102018Y49176D01*
X103666Y47528D01*
X105684Y46363D01*
X107935Y45760D01*
X110265D01*
X112516Y46363D01*
X114534Y47528D01*
X116182Y49176D01*
X117347Y51194D01*
X117950Y53445D01*
Y55775D01*
X117347Y58026D01*
X116182Y60044D01*
X114534Y61692D01*
X112516Y62857D01*
X110265Y63460D01*
D02*
G37*
G36*
X296281Y53340D02*
X288170D01*
Y45229D01*
X290524Y45860D01*
X292666Y47096D01*
X294414Y48844D01*
X295650Y50986D01*
X296281Y53340D01*
D02*
G37*
G36*
X285630D02*
X277519D01*
X278150Y50986D01*
X279386Y48844D01*
X281134Y47096D01*
X283276Y45860D01*
X285630Y45229D01*
Y53340D01*
D02*
G37*
G36*
X93090D02*
X84970D01*
Y45220D01*
X93090D01*
Y53340D01*
D02*
G37*
G36*
X82430D02*
X74310D01*
Y45220D01*
X82430D01*
Y53340D01*
D02*
G37*
G36*
X84970Y89391D02*
Y81280D01*
X93081D01*
X92450Y83634D01*
X91214Y85776D01*
X89466Y87524D01*
X87324Y88760D01*
X84970Y89391D01*
D02*
G37*
G36*
X110370D02*
Y81280D01*
X118481D01*
X117850Y83634D01*
X116614Y85776D01*
X114866Y87524D01*
X112724Y88760D01*
X110370Y89391D01*
D02*
G37*
G36*
X107830D02*
X105476Y88760D01*
X103334Y87524D01*
X101586Y85776D01*
X100350Y83634D01*
X99719Y81280D01*
X107830D01*
Y89391D01*
D02*
G37*
%LPD*%
D78*
X116840Y261555D02*
D03*
X269240D02*
D03*
X243840Y134555D02*
D03*
X218440D02*
D03*
D83*
X63500Y356688D02*
D03*
Y498822D02*
D03*
X586740Y560955D02*
D03*
Y418821D02*
D03*
Y276688D02*
D03*
D84*
X63500Y640955D02*
D03*
X586740Y134555D02*
D03*
D87*
X286900Y54610D02*
D03*
X109100Y80010D02*
D03*
X83700D02*
D03*
D88*
Y54610D02*
D03*
D89*
X576580Y833120D02*
D03*
X553720D02*
D03*
X568960D02*
D03*
X561340D02*
D03*
X571500Y772160D02*
D03*
Y765810D02*
D03*
X548640Y772160D02*
D03*
Y765810D02*
D03*
X556260D02*
D03*
Y772160D02*
D03*
X541020D02*
D03*
Y765810D02*
D03*
X533400D02*
D03*
Y772160D02*
D03*
X563880D02*
D03*
Y765810D02*
D03*
X530860Y814070D02*
D03*
Y807720D02*
D03*
Y801370D02*
D03*
X538480D02*
D03*
Y807720D02*
D03*
Y814070D02*
D03*
X561340Y826770D02*
D03*
Y820420D02*
D03*
Y814070D02*
D03*
Y807720D02*
D03*
Y801370D02*
D03*
X568960D02*
D03*
Y807720D02*
D03*
Y814070D02*
D03*
Y820420D02*
D03*
Y826770D02*
D03*
X553720D02*
D03*
Y820420D02*
D03*
Y814070D02*
D03*
Y807720D02*
D03*
Y801370D02*
D03*
X546100D02*
D03*
Y807720D02*
D03*
Y814070D02*
D03*
Y820420D02*
D03*
X576580Y826770D02*
D03*
Y820420D02*
D03*
Y814070D02*
D03*
Y807720D02*
D03*
Y801370D02*
D03*
X525780Y765810D02*
D03*
Y772160D02*
D03*
Y778510D02*
D03*
Y784860D02*
D03*
Y791210D02*
D03*
X495300D02*
D03*
Y784860D02*
D03*
Y778510D02*
D03*
Y772160D02*
D03*
Y765810D02*
D03*
X502920D02*
D03*
Y772160D02*
D03*
Y778510D02*
D03*
Y784860D02*
D03*
Y791210D02*
D03*
X518160D02*
D03*
Y784860D02*
D03*
Y778510D02*
D03*
Y772160D02*
D03*
Y765810D02*
D03*
X510540D02*
D03*
Y772160D02*
D03*
Y778510D02*
D03*
Y784860D02*
D03*
Y791210D02*
D03*
X464820D02*
D03*
Y784860D02*
D03*
Y778510D02*
D03*
Y772160D02*
D03*
Y765810D02*
D03*
X472440D02*
D03*
Y772160D02*
D03*
Y778510D02*
D03*
Y784860D02*
D03*
Y791210D02*
D03*
X487680D02*
D03*
Y784860D02*
D03*
Y778510D02*
D03*
Y772160D02*
D03*
Y765810D02*
D03*
X480060D02*
D03*
Y772160D02*
D03*
Y778510D02*
D03*
Y784860D02*
D03*
Y791210D02*
D03*
X449580D02*
D03*
Y784860D02*
D03*
Y778510D02*
D03*
Y772160D02*
D03*
Y765810D02*
D03*
X457200D02*
D03*
Y772160D02*
D03*
Y778510D02*
D03*
Y784860D02*
D03*
Y791210D02*
D03*
X441960D02*
D03*
Y784860D02*
D03*
Y778510D02*
D03*
Y772160D02*
D03*
Y765810D02*
D03*
X434340D02*
D03*
Y772160D02*
D03*
Y778510D02*
D03*
Y784860D02*
D03*
Y791210D02*
D03*
X426720Y765810D02*
D03*
Y772160D02*
D03*
Y778510D02*
D03*
Y784860D02*
D03*
Y791210D02*
D03*
X215900Y215900D02*
D03*
X471932Y183134D02*
D03*
Y176784D02*
D03*
X464312Y183134D02*
D03*
X471932Y170434D02*
D03*
X464312Y176784D02*
D03*
Y170434D02*
D03*
X456692D02*
D03*
Y176784D02*
D03*
Y183134D02*
D03*
X449072Y170434D02*
D03*
Y176784D02*
D03*
X501650Y565150D02*
D03*
X495300Y527050D02*
D03*
X334010Y320410D02*
D03*
X323598Y440438D02*
D03*
X394347Y372228D02*
D03*
Y359528D02*
D03*
X374398Y337039D02*
D03*
X359158Y321799D02*
D03*
X288038Y337039D02*
D03*
X270628Y407788D02*
D03*
X506730Y397510D02*
D03*
X107950Y603143D02*
D03*
X111760Y312928D02*
D03*
Y303784D02*
D03*
Y294640D02*
D03*
Y285496D02*
D03*
X102616Y312928D02*
D03*
Y303784D02*
D03*
Y294640D02*
D03*
Y285496D02*
D03*
X93472Y312928D02*
D03*
Y303784D02*
D03*
Y294640D02*
D03*
Y285496D02*
D03*
X84328Y303784D02*
D03*
Y294640D02*
D03*
Y285496D02*
D03*
X388620Y572770D02*
D03*
X112522Y242062D02*
D03*
X372110Y502160D02*
D03*
X506730Y480060D02*
D03*
D91*
X511810Y520700D02*
X547949D01*
X561340Y507309D01*
Y176109D02*
Y507309D01*
X454914Y176109D02*
X561340D01*
X488950Y572770D02*
X499110Y562610D01*
Y533400D02*
X511810Y520700D01*
X64191Y21590D02*
X584017D01*
X597408Y34981D01*
Y123887D01*
X586740Y134555D02*
X597408Y123887D01*
X561340Y147946D02*
Y176109D01*
X388620Y572770D02*
X488950D01*
X499110Y533400D02*
Y562610D01*
X561340Y147946D02*
X574731Y134555D01*
X586740D01*
X50800Y34981D02*
Y65131D01*
Y34981D02*
X64191Y21590D01*
X50800Y65131D02*
X65679Y80010D01*
X83700D01*
X109100D01*
D92*
X116840Y262259D02*
X130810Y276229D01*
X116840Y261555D02*
Y262259D01*
X130810Y276229D02*
Y331470D01*
X63500Y356688D02*
X105592D01*
X130810Y331470D01*
M02*
