G04*
G04 #@! TF.GenerationSoftware,Altium Limited,Altium Designer,21.0.9 (235)*
G04*
G04 Layer_Physical_Order=2*
G04 Layer_Color=36540*
%FSLAX44Y44*%
%MOMM*%
G71*
G04*
G04 #@! TF.SameCoordinates,58F94E15-CAE4-4791-8A53-09B8A48F05B3*
G04*
G04*
G04 #@! TF.FilePolarity,Positive*
G04*
G01*
G75*
%ADD77C,4.0000*%
%ADD78C,1.5300*%
%ADD82C,1.4500*%
%ADD84C,1.3080*%
%ADD87C,1.3700*%
%ADD89C,0.4572*%
%ADD90C,0.5000*%
G36*
X641578Y875919D02*
X640356Y875574D01*
X639776Y876521D01*
X636655Y880175D01*
X633001Y883296D01*
X628903Y885807D01*
X624463Y887645D01*
X619791Y888767D01*
X615000Y889144D01*
X610209Y888767D01*
X605536Y887645D01*
X601097Y885807D01*
X596999Y883296D01*
X593345Y880175D01*
X590224Y876521D01*
X587714Y872423D01*
X585874Y867983D01*
X584753Y863311D01*
X584376Y858520D01*
X584753Y853729D01*
X585874Y849056D01*
X587714Y844617D01*
X590224Y840519D01*
X593345Y836865D01*
X596999Y833744D01*
X601097Y831234D01*
X605536Y829395D01*
X610209Y828273D01*
X615000Y827896D01*
X619791Y828273D01*
X624463Y829395D01*
X628903Y831234D01*
X633001Y833744D01*
X636655Y836865D01*
X639776Y840519D01*
X640356Y841466D01*
X641578Y841121D01*
Y234950D01*
X599165D01*
X586239D01*
Y268148D01*
X595280D01*
Y285228D01*
X586239D01*
Y288148D01*
X587864D01*
X590036Y288730D01*
X591984Y289855D01*
X593574Y291444D01*
X594698Y293392D01*
X595280Y295564D01*
Y297812D01*
X594698Y299984D01*
X593574Y301932D01*
X591984Y303522D01*
X590036Y304646D01*
X587864Y305228D01*
X586239D01*
Y308148D01*
X587864D01*
X590036Y308730D01*
X591984Y309855D01*
X593574Y311444D01*
X594698Y313392D01*
X595280Y315564D01*
Y317812D01*
X594698Y319984D01*
X593574Y321932D01*
X591984Y323522D01*
X590036Y324646D01*
X587864Y325228D01*
X587137D01*
X586239Y326126D01*
X586239Y328148D01*
X587864D01*
X590036Y328730D01*
X591984Y329855D01*
X593574Y331445D01*
X594698Y333392D01*
X595280Y335564D01*
Y337812D01*
X594698Y339985D01*
X593574Y341932D01*
X591984Y343522D01*
X590036Y344646D01*
X587864Y345228D01*
X586239D01*
Y348528D01*
X586213Y348660D01*
X586222Y348794D01*
X586136Y349046D01*
X586084Y349308D01*
X586009Y349420D01*
X585966Y349547D01*
X585790Y349748D01*
X585642Y349969D01*
X585530Y350044D01*
X585441Y350145D01*
X585202Y350263D01*
X584980Y350411D01*
X584848Y350438D01*
X584728Y350497D01*
X584231Y350630D01*
X582748Y351486D01*
X581538Y352697D01*
X580682Y354179D01*
X580239Y355832D01*
Y357544D01*
X580682Y359197D01*
X581538Y360680D01*
X582748Y361890D01*
X584231Y362746D01*
X584728Y362879D01*
X584848Y362939D01*
X584980Y362965D01*
X585202Y363113D01*
X585441Y363231D01*
X585530Y363332D01*
X585642Y363407D01*
X585790Y363629D01*
X585966Y363829D01*
X586009Y363957D01*
X586084Y364068D01*
X586136Y364330D01*
X586222Y364583D01*
X586213Y364717D01*
X586239Y364849D01*
Y393876D01*
Y410282D01*
X595280D01*
Y427361D01*
X586239D01*
Y430281D01*
X587864D01*
X590036Y430863D01*
X591984Y431988D01*
X593574Y433578D01*
X594698Y435525D01*
X595280Y437697D01*
Y439946D01*
X594698Y442118D01*
X593574Y444065D01*
X591984Y445655D01*
X590036Y446780D01*
X587864Y447361D01*
X586239D01*
Y450281D01*
X587864D01*
X590036Y450863D01*
X591984Y451988D01*
X593574Y453578D01*
X594698Y455525D01*
X595280Y457697D01*
Y459946D01*
X594698Y462118D01*
X593574Y464065D01*
X591984Y465655D01*
X590036Y466780D01*
X587864Y467361D01*
X586239D01*
Y470282D01*
X587864D01*
X590036Y470863D01*
X591984Y471988D01*
X593574Y473578D01*
X594698Y475525D01*
X595280Y477697D01*
Y479946D01*
X594698Y482118D01*
X593574Y484065D01*
X591984Y485655D01*
X590036Y486780D01*
X587864Y487361D01*
X586239D01*
Y490661D01*
X586213Y490793D01*
X586222Y490927D01*
X586136Y491180D01*
X586084Y491441D01*
X586009Y491553D01*
X585966Y491680D01*
X585790Y491881D01*
X585642Y492103D01*
X585530Y492178D01*
X585441Y492279D01*
X585202Y492397D01*
X584980Y492545D01*
X584848Y492571D01*
X584728Y492631D01*
X584231Y492764D01*
X582748Y493620D01*
X581538Y494830D01*
X580682Y496312D01*
X580239Y497966D01*
Y499677D01*
X580682Y501331D01*
X581538Y502813D01*
X582748Y504024D01*
X584231Y504879D01*
X584728Y505013D01*
X584848Y505072D01*
X584980Y505098D01*
X585202Y505246D01*
X585441Y505364D01*
X585530Y505466D01*
X585642Y505540D01*
X585790Y505762D01*
X585966Y505963D01*
X586009Y506090D01*
X586084Y506202D01*
X586136Y506464D01*
X586222Y506716D01*
X586213Y506850D01*
X586239Y506982D01*
Y552415D01*
X595280D01*
Y569495D01*
X586239D01*
Y572415D01*
X587864D01*
X590036Y572997D01*
X591984Y574121D01*
X593574Y575711D01*
X594698Y577659D01*
X595280Y579831D01*
Y582079D01*
X594698Y584251D01*
X593574Y586199D01*
X591984Y587789D01*
X590036Y588913D01*
X587864Y589495D01*
X586239D01*
Y592415D01*
X587864D01*
X590036Y592997D01*
X591984Y594121D01*
X593574Y595711D01*
X594698Y597659D01*
X595280Y599831D01*
Y602079D01*
X594698Y604251D01*
X593574Y606199D01*
X591984Y607789D01*
X590036Y608913D01*
X587864Y609495D01*
X586239D01*
Y612415D01*
X587864D01*
X590036Y612997D01*
X591984Y614121D01*
X593574Y615711D01*
X594698Y617659D01*
X595280Y619831D01*
Y622079D01*
X594698Y624251D01*
X593574Y626199D01*
X591984Y627789D01*
X590036Y628913D01*
X587864Y629495D01*
X586239D01*
Y632794D01*
X586213Y632926D01*
X586222Y633060D01*
X586136Y633313D01*
X586084Y633575D01*
X586009Y633686D01*
X585966Y633814D01*
X585790Y634014D01*
X585642Y634236D01*
X585530Y634311D01*
X585441Y634412D01*
X585202Y634530D01*
X584980Y634678D01*
X584848Y634704D01*
X584728Y634764D01*
X584231Y634897D01*
X582748Y635753D01*
X581538Y636963D01*
X580682Y638446D01*
X580239Y640099D01*
Y641811D01*
X580682Y643464D01*
X581538Y644946D01*
X582748Y646157D01*
X584231Y647013D01*
X584728Y647146D01*
X584848Y647205D01*
X584980Y647232D01*
X585202Y647380D01*
X585441Y647498D01*
X585530Y647599D01*
X585642Y647674D01*
X585790Y647895D01*
X585966Y648096D01*
X586009Y648223D01*
X586084Y648335D01*
X586136Y648597D01*
X586222Y648849D01*
X586213Y648984D01*
X586239Y649116D01*
Y692150D01*
X586084Y692930D01*
X585642Y693592D01*
X584980Y694034D01*
X584200Y694189D01*
X541020D01*
X540240Y694034D01*
X539578Y693592D01*
X531958Y685972D01*
X531516Y685310D01*
X531361Y684530D01*
Y616719D01*
X383360Y616719D01*
X382746Y617637D01*
Y619343D01*
X382094Y620918D01*
X380888Y622123D01*
X379313Y622776D01*
X377607D01*
X376032Y622123D01*
X374827Y620918D01*
X374174Y619343D01*
Y617989D01*
X373325Y616719D01*
X72216Y616719D01*
X71547Y617989D01*
X72040Y619831D01*
Y622079D01*
X71458Y624251D01*
X70334Y626199D01*
X68744Y627789D01*
X66796Y628913D01*
X64624Y629495D01*
X62376D01*
X60204Y628913D01*
X58256Y627789D01*
X56666Y626199D01*
X55542Y624251D01*
X54960Y622079D01*
Y619831D01*
X55542Y617659D01*
X56666Y615711D01*
X58256Y614121D01*
X60204Y612997D01*
X62376Y612415D01*
X64624D01*
X64757Y612313D01*
Y609597D01*
X64624Y609495D01*
X62376D01*
X60204Y608913D01*
X58256Y607789D01*
X56666Y606199D01*
X55542Y604251D01*
X54960Y602079D01*
Y599831D01*
X55542Y597659D01*
X56666Y595711D01*
X58256Y594121D01*
X60204Y592997D01*
X62376Y592415D01*
X64624D01*
X64757Y592313D01*
Y589597D01*
X64624Y589495D01*
X62376D01*
X60204Y588913D01*
X58256Y587789D01*
X56666Y586199D01*
X55542Y584251D01*
X54960Y582079D01*
Y579831D01*
X55542Y577659D01*
X56666Y575711D01*
X58256Y574121D01*
X60204Y572997D01*
X62376Y572415D01*
X64624D01*
X64757Y572313D01*
Y568913D01*
X64809Y568651D01*
X64827Y568385D01*
X64886Y568264D01*
X64912Y568133D01*
X65061Y567911D01*
X65178Y567672D01*
X65280Y567583D01*
X65354Y567471D01*
X65576Y567323D01*
X65777Y567147D01*
X67492Y566157D01*
X68702Y564946D01*
X69558Y563464D01*
X70001Y561811D01*
Y560099D01*
X69558Y558446D01*
X68702Y556963D01*
X67492Y555753D01*
X65777Y554763D01*
X65576Y554587D01*
X65354Y554439D01*
X65280Y554327D01*
X65178Y554238D01*
X65061Y553999D01*
X64912Y553777D01*
X64886Y553645D01*
X64827Y553525D01*
X64809Y553258D01*
X64757Y552997D01*
Y507362D01*
X54960D01*
Y490282D01*
X64757D01*
Y487464D01*
X64624Y487362D01*
X62376D01*
X60204Y486780D01*
X58256Y485655D01*
X56666Y484065D01*
X55542Y482118D01*
X54960Y479946D01*
Y477697D01*
X55542Y475525D01*
X56666Y473578D01*
X58256Y471988D01*
X60204Y470864D01*
X62376Y470282D01*
X64624D01*
X64757Y470180D01*
Y467464D01*
X64624Y467362D01*
X62376D01*
X60204Y466780D01*
X58256Y465655D01*
X56666Y464065D01*
X55542Y462118D01*
X54960Y459946D01*
Y457697D01*
X55542Y455525D01*
X56666Y453578D01*
X58256Y451988D01*
X60204Y450864D01*
X62376Y450282D01*
X64624D01*
X64757Y450180D01*
Y447464D01*
X64624Y447362D01*
X62376D01*
X60204Y446780D01*
X58256Y445655D01*
X56666Y444065D01*
X55542Y442118D01*
X54960Y439946D01*
Y437697D01*
X55542Y435525D01*
X56666Y433578D01*
X58256Y431988D01*
X60204Y430864D01*
X62376Y430282D01*
X64624D01*
X64757Y430180D01*
Y426780D01*
X64809Y426518D01*
X64827Y426252D01*
X64886Y426131D01*
X64912Y425999D01*
X65061Y425777D01*
X65178Y425538D01*
X65280Y425450D01*
X65354Y425338D01*
X65576Y425190D01*
X65777Y425014D01*
X67492Y424024D01*
X68702Y422813D01*
X69558Y421331D01*
X70001Y419678D01*
Y417966D01*
X69558Y416312D01*
X68702Y414830D01*
X67491Y413620D01*
X65777Y412630D01*
X65576Y412454D01*
X65354Y412306D01*
X65280Y412194D01*
X65178Y412105D01*
X65061Y411866D01*
X64912Y411644D01*
X64886Y411512D01*
X64827Y411391D01*
X64809Y411125D01*
X64757Y410864D01*
Y365228D01*
X54960D01*
Y348148D01*
X64757D01*
Y345330D01*
X64624Y345228D01*
X62376D01*
X60204Y344646D01*
X58256Y343522D01*
X56666Y341932D01*
X55542Y339985D01*
X54960Y337812D01*
Y335564D01*
X55542Y333392D01*
X56666Y331445D01*
X58256Y329855D01*
X60204Y328730D01*
X62376Y328148D01*
X63487D01*
X64757Y326933D01*
X64757Y325330D01*
X64624Y325228D01*
X62376D01*
X60204Y324646D01*
X58256Y323522D01*
X56666Y321932D01*
X55542Y319984D01*
X54960Y317812D01*
Y315564D01*
X55542Y313392D01*
X56666Y311444D01*
X58256Y309855D01*
X60204Y308730D01*
X62376Y308148D01*
X64624D01*
X64757Y308046D01*
Y305330D01*
X64624Y305228D01*
X62376D01*
X60204Y304646D01*
X58256Y303522D01*
X56666Y301932D01*
X55542Y299984D01*
X54960Y297812D01*
Y295564D01*
X55542Y293392D01*
X56666Y291444D01*
X58256Y289855D01*
X60204Y288730D01*
X62376Y288148D01*
X64624D01*
X64757Y288046D01*
Y284646D01*
X64809Y284384D01*
X64827Y284118D01*
X64886Y283998D01*
X64912Y283866D01*
X65061Y283644D01*
X65178Y283405D01*
X65280Y283316D01*
X65354Y283204D01*
X65576Y283056D01*
X65777Y282880D01*
X67492Y281890D01*
X68702Y280680D01*
X69558Y279198D01*
X70001Y277544D01*
Y275832D01*
X69558Y274179D01*
X68702Y272697D01*
X67492Y271486D01*
X65777Y270496D01*
X65576Y270320D01*
X65354Y270172D01*
X65314Y270111D01*
X65256Y270066D01*
X65225Y270012D01*
X65178Y269972D01*
X65061Y269732D01*
X64912Y269511D01*
X64898Y269439D01*
X64862Y269375D01*
X64854Y269314D01*
X64827Y269258D01*
X64809Y268992D01*
X64757Y268730D01*
Y258795D01*
Y237842D01*
Y234950D01*
X8422D01*
Y841121D01*
X9644Y841466D01*
X10224Y840519D01*
X13345Y836865D01*
X16999Y833744D01*
X21097Y831234D01*
X25537Y829395D01*
X30209Y828273D01*
X35000Y827896D01*
X39791Y828273D01*
X44464Y829395D01*
X48903Y831234D01*
X53001Y833744D01*
X56655Y836865D01*
X59776Y840519D01*
X62287Y844617D01*
X64126Y849056D01*
X65247Y853729D01*
X65624Y858520D01*
X65247Y863311D01*
X64126Y867983D01*
X62287Y872423D01*
X59776Y876521D01*
X56655Y880175D01*
X53001Y883296D01*
X48903Y885807D01*
X44464Y887645D01*
X39791Y888767D01*
X35000Y889144D01*
X30209Y888767D01*
X25537Y887645D01*
X21097Y885807D01*
X16999Y883296D01*
X13345Y880175D01*
X10224Y876521D01*
X9644Y875574D01*
X8422Y875919D01*
Y892008D01*
X399147D01*
X399941Y890738D01*
X399574Y889853D01*
Y888147D01*
X400227Y886572D01*
X400974Y885825D01*
X400227Y885078D01*
X399574Y883503D01*
Y881797D01*
X400227Y880222D01*
X401432Y879016D01*
X403007Y878364D01*
X404713D01*
X406288Y879016D01*
X406840Y879569D01*
X407670Y880108D01*
X408500Y879569D01*
X409052Y879016D01*
X410627Y878364D01*
X412333D01*
X413908Y879016D01*
X414460Y879569D01*
X415290Y880108D01*
X416120Y879569D01*
X416672Y879016D01*
X418247Y878364D01*
X419953D01*
X421528Y879016D01*
X422080Y879569D01*
X422910Y880108D01*
X423740Y879569D01*
X424292Y879016D01*
X425867Y878364D01*
X427573D01*
X429148Y879016D01*
X429700Y879569D01*
X430530Y880108D01*
X431360Y879569D01*
X431912Y879016D01*
X433487Y878364D01*
X435193D01*
X436768Y879016D01*
X438268Y878791D01*
X438326Y878728D01*
X437674Y877153D01*
Y875447D01*
X438326Y873872D01*
X439074Y873125D01*
X438326Y872378D01*
X437674Y870803D01*
Y869097D01*
X438326Y867522D01*
X438268Y867459D01*
X436768Y867234D01*
X435193Y867886D01*
X433487D01*
X431912Y867234D01*
X431360Y866681D01*
X430530Y866142D01*
X429700Y866681D01*
X429148Y867234D01*
X427573Y867886D01*
X425867D01*
X424292Y867234D01*
X423740Y866681D01*
X422910Y866142D01*
X422080Y866681D01*
X421528Y867234D01*
X419953Y867886D01*
X418247D01*
X416672Y867234D01*
X416120Y866681D01*
X415290Y866142D01*
X414460Y866681D01*
X413908Y867234D01*
X412333Y867886D01*
X410627D01*
X409052Y867234D01*
X408500Y866681D01*
X407670Y866142D01*
X406840Y866681D01*
X406288Y867234D01*
X404713Y867886D01*
X403007D01*
X401432Y867234D01*
X400227Y866028D01*
X399574Y864453D01*
Y862747D01*
X400227Y861172D01*
X401432Y859967D01*
X403007Y859314D01*
X404713D01*
X406288Y859967D01*
X406840Y860519D01*
X407670Y861058D01*
X408500Y860519D01*
X409052Y859967D01*
X410627Y859314D01*
X412333D01*
X413908Y859967D01*
X414460Y860519D01*
X415290Y861058D01*
X416120Y860519D01*
X416672Y859967D01*
X418247Y859314D01*
X419953D01*
X421528Y859967D01*
X422080Y860519D01*
X422910Y861058D01*
X423740Y860519D01*
X424292Y859967D01*
X425867Y859314D01*
X427573D01*
X429148Y859967D01*
X429700Y860519D01*
X430530Y861058D01*
X431360Y860519D01*
X431912Y859967D01*
X433487Y859314D01*
X435193D01*
X436768Y859967D01*
X438268Y859741D01*
X438326Y859678D01*
X437674Y858103D01*
Y856397D01*
X438326Y854822D01*
X439074Y854075D01*
X438326Y853328D01*
X437674Y851753D01*
Y850047D01*
X438326Y848472D01*
X438268Y848409D01*
X436768Y848184D01*
X435193Y848836D01*
X433487D01*
X431912Y848184D01*
X431360Y847631D01*
X430530Y847092D01*
X429700Y847631D01*
X429148Y848184D01*
X427573Y848836D01*
X425867D01*
X424292Y848184D01*
X423740Y847631D01*
X422910Y847092D01*
X422080Y847631D01*
X421528Y848184D01*
X419953Y848836D01*
X418247D01*
X416672Y848184D01*
X416120Y847631D01*
X415290Y847092D01*
X414460Y847631D01*
X413908Y848184D01*
X412333Y848836D01*
X410627D01*
X409052Y848184D01*
X408500Y847631D01*
X407670Y847092D01*
X406840Y847631D01*
X406288Y848184D01*
X404713Y848836D01*
X403007D01*
X401432Y848184D01*
X400227Y846978D01*
X399574Y845403D01*
Y843697D01*
X400227Y842122D01*
X401432Y840917D01*
X403007Y840264D01*
X404713D01*
X406288Y840917D01*
X406840Y841469D01*
X407670Y842008D01*
X408500Y841469D01*
X409052Y840917D01*
X410627Y840264D01*
X412333D01*
X413908Y840917D01*
X414460Y841469D01*
X415290Y842008D01*
X416120Y841469D01*
X416672Y840917D01*
X418247Y840264D01*
X419953D01*
X421528Y840917D01*
X422080Y841469D01*
X422910Y842008D01*
X423740Y841469D01*
X424292Y840917D01*
X425867Y840264D01*
X427573D01*
X429148Y840917D01*
X429700Y841469D01*
X430530Y842008D01*
X431360Y841469D01*
X431912Y840917D01*
X433487Y840264D01*
X435193D01*
X436768Y840917D01*
X437320Y841469D01*
X438150Y842008D01*
X438980Y841469D01*
X439532Y840917D01*
X441107Y840264D01*
X442813D01*
X444388Y840917D01*
X444940Y841469D01*
X445770Y842008D01*
X446600Y841469D01*
X447152Y840917D01*
X448727Y840264D01*
X450433D01*
X452008Y840917D01*
X453214Y842122D01*
X453866Y843697D01*
Y845403D01*
X453214Y846978D01*
X452466Y847725D01*
X453214Y848472D01*
X453866Y850047D01*
Y851753D01*
X453214Y853328D01*
X452466Y854075D01*
X453214Y854822D01*
X453866Y856397D01*
Y858103D01*
X453214Y859678D01*
X452466Y860425D01*
X453214Y861172D01*
X453866Y862747D01*
Y864453D01*
X453214Y866028D01*
X452466Y866775D01*
X453214Y867522D01*
X453866Y869097D01*
Y870803D01*
X453214Y872378D01*
X452466Y873125D01*
X453214Y873872D01*
X453866Y875447D01*
Y877153D01*
X453214Y878728D01*
X452466Y879475D01*
X453214Y880222D01*
X453866Y881797D01*
Y883503D01*
X453214Y885078D01*
X452466Y885825D01*
X453214Y886572D01*
X453866Y888147D01*
Y889853D01*
X453499Y890738D01*
X454293Y892008D01*
X641578D01*
Y875919D01*
D02*
G37*
G36*
X584200Y649116D02*
X583444Y648913D01*
X581496Y647788D01*
X579906Y646199D01*
X578782Y644251D01*
X578200Y642079D01*
Y639831D01*
X578782Y637659D01*
X579906Y635711D01*
X581496Y634121D01*
X583444Y632997D01*
X584200Y632794D01*
Y629115D01*
X583444Y628913D01*
X581496Y627789D01*
X579906Y626199D01*
X578782Y624251D01*
X578200Y622079D01*
Y619831D01*
X578782Y617659D01*
X579906Y615711D01*
X581496Y614121D01*
X583444Y612997D01*
X584200Y612794D01*
Y609115D01*
X583444Y608913D01*
X581496Y607789D01*
X579906Y606199D01*
X578782Y604251D01*
X578200Y602079D01*
Y599831D01*
X578782Y597659D01*
X579906Y595711D01*
X581496Y594121D01*
X583444Y592997D01*
X584200Y592794D01*
Y589115D01*
X583444Y588913D01*
X581496Y587789D01*
X579906Y586199D01*
X578782Y584251D01*
X578200Y582079D01*
Y579831D01*
X578782Y577659D01*
X579906Y575711D01*
X581496Y574121D01*
X583444Y572997D01*
X584200Y572794D01*
Y569495D01*
X578200D01*
Y552415D01*
X584200D01*
Y506982D01*
X583444Y506780D01*
X581496Y505655D01*
X579906Y504065D01*
X578782Y502118D01*
X578200Y499946D01*
Y497697D01*
X578782Y495525D01*
X579906Y493578D01*
X581496Y491988D01*
X583444Y490863D01*
X584200Y490661D01*
Y486982D01*
X583444Y486780D01*
X581496Y485655D01*
X579906Y484065D01*
X578782Y482118D01*
X578200Y479946D01*
Y477697D01*
X578782Y475525D01*
X579906Y473578D01*
X581496Y471988D01*
X583444Y470863D01*
X584200Y470661D01*
Y466982D01*
X583444Y466780D01*
X581496Y465655D01*
X579906Y464065D01*
X578782Y462118D01*
X578200Y459946D01*
Y457697D01*
X578782Y455525D01*
X579906Y453578D01*
X581496Y451988D01*
X583444Y450863D01*
X584200Y450661D01*
Y446982D01*
X583444Y446780D01*
X581496Y445655D01*
X579906Y444065D01*
X578782Y442118D01*
X578200Y439946D01*
Y437697D01*
X578782Y435525D01*
X579906Y433578D01*
X581496Y431988D01*
X583444Y430863D01*
X584200Y430661D01*
Y427361D01*
X578200D01*
Y410282D01*
X584200D01*
Y393876D01*
Y364849D01*
X583444Y364646D01*
X581496Y363522D01*
X579906Y361932D01*
X578782Y359985D01*
X578200Y357812D01*
Y355564D01*
X578782Y353392D01*
X579906Y351445D01*
X581496Y349855D01*
X583444Y348730D01*
X584200Y348528D01*
Y344849D01*
X583444Y344646D01*
X581496Y343522D01*
X579906Y341932D01*
X578782Y339985D01*
X578200Y337812D01*
Y335564D01*
X578782Y333392D01*
X579906Y331445D01*
X581496Y329855D01*
X583444Y328730D01*
X584200Y328528D01*
X584200Y324849D01*
X583444Y324646D01*
X581496Y323522D01*
X579906Y321932D01*
X578782Y319984D01*
X578200Y317812D01*
Y315564D01*
X578782Y313392D01*
X579906Y311444D01*
X581496Y309855D01*
X583444Y308730D01*
X584200Y308528D01*
Y304849D01*
X583444Y304646D01*
X581496Y303522D01*
X579906Y301932D01*
X578782Y299984D01*
X578200Y297812D01*
Y295564D01*
X578782Y293392D01*
X579906Y291444D01*
X581496Y289855D01*
X583444Y288730D01*
X584200Y288528D01*
Y285228D01*
X578200D01*
Y268148D01*
X584200D01*
Y234950D01*
D01*
X584355Y234170D01*
X584797Y233508D01*
X585459Y233066D01*
X586239Y232911D01*
X641578D01*
Y8422D01*
X8422D01*
Y232911D01*
X64757D01*
X65537Y233066D01*
X66199Y233508D01*
X66641Y234170D01*
X66796Y234950D01*
Y237842D01*
Y258795D01*
Y268730D01*
X66796Y268730D01*
X68744Y269855D01*
X70334Y271444D01*
X71458Y273392D01*
X72040Y275564D01*
Y277812D01*
X71458Y279984D01*
X70334Y281932D01*
X68744Y283522D01*
X66796Y284646D01*
Y288730D01*
X68744Y289855D01*
X70334Y291444D01*
X71458Y293392D01*
X72040Y295564D01*
Y297812D01*
X71458Y299984D01*
X70334Y301932D01*
X68744Y303522D01*
X66796Y304646D01*
Y308730D01*
X68744Y309855D01*
X70334Y311444D01*
X71458Y313392D01*
X72040Y315564D01*
Y317812D01*
X71458Y319984D01*
X70334Y321932D01*
X68744Y323522D01*
X66796Y324646D01*
X66796Y328730D01*
X68744Y329855D01*
X70334Y331445D01*
X71458Y333392D01*
X72040Y335564D01*
Y337812D01*
X71458Y339985D01*
X70334Y341932D01*
X68744Y343522D01*
X66796Y344646D01*
Y348148D01*
X72040D01*
Y365228D01*
X66796D01*
Y410864D01*
X68744Y411988D01*
X70334Y413578D01*
X71458Y415525D01*
X72040Y417697D01*
Y419946D01*
X71458Y422118D01*
X70334Y424065D01*
X68744Y425655D01*
X66796Y426780D01*
Y430864D01*
X68744Y431988D01*
X70334Y433578D01*
X71458Y435525D01*
X72040Y437697D01*
Y439946D01*
X71458Y442118D01*
X70334Y444065D01*
X68744Y445655D01*
X66796Y446780D01*
Y450864D01*
X68744Y451988D01*
X70334Y453578D01*
X71458Y455525D01*
X72040Y457697D01*
Y459946D01*
X71458Y462118D01*
X70334Y464065D01*
X68744Y465655D01*
X66796Y466780D01*
Y470864D01*
X68744Y471988D01*
X70334Y473578D01*
X71458Y475525D01*
X72040Y477697D01*
Y479946D01*
X71458Y482118D01*
X70334Y484065D01*
X68744Y485655D01*
X66796Y486780D01*
Y490282D01*
X72040D01*
Y507362D01*
X66796D01*
Y552997D01*
X68744Y554121D01*
X70334Y555711D01*
X71458Y557659D01*
X72040Y559831D01*
Y562079D01*
X71458Y564251D01*
X70334Y566199D01*
X68744Y567789D01*
X66796Y568913D01*
Y572997D01*
X68744Y574121D01*
X70334Y575711D01*
X71458Y577659D01*
X72040Y579831D01*
Y582079D01*
X71458Y584251D01*
X70334Y586199D01*
X68744Y587789D01*
X66796Y588913D01*
Y592997D01*
X68744Y594121D01*
X70334Y595711D01*
X71458Y597659D01*
X72040Y599831D01*
Y602079D01*
X71458Y604251D01*
X70334Y606199D01*
X68744Y607789D01*
X66796Y608913D01*
Y612997D01*
X68744Y614121D01*
X69303Y614680D01*
X376458Y614680D01*
X377607Y614204D01*
X379313D01*
X380462Y614680D01*
X533400Y614680D01*
Y684530D01*
X541020Y692150D01*
X584200D01*
Y649116D01*
D02*
G37*
%LPC*%
G36*
X578482Y887110D02*
X576638D01*
X574858Y886633D01*
X573262Y885711D01*
X571959Y884408D01*
X571037Y882812D01*
X570560Y881032D01*
Y879188D01*
X571037Y877408D01*
X571959Y875812D01*
X573262Y874509D01*
X574858Y873587D01*
X576638Y873110D01*
X578482D01*
X580262Y873587D01*
X581858Y874509D01*
X583161Y875812D01*
X584083Y877408D01*
X584560Y879188D01*
Y881032D01*
X584083Y882812D01*
X583161Y884408D01*
X581858Y885711D01*
X580262Y886633D01*
X578482Y887110D01*
D02*
G37*
G36*
X510482D02*
X508638D01*
X506858Y886633D01*
X505262Y885711D01*
X503959Y884408D01*
X503037Y882812D01*
X502560Y881032D01*
Y879188D01*
X503037Y877408D01*
X503959Y875812D01*
X505262Y874509D01*
X506858Y873587D01*
X508638Y873110D01*
X510482D01*
X512262Y873587D01*
X513858Y874509D01*
X515161Y875812D01*
X516083Y877408D01*
X516560Y879188D01*
Y881032D01*
X516083Y882812D01*
X515161Y884408D01*
X513858Y885711D01*
X512262Y886633D01*
X510482Y887110D01*
D02*
G37*
G36*
X245300Y882266D02*
X242689Y881923D01*
X240257Y880915D01*
X238168Y879312D01*
X236565Y877223D01*
X235557Y874790D01*
X235214Y872180D01*
Y858180D01*
X235557Y855570D01*
X236565Y853137D01*
X238168Y851048D01*
X240257Y849445D01*
X242689Y848437D01*
X245300Y848094D01*
X247910Y848437D01*
X250343Y849445D01*
X252432Y851048D01*
X254035Y853137D01*
X255043Y855570D01*
X255386Y858180D01*
Y872180D01*
X255043Y874790D01*
X254035Y877223D01*
X252432Y879312D01*
X250343Y880915D01*
X247910Y881923D01*
X245300Y882266D01*
D02*
G37*
G36*
X110300D02*
X107690Y881923D01*
X105257Y880915D01*
X103168Y879312D01*
X101565Y877223D01*
X100557Y874790D01*
X100214Y872180D01*
Y858180D01*
X100557Y855570D01*
X101565Y853137D01*
X103168Y851048D01*
X105257Y849445D01*
X107690Y848437D01*
X110300Y848094D01*
X112910Y848437D01*
X115343Y849445D01*
X117432Y851048D01*
X119035Y853137D01*
X120043Y855570D01*
X120386Y858180D01*
Y872180D01*
X120043Y874790D01*
X119035Y877223D01*
X117432Y879312D01*
X115343Y880915D01*
X112910Y881923D01*
X110300Y882266D01*
D02*
G37*
G36*
X577433Y837406D02*
X575727D01*
X574152Y836753D01*
X573600Y836201D01*
X572770Y835662D01*
X571940Y836201D01*
X571388Y836753D01*
X569813Y837406D01*
X568107D01*
X566532Y836753D01*
X565980Y836201D01*
X565150Y835662D01*
X564320Y836201D01*
X563768Y836753D01*
X562193Y837406D01*
X560487D01*
X558912Y836753D01*
X558360Y836201D01*
X557530Y835662D01*
X556700Y836201D01*
X556148Y836753D01*
X554573Y837406D01*
X552867D01*
X551292Y836753D01*
X550087Y835548D01*
X549434Y833973D01*
Y832267D01*
X550087Y830692D01*
X550834Y829945D01*
X550087Y829198D01*
X549434Y827623D01*
Y825917D01*
X550087Y824342D01*
X550028Y824279D01*
X548528Y824053D01*
X546953Y824706D01*
X545247D01*
X543672Y824053D01*
X542467Y822848D01*
X541814Y821273D01*
Y819567D01*
X542467Y817992D01*
X542408Y817929D01*
X540908Y817703D01*
X539333Y818356D01*
X537627D01*
X536052Y817703D01*
X535500Y817151D01*
X534670Y816612D01*
X533840Y817151D01*
X533288Y817703D01*
X531713Y818356D01*
X530007D01*
X528432Y817703D01*
X527226Y816498D01*
X526574Y814923D01*
Y813217D01*
X527226Y811642D01*
X527974Y810895D01*
X527226Y810148D01*
X526574Y808573D01*
Y806867D01*
X527226Y805292D01*
X527974Y804545D01*
X527226Y803798D01*
X526574Y802223D01*
Y800517D01*
X527226Y798942D01*
X528432Y797737D01*
X530007Y797084D01*
X531713D01*
X533288Y797737D01*
X533840Y798289D01*
X534670Y798828D01*
X535500Y798289D01*
X536052Y797737D01*
X537627Y797084D01*
X539333D01*
X540908Y797737D01*
X541460Y798289D01*
X542290Y798828D01*
X543120Y798289D01*
X543672Y797737D01*
X545247Y797084D01*
X546953D01*
X548528Y797737D01*
X549080Y798289D01*
X549910Y798828D01*
X550740Y798289D01*
X551292Y797737D01*
X552867Y797084D01*
X554573D01*
X556148Y797737D01*
X556700Y798289D01*
X557530Y798828D01*
X558360Y798289D01*
X558912Y797737D01*
X560487Y797084D01*
X562193D01*
X563768Y797737D01*
X564320Y798289D01*
X565150Y798828D01*
X565980Y798289D01*
X566532Y797737D01*
X568107Y797084D01*
X569813D01*
X571388Y797737D01*
X571940Y798289D01*
X572770Y798828D01*
X573600Y798289D01*
X574152Y797737D01*
X575727Y797084D01*
X577433D01*
X579008Y797737D01*
X580214Y798942D01*
X580866Y800517D01*
Y802223D01*
X580214Y803798D01*
X579466Y804545D01*
X580214Y805292D01*
X580866Y806867D01*
Y808573D01*
X580214Y810148D01*
X579466Y810895D01*
X580214Y811642D01*
X580866Y813217D01*
Y814923D01*
X580214Y816498D01*
X579466Y817245D01*
X580214Y817992D01*
X580866Y819567D01*
Y821273D01*
X580214Y822848D01*
X579466Y823595D01*
X580214Y824342D01*
X580866Y825917D01*
Y827623D01*
X580214Y829198D01*
X579466Y829945D01*
X580214Y830692D01*
X580866Y832267D01*
Y833973D01*
X580214Y835548D01*
X579008Y836753D01*
X577433Y837406D01*
D02*
G37*
G36*
X423763Y822166D02*
X422057D01*
X420482Y821514D01*
X419277Y820308D01*
X418624Y818733D01*
Y817027D01*
X419277Y815452D01*
X420482Y814247D01*
X422057Y813594D01*
X423763D01*
X425338Y814247D01*
X426544Y815452D01*
X427196Y817027D01*
Y818733D01*
X426544Y820308D01*
X425338Y821514D01*
X423763Y822166D01*
D02*
G37*
G36*
X526633Y795496D02*
X524927D01*
X523352Y794844D01*
X522800Y794291D01*
X521970Y793752D01*
X521140Y794291D01*
X520588Y794844D01*
X519013Y795496D01*
X517307D01*
X515732Y794844D01*
X515180Y794291D01*
X514350Y793752D01*
X513520Y794291D01*
X512968Y794844D01*
X511393Y795496D01*
X509687D01*
X508112Y794844D01*
X507560Y794291D01*
X506730Y793752D01*
X505900Y794291D01*
X505348Y794844D01*
X503773Y795496D01*
X502067D01*
X500492Y794844D01*
X499940Y794291D01*
X499110Y793752D01*
X498280Y794291D01*
X497728Y794844D01*
X496153Y795496D01*
X494447D01*
X492872Y794844D01*
X492320Y794291D01*
X491490Y793752D01*
X490660Y794291D01*
X490108Y794844D01*
X488533Y795496D01*
X486827D01*
X485252Y794844D01*
X484700Y794291D01*
X483870Y793752D01*
X483040Y794291D01*
X482488Y794844D01*
X480913Y795496D01*
X479207D01*
X477632Y794844D01*
X477080Y794291D01*
X476250Y793752D01*
X475420Y794291D01*
X474868Y794844D01*
X473293Y795496D01*
X471587D01*
X470012Y794844D01*
X469460Y794291D01*
X468630Y793752D01*
X467800Y794291D01*
X467248Y794844D01*
X465673Y795496D01*
X463967D01*
X462392Y794844D01*
X461840Y794291D01*
X461010Y793752D01*
X460180Y794291D01*
X459628Y794844D01*
X458053Y795496D01*
X456347D01*
X454772Y794844D01*
X454220Y794291D01*
X453390Y793752D01*
X452560Y794291D01*
X452008Y794844D01*
X450433Y795496D01*
X448727D01*
X447152Y794844D01*
X446600Y794291D01*
X445770Y793752D01*
X444940Y794291D01*
X444388Y794844D01*
X442813Y795496D01*
X441107D01*
X439532Y794844D01*
X438980Y794291D01*
X438150Y793752D01*
X437320Y794291D01*
X436768Y794844D01*
X435193Y795496D01*
X433487D01*
X431912Y794844D01*
X431360Y794291D01*
X430530Y793752D01*
X429700Y794291D01*
X429148Y794844D01*
X427573Y795496D01*
X425867D01*
X424292Y794844D01*
X423087Y793638D01*
X422434Y792063D01*
Y790357D01*
X423087Y788782D01*
X423834Y788035D01*
X423087Y787288D01*
X422434Y785713D01*
Y784007D01*
X423087Y782432D01*
X423834Y781685D01*
X423087Y780938D01*
X422434Y779363D01*
Y777657D01*
X423087Y776082D01*
X423834Y775335D01*
X423087Y774588D01*
X422434Y773013D01*
Y771307D01*
X423087Y769732D01*
X423834Y768985D01*
X423087Y768238D01*
X422434Y766663D01*
Y764957D01*
X423087Y763382D01*
X424292Y762177D01*
X425867Y761524D01*
X427573D01*
X429148Y762177D01*
X429700Y762729D01*
X430530Y763268D01*
X431360Y762729D01*
X431912Y762177D01*
X433487Y761524D01*
X435193D01*
X436768Y762177D01*
X437320Y762729D01*
X438150Y763268D01*
X438980Y762729D01*
X439532Y762177D01*
X441107Y761524D01*
X442813D01*
X444388Y762177D01*
X444940Y762729D01*
X445770Y763268D01*
X446600Y762729D01*
X447152Y762177D01*
X448727Y761524D01*
X450433D01*
X452008Y762177D01*
X452560Y762729D01*
X453390Y763268D01*
X454220Y762729D01*
X454772Y762177D01*
X456347Y761524D01*
X458053D01*
X459628Y762177D01*
X460180Y762729D01*
X461010Y763268D01*
X461840Y762729D01*
X462392Y762177D01*
X463967Y761524D01*
X465673D01*
X467248Y762177D01*
X467800Y762729D01*
X468630Y763268D01*
X469460Y762729D01*
X470012Y762177D01*
X471587Y761524D01*
X473293D01*
X474868Y762177D01*
X475420Y762729D01*
X476250Y763268D01*
X477080Y762729D01*
X477632Y762177D01*
X479207Y761524D01*
X480913D01*
X482488Y762177D01*
X483040Y762729D01*
X483870Y763268D01*
X484700Y762729D01*
X485252Y762177D01*
X486827Y761524D01*
X488533D01*
X490108Y762177D01*
X490660Y762729D01*
X491490Y763268D01*
X492320Y762729D01*
X492872Y762177D01*
X494447Y761524D01*
X496153D01*
X497728Y762177D01*
X498280Y762729D01*
X499110Y763268D01*
X499940Y762729D01*
X500492Y762177D01*
X502067Y761524D01*
X503773D01*
X505348Y762177D01*
X505900Y762729D01*
X506730Y763268D01*
X507560Y762729D01*
X508112Y762177D01*
X509687Y761524D01*
X511393D01*
X512968Y762177D01*
X513520Y762729D01*
X514350Y763268D01*
X515180Y762729D01*
X515732Y762177D01*
X517307Y761524D01*
X519013D01*
X520588Y762177D01*
X521140Y762729D01*
X521970Y763268D01*
X522800Y762729D01*
X523352Y762177D01*
X524927Y761524D01*
X526633D01*
X528208Y762177D01*
X528760Y762729D01*
X529590Y763268D01*
X530420Y762729D01*
X530972Y762177D01*
X532547Y761524D01*
X534253D01*
X535828Y762177D01*
X536380Y762729D01*
X537210Y763268D01*
X538040Y762729D01*
X538592Y762177D01*
X540167Y761524D01*
X541873D01*
X543448Y762177D01*
X544000Y762729D01*
X544830Y763268D01*
X545660Y762729D01*
X546212Y762177D01*
X547787Y761524D01*
X549493D01*
X551068Y762177D01*
X551620Y762729D01*
X552450Y763268D01*
X553280Y762729D01*
X553832Y762177D01*
X555407Y761524D01*
X557113D01*
X558688Y762177D01*
X559240Y762729D01*
X560070Y763268D01*
X560900Y762729D01*
X561452Y762177D01*
X563027Y761524D01*
X564733D01*
X566308Y762177D01*
X566860Y762729D01*
X567690Y763268D01*
X568520Y762729D01*
X569072Y762177D01*
X570647Y761524D01*
X572353D01*
X573928Y762177D01*
X575134Y763382D01*
X575786Y764957D01*
Y766663D01*
X575134Y768238D01*
X574386Y768985D01*
X575134Y769732D01*
X575786Y771307D01*
Y773013D01*
X575134Y774588D01*
X573928Y775794D01*
X572353Y776446D01*
X570647D01*
X569072Y775794D01*
X568520Y775241D01*
X567690Y774702D01*
X566860Y775241D01*
X566308Y775794D01*
X564733Y776446D01*
X563027D01*
X561452Y775794D01*
X560900Y775241D01*
X560070Y774702D01*
X559240Y775241D01*
X558688Y775794D01*
X557113Y776446D01*
X555407D01*
X553832Y775794D01*
X553280Y775241D01*
X552450Y774702D01*
X551620Y775241D01*
X551068Y775794D01*
X549493Y776446D01*
X547787D01*
X546212Y775794D01*
X545660Y775241D01*
X544830Y774702D01*
X544000Y775241D01*
X543448Y775794D01*
X541873Y776446D01*
X540167D01*
X538592Y775794D01*
X538040Y775241D01*
X537210Y774702D01*
X536380Y775241D01*
X535828Y775794D01*
X534253Y776446D01*
X532547D01*
X530972Y775794D01*
X529472Y776019D01*
X529413Y776082D01*
X530066Y777657D01*
Y779363D01*
X529413Y780938D01*
X528666Y781685D01*
X529413Y782432D01*
X530066Y784007D01*
Y785713D01*
X529413Y787288D01*
X528666Y788035D01*
X529413Y788782D01*
X530066Y790357D01*
Y792063D01*
X529413Y793638D01*
X528208Y794844D01*
X526633Y795496D01*
D02*
G37*
G36*
X215967Y827180D02*
X211633D01*
X207383Y826335D01*
X203379Y824676D01*
X199776Y822269D01*
X196712Y819204D01*
X194304Y815601D01*
X192645Y811597D01*
X191800Y807347D01*
Y803013D01*
X192645Y798763D01*
X194304Y794759D01*
X196712Y791156D01*
X199776Y788092D01*
X203379Y785684D01*
X207383Y784025D01*
X211633Y783180D01*
X215967D01*
X220217Y784025D01*
X224221Y785684D01*
X227824Y788092D01*
X230889Y791156D01*
X233296Y794759D01*
X234954Y798763D01*
X235800Y803013D01*
Y807347D01*
X234954Y811597D01*
X233296Y815601D01*
X230889Y819204D01*
X227824Y822269D01*
X224221Y824676D01*
X220217Y826335D01*
X215967Y827180D01*
D02*
G37*
G36*
X64624Y797050D02*
X62376D01*
X60204Y796468D01*
X58256Y795344D01*
X56666Y793754D01*
X55542Y791806D01*
X54960Y789634D01*
Y787386D01*
X55542Y785214D01*
X56666Y783266D01*
X58256Y781676D01*
X60204Y780552D01*
X62376Y779970D01*
X64624D01*
X66796Y780552D01*
X68744Y781676D01*
X70334Y783266D01*
X71458Y785214D01*
X72040Y787386D01*
Y789634D01*
X71458Y791806D01*
X70334Y793754D01*
X68744Y795344D01*
X66796Y796468D01*
X64624Y797050D01*
D02*
G37*
G36*
Y777050D02*
X62376D01*
X60204Y776468D01*
X58256Y775344D01*
X56666Y773754D01*
X55542Y771806D01*
X54960Y769634D01*
Y767386D01*
X55542Y765214D01*
X56666Y763266D01*
X58256Y761676D01*
X60204Y760552D01*
X62376Y759970D01*
X64624D01*
X66796Y760552D01*
X68744Y761676D01*
X70334Y763266D01*
X71458Y765214D01*
X72040Y767386D01*
Y769634D01*
X71458Y771806D01*
X70334Y773754D01*
X68744Y775344D01*
X66796Y776468D01*
X64624Y777050D01*
D02*
G37*
G36*
X587864Y732440D02*
X585616D01*
X583444Y731858D01*
X581496Y730734D01*
X579906Y729144D01*
X578782Y727196D01*
X578200Y725024D01*
Y722776D01*
X578782Y720604D01*
X579906Y718656D01*
X581496Y717066D01*
X583444Y715942D01*
X585616Y715360D01*
X587864D01*
X590036Y715942D01*
X591984Y717066D01*
X593574Y718656D01*
X594698Y720604D01*
X595280Y722776D01*
Y725024D01*
X594698Y727196D01*
X593574Y729144D01*
X591984Y730734D01*
X590036Y731858D01*
X587864Y732440D01*
D02*
G37*
G36*
X64624Y722280D02*
X62376D01*
X60204Y721698D01*
X58256Y720574D01*
X56666Y718984D01*
X55542Y717036D01*
X54960Y714864D01*
Y712616D01*
X55542Y710444D01*
X56666Y708496D01*
X58256Y706906D01*
X60204Y705782D01*
X62376Y705200D01*
X64624D01*
X66796Y705782D01*
X68744Y706906D01*
X70334Y708496D01*
X71458Y710444D01*
X72040Y712616D01*
Y714864D01*
X71458Y717036D01*
X70334Y718984D01*
X68744Y720574D01*
X66796Y721698D01*
X64624Y722280D01*
D02*
G37*
G36*
X587864Y712440D02*
X585616D01*
X583444Y711858D01*
X581496Y710734D01*
X579906Y709144D01*
X578782Y707196D01*
X578200Y705024D01*
Y702776D01*
X578782Y700604D01*
X579906Y698656D01*
X581496Y697066D01*
X583444Y695942D01*
X585616Y695360D01*
X587864D01*
X590036Y695942D01*
X591984Y697066D01*
X593574Y698656D01*
X594698Y700604D01*
X595280Y702776D01*
Y705024D01*
X594698Y707196D01*
X593574Y709144D01*
X591984Y710734D01*
X590036Y711858D01*
X587864Y712440D01*
D02*
G37*
G36*
X64624Y702280D02*
X62376D01*
X60204Y701698D01*
X58256Y700574D01*
X56666Y698984D01*
X55542Y697036D01*
X54960Y694864D01*
Y692616D01*
X55542Y690444D01*
X56666Y688496D01*
X58256Y686906D01*
X60204Y685782D01*
X62376Y685200D01*
X64624D01*
X66796Y685782D01*
X68744Y686906D01*
X70334Y688496D01*
X71458Y690444D01*
X72040Y692616D01*
Y694864D01*
X71458Y697036D01*
X70334Y698984D01*
X68744Y700574D01*
X66796Y701698D01*
X64624Y702280D01*
D02*
G37*
G36*
X408523Y651986D02*
X406817D01*
X405242Y651333D01*
X404036Y650128D01*
X403384Y648553D01*
Y646847D01*
X404036Y645272D01*
X405242Y644066D01*
X406817Y643414D01*
X408523D01*
X410098Y644066D01*
X411303Y645272D01*
X411956Y646847D01*
Y648553D01*
X411303Y650128D01*
X410098Y651333D01*
X408523Y651986D01*
D02*
G37*
G36*
X64624Y649495D02*
X62376D01*
X60204Y648913D01*
X58256Y647788D01*
X56666Y646199D01*
X55542Y644251D01*
X54960Y642079D01*
Y639831D01*
X55542Y637659D01*
X56666Y635711D01*
X58256Y634121D01*
X60204Y632997D01*
X62376Y632415D01*
X64624D01*
X66796Y632997D01*
X68744Y634121D01*
X70334Y635711D01*
X71458Y637659D01*
X72040Y639831D01*
Y642079D01*
X71458Y644251D01*
X70334Y646199D01*
X68744Y647788D01*
X66796Y648913D01*
X64624Y649495D01*
D02*
G37*
G36*
X108803Y607429D02*
X107097D01*
X105522Y606776D01*
X104317Y605571D01*
X103664Y603995D01*
Y602290D01*
X104317Y600715D01*
X105522Y599509D01*
X107097Y598857D01*
X108803D01*
X110378Y599509D01*
X111583Y600715D01*
X112236Y602290D01*
Y603995D01*
X111583Y605571D01*
X110378Y606776D01*
X108803Y607429D01*
D02*
G37*
G36*
X553303Y601186D02*
X551597D01*
X550022Y600533D01*
X548816Y599328D01*
X548164Y597753D01*
Y596047D01*
X548816Y594472D01*
X550022Y593266D01*
X551597Y592614D01*
X553303D01*
X554878Y593266D01*
X556083Y594472D01*
X556736Y596047D01*
Y597753D01*
X556083Y599328D01*
X554878Y600533D01*
X553303Y601186D01*
D02*
G37*
G36*
X442813D02*
X441107D01*
X439532Y600533D01*
X438326Y599328D01*
X437674Y597753D01*
Y596047D01*
X438326Y594472D01*
X439532Y593266D01*
X441107Y592614D01*
X442813D01*
X444388Y593266D01*
X445593Y594472D01*
X446246Y596047D01*
Y597753D01*
X445593Y599328D01*
X444388Y600533D01*
X442813Y601186D01*
D02*
G37*
G36*
X534841Y597376D02*
X533136D01*
X531561Y596724D01*
X530355Y595518D01*
X529703Y593943D01*
Y592237D01*
X530355Y590662D01*
X531561Y589456D01*
X533136Y588804D01*
X534841D01*
X536417Y589456D01*
X537622Y590662D01*
X538275Y592237D01*
Y593943D01*
X537622Y595518D01*
X536417Y596724D01*
X534841Y597376D01*
D02*
G37*
G36*
X319673Y593516D02*
X317968D01*
X316393Y592863D01*
X315187Y591657D01*
X314534Y590082D01*
Y588377D01*
X315187Y586802D01*
X316393Y585596D01*
X317968Y584944D01*
X319673D01*
X321248Y585596D01*
X322454Y586802D01*
X323106Y588377D01*
Y590082D01*
X322454Y591657D01*
X321248Y592863D01*
X319673Y593516D01*
D02*
G37*
G36*
X350103Y579596D02*
X348397D01*
X346822Y578943D01*
X345616Y577738D01*
X344964Y576163D01*
Y574457D01*
X345616Y572882D01*
X346822Y571676D01*
X348397Y571024D01*
X350103D01*
X351678Y571676D01*
X352883Y572882D01*
X353536Y574457D01*
Y576163D01*
X352883Y577738D01*
X351678Y578943D01*
X350103Y579596D01*
D02*
G37*
G36*
X389473Y577056D02*
X387767D01*
X386192Y576404D01*
X384986Y575198D01*
X384334Y573623D01*
Y571917D01*
X384986Y570342D01*
X386192Y569137D01*
X387767Y568484D01*
X389473D01*
X391048Y569137D01*
X392253Y570342D01*
X392906Y571917D01*
Y573623D01*
X392253Y575198D01*
X391048Y576404D01*
X389473Y577056D01*
D02*
G37*
G36*
X502503Y569436D02*
X500797D01*
X499222Y568783D01*
X498017Y567578D01*
X497364Y566003D01*
Y564297D01*
X498017Y562722D01*
X499222Y561516D01*
X500797Y560864D01*
X502503D01*
X504078Y561516D01*
X505284Y562722D01*
X505936Y564297D01*
Y566003D01*
X505284Y567578D01*
X504078Y568783D01*
X502503Y569436D01*
D02*
G37*
G36*
X351373Y545306D02*
X349667D01*
X348092Y544654D01*
X346886Y543448D01*
X346234Y541873D01*
Y540167D01*
X346886Y538592D01*
X348092Y537387D01*
X349667Y536734D01*
X351373D01*
X352948Y537387D01*
X354154Y538592D01*
X354806Y540167D01*
Y541873D01*
X354154Y543448D01*
X352948Y544654D01*
X351373Y545306D01*
D02*
G37*
G36*
X323433Y549116D02*
X321727D01*
X320152Y548464D01*
X318946Y547258D01*
X318294Y545683D01*
Y543977D01*
X318946Y542402D01*
X320152Y541197D01*
X321393Y540682D01*
X320834Y539333D01*
Y537627D01*
X321487Y536052D01*
X322692Y534846D01*
X324267Y534194D01*
X325973D01*
X327548Y534846D01*
X328754Y536052D01*
X329406Y537627D01*
Y539333D01*
X328754Y540908D01*
X327548Y542113D01*
X326307Y542627D01*
X326866Y543977D01*
Y545683D01*
X326213Y547258D01*
X325008Y548464D01*
X323433Y549116D01*
D02*
G37*
G36*
X496153Y531336D02*
X494447D01*
X492872Y530684D01*
X491666Y529478D01*
X491014Y527903D01*
Y526197D01*
X491666Y524622D01*
X492872Y523416D01*
X494447Y522764D01*
X496153D01*
X497728Y523416D01*
X498933Y524622D01*
X499586Y526197D01*
Y527903D01*
X498933Y529478D01*
X497728Y530684D01*
X496153Y531336D01*
D02*
G37*
G36*
X456783Y521176D02*
X455077D01*
X453502Y520523D01*
X452296Y519318D01*
X451644Y517743D01*
Y516037D01*
X452296Y514462D01*
X453502Y513256D01*
X455077Y512604D01*
X456783D01*
X458358Y513256D01*
X459563Y514462D01*
X460216Y516037D01*
Y517743D01*
X459563Y519318D01*
X458358Y520523D01*
X456783Y521176D01*
D02*
G37*
G36*
X372963Y506446D02*
X371257D01*
X369682Y505793D01*
X368476Y504588D01*
X367824Y503013D01*
Y501307D01*
X368476Y499732D01*
X369682Y498526D01*
X371257Y497874D01*
X372963D01*
X374538Y498526D01*
X375743Y499732D01*
X376396Y501307D01*
Y503013D01*
X375743Y504588D01*
X374538Y505793D01*
X372963Y506446D01*
D02*
G37*
G36*
X532983Y502126D02*
X531277D01*
X529702Y501474D01*
X528497Y500268D01*
X527844Y498693D01*
Y496987D01*
X528497Y495412D01*
X529702Y494207D01*
X531277Y493554D01*
X532983D01*
X534558Y494207D01*
X535764Y495412D01*
X536416Y496987D01*
Y498693D01*
X535764Y500268D01*
X534558Y501474D01*
X532983Y502126D01*
D02*
G37*
G36*
X449163Y497046D02*
X447457D01*
X445882Y496394D01*
X444677Y495188D01*
X444024Y493613D01*
Y491907D01*
X444677Y490332D01*
X445882Y489127D01*
X447457Y488474D01*
X449163D01*
X450738Y489127D01*
X451944Y490332D01*
X452596Y491907D01*
Y493613D01*
X451944Y495188D01*
X450738Y496394D01*
X449163Y497046D01*
D02*
G37*
G36*
X538063Y484346D02*
X536357D01*
X534782Y483694D01*
X533577Y482488D01*
X532924Y480913D01*
Y479207D01*
X533577Y477632D01*
X534782Y476427D01*
X536357Y475774D01*
X538063D01*
X539638Y476427D01*
X540844Y477632D01*
X541496Y479207D01*
Y480913D01*
X540844Y482488D01*
X539638Y483694D01*
X538063Y484346D01*
D02*
G37*
G36*
X507583D02*
X505877D01*
X504302Y483694D01*
X503097Y482488D01*
X502444Y480913D01*
Y479207D01*
X503097Y477632D01*
X504302Y476427D01*
X505877Y475774D01*
X507583D01*
X509158Y476427D01*
X510364Y477632D01*
X511016Y479207D01*
Y480913D01*
X510364Y482488D01*
X509158Y483694D01*
X507583Y484346D01*
D02*
G37*
G36*
X441948Y483076D02*
X440243D01*
X438668Y482424D01*
X437462Y481218D01*
X436810Y479643D01*
Y477937D01*
X437462Y476362D01*
X438668Y475157D01*
X440243Y474504D01*
X441948D01*
X443523Y475157D01*
X444729Y476362D01*
X445382Y477937D01*
Y479643D01*
X444729Y481218D01*
X443523Y482424D01*
X441948Y483076D01*
D02*
G37*
G36*
X313173Y493336D02*
X311468D01*
X309893Y492683D01*
X308687Y491477D01*
X308034Y489902D01*
Y488197D01*
X308687Y486622D01*
X309893Y485416D01*
X311468Y484764D01*
X313173D01*
X313787Y485018D01*
X314759Y484046D01*
X314534Y483503D01*
Y481798D01*
X315187Y480223D01*
X315238Y480172D01*
X315002Y479527D01*
X314615Y478999D01*
X313105D01*
X311530Y478346D01*
X310324Y477141D01*
X309671Y475565D01*
Y473860D01*
X310324Y472285D01*
X311530Y471079D01*
X313105Y470427D01*
X314810D01*
X316385Y471079D01*
X317591Y472285D01*
X318243Y473860D01*
Y475565D01*
X317591Y477141D01*
X317540Y477191D01*
X317775Y477836D01*
X318163Y478364D01*
X319673D01*
X321248Y479017D01*
X322454Y480223D01*
X323106Y481798D01*
Y483503D01*
X322454Y485078D01*
X321248Y486284D01*
X319673Y486936D01*
X317968D01*
X317353Y486682D01*
X316381Y487654D01*
X316606Y488197D01*
Y489902D01*
X315954Y491477D01*
X314748Y492683D01*
X313173Y493336D01*
D02*
G37*
G36*
X304383Y473551D02*
X302677D01*
X301102Y472898D01*
X299897Y471693D01*
X299244Y470118D01*
Y468412D01*
X299897Y466837D01*
X301102Y465631D01*
X302677Y464979D01*
X304383D01*
X305958Y465631D01*
X307164Y466837D01*
X307816Y468412D01*
Y470118D01*
X307164Y471693D01*
X305958Y472898D01*
X304383Y473551D01*
D02*
G37*
G36*
X292953Y469106D02*
X291247D01*
X289672Y468453D01*
X288466Y467248D01*
X287814Y465673D01*
Y463967D01*
X288466Y462392D01*
X289672Y461186D01*
X291247Y460534D01*
X292953D01*
X294528Y461186D01*
X295734Y462392D01*
X296386Y463967D01*
Y465673D01*
X295734Y467248D01*
X294528Y468453D01*
X292953Y469106D01*
D02*
G37*
G36*
X407253Y461486D02*
X405547D01*
X403972Y460834D01*
X402766Y459628D01*
X402114Y458053D01*
Y456347D01*
X402766Y454772D01*
X403972Y453567D01*
X405547Y452914D01*
X407253D01*
X408828Y453567D01*
X410033Y454772D01*
X410686Y456347D01*
Y458053D01*
X410033Y459628D01*
X408828Y460834D01*
X407253Y461486D01*
D02*
G37*
G36*
X454719Y460633D02*
X453013D01*
X451438Y459981D01*
X450233Y458775D01*
X449580Y457200D01*
Y455495D01*
X450233Y453920D01*
X451438Y452714D01*
X453013Y452062D01*
X454719D01*
X456294Y452714D01*
X457500Y453920D01*
X458152Y455495D01*
Y457200D01*
X457500Y458775D01*
X456294Y459981D01*
X454719Y460633D01*
D02*
G37*
G36*
X427097D02*
X425392D01*
X423816Y459981D01*
X422611Y458775D01*
X421958Y457200D01*
Y455495D01*
X422611Y453920D01*
X423816Y452714D01*
X425392Y452062D01*
X427097D01*
X428672Y452714D01*
X429878Y453920D01*
X430530Y455495D01*
Y457200D01*
X429878Y458775D01*
X428672Y459981D01*
X427097Y460633D01*
D02*
G37*
G36*
X290381Y442586D02*
X288675D01*
X287100Y441934D01*
X285895Y440728D01*
X285242Y439153D01*
Y438956D01*
X283972Y438488D01*
X283098Y439362D01*
X281523Y440014D01*
X279817D01*
X278242Y439362D01*
X277036Y438156D01*
X276384Y436581D01*
Y434876D01*
X277036Y433301D01*
X278242Y432095D01*
X279817Y431442D01*
X281523D01*
X283098Y432095D01*
X284303Y433301D01*
X284956Y434876D01*
Y435072D01*
X286226Y435541D01*
X287100Y434667D01*
X288675Y434014D01*
X290381D01*
X291956Y434667D01*
X293162Y435872D01*
X293814Y437448D01*
Y439153D01*
X293162Y440728D01*
X291956Y441934D01*
X290381Y442586D01*
D02*
G37*
G36*
X324450Y444724D02*
X322745D01*
X321170Y444071D01*
X319964Y442866D01*
X319312Y441291D01*
Y439585D01*
X319964Y438010D01*
X321170Y436804D01*
X322745Y436152D01*
X324450D01*
X326026Y436804D01*
X327231Y438010D01*
X327884Y439585D01*
Y441291D01*
X327231Y442866D01*
X326026Y444071D01*
X324450Y444724D01*
D02*
G37*
G36*
X477360Y447149D02*
X457360D01*
X456580Y446994D01*
X455918Y446552D01*
X455476Y445890D01*
X455321Y445110D01*
Y426110D01*
X455476Y425330D01*
X455918Y424668D01*
X456580Y424226D01*
X457360Y424071D01*
X477360D01*
X478140Y424226D01*
X478802Y424668D01*
X479244Y425330D01*
X479399Y426110D01*
Y445110D01*
X479244Y445890D01*
X478802Y446552D01*
X478140Y446994D01*
X477360Y447149D01*
D02*
G37*
G36*
X271481Y412074D02*
X269776D01*
X268200Y411422D01*
X266995Y410216D01*
X266342Y408641D01*
Y406936D01*
X266995Y405360D01*
X268200Y404155D01*
X269776Y403502D01*
X271481D01*
X273056Y404155D01*
X274262Y405360D01*
X274914Y406936D01*
Y408641D01*
X274262Y410216D01*
X273056Y411422D01*
X271481Y412074D01*
D02*
G37*
G36*
X507583Y401796D02*
X505877D01*
X504302Y401143D01*
X503097Y399938D01*
X502444Y398363D01*
Y396657D01*
X503097Y395082D01*
X504302Y393876D01*
X505877Y393224D01*
X507583D01*
X509158Y393876D01*
X510364Y395082D01*
X511016Y396657D01*
Y398363D01*
X510364Y399938D01*
X509158Y401143D01*
X507583Y401796D01*
D02*
G37*
G36*
X376691Y399174D02*
X374986D01*
X373410Y398522D01*
X372205Y397316D01*
X371552Y395741D01*
Y394036D01*
X372205Y392461D01*
X373410Y391255D01*
X374986Y390602D01*
X376691D01*
X378266Y391255D01*
X379472Y392461D01*
X380124Y394036D01*
Y395741D01*
X379472Y397316D01*
X378266Y398522D01*
X376691Y399174D01*
D02*
G37*
G36*
X420970Y396834D02*
X419265D01*
X417690Y396182D01*
X416484Y394976D01*
X415832Y393401D01*
Y391696D01*
X416484Y390121D01*
X417690Y388915D01*
X419265Y388262D01*
X420970D01*
X422546Y388915D01*
X423751Y390121D01*
X424404Y391696D01*
Y393401D01*
X423751Y394976D01*
X422546Y396182D01*
X420970Y396834D01*
D02*
G37*
G36*
X468213Y391636D02*
X466507D01*
X464932Y390984D01*
X463727Y389778D01*
X463074Y388203D01*
Y386497D01*
X463727Y384922D01*
X464932Y383717D01*
X466507Y383064D01*
X468213D01*
X469788Y383717D01*
X470993Y384922D01*
X471646Y386497D01*
Y388203D01*
X470993Y389778D01*
X469788Y390984D01*
X468213Y391636D01*
D02*
G37*
G36*
X92293Y385676D02*
X90587D01*
X89012Y385024D01*
X87807Y383818D01*
X87154Y382243D01*
Y380538D01*
X87807Y378963D01*
X89012Y377757D01*
X90587Y377105D01*
X92293D01*
X93868Y377757D01*
X95073Y378963D01*
X95726Y380538D01*
Y382243D01*
X95073Y383818D01*
X93868Y385024D01*
X92293Y385676D01*
D02*
G37*
G36*
X243171Y384134D02*
X241465D01*
X239890Y383482D01*
X238684Y382276D01*
X238032Y380701D01*
Y378996D01*
X238684Y377421D01*
X239890Y376215D01*
X241465Y375562D01*
X243171D01*
X244746Y376215D01*
X245951Y377421D01*
X246604Y378996D01*
Y380701D01*
X245951Y382276D01*
X244746Y383482D01*
X243171Y384134D01*
D02*
G37*
G36*
X395200Y376514D02*
X393495D01*
X391920Y375862D01*
X390714Y374656D01*
X390062Y373081D01*
Y371376D01*
X390714Y369800D01*
X391920Y368595D01*
X393495Y367942D01*
X395200D01*
X396775Y368595D01*
X397981Y369800D01*
X398633Y371376D01*
Y373081D01*
X397981Y374656D01*
X396775Y375862D01*
X395200Y376514D01*
D02*
G37*
G36*
Y363814D02*
X393495D01*
X391920Y363162D01*
X390714Y361956D01*
X390062Y360381D01*
Y358676D01*
X390714Y357100D01*
X391920Y355895D01*
X393495Y355242D01*
X395200D01*
X396775Y355895D01*
X397981Y357100D01*
X398633Y358676D01*
Y360381D01*
X397981Y361956D01*
X396775Y363162D01*
X395200Y363814D01*
D02*
G37*
G36*
X526633Y363696D02*
X524927D01*
X523352Y363044D01*
X522146Y361838D01*
X521494Y360263D01*
Y358557D01*
X522146Y356982D01*
X523352Y355776D01*
X524927Y355124D01*
X526633D01*
X528208Y355776D01*
X529413Y356982D01*
X530066Y358557D01*
Y360263D01*
X529413Y361838D01*
X528208Y363044D01*
X526633Y363696D01*
D02*
G37*
G36*
X477360Y364599D02*
X457360D01*
X456580Y364444D01*
X455918Y364002D01*
X455476Y363340D01*
X455321Y362560D01*
Y343560D01*
X455476Y342780D01*
X455918Y342118D01*
X456580Y341676D01*
X457360Y341521D01*
X477360D01*
X478140Y341676D01*
X478802Y342118D01*
X479244Y342780D01*
X479399Y343560D01*
Y362560D01*
X479244Y363340D01*
X478802Y364002D01*
X478140Y364444D01*
X477360Y364599D01*
D02*
G37*
G36*
X375251Y341325D02*
X373545D01*
X371970Y340672D01*
X370764Y339467D01*
X370112Y337891D01*
Y336186D01*
X370764Y334611D01*
X371970Y333405D01*
X373545Y332753D01*
X375251D01*
X376826Y333405D01*
X378031Y334611D01*
X378684Y336186D01*
Y337891D01*
X378031Y339467D01*
X376826Y340672D01*
X375251Y341325D01*
D02*
G37*
G36*
X288890D02*
X287185D01*
X285610Y340672D01*
X284404Y339467D01*
X283752Y337891D01*
Y336186D01*
X284404Y334611D01*
X285610Y333405D01*
X287185Y332753D01*
X288890D01*
X290466Y333405D01*
X291671Y334611D01*
X292324Y336186D01*
Y337891D01*
X291671Y339467D01*
X290466Y340672D01*
X288890Y341325D01*
D02*
G37*
G36*
X430033Y330436D02*
X428327D01*
X426752Y329784D01*
X425546Y328578D01*
X424894Y327002D01*
Y326463D01*
X424180Y326051D01*
X423466Y326463D01*
Y327002D01*
X422813Y328578D01*
X421608Y329784D01*
X420033Y330436D01*
X418327D01*
X416752Y329784D01*
X415546Y328578D01*
X414894Y327002D01*
Y326463D01*
X414180Y326051D01*
X413466Y326463D01*
Y327002D01*
X412813Y328578D01*
X411608Y329784D01*
X410033Y330436D01*
X408327D01*
X406752Y329784D01*
X405546Y328578D01*
X404894Y327002D01*
Y325297D01*
X405546Y323722D01*
X406752Y322517D01*
X408327Y321864D01*
X408789D01*
X409894Y321213D01*
Y319508D01*
X410546Y317932D01*
X411752Y316726D01*
X413327Y316074D01*
X415033D01*
X416608Y316726D01*
X417813Y317932D01*
X418466Y319508D01*
Y320047D01*
X419180Y320459D01*
X419894Y320047D01*
Y319508D01*
X420546Y317932D01*
X421752Y316726D01*
X423327Y316074D01*
X425033D01*
X426608Y316726D01*
X427813Y317932D01*
X428466Y319508D01*
Y320047D01*
X429180Y320459D01*
X429894Y320047D01*
Y319508D01*
X430546Y317932D01*
X431752Y316726D01*
X433327Y316074D01*
X435033D01*
X436608Y316726D01*
X437813Y317932D01*
X438466Y319508D01*
Y321213D01*
X437813Y322788D01*
X436608Y323993D01*
X435033Y324646D01*
X434571D01*
X433466Y325298D01*
Y327002D01*
X432813Y328578D01*
X431608Y329784D01*
X430033Y330436D01*
D02*
G37*
G36*
X305653Y331946D02*
X303947D01*
X302372Y331293D01*
X301166Y330088D01*
X300514Y328513D01*
Y326807D01*
X301166Y325232D01*
X302372Y324026D01*
X303947Y323374D01*
X305653D01*
X307228Y324026D01*
X308433Y325232D01*
X309086Y326807D01*
Y328513D01*
X308433Y330088D01*
X307228Y331293D01*
X305653Y331946D01*
D02*
G37*
G36*
X266031Y333334D02*
X264325D01*
X262750Y332682D01*
X261544Y331476D01*
X260892Y329901D01*
Y328196D01*
X261544Y326620D01*
X262750Y325415D01*
X264325Y324762D01*
X266031D01*
X266950Y325143D01*
X267766Y325249D01*
X268484Y324508D01*
X268808Y323724D01*
X270014Y322519D01*
X271589Y321866D01*
X273294D01*
X274870Y322519D01*
X276075Y323724D01*
X276728Y325300D01*
Y327005D01*
X276075Y328580D01*
X274870Y329786D01*
X273294Y330438D01*
X271589D01*
X270669Y330057D01*
X269853Y329951D01*
X269136Y330692D01*
X268811Y331476D01*
X267606Y332682D01*
X266031Y333334D01*
D02*
G37*
G36*
X360010Y326085D02*
X358305D01*
X356730Y325432D01*
X355524Y324226D01*
X354872Y322651D01*
Y320946D01*
X355524Y319371D01*
X356730Y318165D01*
X358305Y317513D01*
X360010D01*
X361586Y318165D01*
X362791Y319371D01*
X363444Y320946D01*
Y322651D01*
X362791Y324226D01*
X361586Y325432D01*
X360010Y326085D01*
D02*
G37*
G36*
X233699Y326020D02*
X233680D01*
Y317500D01*
X242200D01*
Y317519D01*
X241533Y320009D01*
X240244Y322241D01*
X238421Y324064D01*
X236189Y325353D01*
X233699Y326020D01*
D02*
G37*
G36*
X231140D02*
X231121D01*
X228631Y325353D01*
X226399Y324064D01*
X224576Y322241D01*
X223287Y320009D01*
X222620Y317519D01*
Y317500D01*
X231140D01*
Y326020D01*
D02*
G37*
G36*
X334863Y324696D02*
X333157D01*
X331582Y324044D01*
X330377Y322838D01*
X329724Y321263D01*
Y319558D01*
X330377Y317983D01*
X331582Y316777D01*
X333157Y316124D01*
X334863D01*
X336438Y316777D01*
X337644Y317983D01*
X338296Y319558D01*
Y321263D01*
X337644Y322838D01*
X336438Y324044D01*
X334863Y324696D01*
D02*
G37*
G36*
X112613Y317214D02*
X110907D01*
X109332Y316562D01*
X108126Y315356D01*
X107875Y314749D01*
X106501D01*
X106250Y315356D01*
X105044Y316562D01*
X103469Y317214D01*
X101763D01*
X100188Y316562D01*
X98982Y315356D01*
X98731Y314749D01*
X97357D01*
X97106Y315356D01*
X95900Y316562D01*
X94325Y317214D01*
X92619D01*
X91044Y316562D01*
X89838Y315356D01*
X89186Y313781D01*
Y312075D01*
X89838Y310500D01*
X91044Y309294D01*
X91651Y309043D01*
Y307669D01*
X91044Y307418D01*
X89838Y306212D01*
X89587Y305605D01*
X88213D01*
X87962Y306212D01*
X86756Y307418D01*
X85181Y308070D01*
X83475D01*
X81900Y307418D01*
X80695Y306212D01*
X80042Y304637D01*
Y302931D01*
X80695Y301356D01*
X81900Y300151D01*
X82507Y299899D01*
Y298525D01*
X81900Y298274D01*
X80695Y297068D01*
X80042Y295493D01*
Y293787D01*
X80695Y292212D01*
X81900Y291007D01*
X82507Y290755D01*
Y289381D01*
X81900Y289130D01*
X80695Y287924D01*
X80042Y286349D01*
Y284643D01*
X80695Y283068D01*
X81900Y281863D01*
X83475Y281210D01*
X85181D01*
X86756Y281863D01*
X87962Y283068D01*
X88213Y283675D01*
X89587D01*
X89838Y283068D01*
X91044Y281863D01*
X92619Y281210D01*
X94325D01*
X95900Y281863D01*
X97106Y283068D01*
X97357Y283675D01*
X98731D01*
X98982Y283068D01*
X100188Y281863D01*
X101763Y281210D01*
X103469D01*
X105044Y281863D01*
X106250Y283068D01*
X106501Y283675D01*
X107875D01*
X108126Y283068D01*
X109332Y281863D01*
X110907Y281210D01*
X112613D01*
X114188Y281863D01*
X115393Y283068D01*
X116046Y284643D01*
Y286349D01*
X115393Y287924D01*
X114188Y289130D01*
X113581Y289381D01*
Y290755D01*
X114188Y291007D01*
X115393Y292212D01*
X116046Y293787D01*
Y295493D01*
X115393Y297068D01*
X114188Y298274D01*
X113581Y298525D01*
Y299899D01*
X114188Y300151D01*
X115393Y301356D01*
X116046Y302931D01*
Y304637D01*
X115393Y306212D01*
X114188Y307418D01*
X113581Y307669D01*
Y309043D01*
X114188Y309294D01*
X115393Y310500D01*
X116046Y312075D01*
Y313781D01*
X115393Y315356D01*
X114188Y316562D01*
X112613Y317214D01*
D02*
G37*
G36*
X544413Y320516D02*
X542707D01*
X541132Y319863D01*
X539926Y318658D01*
X539274Y317083D01*
Y315377D01*
X539926Y313802D01*
X541132Y312596D01*
X542707Y311944D01*
X544413D01*
X545988Y312596D01*
X547193Y313802D01*
X547846Y315377D01*
Y317083D01*
X547193Y318658D01*
X545988Y319863D01*
X544413Y320516D01*
D02*
G37*
G36*
X208228Y325480D02*
X205792D01*
X203440Y324850D01*
X201330Y323632D01*
X199608Y321910D01*
X198390Y319800D01*
X197760Y317448D01*
Y315012D01*
X198390Y312660D01*
X199608Y310550D01*
X201330Y308828D01*
X203440Y307610D01*
X205792Y306980D01*
X208228D01*
X210580Y307610D01*
X212690Y308828D01*
X214412Y310550D01*
X215630Y312660D01*
X216260Y315012D01*
Y317448D01*
X215630Y319800D01*
X214412Y321910D01*
X212690Y323632D01*
X210580Y324850D01*
X208228Y325480D01*
D02*
G37*
G36*
X182828D02*
X180392D01*
X178040Y324850D01*
X175930Y323632D01*
X174208Y321910D01*
X172990Y319800D01*
X172360Y317448D01*
Y315012D01*
X172990Y312660D01*
X174208Y310550D01*
X175930Y308828D01*
X178040Y307610D01*
X180392Y306980D01*
X182828D01*
X185180Y307610D01*
X187290Y308828D01*
X189012Y310550D01*
X190230Y312660D01*
X190860Y315012D01*
Y317448D01*
X190230Y319800D01*
X189012Y321910D01*
X187290Y323632D01*
X185180Y324850D01*
X182828Y325480D01*
D02*
G37*
G36*
X157428D02*
X154992D01*
X152640Y324850D01*
X150530Y323632D01*
X148808Y321910D01*
X147590Y319800D01*
X146960Y317448D01*
Y315012D01*
X147590Y312660D01*
X148808Y310550D01*
X150530Y308828D01*
X152640Y307610D01*
X154992Y306980D01*
X157428D01*
X159780Y307610D01*
X161890Y308828D01*
X163612Y310550D01*
X164830Y312660D01*
X165460Y315012D01*
Y317448D01*
X164830Y319800D01*
X163612Y321910D01*
X161890Y323632D01*
X159780Y324850D01*
X157428Y325480D01*
D02*
G37*
G36*
X242200Y314960D02*
X233680D01*
Y306440D01*
X233699D01*
X236189Y307107D01*
X238421Y308396D01*
X240244Y310219D01*
X241533Y312451D01*
X242200Y314941D01*
Y314960D01*
D02*
G37*
G36*
X231140D02*
X222620D01*
Y314941D01*
X223287Y312451D01*
X224576Y310219D01*
X226399Y308396D01*
X228631Y307107D01*
X231121Y306440D01*
X231140D01*
Y314960D01*
D02*
G37*
G36*
X269646Y310800D02*
X267564D01*
X265554Y310261D01*
X263751Y309221D01*
X262279Y307749D01*
X261239Y305946D01*
X260700Y303936D01*
Y301854D01*
X261239Y299844D01*
X262279Y298041D01*
X263751Y296569D01*
X265554Y295529D01*
X267564Y294990D01*
X269646D01*
X271656Y295529D01*
X273459Y296569D01*
X274931Y298041D01*
X275971Y299844D01*
X276510Y301854D01*
Y303936D01*
X275971Y305946D01*
X274931Y307749D01*
X273459Y309221D01*
X271656Y310261D01*
X269646Y310800D01*
D02*
G37*
G36*
X327030Y295905D02*
X325325D01*
X323750Y295253D01*
X322544Y294047D01*
X321892Y292472D01*
Y290767D01*
X322544Y289191D01*
X323396Y288340D01*
X322739Y287201D01*
X322351Y287305D01*
X320269D01*
X318259Y286766D01*
X316456Y285726D01*
X314984Y284254D01*
X313944Y282451D01*
X313405Y280441D01*
Y278359D01*
X313944Y276349D01*
X314984Y274546D01*
X316456Y273074D01*
X318259Y272034D01*
X320269Y271495D01*
X322351D01*
X324361Y272034D01*
X326164Y273074D01*
X327636Y274546D01*
X328676Y276349D01*
X329215Y278359D01*
Y280441D01*
X328676Y282451D01*
X327636Y284254D01*
X326164Y285726D01*
X325579Y286063D01*
X325919Y287333D01*
X327030D01*
X328606Y287986D01*
X329811Y289191D01*
X330464Y290767D01*
Y292472D01*
X329811Y294047D01*
X328606Y295253D01*
X327030Y295905D01*
D02*
G37*
G36*
X289331Y298735D02*
X287249D01*
X285239Y298196D01*
X283436Y297156D01*
X281964Y295684D01*
X280924Y293881D01*
X280385Y291871D01*
Y289789D01*
X280924Y287779D01*
X281964Y285976D01*
X283436Y284504D01*
X285239Y283464D01*
X287249Y282925D01*
X289331D01*
X291341Y283464D01*
X293144Y284504D01*
X294616Y285976D01*
X295656Y287779D01*
X296195Y289789D01*
Y291871D01*
X295656Y293881D01*
X294616Y295684D01*
X293144Y297156D01*
X291341Y298196D01*
X289331Y298735D01*
D02*
G37*
G36*
X424953Y284260D02*
X423247D01*
X421672Y283608D01*
X420466Y282402D01*
X419814Y280827D01*
Y279121D01*
X420466Y277546D01*
X421672Y276341D01*
X423247Y275688D01*
X424953D01*
X426528Y276341D01*
X427733Y277546D01*
X428386Y279121D01*
Y280827D01*
X427733Y282402D01*
X426528Y283608D01*
X424953Y284260D01*
D02*
G37*
G36*
X414953D02*
X413247D01*
X411672Y283608D01*
X410466Y282402D01*
X409814Y280827D01*
Y279121D01*
X410466Y277546D01*
X411672Y276341D01*
X413247Y275688D01*
X414953D01*
X416528Y276341D01*
X417733Y277546D01*
X418386Y279121D01*
Y280827D01*
X417733Y282402D01*
X416528Y283608D01*
X414953Y284260D01*
D02*
G37*
G36*
X399953D02*
X398247D01*
X396672Y283608D01*
X395466Y282402D01*
X394814Y280827D01*
Y279121D01*
X395466Y277546D01*
X396672Y276341D01*
X398247Y275688D01*
X399953D01*
X401528Y276341D01*
X402733Y277546D01*
X403386Y279121D01*
Y280827D01*
X402733Y282402D01*
X401528Y283608D01*
X399953Y284260D01*
D02*
G37*
G36*
X295982Y271745D02*
X295910D01*
Y262825D01*
X304830D01*
Y262897D01*
X304136Y265488D01*
X302794Y267812D01*
X300897Y269709D01*
X298573Y271051D01*
X295982Y271745D01*
D02*
G37*
G36*
X143582D02*
X143510D01*
Y262825D01*
X152430D01*
Y262897D01*
X151736Y265488D01*
X150394Y267812D01*
X148497Y269709D01*
X146173Y271051D01*
X143582Y271745D01*
D02*
G37*
G36*
X293370D02*
X293298D01*
X290707Y271051D01*
X288383Y269709D01*
X286486Y267812D01*
X285144Y265488D01*
X284450Y262897D01*
Y262825D01*
X293370D01*
Y271745D01*
D02*
G37*
G36*
X140970D02*
X140898D01*
X138307Y271051D01*
X135983Y269709D01*
X134086Y267812D01*
X132744Y265488D01*
X132050Y262897D01*
Y262825D01*
X140970D01*
Y271745D01*
D02*
G37*
G36*
X419953Y270571D02*
X418247D01*
X416672Y269918D01*
X415466Y268713D01*
X414814Y267138D01*
Y265432D01*
X415466Y263857D01*
X416672Y262652D01*
X418247Y261999D01*
X419953D01*
X421528Y262652D01*
X422733Y263857D01*
X423386Y265432D01*
Y267138D01*
X422733Y268713D01*
X421528Y269918D01*
X419953Y270571D01*
D02*
G37*
G36*
X434953Y270412D02*
X433247D01*
X431672Y269760D01*
X430466Y268554D01*
X429814Y266978D01*
Y265273D01*
X430466Y263698D01*
X431672Y262493D01*
X433247Y261840D01*
X434953D01*
X436528Y262493D01*
X437733Y263698D01*
X438386Y265273D01*
Y266978D01*
X437733Y268554D01*
X436528Y269760D01*
X434953Y270412D01*
D02*
G37*
G36*
X404953D02*
X403247D01*
X401672Y269760D01*
X400466Y268554D01*
X399814Y266978D01*
Y265273D01*
X400466Y263698D01*
X401672Y262493D01*
X403247Y261840D01*
X404953D01*
X406528Y262493D01*
X407733Y263698D01*
X408386Y265273D01*
Y266978D01*
X407733Y268554D01*
X406528Y269760D01*
X404953Y270412D01*
D02*
G37*
G36*
X343941Y274605D02*
X341859D01*
X339849Y274066D01*
X338046Y273026D01*
X336574Y271554D01*
X335534Y269751D01*
X334995Y267741D01*
Y265659D01*
X335534Y263649D01*
X336574Y261846D01*
X338046Y260374D01*
X339849Y259334D01*
X341859Y258795D01*
X343941D01*
X345951Y259334D01*
X347754Y260374D01*
X349226Y261846D01*
X350266Y263649D01*
X350805Y265659D01*
Y267741D01*
X350266Y269751D01*
X349226Y271554D01*
X347754Y273026D01*
X345951Y274066D01*
X343941Y274605D01*
D02*
G37*
G36*
X270511Y271205D02*
X267969D01*
X265515Y270547D01*
X263315Y269277D01*
X261518Y267480D01*
X260248Y265280D01*
X259590Y262826D01*
Y260285D01*
X260248Y257830D01*
X261518Y255630D01*
X263315Y253833D01*
X265515Y252563D01*
X267969Y251905D01*
X270511D01*
X272965Y252563D01*
X275165Y253833D01*
X276962Y255630D01*
X278232Y257830D01*
X278890Y260285D01*
Y262826D01*
X278232Y265280D01*
X276962Y267480D01*
X275165Y269277D01*
X272965Y270547D01*
X270511Y271205D01*
D02*
G37*
G36*
X245110D02*
X242570D01*
X240115Y270547D01*
X237915Y269277D01*
X236118Y267480D01*
X234848Y265280D01*
X234190Y262826D01*
Y260285D01*
X234848Y257830D01*
X236118Y255630D01*
X237915Y253833D01*
X240115Y252563D01*
X242570Y251905D01*
X245110D01*
X247565Y252563D01*
X249765Y253833D01*
X251562Y255630D01*
X252832Y257830D01*
X253490Y260285D01*
Y262826D01*
X252832Y265280D01*
X251562Y267480D01*
X249765Y269277D01*
X247565Y270547D01*
X245110Y271205D01*
D02*
G37*
G36*
X219711D02*
X217169D01*
X214715Y270547D01*
X212515Y269277D01*
X210718Y267480D01*
X209448Y265280D01*
X208790Y262826D01*
Y260285D01*
X209448Y257830D01*
X210718Y255630D01*
X212515Y253833D01*
X214715Y252563D01*
X217169Y251905D01*
X219711D01*
X222165Y252563D01*
X224365Y253833D01*
X226162Y255630D01*
X227432Y257830D01*
X228090Y260285D01*
Y262826D01*
X227432Y265280D01*
X226162Y267480D01*
X224365Y269277D01*
X222165Y270547D01*
X219711Y271205D01*
D02*
G37*
G36*
X194310D02*
X191770D01*
X189315Y270547D01*
X187115Y269277D01*
X185318Y267480D01*
X184048Y265280D01*
X183390Y262826D01*
Y260285D01*
X184048Y257830D01*
X185318Y255630D01*
X187115Y253833D01*
X189315Y252563D01*
X191770Y251905D01*
X194310D01*
X196765Y252563D01*
X198965Y253833D01*
X200762Y255630D01*
X202032Y257830D01*
X202690Y260285D01*
Y262826D01*
X202032Y265280D01*
X200762Y267480D01*
X198965Y269277D01*
X196765Y270547D01*
X194310Y271205D01*
D02*
G37*
G36*
X168911D02*
X166369D01*
X163915Y270547D01*
X161715Y269277D01*
X159918Y267480D01*
X158648Y265280D01*
X157990Y262826D01*
Y260285D01*
X158648Y257830D01*
X159918Y255630D01*
X161715Y253833D01*
X163915Y252563D01*
X166369Y251905D01*
X168911D01*
X171365Y252563D01*
X173565Y253833D01*
X175362Y255630D01*
X176632Y257830D01*
X177290Y260285D01*
Y262826D01*
X176632Y265280D01*
X175362Y267480D01*
X173565Y269277D01*
X171365Y270547D01*
X168911Y271205D01*
D02*
G37*
G36*
X118111D02*
X115569D01*
X113115Y270547D01*
X110915Y269277D01*
X109118Y267480D01*
X107848Y265280D01*
X107190Y262826D01*
Y260285D01*
X107848Y257830D01*
X109118Y255630D01*
X110915Y253833D01*
X113115Y252563D01*
X115569Y251905D01*
X118111D01*
X120565Y252563D01*
X122765Y253833D01*
X124562Y255630D01*
X125832Y257830D01*
X126490Y260285D01*
Y262826D01*
X125832Y265280D01*
X124562Y267480D01*
X122765Y269277D01*
X120565Y270547D01*
X118111Y271205D01*
D02*
G37*
G36*
X304830Y260285D02*
X295910D01*
Y251365D01*
X295982D01*
X298573Y252059D01*
X300897Y253401D01*
X302794Y255298D01*
X304136Y257622D01*
X304830Y260214D01*
Y260285D01*
D02*
G37*
G36*
X293370D02*
X284450D01*
Y260214D01*
X285144Y257622D01*
X286486Y255298D01*
X288383Y253401D01*
X290707Y252059D01*
X293298Y251365D01*
X293370D01*
Y260285D01*
D02*
G37*
G36*
X152430D02*
X143510D01*
Y251365D01*
X143582D01*
X146173Y252059D01*
X148497Y253401D01*
X150394Y255298D01*
X151736Y257622D01*
X152430Y260214D01*
Y260285D01*
D02*
G37*
G36*
X140970D02*
X132050D01*
Y260214D01*
X132744Y257622D01*
X134086Y255298D01*
X135983Y253401D01*
X138307Y252059D01*
X140898Y251365D01*
X140970D01*
Y260285D01*
D02*
G37*
G36*
X409953Y250346D02*
X408247D01*
X406672Y249694D01*
X405466Y248488D01*
X404814Y246912D01*
Y246373D01*
X404100Y245961D01*
X403386Y246373D01*
Y246912D01*
X402733Y248488D01*
X401528Y249694D01*
X399953Y250346D01*
X398247D01*
X396672Y249694D01*
X395466Y248488D01*
X394814Y246912D01*
Y245207D01*
X395466Y243632D01*
X396672Y242426D01*
X398247Y241774D01*
X398709D01*
X399814Y241122D01*
Y239417D01*
X400466Y237842D01*
X401672Y236637D01*
X403247Y235984D01*
X404953D01*
X406528Y236637D01*
X407733Y237842D01*
X408386Y239417D01*
Y241122D01*
X409491Y241774D01*
X409953D01*
X411528Y242426D01*
X412733Y243632D01*
X413386Y245207D01*
Y246912D01*
X412733Y248488D01*
X411528Y249694D01*
X409953Y250346D01*
D02*
G37*
G36*
X429953D02*
X428247D01*
X426672Y249694D01*
X425466Y248488D01*
X424814Y246912D01*
Y246373D01*
X424100Y245961D01*
X423386Y246373D01*
Y246912D01*
X422733Y248488D01*
X421528Y249694D01*
X419953Y250346D01*
X418247D01*
X416672Y249694D01*
X415466Y248488D01*
X414814Y246912D01*
Y245207D01*
X415466Y243632D01*
X416672Y242426D01*
X418247Y241774D01*
X418709D01*
X419814Y241122D01*
Y239417D01*
X420466Y237842D01*
X421672Y236637D01*
X423247Y235984D01*
X424953D01*
X426528Y236637D01*
X427733Y237842D01*
X428386Y239417D01*
Y241122D01*
X429491Y241774D01*
X429953D01*
X431528Y242426D01*
X432733Y243632D01*
X433386Y245207D01*
Y246912D01*
X432733Y248488D01*
X431528Y249694D01*
X429953Y250346D01*
D02*
G37*
G36*
X113375Y246348D02*
X111669D01*
X110094Y245695D01*
X108889Y244490D01*
X108236Y242915D01*
Y241209D01*
X108889Y239634D01*
X110094Y238428D01*
X111669Y237776D01*
X113375D01*
X114950Y238428D01*
X116156Y239634D01*
X116808Y241209D01*
Y242915D01*
X116156Y244490D01*
X114950Y245695D01*
X113375Y246348D01*
D02*
G37*
G36*
X216753Y220186D02*
X215047D01*
X213472Y219534D01*
X212267Y218328D01*
X211614Y216753D01*
Y215047D01*
X212267Y213472D01*
X213472Y212267D01*
X215047Y211614D01*
X216753D01*
X218328Y212267D01*
X219534Y213472D01*
X220186Y215047D01*
Y216753D01*
X219534Y218328D01*
X218328Y219534D01*
X216753Y220186D01*
D02*
G37*
G36*
X587864Y223095D02*
X585616D01*
X583444Y222513D01*
X581496Y221389D01*
X579906Y219799D01*
X578782Y217851D01*
X578200Y215679D01*
Y213431D01*
X578782Y211259D01*
X579906Y209311D01*
X581496Y207721D01*
X583444Y206597D01*
X585616Y206015D01*
X587864D01*
X590036Y206597D01*
X591984Y207721D01*
X593574Y209311D01*
X594698Y211259D01*
X595280Y213431D01*
Y215679D01*
X594698Y217851D01*
X593574Y219799D01*
X591984Y221389D01*
X590036Y222513D01*
X587864Y223095D01*
D02*
G37*
G36*
X64624D02*
X62376D01*
X60204Y222513D01*
X58256Y221389D01*
X56666Y219799D01*
X55542Y217851D01*
X54960Y215679D01*
Y213431D01*
X55542Y211259D01*
X56666Y209311D01*
X58256Y207721D01*
X60204Y206597D01*
X62376Y206015D01*
X64624D01*
X66796Y206597D01*
X68744Y207721D01*
X70334Y209311D01*
X71458Y211259D01*
X72040Y213431D01*
Y215679D01*
X71458Y217851D01*
X70334Y219799D01*
X68744Y221389D01*
X66796Y222513D01*
X64624Y223095D01*
D02*
G37*
G36*
X587864Y203095D02*
X585616D01*
X584200Y202715D01*
D01*
X583444Y202513D01*
X583444Y202513D01*
X581496Y201389D01*
X579906Y199799D01*
X578782Y197851D01*
X578200Y195679D01*
Y193431D01*
X578782Y191259D01*
X579906Y189311D01*
X581496Y187721D01*
X583444Y186597D01*
X585616Y186015D01*
X587864D01*
X590036Y186597D01*
X591984Y187721D01*
X593574Y189311D01*
X594698Y191259D01*
X595280Y193431D01*
Y195679D01*
X594698Y197851D01*
X593574Y199799D01*
X591984Y201389D01*
X590036Y202513D01*
X587864Y203095D01*
D02*
G37*
G36*
X64624D02*
X62376D01*
X60204Y202513D01*
X58256Y201389D01*
X56666Y199799D01*
X55542Y197851D01*
X54960Y195679D01*
Y193431D01*
X55542Y191259D01*
X56666Y189311D01*
X58256Y187721D01*
X60204Y186597D01*
X62376Y186015D01*
X64624D01*
X66796Y186597D01*
X68744Y187721D01*
X70334Y189311D01*
X71458Y191259D01*
X72040Y193431D01*
Y195679D01*
X71458Y197851D01*
X70334Y199799D01*
X68744Y201389D01*
X66796Y202513D01*
D01*
X66796Y202513D01*
D01*
X64624Y203095D01*
D02*
G37*
G36*
X472785Y187420D02*
X471079D01*
X469504Y186768D01*
X468952Y186215D01*
X468122Y185676D01*
D01*
D01*
X467292Y186215D01*
X466740Y186768D01*
X465165Y187420D01*
X463459D01*
X461884Y186768D01*
X461332Y186215D01*
X460502Y185676D01*
D01*
D01*
X459672Y186215D01*
X459120Y186768D01*
X457545Y187420D01*
X455839D01*
X454264Y186768D01*
X453059Y185562D01*
X452406Y183987D01*
Y182281D01*
X453059Y180706D01*
X453000Y180643D01*
X451500Y180417D01*
X449925Y181070D01*
X448219D01*
X446644Y180417D01*
X445438Y179212D01*
X444786Y177637D01*
Y175931D01*
X445438Y174356D01*
X446186Y173609D01*
X445438Y172862D01*
X444786Y171287D01*
Y169581D01*
X445438Y168006D01*
X446644Y166800D01*
X448219Y166148D01*
X449925D01*
X451500Y166800D01*
X452052Y167353D01*
D01*
X452882Y167892D01*
X453712Y167353D01*
X454264Y166800D01*
X455839Y166148D01*
X457545D01*
X459120Y166800D01*
X459672Y167353D01*
X460502Y167892D01*
X460765Y167721D01*
X461332Y167353D01*
X461884Y166800D01*
X463459Y166148D01*
X465165D01*
X466740Y166800D01*
X467292Y167353D01*
X468122Y167892D01*
X468952Y167353D01*
X469504Y166800D01*
X471079Y166148D01*
X472785D01*
X474360Y166800D01*
X475565Y168006D01*
X476218Y169581D01*
Y171287D01*
X475565Y172862D01*
X474818Y173609D01*
X475565Y174356D01*
X476218Y175931D01*
Y177637D01*
X475565Y179212D01*
X474818Y179959D01*
X475565Y180706D01*
X476218Y182281D01*
Y183987D01*
X475565Y185562D01*
X474360Y186768D01*
X472785Y187420D01*
D02*
G37*
G36*
X64624Y183095D02*
X62376D01*
X60204Y182513D01*
X58256Y181389D01*
X56666Y179799D01*
X55542Y177851D01*
X54960Y175679D01*
Y173431D01*
X55542Y171259D01*
X56666Y169311D01*
X58256Y167721D01*
X60204Y166597D01*
X62376Y166015D01*
X64624D01*
X66796Y166597D01*
D01*
X66796Y166597D01*
X68744Y167721D01*
X70334Y169311D01*
X71458Y171259D01*
X72040Y173431D01*
Y175679D01*
X71458Y177851D01*
X70334Y179799D01*
X68744Y181389D01*
X66796Y182513D01*
X66796Y182513D01*
D01*
X64624Y183095D01*
D02*
G37*
G36*
X587864Y163095D02*
X585616D01*
X583444Y162513D01*
X583444Y162513D01*
X581496Y161389D01*
X579906Y159799D01*
X578782Y157851D01*
X578200Y155679D01*
Y153431D01*
X578782Y151259D01*
X579906Y149311D01*
X581496Y147721D01*
X583444Y146597D01*
X584200Y146394D01*
D01*
X585616Y146015D01*
X587864D01*
X590036Y146597D01*
X591984Y147721D01*
X593574Y149311D01*
X594698Y151259D01*
X595280Y153431D01*
Y155679D01*
X594698Y157851D01*
X593574Y159799D01*
X591984Y161389D01*
X590036Y162513D01*
X587864Y163095D01*
D02*
G37*
G36*
X64624D02*
X62376D01*
X60204Y162513D01*
X58256Y161389D01*
X56666Y159799D01*
X55542Y157851D01*
X54960Y155679D01*
Y153431D01*
X55542Y151259D01*
X56666Y149311D01*
X58256Y147721D01*
X60204Y146597D01*
X62376Y146015D01*
X64624D01*
X66796Y146597D01*
D01*
X66796Y146597D01*
X68744Y147721D01*
X70334Y149311D01*
X71458Y151259D01*
X72040Y153431D01*
Y155679D01*
X71458Y157851D01*
X70334Y159799D01*
X68744Y161389D01*
X66796Y162513D01*
X66796Y162513D01*
D01*
X64624Y163095D01*
D02*
G37*
G36*
X587864Y143095D02*
X585616D01*
X583444Y142513D01*
X581496Y141389D01*
X579906Y139799D01*
X578782Y137851D01*
X578200Y135679D01*
Y133431D01*
X578782Y131259D01*
X579906Y129311D01*
X581496Y127721D01*
X583444Y126597D01*
X585616Y126015D01*
X587864D01*
X590036Y126597D01*
X591984Y127721D01*
X593574Y129311D01*
X594698Y131259D01*
X595280Y133431D01*
Y135679D01*
X594698Y137851D01*
X593574Y139799D01*
X591984Y141389D01*
X590036Y142513D01*
X587864Y143095D01*
D02*
G37*
G36*
X64624D02*
X62376D01*
X60204Y142513D01*
X58256Y141389D01*
X56666Y139799D01*
X55542Y137851D01*
X54960Y135679D01*
Y133431D01*
X55542Y131259D01*
X56666Y129311D01*
X58256Y127721D01*
X60204Y126597D01*
X62376Y126015D01*
X64624D01*
X66796Y126597D01*
X68744Y127721D01*
X70334Y129311D01*
X71458Y131259D01*
X72040Y133431D01*
Y135679D01*
X71458Y137851D01*
X70334Y139799D01*
X68744Y141389D01*
X66796Y142513D01*
X64624Y143095D01*
D02*
G37*
G36*
X295910Y144205D02*
X293370D01*
X290915Y143547D01*
X288715Y142277D01*
X286918Y140480D01*
X285648Y138280D01*
X284990Y135826D01*
Y133285D01*
X285648Y130830D01*
X286918Y128630D01*
X288715Y126833D01*
X290915Y125563D01*
X293370Y124905D01*
X295910D01*
X298365Y125563D01*
X300565Y126833D01*
X302362Y128630D01*
X303632Y130830D01*
X304290Y133285D01*
Y135826D01*
X303632Y138280D01*
X302362Y140480D01*
X300565Y142277D01*
X298365Y143547D01*
X295910Y144205D01*
D02*
G37*
G36*
X270511D02*
X267969D01*
X265515Y143547D01*
X263315Y142277D01*
X261518Y140480D01*
X260248Y138280D01*
X259590Y135826D01*
Y133285D01*
X260248Y130830D01*
X261518Y128630D01*
X263315Y126833D01*
X265515Y125563D01*
X267969Y124905D01*
X270511D01*
X272965Y125563D01*
X275165Y126833D01*
X276962Y128630D01*
X278232Y130830D01*
X278890Y133285D01*
Y135826D01*
X278232Y138280D01*
X276962Y140480D01*
X275165Y142277D01*
X272965Y143547D01*
X270511Y144205D01*
D02*
G37*
G36*
X245110D02*
X242570D01*
X240115Y143547D01*
X237915Y142277D01*
X236118Y140480D01*
X234848Y138280D01*
X234190Y135826D01*
Y133285D01*
X234848Y130830D01*
X236118Y128630D01*
X237915Y126833D01*
X240115Y125563D01*
X242570Y124905D01*
X245110D01*
X247565Y125563D01*
X249765Y126833D01*
X251562Y128630D01*
X252832Y130830D01*
X253490Y133285D01*
Y135826D01*
X252832Y138280D01*
X251562Y140480D01*
X249765Y142277D01*
X247565Y143547D01*
X245110Y144205D01*
D02*
G37*
G36*
X219711D02*
X217169D01*
X214715Y143547D01*
X212515Y142277D01*
X210718Y140480D01*
X209448Y138280D01*
X208790Y135826D01*
Y133285D01*
X209448Y130830D01*
X210718Y128630D01*
X212515Y126833D01*
X214715Y125563D01*
X217169Y124905D01*
X219711D01*
X222165Y125563D01*
X224365Y126833D01*
X226162Y128630D01*
X227432Y130830D01*
X228090Y133285D01*
Y135826D01*
X227432Y138280D01*
X226162Y140480D01*
X224365Y142277D01*
X222165Y143547D01*
X219711Y144205D01*
D02*
G37*
G36*
X194310D02*
X191770D01*
X189315Y143547D01*
X187115Y142277D01*
X185318Y140480D01*
X184048Y138280D01*
X183390Y135826D01*
Y133285D01*
X184048Y130830D01*
X185318Y128630D01*
X187115Y126833D01*
X189315Y125563D01*
X191770Y124905D01*
X194310D01*
X196765Y125563D01*
X198965Y126833D01*
X200762Y128630D01*
X202032Y130830D01*
X202690Y133285D01*
Y135826D01*
X202032Y138280D01*
X200762Y140480D01*
X198965Y142277D01*
X196765Y143547D01*
X194310Y144205D01*
D02*
G37*
G36*
X168911D02*
X166369D01*
X163915Y143547D01*
X161715Y142277D01*
X159918Y140480D01*
X158648Y138280D01*
X157990Y135826D01*
Y133285D01*
X158648Y130830D01*
X159918Y128630D01*
X161715Y126833D01*
X163915Y125563D01*
X166369Y124905D01*
X168911D01*
X171365Y125563D01*
X173565Y126833D01*
X175362Y128630D01*
X176632Y130830D01*
X177290Y133285D01*
Y135826D01*
X176632Y138280D01*
X175362Y140480D01*
X173565Y142277D01*
X171365Y143547D01*
X168911Y144205D01*
D02*
G37*
G36*
X143511D02*
X140969D01*
X138515Y143547D01*
X136315Y142277D01*
X134518Y140480D01*
X133248Y138280D01*
X132590Y135826D01*
Y133285D01*
X133248Y130830D01*
X134518Y128630D01*
X136315Y126833D01*
X138515Y125563D01*
X140969Y124905D01*
X143511D01*
X145965Y125563D01*
X148165Y126833D01*
X149962Y128630D01*
X151232Y130830D01*
X151890Y133285D01*
Y135826D01*
X151232Y138280D01*
X149962Y140480D01*
X148165Y142277D01*
X145965Y143547D01*
X143511Y144205D01*
D02*
G37*
G36*
X126490D02*
X107190D01*
Y124905D01*
X126490D01*
Y144205D01*
D02*
G37*
G36*
X313570Y89391D02*
Y81280D01*
X321681D01*
X321050Y83634D01*
X319814Y85776D01*
X318066Y87524D01*
X315924Y88760D01*
X313570Y89391D01*
D02*
G37*
G36*
X135770D02*
Y81280D01*
X143881D01*
X143250Y83634D01*
X142014Y85776D01*
X140266Y87524D01*
X138124Y88760D01*
X135770Y89391D01*
D02*
G37*
G36*
X491370D02*
Y81280D01*
X499481D01*
X498850Y83634D01*
X497614Y85776D01*
X495866Y87524D01*
X493724Y88760D01*
X491370Y89391D01*
D02*
G37*
G36*
X237370D02*
Y81280D01*
X245481D01*
X244850Y83634D01*
X243614Y85776D01*
X241866Y87524D01*
X239724Y88760D01*
X237370Y89391D01*
D02*
G37*
G36*
X311030D02*
X308676Y88760D01*
X306534Y87524D01*
X304786Y85776D01*
X303550Y83634D01*
X302919Y81280D01*
X311030D01*
Y89391D01*
D02*
G37*
G36*
X133230D02*
X130876Y88760D01*
X128734Y87524D01*
X126986Y85776D01*
X125750Y83634D01*
X125119Y81280D01*
X133230D01*
Y89391D01*
D02*
G37*
G36*
X488830D02*
X486476Y88760D01*
X484334Y87524D01*
X482586Y85776D01*
X481350Y83634D01*
X480719Y81280D01*
X488830D01*
Y89391D01*
D02*
G37*
G36*
X234830D02*
X232476Y88760D01*
X230334Y87524D01*
X228586Y85776D01*
X227350Y83634D01*
X226719Y81280D01*
X234830D01*
Y89391D01*
D02*
G37*
G36*
X567465Y88860D02*
X565135D01*
X562884Y88257D01*
X560866Y87092D01*
X559218Y85444D01*
X558053Y83426D01*
X557450Y81175D01*
Y78845D01*
X558053Y76594D01*
X559218Y74576D01*
X560866Y72928D01*
X562884Y71763D01*
X565135Y71160D01*
X567465D01*
X569716Y71763D01*
X571734Y72928D01*
X573382Y74576D01*
X574547Y76594D01*
X575150Y78845D01*
Y81175D01*
X574547Y83426D01*
X573382Y85444D01*
X571734Y87092D01*
X569716Y88257D01*
X567465Y88860D01*
D02*
G37*
G36*
X542065D02*
X539735D01*
X537484Y88257D01*
X535466Y87092D01*
X533818Y85444D01*
X532653Y83426D01*
X532050Y81175D01*
Y78845D01*
X532653Y76594D01*
X533818Y74576D01*
X535466Y72928D01*
X537484Y71763D01*
X539735Y71160D01*
X542065D01*
X544316Y71763D01*
X546334Y72928D01*
X547982Y74576D01*
X549147Y76594D01*
X549750Y78845D01*
Y81175D01*
X549147Y83426D01*
X547982Y85444D01*
X546334Y87092D01*
X544316Y88257D01*
X542065Y88860D01*
D02*
G37*
G36*
X516665D02*
X514335D01*
X512084Y88257D01*
X510066Y87092D01*
X508418Y85444D01*
X507253Y83426D01*
X506650Y81175D01*
Y78845D01*
X507253Y76594D01*
X508418Y74576D01*
X510066Y72928D01*
X512084Y71763D01*
X514335Y71160D01*
X516665D01*
X518916Y71763D01*
X520934Y72928D01*
X522582Y74576D01*
X523747Y76594D01*
X524350Y78845D01*
Y81175D01*
X523747Y83426D01*
X522582Y85444D01*
X520934Y87092D01*
X518916Y88257D01*
X516665Y88860D01*
D02*
G37*
G36*
X465865D02*
X463535D01*
X461284Y88257D01*
X459266Y87092D01*
X457618Y85444D01*
X456453Y83426D01*
X455850Y81175D01*
Y78845D01*
X456453Y76594D01*
X457618Y74576D01*
X459266Y72928D01*
X461284Y71763D01*
X463535Y71160D01*
X465865D01*
X468116Y71763D01*
X470134Y72928D01*
X471782Y74576D01*
X472947Y76594D01*
X473550Y78845D01*
Y81175D01*
X472947Y83426D01*
X471782Y85444D01*
X470134Y87092D01*
X468116Y88257D01*
X465865Y88860D01*
D02*
G37*
G36*
X440465D02*
X438135D01*
X435884Y88257D01*
X433866Y87092D01*
X432218Y85444D01*
X431053Y83426D01*
X430450Y81175D01*
Y78845D01*
X431053Y76594D01*
X432218Y74576D01*
X433866Y72928D01*
X435884Y71763D01*
X438135Y71160D01*
X440465D01*
X442716Y71763D01*
X444734Y72928D01*
X446382Y74576D01*
X447547Y76594D01*
X448150Y78845D01*
Y81175D01*
X447547Y83426D01*
X446382Y85444D01*
X444734Y87092D01*
X442716Y88257D01*
X440465Y88860D01*
D02*
G37*
G36*
X415065D02*
X412735D01*
X410484Y88257D01*
X408466Y87092D01*
X406818Y85444D01*
X405653Y83426D01*
X405050Y81175D01*
Y78845D01*
X405653Y76594D01*
X406818Y74576D01*
X408466Y72928D01*
X410484Y71763D01*
X412735Y71160D01*
X415065D01*
X417316Y71763D01*
X419334Y72928D01*
X420982Y74576D01*
X422147Y76594D01*
X422750Y78845D01*
Y81175D01*
X422147Y83426D01*
X420982Y85444D01*
X419334Y87092D01*
X417316Y88257D01*
X415065Y88860D01*
D02*
G37*
G36*
X389665D02*
X387335D01*
X385084Y88257D01*
X383066Y87092D01*
X381418Y85444D01*
X380253Y83426D01*
X379650Y81175D01*
Y78845D01*
X380253Y76594D01*
X381418Y74576D01*
X383066Y72928D01*
X385084Y71763D01*
X387335Y71160D01*
X389665D01*
X391916Y71763D01*
X393934Y72928D01*
X395582Y74576D01*
X396747Y76594D01*
X397350Y78845D01*
Y81175D01*
X396747Y83426D01*
X395582Y85444D01*
X393934Y87092D01*
X391916Y88257D01*
X389665Y88860D01*
D02*
G37*
G36*
X364265D02*
X361935D01*
X359684Y88257D01*
X357666Y87092D01*
X356018Y85444D01*
X354853Y83426D01*
X354250Y81175D01*
Y78845D01*
X354853Y76594D01*
X356018Y74576D01*
X357666Y72928D01*
X359684Y71763D01*
X361935Y71160D01*
X364265D01*
X366516Y71763D01*
X368534Y72928D01*
X370182Y74576D01*
X371347Y76594D01*
X371950Y78845D01*
Y81175D01*
X371347Y83426D01*
X370182Y85444D01*
X368534Y87092D01*
X366516Y88257D01*
X364265Y88860D01*
D02*
G37*
G36*
X338865D02*
X336535D01*
X334284Y88257D01*
X332266Y87092D01*
X330618Y85444D01*
X329453Y83426D01*
X328850Y81175D01*
Y78845D01*
X329453Y76594D01*
X330618Y74576D01*
X332266Y72928D01*
X334284Y71763D01*
X336535Y71160D01*
X338865D01*
X341116Y71763D01*
X343134Y72928D01*
X344782Y74576D01*
X345947Y76594D01*
X346550Y78845D01*
Y81175D01*
X345947Y83426D01*
X344782Y85444D01*
X343134Y87092D01*
X341116Y88257D01*
X338865Y88860D01*
D02*
G37*
G36*
X288065D02*
X285735D01*
X283484Y88257D01*
X281466Y87092D01*
X279818Y85444D01*
X278653Y83426D01*
X278050Y81175D01*
Y78845D01*
X278653Y76594D01*
X279818Y74576D01*
X281466Y72928D01*
X283484Y71763D01*
X285735Y71160D01*
X288065D01*
X290316Y71763D01*
X292334Y72928D01*
X293982Y74576D01*
X295147Y76594D01*
X295750Y78845D01*
Y81175D01*
X295147Y83426D01*
X293982Y85444D01*
X292334Y87092D01*
X290316Y88257D01*
X288065Y88860D01*
D02*
G37*
G36*
X262665D02*
X260335D01*
X258084Y88257D01*
X256066Y87092D01*
X254418Y85444D01*
X253253Y83426D01*
X252650Y81175D01*
Y78845D01*
X253253Y76594D01*
X254418Y74576D01*
X256066Y72928D01*
X258084Y71763D01*
X260335Y71160D01*
X262665D01*
X264916Y71763D01*
X266934Y72928D01*
X268582Y74576D01*
X269747Y76594D01*
X270350Y78845D01*
Y81175D01*
X269747Y83426D01*
X268582Y85444D01*
X266934Y87092D01*
X264916Y88257D01*
X262665Y88860D01*
D02*
G37*
G36*
X211865D02*
X209535D01*
X207284Y88257D01*
X205266Y87092D01*
X203618Y85444D01*
X202453Y83426D01*
X201850Y81175D01*
Y78845D01*
X202453Y76594D01*
X203618Y74576D01*
X205266Y72928D01*
X207284Y71763D01*
X209535Y71160D01*
X211865D01*
X214116Y71763D01*
X216134Y72928D01*
X217782Y74576D01*
X218947Y76594D01*
X219550Y78845D01*
Y81175D01*
X218947Y83426D01*
X217782Y85444D01*
X216134Y87092D01*
X214116Y88257D01*
X211865Y88860D01*
D02*
G37*
G36*
X186465D02*
X184135D01*
X181884Y88257D01*
X179866Y87092D01*
X178218Y85444D01*
X177053Y83426D01*
X176450Y81175D01*
Y78845D01*
X177053Y76594D01*
X178218Y74576D01*
X179866Y72928D01*
X181884Y71763D01*
X184135Y71160D01*
X186465D01*
X188716Y71763D01*
X190734Y72928D01*
X192382Y74576D01*
X193547Y76594D01*
X194150Y78845D01*
Y81175D01*
X193547Y83426D01*
X192382Y85444D01*
X190734Y87092D01*
X188716Y88257D01*
X186465Y88860D01*
D02*
G37*
G36*
X161065D02*
X158735D01*
X156484Y88257D01*
X154466Y87092D01*
X152818Y85444D01*
X151653Y83426D01*
X151050Y81175D01*
Y78845D01*
X151653Y76594D01*
X152818Y74576D01*
X154466Y72928D01*
X156484Y71763D01*
X158735Y71160D01*
X161065D01*
X163316Y71763D01*
X165334Y72928D01*
X166982Y74576D01*
X168147Y76594D01*
X168750Y78845D01*
Y81175D01*
X168147Y83426D01*
X166982Y85444D01*
X165334Y87092D01*
X163316Y88257D01*
X161065Y88860D01*
D02*
G37*
G36*
X110265D02*
X107935D01*
X105684Y88257D01*
X103666Y87092D01*
X102018Y85444D01*
X100853Y83426D01*
X100250Y81175D01*
Y78845D01*
X100853Y76594D01*
X102018Y74576D01*
X103666Y72928D01*
X105684Y71763D01*
X107935Y71160D01*
X110265D01*
X112516Y71763D01*
X114534Y72928D01*
X116182Y74576D01*
X117347Y76594D01*
X117950Y78845D01*
Y81175D01*
X117347Y83426D01*
X116182Y85444D01*
X114534Y87092D01*
X112516Y88257D01*
X110265Y88860D01*
D02*
G37*
G36*
X84865D02*
X82535D01*
X80284Y88257D01*
X78266Y87092D01*
X76618Y85444D01*
X75453Y83426D01*
X74850Y81175D01*
Y78845D01*
X75453Y76594D01*
X76618Y74576D01*
X78266Y72928D01*
X80284Y71763D01*
X82535Y71160D01*
X84865D01*
X87116Y71763D01*
X89134Y72928D01*
X90782Y74576D01*
X91947Y76594D01*
X92550Y78845D01*
Y81175D01*
X91947Y83426D01*
X90782Y85444D01*
X89134Y87092D01*
X87116Y88257D01*
X84865Y88860D01*
D02*
G37*
G36*
X499481Y78740D02*
X491370D01*
Y70629D01*
X493724Y71260D01*
X495866Y72496D01*
X497614Y74244D01*
X498850Y76386D01*
X499481Y78740D01*
D02*
G37*
G36*
X321681D02*
X313570D01*
Y70629D01*
X315924Y71260D01*
X318066Y72496D01*
X319814Y74244D01*
X321050Y76386D01*
X321681Y78740D01*
D02*
G37*
G36*
X245481D02*
X237370D01*
Y70629D01*
X239724Y71260D01*
X241866Y72496D01*
X243614Y74244D01*
X244850Y76386D01*
X245481Y78740D01*
D02*
G37*
G36*
X143881D02*
X135770D01*
Y70629D01*
X138124Y71260D01*
X140266Y72496D01*
X142014Y74244D01*
X143250Y76386D01*
X143881Y78740D01*
D02*
G37*
G36*
X488830D02*
X480719D01*
X481350Y76386D01*
X482586Y74244D01*
X484334Y72496D01*
X486476Y71260D01*
X488830Y70629D01*
Y78740D01*
D02*
G37*
G36*
X311030D02*
X302919D01*
X303550Y76386D01*
X304786Y74244D01*
X306534Y72496D01*
X308676Y71260D01*
X311030Y70629D01*
Y78740D01*
D02*
G37*
G36*
X234830D02*
X226719D01*
X227350Y76386D01*
X228586Y74244D01*
X230334Y72496D01*
X232476Y71260D01*
X234830Y70629D01*
Y78740D01*
D02*
G37*
G36*
X133230D02*
X125119D01*
X125750Y76386D01*
X126986Y74244D01*
X128734Y72496D01*
X130876Y71260D01*
X133230Y70629D01*
Y78740D01*
D02*
G37*
G36*
X186570Y63991D02*
Y55880D01*
X194681D01*
X194050Y58234D01*
X192814Y60376D01*
X191066Y62124D01*
X188924Y63360D01*
X186570Y63991D01*
D02*
G37*
G36*
X567570D02*
Y55880D01*
X575681D01*
X575050Y58234D01*
X573814Y60376D01*
X572066Y62124D01*
X569924Y63360D01*
X567570Y63991D01*
D02*
G37*
G36*
X389770D02*
Y55880D01*
X397881D01*
X397250Y58234D01*
X396014Y60376D01*
X394266Y62124D01*
X392124Y63360D01*
X389770Y63991D01*
D02*
G37*
G36*
X184030D02*
X181676Y63360D01*
X179534Y62124D01*
X177786Y60376D01*
X176550Y58234D01*
X175919Y55880D01*
X184030D01*
Y63991D01*
D02*
G37*
G36*
X565030D02*
X562676Y63360D01*
X560534Y62124D01*
X558786Y60376D01*
X557550Y58234D01*
X556919Y55880D01*
X565030D01*
Y63991D01*
D02*
G37*
G36*
X387230D02*
X384876Y63360D01*
X382734Y62124D01*
X380986Y60376D01*
X379750Y58234D01*
X379119Y55880D01*
X387230D01*
Y63991D01*
D02*
G37*
G36*
X542065Y63460D02*
X539735D01*
X537484Y62857D01*
X535466Y61692D01*
X533818Y60044D01*
X532653Y58026D01*
X532050Y55775D01*
Y53445D01*
X532653Y51194D01*
X533818Y49176D01*
X535466Y47528D01*
X537484Y46363D01*
X539735Y45760D01*
X542065D01*
X544316Y46363D01*
X546334Y47528D01*
X547982Y49176D01*
X549147Y51194D01*
X549750Y53445D01*
Y55775D01*
X549147Y58026D01*
X547982Y60044D01*
X546334Y61692D01*
X544316Y62857D01*
X542065Y63460D01*
D02*
G37*
G36*
X516665D02*
X514335D01*
X512084Y62857D01*
X510066Y61692D01*
X508418Y60044D01*
X507253Y58026D01*
X506650Y55775D01*
Y53445D01*
X507253Y51194D01*
X508418Y49176D01*
X510066Y47528D01*
X512084Y46363D01*
X514335Y45760D01*
X516665D01*
X518916Y46363D01*
X520934Y47528D01*
X522582Y49176D01*
X523747Y51194D01*
X524350Y53445D01*
Y55775D01*
X523747Y58026D01*
X522582Y60044D01*
X520934Y61692D01*
X518916Y62857D01*
X516665Y63460D01*
D02*
G37*
G36*
X491265D02*
X488935D01*
X486684Y62857D01*
X484666Y61692D01*
X483018Y60044D01*
X481853Y58026D01*
X481250Y55775D01*
Y53445D01*
X481853Y51194D01*
X483018Y49176D01*
X484666Y47528D01*
X486684Y46363D01*
X488935Y45760D01*
X491265D01*
X493516Y46363D01*
X495534Y47528D01*
X497182Y49176D01*
X498347Y51194D01*
X498950Y53445D01*
Y55775D01*
X498347Y58026D01*
X497182Y60044D01*
X495534Y61692D01*
X493516Y62857D01*
X491265Y63460D01*
D02*
G37*
G36*
X465865D02*
X463535D01*
X461284Y62857D01*
X459266Y61692D01*
X457618Y60044D01*
X456453Y58026D01*
X455850Y55775D01*
Y53445D01*
X456453Y51194D01*
X457618Y49176D01*
X459266Y47528D01*
X461284Y46363D01*
X463535Y45760D01*
X465865D01*
X468116Y46363D01*
X470134Y47528D01*
X471782Y49176D01*
X472947Y51194D01*
X473550Y53445D01*
Y55775D01*
X472947Y58026D01*
X471782Y60044D01*
X470134Y61692D01*
X468116Y62857D01*
X465865Y63460D01*
D02*
G37*
G36*
X440465D02*
X438135D01*
X435884Y62857D01*
X433866Y61692D01*
X432218Y60044D01*
X431053Y58026D01*
X430450Y55775D01*
Y53445D01*
X431053Y51194D01*
X432218Y49176D01*
X433866Y47528D01*
X435884Y46363D01*
X438135Y45760D01*
X440465D01*
X442716Y46363D01*
X444734Y47528D01*
X446382Y49176D01*
X447547Y51194D01*
X448150Y53445D01*
Y55775D01*
X447547Y58026D01*
X446382Y60044D01*
X444734Y61692D01*
X442716Y62857D01*
X440465Y63460D01*
D02*
G37*
G36*
X415065D02*
X412735D01*
X410484Y62857D01*
X408466Y61692D01*
X406818Y60044D01*
X405653Y58026D01*
X405050Y55775D01*
Y53445D01*
X405653Y51194D01*
X406818Y49176D01*
X408466Y47528D01*
X410484Y46363D01*
X412735Y45760D01*
X415065D01*
X417316Y46363D01*
X419334Y47528D01*
X420982Y49176D01*
X422147Y51194D01*
X422750Y53445D01*
Y55775D01*
X422147Y58026D01*
X420982Y60044D01*
X419334Y61692D01*
X417316Y62857D01*
X415065Y63460D01*
D02*
G37*
G36*
X364265D02*
X361935D01*
X359684Y62857D01*
X357666Y61692D01*
X356018Y60044D01*
X354853Y58026D01*
X354250Y55775D01*
Y53445D01*
X354853Y51194D01*
X356018Y49176D01*
X357666Y47528D01*
X359684Y46363D01*
X361935Y45760D01*
X364265D01*
X366516Y46363D01*
X368534Y47528D01*
X370182Y49176D01*
X371347Y51194D01*
X371950Y53445D01*
Y55775D01*
X371347Y58026D01*
X370182Y60044D01*
X368534Y61692D01*
X366516Y62857D01*
X364265Y63460D01*
D02*
G37*
G36*
X338865D02*
X336535D01*
X334284Y62857D01*
X332266Y61692D01*
X330618Y60044D01*
X329453Y58026D01*
X328850Y55775D01*
Y53445D01*
X329453Y51194D01*
X330618Y49176D01*
X332266Y47528D01*
X334284Y46363D01*
X336535Y45760D01*
X338865D01*
X341116Y46363D01*
X343134Y47528D01*
X344782Y49176D01*
X345947Y51194D01*
X346550Y53445D01*
Y55775D01*
X345947Y58026D01*
X344782Y60044D01*
X343134Y61692D01*
X341116Y62857D01*
X338865Y63460D01*
D02*
G37*
G36*
X313465D02*
X311135D01*
X308884Y62857D01*
X306866Y61692D01*
X305218Y60044D01*
X304053Y58026D01*
X303450Y55775D01*
Y53445D01*
X304053Y51194D01*
X305218Y49176D01*
X306866Y47528D01*
X308884Y46363D01*
X311135Y45760D01*
X313465D01*
X315716Y46363D01*
X317734Y47528D01*
X319382Y49176D01*
X320547Y51194D01*
X321150Y53445D01*
Y55775D01*
X320547Y58026D01*
X319382Y60044D01*
X317734Y61692D01*
X315716Y62857D01*
X313465Y63460D01*
D02*
G37*
G36*
X288065D02*
X285735D01*
X283484Y62857D01*
X281466Y61692D01*
X279818Y60044D01*
X278653Y58026D01*
X278050Y55775D01*
Y53445D01*
X278653Y51194D01*
X279818Y49176D01*
X281466Y47528D01*
X283484Y46363D01*
X285735Y45760D01*
X288065D01*
X290316Y46363D01*
X292334Y47528D01*
X293982Y49176D01*
X295147Y51194D01*
X295750Y53445D01*
Y55775D01*
X295147Y58026D01*
X293982Y60044D01*
X292334Y61692D01*
X290316Y62857D01*
X288065Y63460D01*
D02*
G37*
G36*
X262665D02*
X260335D01*
X258084Y62857D01*
X256066Y61692D01*
X254418Y60044D01*
X253253Y58026D01*
X252650Y55775D01*
Y53445D01*
X253253Y51194D01*
X254418Y49176D01*
X256066Y47528D01*
X258084Y46363D01*
X260335Y45760D01*
X262665D01*
X264916Y46363D01*
X266934Y47528D01*
X268582Y49176D01*
X269747Y51194D01*
X270350Y53445D01*
Y55775D01*
X269747Y58026D01*
X268582Y60044D01*
X266934Y61692D01*
X264916Y62857D01*
X262665Y63460D01*
D02*
G37*
G36*
X237265D02*
X234935D01*
X232684Y62857D01*
X230666Y61692D01*
X229018Y60044D01*
X227853Y58026D01*
X227250Y55775D01*
Y53445D01*
X227853Y51194D01*
X229018Y49176D01*
X230666Y47528D01*
X232684Y46363D01*
X234935Y45760D01*
X237265D01*
X239516Y46363D01*
X241534Y47528D01*
X243182Y49176D01*
X244347Y51194D01*
X244950Y53445D01*
Y55775D01*
X244347Y58026D01*
X243182Y60044D01*
X241534Y61692D01*
X239516Y62857D01*
X237265Y63460D01*
D02*
G37*
G36*
X211865D02*
X209535D01*
X207284Y62857D01*
X205266Y61692D01*
X203618Y60044D01*
X202453Y58026D01*
X201850Y55775D01*
Y53445D01*
X202453Y51194D01*
X203618Y49176D01*
X205266Y47528D01*
X207284Y46363D01*
X209535Y45760D01*
X211865D01*
X214116Y46363D01*
X216134Y47528D01*
X217782Y49176D01*
X218947Y51194D01*
X219550Y53445D01*
Y55775D01*
X218947Y58026D01*
X217782Y60044D01*
X216134Y61692D01*
X214116Y62857D01*
X211865Y63460D01*
D02*
G37*
G36*
X161065D02*
X158735D01*
X156484Y62857D01*
X154466Y61692D01*
X152818Y60044D01*
X151653Y58026D01*
X151050Y55775D01*
Y53445D01*
X151653Y51194D01*
X152818Y49176D01*
X154466Y47528D01*
X156484Y46363D01*
X158735Y45760D01*
X161065D01*
X163316Y46363D01*
X165334Y47528D01*
X166982Y49176D01*
X168147Y51194D01*
X168750Y53445D01*
Y55775D01*
X168147Y58026D01*
X166982Y60044D01*
X165334Y61692D01*
X163316Y62857D01*
X161065Y63460D01*
D02*
G37*
G36*
X135665D02*
X133335D01*
X131084Y62857D01*
X129066Y61692D01*
X127418Y60044D01*
X126253Y58026D01*
X125650Y55775D01*
Y53445D01*
X126253Y51194D01*
X127418Y49176D01*
X129066Y47528D01*
X131084Y46363D01*
X133335Y45760D01*
X135665D01*
X137916Y46363D01*
X139934Y47528D01*
X141582Y49176D01*
X142747Y51194D01*
X143350Y53445D01*
Y55775D01*
X142747Y58026D01*
X141582Y60044D01*
X139934Y61692D01*
X137916Y62857D01*
X135665Y63460D01*
D02*
G37*
G36*
X110265D02*
X107935D01*
X105684Y62857D01*
X103666Y61692D01*
X102018Y60044D01*
X100853Y58026D01*
X100250Y55775D01*
Y53445D01*
X100853Y51194D01*
X102018Y49176D01*
X103666Y47528D01*
X105684Y46363D01*
X107935Y45760D01*
X110265D01*
X112516Y46363D01*
X114534Y47528D01*
X116182Y49176D01*
X117347Y51194D01*
X117950Y53445D01*
Y55775D01*
X117347Y58026D01*
X116182Y60044D01*
X114534Y61692D01*
X112516Y62857D01*
X110265Y63460D01*
D02*
G37*
G36*
X92550D02*
X74850D01*
Y45760D01*
X92550D01*
Y63460D01*
D02*
G37*
G36*
X575681Y53340D02*
X567570D01*
Y45229D01*
X569924Y45860D01*
X572066Y47096D01*
X573814Y48844D01*
X575050Y50986D01*
X575681Y53340D01*
D02*
G37*
G36*
X397881D02*
X389770D01*
Y45229D01*
X392124Y45860D01*
X394266Y47096D01*
X396014Y48844D01*
X397250Y50986D01*
X397881Y53340D01*
D02*
G37*
G36*
X194681D02*
X186570D01*
Y45229D01*
X188924Y45860D01*
X191066Y47096D01*
X192814Y48844D01*
X194050Y50986D01*
X194681Y53340D01*
D02*
G37*
G36*
X565030D02*
X556919D01*
X557550Y50986D01*
X558786Y48844D01*
X560534Y47096D01*
X562676Y45860D01*
X565030Y45229D01*
Y53340D01*
D02*
G37*
G36*
X387230D02*
X379119D01*
X379750Y50986D01*
X380986Y48844D01*
X382734Y47096D01*
X384876Y45860D01*
X387230Y45229D01*
Y53340D01*
D02*
G37*
G36*
X184030D02*
X175919D01*
X176550Y50986D01*
X177786Y48844D01*
X179534Y47096D01*
X181676Y45860D01*
X184030Y45229D01*
Y53340D01*
D02*
G37*
%LPD*%
D77*
X141800Y805180D02*
D03*
D78*
X142240Y261555D02*
D03*
X294640D02*
D03*
D82*
X232410Y316230D02*
D03*
D84*
X63500Y276688D02*
D03*
Y418822D02*
D03*
Y560955D02*
D03*
X586740Y640955D02*
D03*
Y498821D02*
D03*
Y174555D02*
D03*
Y356688D02*
D03*
D87*
X566300Y54610D02*
D03*
X490100Y80010D02*
D03*
X388500Y54610D02*
D03*
X312300Y80010D02*
D03*
X236100D02*
D03*
X185300Y54610D02*
D03*
X134500Y80010D02*
D03*
D89*
X487680Y193040D02*
D03*
X480060D02*
D03*
X487680Y157480D02*
D03*
X480060Y200660D02*
D03*
X487680D02*
D03*
X530860Y584200D02*
D03*
X538480D02*
D03*
Y576580D02*
D03*
X530860D02*
D03*
X515620D02*
D03*
X523240D02*
D03*
Y584200D02*
D03*
X515620D02*
D03*
X508000D02*
D03*
X523240Y502920D02*
D03*
X515620D02*
D03*
X485140Y515620D02*
D03*
X472440D02*
D03*
X297180Y317500D02*
D03*
X289560D02*
D03*
X281940D02*
D03*
X297180Y309880D02*
D03*
X289560D02*
D03*
X281940D02*
D03*
X373380Y457200D02*
D03*
X381000D02*
D03*
X388620D02*
D03*
X373380Y464820D02*
D03*
X381000D02*
D03*
X388620D02*
D03*
X424180Y485140D02*
D03*
X416560D02*
D03*
X408940D02*
D03*
X401320D02*
D03*
X393700D02*
D03*
X386080D02*
D03*
X368300Y279400D02*
D03*
X378460D02*
D03*
Y289560D02*
D03*
X368300D02*
D03*
Y299720D02*
D03*
X378460D02*
D03*
X368300Y634492D02*
D03*
Y641096D02*
D03*
Y647700D02*
D03*
X377444D02*
D03*
Y641096D02*
D03*
Y634492D02*
D03*
X431800Y681228D02*
D03*
X422656D02*
D03*
X431800Y690372D02*
D03*
X422656D02*
D03*
X248920Y770128D02*
D03*
X285496Y797560D02*
D03*
X230632Y760984D02*
D03*
X331216Y715264D02*
D03*
X294640Y797560D02*
D03*
X157480Y879856D02*
D03*
X111760Y797560D02*
D03*
X340360Y806704D02*
D03*
X303784D02*
D03*
X340360Y751840D02*
D03*
X175768Y760984D02*
D03*
X111760Y788416D02*
D03*
X166624Y824992D02*
D03*
X157480Y834136D02*
D03*
X303784Y788416D02*
D03*
X349504Y770128D02*
D03*
X194056Y760984D02*
D03*
X157480Y843280D02*
D03*
X331216Y806704D02*
D03*
X422656Y706120D02*
D03*
X111760Y834136D02*
D03*
X130048Y751840D02*
D03*
X349504Y788416D02*
D03*
X166624Y843280D02*
D03*
X139192Y870712D02*
D03*
X312928Y806704D02*
D03*
X331216Y751840D02*
D03*
X203200Y760984D02*
D03*
X111760Y779272D02*
D03*
X166624Y788416D02*
D03*
X358648Y806704D02*
D03*
X431800Y715264D02*
D03*
X203200Y770128D02*
D03*
X130048Y861568D02*
D03*
X102616Y815848D02*
D03*
X285496Y742696D02*
D03*
X120904Y879856D02*
D03*
X413512Y696976D02*
D03*
X148336Y760984D02*
D03*
X120904D02*
D03*
X340360Y715264D02*
D03*
X166624Y779272D02*
D03*
X358648Y797560D02*
D03*
X139192Y861568D02*
D03*
X157480D02*
D03*
X166624Y760984D02*
D03*
X148336Y779272D02*
D03*
X166624Y806704D02*
D03*
X148336Y770128D02*
D03*
X276352Y733552D02*
D03*
X285496Y751840D02*
D03*
X130048Y834136D02*
D03*
X157480Y770128D02*
D03*
X331216Y788416D02*
D03*
X139192Y779272D02*
D03*
X404368Y696976D02*
D03*
X157480Y760984D02*
D03*
X102616Y806704D02*
D03*
X349504Y760984D02*
D03*
X285496Y733552D02*
D03*
X221488Y770128D02*
D03*
X358648D02*
D03*
X422656Y715264D02*
D03*
X130048Y843280D02*
D03*
X120904Y834136D02*
D03*
X102616Y843280D02*
D03*
X340360Y733552D02*
D03*
X331216Y724408D02*
D03*
X130048Y870712D02*
D03*
X175768Y770128D02*
D03*
X285496Y788416D02*
D03*
X148336Y834136D02*
D03*
X276352Y724408D02*
D03*
X111760Y824992D02*
D03*
X258064Y760984D02*
D03*
X349504Y742696D02*
D03*
X120904Y788416D02*
D03*
X303784Y770128D02*
D03*
X130048Y779272D02*
D03*
X111760Y806704D02*
D03*
X358648Y760984D02*
D03*
X130048Y770128D02*
D03*
X120904Y824992D02*
D03*
X340360Y779272D02*
D03*
X312928Y797560D02*
D03*
Y715264D02*
D03*
X166624Y770128D02*
D03*
X276352Y742696D02*
D03*
X139192Y852424D02*
D03*
X340360Y742696D02*
D03*
X267208Y760984D02*
D03*
X422656Y696976D02*
D03*
X139192Y843280D02*
D03*
X294640Y779272D02*
D03*
X349504Y797560D02*
D03*
X166624Y834136D02*
D03*
X212344Y760984D02*
D03*
X322072Y797560D02*
D03*
X358648Y715264D02*
D03*
X404368Y706120D02*
D03*
X267208Y742696D02*
D03*
X212344Y770128D02*
D03*
X157480Y824992D02*
D03*
X111760Y815848D02*
D03*
X367792Y751840D02*
D03*
X413512Y706120D02*
D03*
X340360Y788416D02*
D03*
X349504Y724408D02*
D03*
X230632Y770128D02*
D03*
X303784Y797560D02*
D03*
X184912Y760984D02*
D03*
X166624Y797560D02*
D03*
X358648Y724408D02*
D03*
X102616Y779272D02*
D03*
X285496D02*
D03*
X157480Y852424D02*
D03*
X331216Y770128D02*
D03*
X285496Y724408D02*
D03*
X312928Y788416D02*
D03*
X294640Y806704D02*
D03*
X322072Y770128D02*
D03*
X148336Y861568D02*
D03*
X349504Y733552D02*
D03*
X120904Y779272D02*
D03*
X267208Y770128D02*
D03*
X358648Y733552D02*
D03*
X148336Y870712D02*
D03*
X166624Y852424D02*
D03*
X349504Y806704D02*
D03*
X148336Y843280D02*
D03*
X239776Y760984D02*
D03*
X367792Y806704D02*
D03*
X267208Y751840D02*
D03*
X130048Y852424D02*
D03*
X322072Y788416D02*
D03*
X294640D02*
D03*
X102616Y824992D02*
D03*
X340360Y724408D02*
D03*
X312928Y779272D02*
D03*
X331216Y742696D02*
D03*
X148336Y879856D02*
D03*
X358648Y788416D02*
D03*
X157480Y870712D02*
D03*
X349504Y751840D02*
D03*
X267208Y779272D02*
D03*
X139192Y879856D02*
D03*
X166624Y870712D02*
D03*
X367792Y797560D02*
D03*
X340360Y760984D02*
D03*
X285496Y715264D02*
D03*
X120904Y770128D02*
D03*
X139192D02*
D03*
X367792Y715264D02*
D03*
X331216Y733552D02*
D03*
X130048Y760984D02*
D03*
X358648Y751840D02*
D03*
X322072Y806704D02*
D03*
X166624Y815848D02*
D03*
X340360Y770128D02*
D03*
X431800Y696976D02*
D03*
X322072Y779272D02*
D03*
X276352Y788416D02*
D03*
X312928Y770128D02*
D03*
X184912D02*
D03*
X130048Y879856D02*
D03*
X102616Y797560D02*
D03*
X139192Y760984D02*
D03*
X276352Y770128D02*
D03*
X358648Y779272D02*
D03*
X285496Y760984D02*
D03*
X358648Y742696D02*
D03*
X294640Y770128D02*
D03*
X120904Y843280D02*
D03*
X349504Y779272D02*
D03*
X139192Y834136D02*
D03*
X303784Y715264D02*
D03*
X111760Y770128D02*
D03*
X431800Y706120D02*
D03*
X331216Y797560D02*
D03*
X102616Y834136D02*
D03*
X331216Y760984D02*
D03*
X258064Y770128D02*
D03*
X248920Y760984D02*
D03*
X340360Y797560D02*
D03*
X303784Y779272D02*
D03*
X276352Y751840D02*
D03*
X166624Y879856D02*
D03*
X194056Y770128D02*
D03*
X148336Y852424D02*
D03*
X102616Y788416D02*
D03*
X349504Y715264D02*
D03*
X239776Y770128D02*
D03*
X294640Y715264D02*
D03*
X285496Y770128D02*
D03*
X276352Y760984D02*
D03*
X331216Y779272D02*
D03*
X276352D02*
D03*
X157480D02*
D03*
X111760Y843280D02*
D03*
X367792Y724408D02*
D03*
X221488Y760984D02*
D03*
X322072Y715264D02*
D03*
X166624Y861568D02*
D03*
X523240Y875030D02*
D03*
X483362Y606552D02*
D03*
X337820Y458470D02*
D03*
X328930D02*
D03*
X320040D02*
D03*
X483362Y625348D02*
D03*
X619760Y787400D02*
D03*
D90*
X351808Y382388D02*
D03*
X342253D02*
D03*
X315553D02*
D03*
X351808Y368790D02*
D03*
X315553D02*
D03*
X328678Y405581D02*
D03*
X342253Y359146D02*
D03*
X328678D02*
D03*
X342253Y395312D02*
D03*
X328678Y368790D02*
D03*
Y382388D02*
D03*
X342253Y368790D02*
D03*
X328678Y395312D02*
D03*
X342253Y405581D02*
D03*
X315553Y359146D02*
D03*
X351808Y395312D02*
D03*
X315553D02*
D03*
Y405581D02*
D03*
X305909Y368790D02*
D03*
Y382388D02*
D03*
Y395312D02*
D03*
M02*
