G04*
G04 #@! TF.GenerationSoftware,Altium Limited,Altium Designer,21.0.9 (235)*
G04*
G04 Layer_Color=8421504*
%FSLAX44Y44*%
%MOMM*%
G71*
G04*
G04 #@! TF.SameCoordinates,58F94E15-CAE4-4791-8A53-09B8A48F05B3*
G04*
G04*
G04 #@! TF.FilePolarity,Positive*
G04*
G01*
G75*
%ADD16R,0.8000X0.6000*%
%ADD17R,1.3970X1.0160*%
%ADD18R,0.6000X0.8000*%
G04:AMPARAMS|DCode=19|XSize=1.97mm|YSize=0.6mm|CornerRadius=0.075mm|HoleSize=0mm|Usage=FLASHONLY|Rotation=0.000|XOffset=0mm|YOffset=0mm|HoleType=Round|Shape=RoundedRectangle|*
%AMROUNDEDRECTD19*
21,1,1.9700,0.4500,0,0,0.0*
21,1,1.8200,0.6000,0,0,0.0*
1,1,0.1500,0.9100,-0.2250*
1,1,0.1500,-0.9100,-0.2250*
1,1,0.1500,-0.9100,0.2250*
1,1,0.1500,0.9100,0.2250*
%
%ADD19ROUNDEDRECTD19*%
%ADD20R,1.4500X1.1000*%
%ADD21R,1.4224X0.5588*%
%ADD22R,0.2540X0.7112*%
G04:AMPARAMS|DCode=23|XSize=1mm|YSize=0.35mm|CornerRadius=0.0438mm|HoleSize=0mm|Usage=FLASHONLY|Rotation=270.000|XOffset=0mm|YOffset=0mm|HoleType=Round|Shape=RoundedRectangle|*
%AMROUNDEDRECTD23*
21,1,1.0000,0.2625,0,0,270.0*
21,1,0.9125,0.3500,0,0,270.0*
1,1,0.0875,-0.1313,-0.4563*
1,1,0.0875,-0.1313,0.4563*
1,1,0.0875,0.1313,0.4563*
1,1,0.0875,0.1313,-0.4563*
%
%ADD23ROUNDEDRECTD23*%
G04:AMPARAMS|DCode=24|XSize=1mm|YSize=0.35mm|CornerRadius=0.0438mm|HoleSize=0mm|Usage=FLASHONLY|Rotation=180.000|XOffset=0mm|YOffset=0mm|HoleType=Round|Shape=RoundedRectangle|*
%AMROUNDEDRECTD24*
21,1,1.0000,0.2625,0,0,180.0*
21,1,0.9125,0.3500,0,0,180.0*
1,1,0.0875,-0.4563,0.1313*
1,1,0.0875,0.4563,0.1313*
1,1,0.0875,0.4563,-0.1313*
1,1,0.0875,-0.4563,-0.1313*
%
%ADD24ROUNDEDRECTD24*%
%ADD25R,1.2192X0.7620*%
%ADD26R,1.0160X1.3970*%
G04:AMPARAMS|DCode=27|XSize=1.57mm|YSize=0.41mm|CornerRadius=0.0513mm|HoleSize=0mm|Usage=FLASHONLY|Rotation=270.000|XOffset=0mm|YOffset=0mm|HoleType=Round|Shape=RoundedRectangle|*
%AMROUNDEDRECTD27*
21,1,1.5700,0.3075,0,0,270.0*
21,1,1.4675,0.4100,0,0,270.0*
1,1,0.1025,-0.1538,-0.7338*
1,1,0.1025,-0.1538,0.7338*
1,1,0.1025,0.1538,0.7338*
1,1,0.1025,0.1538,-0.7338*
%
%ADD27ROUNDEDRECTD27*%
%ADD28R,3.8000X2.0300*%
%ADD29R,2.0300X3.8000*%
%ADD30R,0.2286X0.7112*%
%ADD31R,1.2000X2.5000*%
%ADD32R,1.5792X1.7994*%
%ADD33R,2.7400X0.9800*%
%ADD34R,1.0500X1.7200*%
%ADD35R,4.1000X3.5000*%
%ADD36R,1.7000X1.1500*%
%ADD37R,1.1000X1.4500*%
G36*
X305628Y378438D02*
X324728D01*
Y359338D01*
X305628D01*
Y378438D01*
D02*
G37*
G36*
Y405438D02*
X324728D01*
Y386338D01*
X305628D01*
Y405438D01*
D02*
G37*
G36*
X332628Y378438D02*
X351728D01*
Y359338D01*
X332628D01*
Y378438D01*
D02*
G37*
G36*
Y405438D02*
X351728D01*
Y386338D01*
X332628D01*
Y405438D01*
D02*
G37*
G36*
X349500Y846870D02*
Y829270D01*
X330700D01*
Y846870D01*
X349500D01*
D02*
G37*
G36*
Y875070D02*
Y857470D01*
X330700D01*
Y875070D01*
X349500D01*
D02*
G37*
G36*
X378900Y846870D02*
Y829270D01*
X360100D01*
Y846870D01*
X378900D01*
D02*
G37*
G36*
Y875070D02*
Y857470D01*
X360100D01*
Y875070D01*
X378900D01*
D02*
G37*
D16*
X506730Y374810D02*
D03*
Y390810D02*
D03*
X525780D02*
D03*
Y374810D02*
D03*
X506730Y457360D02*
D03*
Y473360D02*
D03*
X374398Y328668D02*
D03*
Y344668D02*
D03*
X359158Y313428D02*
D03*
Y329428D02*
D03*
X334010Y312040D02*
D03*
Y328040D02*
D03*
X288038Y328668D02*
D03*
Y344668D02*
D03*
X323598Y448808D02*
D03*
Y432808D02*
D03*
X506730Y423800D02*
D03*
Y439800D02*
D03*
X401718Y428108D02*
D03*
X412498Y417948D02*
D03*
Y438268D02*
D03*
X401718Y409058D02*
D03*
X412498Y382388D02*
D03*
X402718Y346828D02*
D03*
X412498Y400168D02*
D03*
X394718Y392548D02*
D03*
X277878Y420488D02*
D03*
X260098Y395088D02*
D03*
X247398Y387468D02*
D03*
X260098Y356353D02*
D03*
X247398Y346828D02*
D03*
X260098Y337303D02*
D03*
X247398Y365878D02*
D03*
X260098Y375403D02*
D03*
D17*
X552450Y353568D02*
D03*
Y334772D02*
D03*
X445770Y196320D02*
D03*
Y215116D02*
D03*
X524510D02*
D03*
Y196320D02*
D03*
X445770Y152886D02*
D03*
Y134090D02*
D03*
X412750Y152886D02*
D03*
Y134090D02*
D03*
X334010Y152886D02*
D03*
Y134090D02*
D03*
X412750Y196320D02*
D03*
Y215116D02*
D03*
X334010Y196320D02*
D03*
Y215116D02*
D03*
X91440Y243332D02*
D03*
Y262128D02*
D03*
X353060Y657352D02*
D03*
Y676148D02*
D03*
X373380D02*
D03*
Y657352D02*
D03*
X510540Y359918D02*
D03*
Y341122D02*
D03*
X552450Y422402D02*
D03*
Y441198D02*
D03*
Y491998D02*
D03*
Y473202D02*
D03*
Y520954D02*
D03*
Y539750D02*
D03*
Y560832D02*
D03*
Y579628D02*
D03*
Y641223D02*
D03*
Y622427D02*
D03*
Y682498D02*
D03*
Y663702D02*
D03*
X441960Y572008D02*
D03*
Y553212D02*
D03*
X388620Y502160D02*
D03*
Y520956D02*
D03*
Y559308D02*
D03*
Y540512D02*
D03*
X91440Y579628D02*
D03*
Y560832D02*
D03*
Y629158D02*
D03*
Y610362D02*
D03*
Y692658D02*
D03*
Y673862D02*
D03*
Y756158D02*
D03*
Y737362D02*
D03*
X146050Y727202D02*
D03*
Y745998D02*
D03*
X524510Y134090D02*
D03*
Y152886D02*
D03*
X44715Y87828D02*
D03*
Y69032D02*
D03*
X91440Y338521D02*
D03*
Y357317D02*
D03*
X552450Y297688D02*
D03*
Y278892D02*
D03*
X91440Y474335D02*
D03*
Y493131D02*
D03*
Y438658D02*
D03*
Y419862D02*
D03*
X471170Y625348D02*
D03*
Y606552D02*
D03*
X247650Y745998D02*
D03*
Y727202D02*
D03*
X227330Y745998D02*
D03*
Y727202D02*
D03*
X166370D02*
D03*
Y745998D02*
D03*
X186690Y727202D02*
D03*
Y745998D02*
D03*
X207010Y727202D02*
D03*
Y745998D02*
D03*
D18*
X181610Y340360D02*
D03*
X197610D02*
D03*
X402718Y372228D02*
D03*
X386718D02*
D03*
X402718Y359528D02*
D03*
X386718D02*
D03*
X262258Y407788D02*
D03*
X278258D02*
D03*
X348998Y458588D02*
D03*
X359158Y448428D02*
D03*
X313438D02*
D03*
X301585Y458588D02*
D03*
X207010Y290830D02*
D03*
X223010D02*
D03*
X354330Y300990D02*
D03*
X346710Y288290D02*
D03*
X289731Y448428D02*
D03*
X338838D02*
D03*
D19*
X474410Y565150D02*
D03*
Y552450D02*
D03*
Y539750D02*
D03*
Y527050D02*
D03*
X523810D02*
D03*
Y539750D02*
D03*
Y552450D02*
D03*
Y565150D02*
D03*
D20*
X466090Y196740D02*
D03*
Y214740D02*
D03*
Y134510D02*
D03*
Y152510D02*
D03*
X354330Y134510D02*
D03*
Y152510D02*
D03*
Y196740D02*
D03*
Y214740D02*
D03*
X44450Y48370D02*
D03*
Y30370D02*
D03*
D21*
X503428Y198780D02*
D03*
Y217780D02*
D03*
X484632Y208280D02*
D03*
X503428Y135280D02*
D03*
Y154280D02*
D03*
X484632Y144780D02*
D03*
X391668Y135280D02*
D03*
Y154280D02*
D03*
X372872Y144780D02*
D03*
X391668Y198780D02*
D03*
Y217780D02*
D03*
X372872Y208280D02*
D03*
D22*
X434100Y252984D02*
D03*
X429100D02*
D03*
X424100D02*
D03*
X419100D02*
D03*
X414100D02*
D03*
X409100D02*
D03*
X404100D02*
D03*
X399100D02*
D03*
Y273050D02*
D03*
X404100D02*
D03*
X409100D02*
D03*
X414100D02*
D03*
X419100D02*
D03*
X424100D02*
D03*
X429100D02*
D03*
X434100D02*
D03*
X434180Y313436D02*
D03*
X429180D02*
D03*
X424180D02*
D03*
X419180D02*
D03*
X414180D02*
D03*
X409180D02*
D03*
X404180D02*
D03*
X399180D02*
D03*
Y293370D02*
D03*
X404180D02*
D03*
X409180D02*
D03*
X414180D02*
D03*
X419180D02*
D03*
X424180D02*
D03*
X429180D02*
D03*
X434180D02*
D03*
D23*
X301178Y346988D02*
D03*
X306178D02*
D03*
X311178D02*
D03*
X301178Y417788D02*
D03*
X306178D02*
D03*
X311178D02*
D03*
X316178Y346988D02*
D03*
X356178D02*
D03*
X351178D02*
D03*
X341178D02*
D03*
X321178D02*
D03*
X326178D02*
D03*
X331178D02*
D03*
X336178D02*
D03*
X346178D02*
D03*
X316178Y417788D02*
D03*
X321178D02*
D03*
X326178D02*
D03*
X331178D02*
D03*
X336178D02*
D03*
X341178D02*
D03*
X346178D02*
D03*
X351178D02*
D03*
X356178D02*
D03*
D24*
X293278Y354888D02*
D03*
Y359888D02*
D03*
Y364888D02*
D03*
Y369888D02*
D03*
Y374888D02*
D03*
Y379888D02*
D03*
Y384888D02*
D03*
Y389888D02*
D03*
Y394888D02*
D03*
Y399888D02*
D03*
Y404888D02*
D03*
Y409888D02*
D03*
X364078Y354888D02*
D03*
Y359888D02*
D03*
Y364888D02*
D03*
Y369888D02*
D03*
Y374888D02*
D03*
Y379888D02*
D03*
Y384888D02*
D03*
Y389888D02*
D03*
Y394888D02*
D03*
Y399888D02*
D03*
Y404888D02*
D03*
Y409888D02*
D03*
D25*
X156464Y290830D02*
D03*
X122936D02*
D03*
X152654Y631190D02*
D03*
X119126D02*
D03*
D26*
X389382Y681990D02*
D03*
X408178D02*
D03*
X389382Y659130D02*
D03*
X408178D02*
D03*
X333502Y633730D02*
D03*
X352298D02*
D03*
X422402Y533400D02*
D03*
X441198D02*
D03*
X388620Y590550D02*
D03*
X369824D02*
D03*
X427228Y726440D02*
D03*
X408432D02*
D03*
X369062Y740410D02*
D03*
X387858D02*
D03*
X369062Y762635D02*
D03*
X387858D02*
D03*
Y784860D02*
D03*
X369062D02*
D03*
X536702Y787400D02*
D03*
X555498D02*
D03*
X498602Y825500D02*
D03*
X517398D02*
D03*
X498602Y807720D02*
D03*
X517398D02*
D03*
D27*
X364320Y559560D02*
D03*
X357820D02*
D03*
X351320D02*
D03*
X344820D02*
D03*
X338320D02*
D03*
X331820D02*
D03*
X325320D02*
D03*
X318820D02*
D03*
X312320D02*
D03*
X305820D02*
D03*
X299320D02*
D03*
X292820D02*
D03*
Y502160D02*
D03*
X299320D02*
D03*
X305820D02*
D03*
X312320D02*
D03*
X318820D02*
D03*
X325320D02*
D03*
X331820D02*
D03*
X338320D02*
D03*
X344820D02*
D03*
X351320D02*
D03*
X357820D02*
D03*
X364320D02*
D03*
D28*
X222250Y558800D02*
D03*
D29*
X308610Y740410D02*
D03*
D30*
X391042Y701929D02*
D03*
X386041D02*
D03*
X381039D02*
D03*
X376038D02*
D03*
Y717931D02*
D03*
X381039D02*
D03*
X386041D02*
D03*
X391042D02*
D03*
D31*
X518560Y852610D02*
D03*
X568560D02*
D03*
X543560D02*
D03*
D32*
X469900Y831185D02*
D03*
Y870615D02*
D03*
D33*
X422910Y875030D02*
D03*
Y829310D02*
D03*
D34*
X304160Y866140D02*
D03*
X274960D02*
D03*
D35*
X221740Y666750D02*
D03*
X316740D02*
D03*
D36*
X467360Y457360D02*
D03*
Y413860D02*
D03*
Y374810D02*
D03*
Y331310D02*
D03*
D37*
X582820Y787400D02*
D03*
X600820D02*
D03*
M02*
